M48
;Layer_Color=9474304
;FILE_FORMAT=4:4
METRIC,LZ
;TYPE=PLATED
T1F00S00C0.3000
T2F00S00C0.7112
T3F00S00C0.9000
T4F00S00C1.4300
%
T01
X009375Y0039
X009525
X009675
X009825
X009975
X010125
X010275
X010425
X010575
X010725
X010875
X011025
X011175
X011325
X01095Y00375
X0108
X01065
X0105
X01035
X0102
X01005
X0099
X00975
X0096
X009975Y0036
X010125
X010275
X010425
X010575
X01215Y00435
X0123
X01245
X0124247Y00466926
X0122428Y004826
X01213604Y00474671
X012Y00495
X01263943Y00486992
X01275Y00465
X0129
X01305
X0132
X013275Y0048
X013125
X012975
X01305Y00495
X0132
X01335
X013425Y0051
X013275
X01335Y00525
X01301962Y00525362
X01318507Y00542612
X013125Y0057
X012975
X012825
X01275Y00585
X0129
X01305
X0132
X01352301Y00585559
X01341037Y00564437
X0129Y00555
X012825Y0054
X01282953Y00506353
X012825Y0045
X012675
X0126Y00585
X012
X01365Y00615
X0138
X013725Y0063
X013575
X013875Y0066
X014025
X01395Y00675
X0141
X014175Y0069
X014025
X0141Y00705
X014175Y0072
X014025
X0141Y00735
X01425
X014325Y0075
X014175
X014025
X0141Y00765
X01425
X0144
X014325Y0078
X014175
X014025
X013725
X0138176Y0076708
X013725Y0075
X0138176Y007366
X013725Y0072
X0138176Y0070612
X013725Y0069
X0135128Y0069596
X013275Y0069
Y0072
Y0075
Y0078
X0135128Y007874
Y0075692
Y0072644
X013275Y0066
X01185Y00585
X0117
X01155
X0114
X01125
X0111
X011175Y0057
X011325
X011475
X011625
X011775
Y0051
X011625
X011475
X011325
X011175
X011025
X0111Y00495
X01125
X0114
X01155
X0117
X01185
X01180513Y00474671
X01141438Y00474319
X01125Y00465
X0111
X01095
X0108
X01065
X0105
X01035
X0102
X01005
X0099
X00975
X0096
X00945
X0093
X009375Y0048
X009225
X009075
X008925
X00885Y00495
X009
X00915
X009075Y0051
X008925
X008775
X0087Y00525
X00885
X008775Y0054
X008625
X008475
X0084Y00555
X00855
X008625Y0057
X008475
X008325
X008175
X0081Y00585
X00825
X0084
X008325Y006
X008175
X008025
X00795Y00615
X0081
X008025Y0063
X00795Y00645
X00825
X0084836Y0064008
X008625Y0063
X0087Y00615
X0087578Y0058622
X00876143Y00561184
X00855Y00525
X008325Y0051
X008175
X008025
X00795Y00525
X0081
X008025Y0054
X00825Y00555
Y00495
X0084
X008475Y0048
X008625
X00855Y00465
X0084
X008325Y0048
X0081Y00495
X00795Y00465
X008025Y0045
X008175
X00825Y00435
X00885
X009
X009075Y0042
X009225
X0093Y00405
X00945Y00435
X0096
X00975
X0099
X01005
X0102
X01035
X0105
X01065
X0108
X01095
X0111
X011175Y0042
X011025
X010875
X010725
X010575
X010425
X010275
X010125
X009975
X009825
X009675
X008925
X0096Y00495
X00975
X0099
X01005
X0102
X01035
X0105
X01065
X010725Y0051
X010575
X010425
Y0054
X01035Y00555
X0103124Y0056388
X010425Y0057
X010575
X0105Y00585
X01065
X010725Y006
X010575
X010425
X01028186Y00599681
X01028158Y00594032
X01023077Y00588952
X01017998Y00583872
X01012917Y00578792
X01007838Y00583872
X01002757Y00588952
X00997678Y00594032
X00997618Y00599681
X01002282Y00604232
X01008294Y00604176
X01017734Y0060412
X01023522Y00604176
X01012917Y00599112
X009825Y006
X009675
X0096Y00615
X00975
X0099
X009825Y0063
X009675
X0097536Y0064923
Y0066548
X0098552
X0100076Y0069088
X009906Y0070612
X0098044Y007112
X009675Y0072
X0095504Y007366
X009652Y0075184
X0096Y00765
X0093648Y0076884
X0092964Y0077724
X00945652Y00780671
X0097136Y0078124
X0098044Y0077724
X009906Y007874
X01004345
X010125Y0078
X010275
X0102Y00765
X010275Y0075
X010125
X0102Y00735
X010275Y0072
X010425
X01035Y00705
X0105
X010575Y0069
X010725
Y0066
Y0063
X010575
X010425
X01035Y00615
X0105
X01065
X0105Y00555
X0102
X01005
X0099
X0099568Y0056388
X009825Y0057
X009675
X0096Y00585
X00975
Y00555
X0096
X00945
X00945151Y00573769
X0093472Y005842
Y0061468
Y0062992
Y0064516
X00918656
X009144Y0062992
Y006096
X0088392Y0064008
X0086868Y0068072
X008625Y0069
X008775
X008925
X009075
X00935632Y00696273
X009525Y0069
X00997781Y00718381
X010125Y0072
X0102Y00705
X010425Y0069
X01016Y0064516
X0098552Y007366
X009825Y0075
X009906Y00762
X0093472Y0075184
X0092484Y0075156
X0092456Y00762
X00916501Y00769181
X0086868Y007874
X00851329Y00766432
X0083312Y0074676
X008382Y007112
Y0069463
X00825Y00675
X00855
X008636Y0072644
X0081252Y0071092
X00805956Y0069215
X0080264Y0078812
X008128Y007874
X00795Y00585
X0093Y00525
X00945
X0096
X00975
X0099
X009975Y0051
X009825
X009675
X009525
X0108712Y0053848
X0113651Y00451437
X011475Y0042
X011625
X011775
X0117Y00435
X01185
X0117Y00405
X010875Y0072
X0108Y00735
X010875Y0075
X010725
X010575
X01065Y00765
X0108
X010875Y0078
X010725
X010575
X0079248Y0076592
Y007533
Y0074168
Y0072644
X0077312Y0074072
X0076708Y0075692
X0076538Y0077724
X00748661Y00767821
X0073846Y0076386
X007252Y0075568
X00730872Y00746112
X0072644Y0072644
X0072Y00705
X007275Y0069
Y0066
X007425
X00765Y00645
X0078
X007875Y0063
X007725
X007575
X00765Y00615
X0078
X007875Y006
X007725Y0057
X007575
X007425
X0075Y00585
Y00555
X00765
X0078
X007875Y0054
X007725
X0078Y00525
X007575Y0051
X007425
X007275
X0072Y00525
X00735
X007275Y0054
X007125
X00705Y00555
X007125Y0057
X006975
X007125Y006
X00705Y00615
X0069
X006975Y0063
X007125
X0069088Y0065024
X0069Y00675
X0066
X006525Y0069
X0067564Y0070612
X006375Y0072
X0063Y00735
X006375Y0075
X0065024Y0075692
X0066548Y0075184
X0069088Y0077216
X00690788Y00787308
X00714358Y00760078
X00735Y00495
X0075
X00765
X007725Y0048
X007875
X0078Y00465
X00765
X0075
X007575Y0048
X007425
X007875Y0045
X00787129Y00817609
X0074168Y0080772
X0071628Y008128
X0072644Y0082804
X0073152Y0085852
X00746902Y00878781
X00746859Y0089408
X00751737Y00918727
X0075184Y0094996
X00762Y0095504
X007425Y0096
X0075Y00975
X00753814Y0099032
X0072644Y0101092
X00735Y01035
X0075
X007575Y0105
X007425
X0078Y01065
X007874Y0102108
X00705Y00945
X0071628Y0092456
X007125Y009
X006975
X006825
X00705Y00885
X006975Y0087
X0069596Y0085344
X0068072Y0085852
X0070104Y008382
X0069088Y00801719
X00796076Y0080772
X00819364Y0081788
X008325Y0081
X00835963Y00825197
X00855Y00825
X0086647Y0082075
X0087376Y0083312
X00889Y0081788
X0088392Y0080264
X0089916Y0080772
X0090932
X0094996Y0081788
Y008382
X00956524Y00868278
X0097028Y008636
X0098552
X00979009Y00881085
X00943396Y00881888
X0094996Y0090162
X00942574Y0091908
X009652Y0093666
X00971411Y00948829
X009525Y0096
X00945Y00975
Y01005
X0096
X00975
X0099
X0100584Y01016
X0099Y01035
X00975
X009825Y0105
X009975
X010125
X010275
X010425
X01035Y01065
X0105
X010575Y0108
X010725
X01065Y01095
X0108
X01095
X0111
X01125
X0114
X01155
X0117
X01185
X011775Y0111
Y0108
X011625
X0117Y01065
X0114
X01125
X0112776Y0107696
X0111Y01065
X01095
X011025Y0105
X011175
X011325
X01125Y01035
X0114
X01155
X011625Y0102
X011775
X0117Y01005
X01185
X011775Y0099
X011625
X011475
X011325
X011175
X01125Y01005
X0114
X01155
X011475Y0102
X011325
X0112268Y0102108
X0111Y01035
X010875Y0105
X010725
X01065Y01035
X010725Y0102
X010575
X0105Y01005
X01065
X0108
X01095
X010922Y0098044
X0110744Y0097536
X0112776
X0115316
X011684Y0098044
X01185Y00975
Y01035
X011325Y0111
X011175
X011025
X010875
X010725
X010575
X010425
X010275
X010125
X009975
X009825
X009675
X009525
X009375
X0093Y01125
X00945
X0096
X00975
X0099
X01005
X0102
X01035
X0105
X01065
X0108
X01095
X0111
X01125
X0114
X011025Y0114
X010875
X010725
X010575
X010425
X010275
X010125
X009975
X009825
X009675
X0096Y01095
X00975
X0099
X01005
X0102
X01035
X0105
X010425Y0108
X010275
X010125
X009975
X009825
X009675
X009525
X00945Y01095
X0093
X00915
X00885
X008925Y0108
X008775
X008475
X008325
X008175
X00820329Y01039308
X00800008
X0080772Y0102108
X0082804
X0084836
X0086868
X00889
X0090932
X0092964
X009375Y0105
X009525
X009675
X0096Y01065
X00975
X0099
X01005
X0102
X01035Y01005
X0103124Y0097536
X01033341Y00962221
X0101092Y0096012
X0100584Y0097536
X0105156
X0107696
X0107188Y0092456
X0105156Y0092964
X0105664Y00914056
X0103632Y009144
X0102108Y00917132
Y0087884
X0101092Y0085852
Y008382
X0100584Y0082296
Y0080264
X0103124Y0079756
Y0082296
Y0084836
X010575Y0084
X010725
X010875
X0108Y00855
X01065
Y00825
X0108
X010875Y0081
X010725
X010575
X01065Y00795
X0108
X0108204Y00907492
X0110744Y00925028
X00997863Y00845463
X0098858Y0083618
X0095631Y00794324
X0091948Y0085912
X00882436Y0087884
Y00889
X0086868Y00879717
X008625Y009
X008475
X0084Y00885
X00825
X008128Y00875644
Y00862516
X0079756Y0085852
X008025Y0084
X0084328Y0084328
Y008636
X0085344Y0085852
X0083312Y0085344
X00825Y00795
X0082804Y00916475
X00813391Y00909911
X00801569Y00903169
X008025Y0093
X008175
X00893776Y00914703
X00892596Y0090424
X0090932Y0093472
X00881289Y01039308
X00860968
X00840648
X0093Y01065
X00945
X01005Y01155
X0102
X01035
X0105
X01065
X011925Y0108
X0120904Y0106172
X012225Y0105
X0123444Y0103632
X012525Y0102
X0123Y01005
X01215
X012
X012075Y0102
X011925
X012Y01035
X012075Y0099
X012225
X012375
X0123Y00975
X01245
X0126
X012525Y0096
X012375
Y0093
X012525
X012825Y0096
X0129032Y0098552
X0127508Y0100076
X01305Y01005
X0132
X01335
X013425Y0099
X013275
X01335Y00975
X0135
X013575Y0096
X0135Y00945
X01365
X013575Y0093
X0135Y00915
X013575Y009
X013725
X01365Y00885
X0135128Y00889
X013725Y0087
X0138176Y0085852
X013725Y0084
X0138176Y0082804
X013725Y0081
X0138176Y0079756
X0141Y00795
X01425
X014175Y0081
X014025
X0141Y00825
X014025Y0084
X0135128Y0084836
Y0081788
X013275Y0081
Y0084
X0132588Y0094996
X0130556Y0097028
X013125Y0102
X013275
X0132Y01035
X01305
X0129
X01275
X012825Y0105
X012975
X013125
X012975Y0102
X012675Y0105
X0126Y01065
X01275
X01245
X012525Y0108
X012375
X0122428Y010922
X01215Y00975
X012
X012075Y0096
X011925Y0099
T02
X0108712Y0067564
T03
X0108712Y0050298
Y0057398
X01141884Y00550799
Y005254
X0105156Y0065532
X0102616
X0100076
X0078232Y0067564
X0075692
X0098552Y0090932
Y0093472
X010414Y0094488
X010668
X010922
X011176
X01143
X011684
X010414Y0089408
Y0086868
X011938Y0094488
X012192
X012446
X0127
X012954
T04
X0063697Y00772566
X00667202Y00845553
M30
