G04*
G04 #@! TF.GenerationSoftware,Altium Limited,Altium Designer,21.4.1 (30)*
G04*
G04 Layer_Color=16711935*
%FSLAX44Y44*%
%MOMM*%
G71*
G04*
G04 #@! TF.SameCoordinates,F062A0B2-1153-48B6-B7C1-D9BF76563F52*
G04*
G04*
G04 #@! TF.FilePolarity,Negative*
G04*
G01*
G75*
%ADD74R,1.5760X1.5760*%
%ADD75C,1.5760*%
%ADD76C,2.2210*%
%ADD77R,1.5760X1.5760*%
D74*
X1295400Y944880D02*
D03*
X1051560Y655320D02*
D03*
X782320Y675640D02*
D03*
D75*
X1270000Y944880D02*
D03*
X1244600D02*
D03*
X1219200D02*
D03*
X1193800D02*
D03*
X1087120Y502980D02*
D03*
X1026160Y655320D02*
D03*
X1000760D02*
D03*
X1041400Y944880D02*
D03*
X1066800D02*
D03*
X1092200D02*
D03*
X1117600D02*
D03*
X1143000D02*
D03*
X1168400D02*
D03*
X1141884Y525400D02*
D03*
X756920Y675640D02*
D03*
X1041400Y894080D02*
D03*
X985520Y934720D02*
D03*
D76*
X667202Y845553D02*
D03*
X636970Y772566D02*
D03*
D77*
X1087120Y573980D02*
D03*
X1141884Y550799D02*
D03*
X1041400Y868680D02*
D03*
X985520Y909320D02*
D03*
M02*
