G04*
G04 #@! TF.GenerationSoftware,Altium Limited,Altium Designer,21.4.1 (30)*
G04*
G04 Layer_Physical_Order=1*
G04 Layer_Color=255*
%FSLAX44Y44*%
%MOMM*%
G71*
G04*
G04 #@! TF.SameCoordinates,F062A0B2-1153-48B6-B7C1-D9BF76563F52*
G04*
G04*
G04 #@! TF.FilePolarity,Positive*
G04*
G01*
G75*
%ADD12C,0.2540*%
%ADD16R,0.9000X0.8000*%
%ADD17R,2.5000X1.0000*%
%ADD18R,1.0000X1.8000*%
%ADD19R,0.9000X0.7000*%
G04:AMPARAMS|DCode=20|XSize=0.9mm|YSize=0.8mm|CornerRadius=0mm|HoleSize=0mm|Usage=FLASHONLY|Rotation=112.500|XOffset=0mm|YOffset=0mm|HoleType=Round|Shape=Rectangle|*
%AMROTATEDRECTD20*
4,1,4,0.5418,-0.2627,-0.1974,-0.5688,-0.5418,0.2627,0.1974,0.5688,0.5418,-0.2627,0.0*
%
%ADD20ROTATEDRECTD20*%

G04:AMPARAMS|DCode=21|XSize=0.9mm|YSize=0.8mm|CornerRadius=0mm|HoleSize=0mm|Usage=FLASHONLY|Rotation=157.500|XOffset=0mm|YOffset=0mm|HoleType=Round|Shape=Rectangle|*
%AMROTATEDRECTD21*
4,1,4,0.5688,0.1974,0.2627,-0.5418,-0.5688,-0.1974,-0.2627,0.5418,0.5688,0.1974,0.0*
%
%ADD21ROTATEDRECTD21*%

G04:AMPARAMS|DCode=22|XSize=0.9mm|YSize=0.8mm|CornerRadius=0mm|HoleSize=0mm|Usage=FLASHONLY|Rotation=202.500|XOffset=0mm|YOffset=0mm|HoleType=Round|Shape=Rectangle|*
%AMROTATEDRECTD22*
4,1,4,0.2627,0.5418,0.5688,-0.1974,-0.2627,-0.5418,-0.5688,0.1974,0.2627,0.5418,0.0*
%
%ADD22ROTATEDRECTD22*%

G04:AMPARAMS|DCode=23|XSize=0.9mm|YSize=0.8mm|CornerRadius=0mm|HoleSize=0mm|Usage=FLASHONLY|Rotation=247.500|XOffset=0mm|YOffset=0mm|HoleType=Round|Shape=Rectangle|*
%AMROTATEDRECTD23*
4,1,4,-0.1974,0.5688,0.5418,0.2627,0.1974,-0.5688,-0.5418,-0.2627,-0.1974,0.5688,0.0*
%
%ADD23ROTATEDRECTD23*%

G04:AMPARAMS|DCode=24|XSize=1.5mm|YSize=0.9mm|CornerRadius=0mm|HoleSize=0mm|Usage=FLASHONLY|Rotation=202.500|XOffset=0mm|YOffset=0mm|HoleType=Round|Shape=Rectangle|*
%AMROTATEDRECTD24*
4,1,4,0.5207,0.7028,0.8651,-0.1287,-0.5207,-0.7028,-0.8651,0.1287,0.5207,0.7028,0.0*
%
%ADD24ROTATEDRECTD24*%

G04:AMPARAMS|DCode=25|XSize=1.5mm|YSize=0.9mm|CornerRadius=0mm|HoleSize=0mm|Usage=FLASHONLY|Rotation=247.500|XOffset=0mm|YOffset=0mm|HoleType=Round|Shape=Rectangle|*
%AMROTATEDRECTD25*
4,1,4,-0.1287,0.8651,0.7028,0.5207,0.1287,-0.8651,-0.7028,-0.5207,-0.1287,0.8651,0.0*
%
%ADD25ROTATEDRECTD25*%

G04:AMPARAMS|DCode=26|XSize=1.5mm|YSize=0.9mm|CornerRadius=0mm|HoleSize=0mm|Usage=FLASHONLY|Rotation=292.500|XOffset=0mm|YOffset=0mm|HoleType=Round|Shape=Rectangle|*
%AMROTATEDRECTD26*
4,1,4,-0.7028,0.5207,0.1287,0.8651,0.7028,-0.5207,-0.1287,-0.8651,-0.7028,0.5207,0.0*
%
%ADD26ROTATEDRECTD26*%

G04:AMPARAMS|DCode=27|XSize=1.5mm|YSize=0.9mm|CornerRadius=0mm|HoleSize=0mm|Usage=FLASHONLY|Rotation=337.500|XOffset=0mm|YOffset=0mm|HoleType=Round|Shape=Rectangle|*
%AMROTATEDRECTD27*
4,1,4,-0.8651,-0.1287,-0.5207,0.7028,0.8651,0.1287,0.5207,-0.7028,-0.8651,-0.1287,0.0*
%
%ADD27ROTATEDRECTD27*%

%ADD28R,0.8000X0.9000*%
G04:AMPARAMS|DCode=29|XSize=1.9mm|YSize=0.875mm|CornerRadius=0mm|HoleSize=0mm|Usage=FLASHONLY|Rotation=157.500|XOffset=0mm|YOffset=0mm|HoleType=Round|Shape=Rectangle|*
%AMROTATEDRECTD29*
4,1,4,1.0451,0.0406,0.7103,-0.7678,-1.0451,-0.0406,-0.7103,0.7678,1.0451,0.0406,0.0*
%
%ADD29ROTATEDRECTD29*%

G04:AMPARAMS|DCode=30|XSize=1.55mm|YSize=1.425mm|CornerRadius=0mm|HoleSize=0mm|Usage=FLASHONLY|Rotation=157.500|XOffset=0mm|YOffset=0mm|HoleType=Round|Shape=Rectangle|*
%AMROTATEDRECTD30*
4,1,4,0.9887,0.3617,0.4433,-0.9548,-0.9887,-0.3617,-0.4433,0.9548,0.9887,0.3617,0.0*
%
%ADD30ROTATEDRECTD30*%

G04:AMPARAMS|DCode=31|XSize=1.38mm|YSize=0.45mm|CornerRadius=0mm|HoleSize=0mm|Usage=FLASHONLY|Rotation=157.500|XOffset=0mm|YOffset=0mm|HoleType=Round|Shape=Rectangle|*
%AMROTATEDRECTD31*
4,1,4,0.7236,-0.0562,0.5514,-0.4719,-0.7236,0.0562,-0.5514,0.4719,0.7236,-0.0562,0.0*
%
%ADD31ROTATEDRECTD31*%

%ADD32R,1.2000X0.7500*%
%ADD33R,0.3500X0.6000*%
%ADD34R,1.4500X1.1000*%
%ADD35R,1.0000X0.9000*%
%ADD36R,1.2500X0.6500*%
%ADD37R,1.4000X0.6000*%
%ADD38R,0.9000X0.9500*%
%ADD39R,0.6000X1.0500*%
%ADD40R,1.0500X0.6000*%
%ADD41R,1.0000X0.7000*%
G04:AMPARAMS|DCode=42|XSize=1.31mm|YSize=0.62mm|CornerRadius=0.0775mm|HoleSize=0mm|Usage=FLASHONLY|Rotation=270.000|XOffset=0mm|YOffset=0mm|HoleType=Round|Shape=RoundedRectangle|*
%AMROUNDEDRECTD42*
21,1,1.3100,0.4650,0,0,270.0*
21,1,1.1550,0.6200,0,0,270.0*
1,1,0.1550,-0.2325,-0.5775*
1,1,0.1550,-0.2325,0.5775*
1,1,0.1550,0.2325,0.5775*
1,1,0.1550,0.2325,-0.5775*
%
%ADD42ROUNDEDRECTD42*%
%ADD43R,0.4000X2.0000*%
%ADD44R,0.7000X0.9000*%
%ADD78C,0.3048*%
%ADD79C,0.2540*%
%ADD80C,0.5080*%
%ADD81C,0.6350*%
%ADD82R,1.5000X1.5000*%
%ADD83C,1.5000*%
%ADD84C,2.1450*%
%ADD85R,1.5000X1.5000*%
%ADD86C,0.5000*%
%ADD87C,1.2700*%
G36*
X1329019Y1054698D02*
X1451836Y758190D01*
X1329019Y461682D01*
X1032510Y338864D01*
X736002Y461682D01*
X613184Y758190D01*
X736002Y1054698D01*
X1032510Y1177516D01*
X1329019Y1054698D01*
D02*
G37*
%LPC*%
G36*
X1149945Y1118788D02*
X1148031Y1114168D01*
X1155422Y1111107D01*
X1157336Y1115726D01*
X1149945Y1118788D01*
D02*
G37*
G36*
X1160107Y1114578D02*
X1158194Y1109959D01*
X1165585Y1106898D01*
X1167498Y1111517D01*
X1160107Y1114578D01*
D02*
G37*
G36*
X1146883Y1111397D02*
X1144970Y1106777D01*
X1152361Y1103716D01*
X1154274Y1108335D01*
X1146883Y1111397D01*
D02*
G37*
G36*
X1157046Y1107187D02*
X1155132Y1102568D01*
X1162523Y1099507D01*
X1164437Y1104126D01*
X1157046Y1107187D01*
D02*
G37*
G36*
X916057Y1119598D02*
X897506Y1111914D01*
X902894Y1098906D01*
X921445Y1106590D01*
X916057Y1119598D01*
D02*
G37*
G36*
X870495Y1100142D02*
X863104Y1097080D01*
X865017Y1092461D01*
X872408Y1095522D01*
X870495Y1100142D01*
D02*
G37*
G36*
X860332Y1095932D02*
X852941Y1092870D01*
X854855Y1088251D01*
X862246Y1091313D01*
X860332Y1095932D01*
D02*
G37*
G36*
X873556Y1092750D02*
X866165Y1089689D01*
X868079Y1085070D01*
X875470Y1088131D01*
X873556Y1092750D01*
D02*
G37*
G36*
X863394Y1088541D02*
X856003Y1085480D01*
X857916Y1080860D01*
X865307Y1083922D01*
X863394Y1088541D01*
D02*
G37*
G36*
X1137024Y1089005D02*
X1134618Y1083198D01*
X1130382D01*
X1128796Y1082882D01*
X1127566Y1082060D01*
X1125794Y1081708D01*
X1124126Y1080594D01*
X1123012Y1078926D01*
X1122621Y1076960D01*
X1123012Y1074994D01*
X1124126Y1073326D01*
X1125794Y1072212D01*
X1127760Y1071821D01*
X1129726Y1072212D01*
X1131394Y1073326D01*
X1132452Y1074910D01*
X1134259D01*
X1150187Y1068313D01*
X1155575Y1081321D01*
X1137024Y1089005D01*
D02*
G37*
G36*
X1148717Y1062540D02*
X1146804Y1057921D01*
X1150961Y1056199D01*
X1152875Y1060818D01*
X1148717Y1062540D01*
D02*
G37*
G36*
X1155646Y1059670D02*
X1153733Y1055051D01*
X1157890Y1053328D01*
X1159803Y1057948D01*
X1155646Y1059670D01*
D02*
G37*
G36*
X1145656Y1055149D02*
X1143742Y1050530D01*
X1147900Y1048808D01*
X1149813Y1053427D01*
X1145656Y1055149D01*
D02*
G37*
G36*
X1152585Y1052279D02*
X1150671Y1047660D01*
X1154829Y1045938D01*
X1156742Y1050557D01*
X1152585Y1052279D01*
D02*
G37*
G36*
X908970Y1049791D02*
X904813Y1048069D01*
X906726Y1043450D01*
X910883Y1045172D01*
X908970Y1049791D01*
D02*
G37*
G36*
X902041Y1046921D02*
X897884Y1045199D01*
X899797Y1040580D01*
X903954Y1042302D01*
X902041Y1046921D01*
D02*
G37*
G36*
X1098720Y1034920D02*
X1093220D01*
Y1030920D01*
X1098720D01*
Y1034920D01*
D02*
G37*
G36*
X1090220D02*
X1084720D01*
Y1030920D01*
X1090220D01*
Y1034920D01*
D02*
G37*
G36*
X1038720D02*
X1033220D01*
Y1030920D01*
X1038720D01*
Y1034920D01*
D02*
G37*
G36*
X1030220D02*
X1024720D01*
Y1030920D01*
X1030220D01*
Y1034920D01*
D02*
G37*
G36*
X1017440D02*
X1011940D01*
Y1030920D01*
X1017440D01*
Y1034920D01*
D02*
G37*
G36*
X1008940D02*
X1003440D01*
Y1030920D01*
X1008940D01*
Y1034920D01*
D02*
G37*
G36*
X957440D02*
X951940D01*
Y1030920D01*
X957440D01*
Y1034920D01*
D02*
G37*
G36*
X948940D02*
X943440D01*
Y1030920D01*
X948940D01*
Y1034920D01*
D02*
G37*
G36*
X1098720Y1027920D02*
X1093220D01*
Y1023920D01*
X1098720D01*
Y1027920D01*
D02*
G37*
G36*
X1090220D02*
X1084720D01*
Y1023920D01*
X1090220D01*
Y1027920D01*
D02*
G37*
G36*
X1038720D02*
X1033220D01*
Y1023920D01*
X1038720D01*
Y1027920D01*
D02*
G37*
G36*
X1030220D02*
X1024720D01*
Y1023920D01*
X1030220D01*
Y1027920D01*
D02*
G37*
G36*
X1017440D02*
X1011940D01*
Y1023920D01*
X1017440D01*
Y1027920D01*
D02*
G37*
G36*
X1008940D02*
X1003440D01*
Y1023920D01*
X1008940D01*
Y1027920D01*
D02*
G37*
G36*
X957440D02*
X951940D01*
Y1023920D01*
X957440D01*
Y1027920D01*
D02*
G37*
G36*
X948940D02*
X943440D01*
Y1023920D01*
X948940D01*
Y1027920D01*
D02*
G37*
G36*
X1113940Y1023920D02*
X1108940D01*
Y1019420D01*
X1113940D01*
Y1023920D01*
D02*
G37*
G36*
X1105940D02*
X1100940D01*
Y1019420D01*
X1105940D01*
Y1023920D01*
D02*
G37*
G36*
X1113940Y1016420D02*
X1108940D01*
Y1011920D01*
X1113940D01*
Y1016420D01*
D02*
G37*
G36*
X1105940D02*
X1100940D01*
Y1011920D01*
X1105940D01*
Y1016420D01*
D02*
G37*
G36*
X1005840Y1021139D02*
X1003874Y1020748D01*
X1002206Y1019634D01*
X1001092Y1017967D01*
X1000701Y1016000D01*
X1001092Y1014034D01*
X1002206Y1012366D01*
X1003874Y1011252D01*
X1005840Y1010861D01*
X1007157Y1011123D01*
X1024154Y994126D01*
X1024180Y993996D01*
Y986380D01*
X1039260D01*
Y988276D01*
X1084180D01*
Y986380D01*
X1099260D01*
Y992600D01*
X1103960Y997300D01*
X1104964D01*
X1105364Y997380D01*
X1114480D01*
Y1010460D01*
X1100400D01*
Y1005100D01*
X1099314Y1004374D01*
X1093400Y998460D01*
X1084180D01*
Y996564D01*
X1039260D01*
Y998460D01*
X1031419D01*
X1031174Y998826D01*
X1011443Y1018557D01*
X1010099Y1019455D01*
X1009516Y1019571D01*
X1009474Y1019634D01*
X1007806Y1020748D01*
X1005840Y1021139D01*
D02*
G37*
G36*
X993440Y981860D02*
X988940D01*
Y976860D01*
X993440D01*
Y981860D01*
D02*
G37*
G36*
X985940D02*
X981440D01*
Y976860D01*
X985940D01*
Y981860D01*
D02*
G37*
G36*
X993440Y973860D02*
X988940D01*
Y968860D01*
X993440D01*
Y973860D01*
D02*
G37*
G36*
X985940D02*
X981440D01*
Y968860D01*
X985940D01*
Y973860D01*
D02*
G37*
G36*
X1194922Y1100742D02*
X1189534Y1087734D01*
X1204780Y1081419D01*
X1333085Y953113D01*
Y937443D01*
X1331815Y937057D01*
X1331508Y937518D01*
X1320483Y948542D01*
X1269747Y999278D01*
X1268067Y1000401D01*
X1266085Y1000795D01*
X1256936D01*
X1199181Y1058551D01*
X1200845Y1062570D01*
X1182294Y1070254D01*
X1176906Y1057246D01*
X1177178Y1057133D01*
X1177426Y1055887D01*
X1175599Y1054061D01*
X1170599D01*
X1161359Y1057888D01*
X1155971Y1044880D01*
X1168055Y1039874D01*
X1169641Y1043702D01*
X1177745D01*
X1179727Y1044096D01*
X1181407Y1045219D01*
X1188593Y1052405D01*
X1192151Y1050931D01*
X1251129Y991953D01*
X1252809Y990831D01*
X1254791Y990436D01*
X1254791Y990436D01*
X1263939D01*
X1298282Y956093D01*
X1297796Y954920D01*
X1285360D01*
Y934840D01*
X1305440D01*
Y939700D01*
X1314675D01*
X1322666Y931710D01*
Y895128D01*
X1323060Y893146D01*
X1324183Y891466D01*
X1327930Y887719D01*
X1327682Y886473D01*
X1327371Y886344D01*
X1329667Y880801D01*
X1331963Y875258D01*
X1335353Y876662D01*
X1335519Y876525D01*
X1335302Y875061D01*
X1324632Y870641D01*
X1329637Y858557D01*
X1338224Y862113D01*
X1349369D01*
X1350571Y860912D01*
X1354133Y852312D01*
Y674472D01*
X1340204Y660544D01*
X1339082Y658864D01*
X1338687Y656881D01*
Y652093D01*
X1337632Y651388D01*
X1337321Y651516D01*
X1335025Y645973D01*
X1332729Y640430D01*
X1334162Y639836D01*
X1334194Y639617D01*
X1333043Y638719D01*
X1324280Y642349D01*
X1319709Y631315D01*
X1319583Y631010D01*
X1318782Y631169D01*
X1318313Y632251D01*
Y914400D01*
X1318116Y915392D01*
X1317554Y916234D01*
X1316712Y916796D01*
X1315720Y916993D01*
X1214423D01*
X1213937Y918166D01*
X1234244Y938474D01*
X1236860D01*
X1237439Y937719D01*
X1239537Y936110D01*
X1241979Y935098D01*
X1244600Y934753D01*
X1247221Y935098D01*
X1249663Y936110D01*
X1251761Y937719D01*
X1253370Y939817D01*
X1254382Y942259D01*
X1254727Y944880D01*
X1254382Y947501D01*
X1253370Y949943D01*
X1251761Y952041D01*
X1249663Y953650D01*
X1247221Y954662D01*
X1244600Y955007D01*
X1241979Y954662D01*
X1239537Y953650D01*
X1237439Y952041D01*
X1235830Y949943D01*
X1234818Y947501D01*
X1234721Y946761D01*
X1232528D01*
X1230942Y946446D01*
X1230445Y946114D01*
X1229083Y946731D01*
X1228982Y947501D01*
X1227970Y949943D01*
X1226361Y952041D01*
X1224263Y953650D01*
X1221821Y954662D01*
X1219200Y955007D01*
X1216579Y954662D01*
X1214137Y953650D01*
X1212039Y952041D01*
X1210430Y949943D01*
X1209418Y947501D01*
X1209073Y944880D01*
X1209418Y942259D01*
X1209799Y941339D01*
X1197632Y929172D01*
X1110310D01*
X1109853Y929477D01*
X1109528Y930948D01*
X1114059Y935479D01*
X1114979Y935098D01*
X1117600Y934753D01*
X1120221Y935098D01*
X1122663Y936110D01*
X1124761Y937719D01*
X1126370Y939817D01*
X1127382Y942259D01*
X1127727Y944880D01*
X1127382Y947501D01*
X1126370Y949943D01*
X1124761Y952041D01*
X1122663Y953650D01*
X1120221Y954662D01*
X1117600Y955007D01*
X1114979Y954662D01*
X1112537Y953650D01*
X1110439Y952041D01*
X1108830Y949943D01*
X1107818Y947501D01*
X1107473Y944880D01*
X1107818Y942259D01*
X1108199Y941339D01*
X1095564Y928704D01*
X1074750D01*
X1074223Y929056D01*
X1073870Y930499D01*
X1081844Y938474D01*
X1084460D01*
X1085039Y937719D01*
X1087137Y936110D01*
X1089579Y935098D01*
X1092200Y934753D01*
X1094821Y935098D01*
X1097263Y936110D01*
X1099361Y937719D01*
X1100970Y939817D01*
X1101982Y942259D01*
X1102327Y944880D01*
X1101982Y947501D01*
X1100970Y949943D01*
X1099361Y952041D01*
X1097263Y953650D01*
X1094821Y954662D01*
X1092200Y955007D01*
X1089579Y954662D01*
X1087137Y953650D01*
X1085039Y952041D01*
X1083430Y949943D01*
X1082418Y947501D01*
X1082321Y946761D01*
X1080128D01*
X1078542Y946446D01*
X1078045Y946114D01*
X1076683Y946731D01*
X1076582Y947501D01*
X1075570Y949943D01*
X1073961Y952041D01*
X1071863Y953650D01*
X1069421Y954662D01*
X1066800Y955007D01*
X1064179Y954662D01*
X1061737Y953650D01*
X1059639Y952041D01*
X1058030Y949943D01*
X1057018Y947501D01*
X1056673Y944880D01*
X1057018Y942259D01*
X1058030Y939817D01*
X1059639Y937719D01*
X1061737Y936110D01*
X1064179Y935098D01*
X1065026Y934987D01*
X1065435Y933784D01*
X1056821Y925170D01*
X1056181Y925270D01*
X1055620Y926644D01*
X1056308Y927673D01*
X1056699Y929640D01*
X1056308Y931607D01*
X1055194Y933274D01*
X1053527Y934388D01*
X1051560Y934779D01*
X1049594Y934388D01*
X1047926Y933274D01*
X1046812Y931607D01*
X1046600Y930540D01*
X1043900Y927840D01*
X994331D01*
X993770Y928979D01*
X994290Y929657D01*
X995302Y932099D01*
X995647Y934720D01*
X995302Y937341D01*
X994290Y939783D01*
X992681Y941881D01*
X990681Y943415D01*
X990678Y943555D01*
X991484Y944685D01*
X1031299D01*
X1031618Y942259D01*
X1032630Y939817D01*
X1034239Y937719D01*
X1036337Y936110D01*
X1038779Y935098D01*
X1041400Y934753D01*
X1044021Y935098D01*
X1046463Y936110D01*
X1048561Y937719D01*
X1050170Y939817D01*
X1051182Y942259D01*
X1051527Y944880D01*
X1051182Y947501D01*
X1050170Y949943D01*
X1048561Y952041D01*
X1046463Y953650D01*
X1044021Y954662D01*
X1041400Y955007D01*
X1038779Y954662D01*
X1036337Y953650D01*
X1035199Y952777D01*
X1034217Y952972D01*
X974282D01*
X974070Y953114D01*
X973840Y954680D01*
X976370Y957210D01*
X977268Y958554D01*
X977584Y960140D01*
Y968320D01*
X979980D01*
Y982400D01*
X971365D01*
X970964Y982480D01*
X967740D01*
X963117Y987103D01*
X963603Y988276D01*
X1002900D01*
Y986380D01*
X1017980D01*
Y998460D01*
X1002900D01*
Y996564D01*
X957980D01*
Y998460D01*
X942900D01*
Y986380D01*
X952120D01*
X963094Y975406D01*
X964438Y974508D01*
X966024Y974192D01*
X966900D01*
Y968320D01*
X969296D01*
Y961856D01*
X961917Y954477D01*
X961019Y953133D01*
X960704Y951547D01*
Y939003D01*
X960452Y938626D01*
X960061Y936660D01*
X960286Y935529D01*
X959331Y934259D01*
X944480D01*
Y936620D01*
X936824D01*
X936439Y937890D01*
X936553Y937967D01*
X937116Y938808D01*
X937313Y939800D01*
Y1016000D01*
X937116Y1016992D01*
X936553Y1017833D01*
X935712Y1018396D01*
X934720Y1018593D01*
X773714D01*
X773188Y1019863D01*
X796591Y1043266D01*
X887952D01*
X889934Y1043660D01*
X891615Y1044783D01*
X895361Y1048530D01*
X896607Y1048282D01*
X896736Y1047971D01*
X902279Y1050267D01*
X907822Y1052563D01*
X906418Y1055953D01*
X906555Y1056119D01*
X908019Y1055902D01*
X912439Y1045232D01*
X924523Y1050237D01*
X920967Y1058824D01*
Y1069969D01*
X922168Y1071171D01*
X934074Y1076102D01*
X928686Y1089110D01*
X910134Y1081426D01*
X911869Y1077238D01*
X911147Y1076755D01*
X898680Y1064289D01*
X898616D01*
X896634Y1063895D01*
X894954Y1062772D01*
X889977Y1057795D01*
X888491Y1058105D01*
X883416Y1070359D01*
X868170Y1064044D01*
X794705D01*
X794705Y1064044D01*
X792723Y1063650D01*
X791042Y1062527D01*
X712617Y984102D01*
X711495Y982422D01*
X711100Y980440D01*
Y942765D01*
X700269Y931934D01*
X695102Y934074D01*
X687418Y915522D01*
X700426Y910134D01*
X705593Y922608D01*
X719942Y936957D01*
X721065Y938638D01*
X721460Y940620D01*
Y978295D01*
X723047Y979883D01*
X724221Y979397D01*
Y918139D01*
X717906Y902894D01*
X721925Y901229D01*
Y882166D01*
X717406Y877647D01*
X716283Y875967D01*
X715889Y873985D01*
Y873570D01*
X714833Y872864D01*
X706839Y876175D01*
X701907Y864270D01*
X696257Y858620D01*
X695960D01*
X693978Y858225D01*
X692298Y857103D01*
X691175Y855422D01*
X690780Y853440D01*
X691175Y851458D01*
X692298Y849778D01*
X693978Y848655D01*
X695960Y848260D01*
X698403D01*
X700385Y848655D01*
X702065Y849778D01*
X706761Y854473D01*
X707987Y853965D01*
X708235Y852720D01*
X697377Y841862D01*
X696255Y840182D01*
X695861Y838200D01*
X696255Y836218D01*
X697377Y834538D01*
X699058Y833415D01*
X700900Y833048D01*
Y827610D01*
X698629Y825339D01*
X697553Y826059D01*
X697893Y826881D01*
X690272Y830039D01*
X686779Y821608D01*
X685394Y822182D01*
X684820Y820796D01*
X675812Y824528D01*
X672894Y817483D01*
X673966Y817039D01*
X671531Y811162D01*
X671082Y810078D01*
X670633Y808994D01*
X669044Y805156D01*
X668595Y804072D01*
X668146Y802988D01*
X666556Y799151D01*
X666107Y798067D01*
X665658Y796983D01*
X663620Y792062D01*
X664119Y791855D01*
X664038Y791661D01*
X672261Y788255D01*
X680483Y784849D01*
X680564Y785043D01*
X681062Y784837D01*
X683463Y790631D01*
X684679Y791112D01*
X685698Y790653D01*
X686096Y789357D01*
X686041Y789275D01*
X685649Y787308D01*
X686041Y785342D01*
X687154Y783674D01*
X688822Y782561D01*
X689782Y782370D01*
X709809Y762342D01*
X709611Y762045D01*
X709219Y760078D01*
X709262Y759862D01*
X708457Y758880D01*
X696420D01*
Y744800D01*
X697781D01*
Y738340D01*
X698073Y736868D01*
X696903Y736243D01*
X694353Y738792D01*
X692673Y739915D01*
X692250Y739999D01*
Y741630D01*
X685600D01*
Y745340D01*
X687460D01*
Y751840D01*
X688960D01*
D01*
X687460D01*
Y758340D01*
X685733D01*
X685655Y759610D01*
X694542Y768497D01*
X695665Y770178D01*
X696059Y772160D01*
X695665Y774142D01*
X694542Y775823D01*
X692862Y776945D01*
X690880Y777339D01*
X688898Y776945D01*
X687217Y775823D01*
X676758Y765362D01*
X675635Y763682D01*
X675240Y761700D01*
Y741630D01*
X674670D01*
Y730050D01*
X675210D01*
Y727940D01*
X683460D01*
Y724940D01*
X675210D01*
Y724411D01*
X673940Y723885D01*
X672520Y725305D01*
Y730060D01*
X658440D01*
Y717980D01*
X665195D01*
X669088Y714088D01*
X670768Y712965D01*
X672750Y712570D01*
X672750Y712570D01*
X674670D01*
Y711250D01*
X683781D01*
Y708080D01*
X682420D01*
Y694000D01*
X687259D01*
X688230Y693029D01*
X688402Y692167D01*
X689665Y690276D01*
X704301Y675640D01*
X704127Y675467D01*
X702864Y673576D01*
X702421Y671346D01*
Y660842D01*
X699050Y659446D01*
X706734Y640894D01*
X710752Y642559D01*
X728951Y624360D01*
Y624296D01*
X729345Y622314D01*
X730399Y620737D01*
X730425Y620491D01*
X730054Y619251D01*
X717801Y614176D01*
X724116Y598931D01*
Y558581D01*
X724510Y556599D01*
X725633Y554919D01*
X855751Y424801D01*
X854086Y420782D01*
X872637Y413098D01*
X878026Y426106D01*
X862781Y432421D01*
X734475Y560727D01*
Y599348D01*
X738493Y601012D01*
X731564Y617742D01*
X732641Y618461D01*
X872357Y478745D01*
Y464448D01*
X872103Y464278D01*
X872103D01*
X866715Y451270D01*
X885266Y443586D01*
X886931Y447605D01*
X905994D01*
X907888Y445710D01*
X909568Y444588D01*
X911551Y444193D01*
X915677D01*
X916383Y443138D01*
X911985Y432519D01*
X927230Y426204D01*
X953657Y399777D01*
X955337Y398654D01*
X957319Y398260D01*
X1144758D01*
X1146423Y394241D01*
X1164974Y401926D01*
X1159586Y414934D01*
X1144341Y408619D01*
X959465D01*
X934260Y433824D01*
X935924Y437843D01*
X923599Y442948D01*
X923847Y444193D01*
X1122310D01*
X1128466Y438037D01*
X1128406Y437738D01*
X1128406Y437738D01*
X1133794Y424729D01*
X1152346Y432414D01*
X1150681Y436432D01*
X1163800Y449551D01*
X1163864D01*
X1165846Y449945D01*
X1167526Y451068D01*
X1172503Y456045D01*
X1173989Y455734D01*
X1179064Y443481D01*
X1194309Y449796D01*
X1247455D01*
X1249437Y450190D01*
X1251118Y451313D01*
X1373458Y573653D01*
X1374581Y575334D01*
X1374975Y577316D01*
Y590924D01*
X1380142Y603397D01*
X1367134Y608786D01*
X1359449Y590234D01*
X1364616Y588094D01*
Y579461D01*
X1245310Y460155D01*
X1227168D01*
X1226782Y461425D01*
X1227243Y461732D01*
X1341822Y576312D01*
X1342945Y577992D01*
X1343339Y579974D01*
Y600781D01*
X1349654Y616026D01*
X1345635Y617691D01*
Y636754D01*
X1347529Y638648D01*
X1348652Y640328D01*
X1349046Y642310D01*
Y646438D01*
X1350103Y647143D01*
X1360721Y642745D01*
X1367036Y657990D01*
X1393463Y684417D01*
X1394586Y686097D01*
X1394980Y688079D01*
Y865358D01*
X1398999Y867023D01*
X1391314Y885574D01*
X1378306Y880186D01*
X1384621Y864941D01*
Y690225D01*
X1365554Y671158D01*
X1364384Y671784D01*
X1364492Y672327D01*
X1364492Y672327D01*
Y852730D01*
X1368510Y854394D01*
X1360826Y872946D01*
X1356808Y871281D01*
X1343689Y884400D01*
Y884464D01*
X1343295Y886446D01*
X1342172Y888126D01*
X1337195Y893103D01*
X1337505Y894589D01*
X1349759Y899664D01*
X1343444Y914910D01*
Y955258D01*
X1343050Y957241D01*
X1341927Y958921D01*
X1341927Y958921D01*
X1211809Y1089039D01*
X1213474Y1093058D01*
X1194922Y1100742D01*
D02*
G37*
G36*
X1270000Y955007D02*
X1267379Y954662D01*
X1264937Y953650D01*
X1262839Y952041D01*
X1261230Y949943D01*
X1260218Y947501D01*
X1259873Y944880D01*
X1260218Y942259D01*
X1261230Y939817D01*
X1262839Y937719D01*
X1264937Y936110D01*
X1267379Y935098D01*
X1270000Y934753D01*
X1272621Y935098D01*
X1275063Y936110D01*
X1277161Y937719D01*
X1278770Y939817D01*
X1279782Y942259D01*
X1280127Y944880D01*
X1279782Y947501D01*
X1278770Y949943D01*
X1277161Y952041D01*
X1275063Y953650D01*
X1272621Y954662D01*
X1270000Y955007D01*
D02*
G37*
G36*
X1033341Y967360D02*
X1031375Y966969D01*
X1029708Y965855D01*
X1028594Y964188D01*
X1028203Y962221D01*
X1028594Y960255D01*
X1029708Y958588D01*
X1031375Y957474D01*
X1033341Y957083D01*
X1035308Y957474D01*
X1036212Y958078D01*
X1174742D01*
X1184399Y948421D01*
X1184018Y947501D01*
X1183673Y944880D01*
X1184018Y942259D01*
X1185030Y939817D01*
X1186639Y937719D01*
X1188737Y936110D01*
X1191179Y935098D01*
X1193800Y934753D01*
X1196421Y935098D01*
X1198863Y936110D01*
X1200961Y937719D01*
X1202570Y939817D01*
X1203582Y942259D01*
X1203927Y944880D01*
X1203582Y947501D01*
X1202570Y949943D01*
X1200961Y952041D01*
X1198863Y953650D01*
X1196421Y954662D01*
X1193800Y955007D01*
X1191179Y954662D01*
X1190259Y954281D01*
X1179389Y965151D01*
X1178044Y966050D01*
X1176459Y966365D01*
X1036212D01*
X1035308Y966969D01*
X1033341Y967360D01*
D02*
G37*
G36*
X1168400Y955007D02*
X1165779Y954662D01*
X1163337Y953650D01*
X1161239Y952041D01*
X1159630Y949943D01*
X1158618Y947501D01*
X1158273Y944880D01*
X1158618Y942259D01*
X1159630Y939817D01*
X1161239Y937719D01*
X1163337Y936110D01*
X1165779Y935098D01*
X1168400Y934753D01*
X1171021Y935098D01*
X1173463Y936110D01*
X1175561Y937719D01*
X1177170Y939817D01*
X1178182Y942259D01*
X1178527Y944880D01*
X1178182Y947501D01*
X1177170Y949943D01*
X1175561Y952041D01*
X1173463Y953650D01*
X1171021Y954662D01*
X1168400Y955007D01*
D02*
G37*
G36*
X1143000D02*
X1140379Y954662D01*
X1137937Y953650D01*
X1135839Y952041D01*
X1134230Y949943D01*
X1133218Y947501D01*
X1132873Y944880D01*
X1133218Y942259D01*
X1134230Y939817D01*
X1135839Y937719D01*
X1137937Y936110D01*
X1140379Y935098D01*
X1143000Y934753D01*
X1145621Y935098D01*
X1148063Y936110D01*
X1150161Y937719D01*
X1151770Y939817D01*
X1152782Y942259D01*
X1153127Y944880D01*
X1152782Y947501D01*
X1151770Y949943D01*
X1150161Y952041D01*
X1148063Y953650D01*
X1145621Y954662D01*
X1143000Y955007D01*
D02*
G37*
G36*
X1372271Y930139D02*
X1367651Y928225D01*
X1370713Y920834D01*
X1375332Y922748D01*
X1372271Y930139D01*
D02*
G37*
G36*
X1364880Y927077D02*
X1360260Y925164D01*
X1363322Y917773D01*
X1367941Y919686D01*
X1364880Y927077D01*
D02*
G37*
G36*
X1376480Y919976D02*
X1371861Y918063D01*
X1374922Y910672D01*
X1379541Y912585D01*
X1376480Y919976D01*
D02*
G37*
G36*
X1369089Y916915D02*
X1364470Y915001D01*
X1367531Y907610D01*
X1372151Y909524D01*
X1369089Y916915D01*
D02*
G37*
G36*
X1324599Y885196D02*
X1319980Y883283D01*
X1321702Y879126D01*
X1326321Y881039D01*
X1324599Y885196D01*
D02*
G37*
G36*
X676643Y888098D02*
X673582Y880707D01*
X678201Y878794D01*
X681263Y886185D01*
X676643Y888098D01*
D02*
G37*
G36*
X684034Y885037D02*
X680973Y877646D01*
X685592Y875732D01*
X688653Y883123D01*
X684034Y885037D01*
D02*
G37*
G36*
X1327469Y878267D02*
X1322850Y876354D01*
X1324572Y872197D01*
X1329191Y874110D01*
X1327469Y878267D01*
D02*
G37*
G36*
X672433Y877936D02*
X669372Y870545D01*
X673991Y868631D01*
X677053Y876022D01*
X672433Y877936D01*
D02*
G37*
G36*
X679825Y874874D02*
X676763Y867483D01*
X681383Y865570D01*
X684444Y872961D01*
X679825Y874874D01*
D02*
G37*
G36*
X668878Y858278D02*
X665527D01*
X662291Y857411D01*
X659389Y855735D01*
X657020Y853366D01*
X656101Y851775D01*
X666391Y847513D01*
X670653Y857802D01*
X668878Y858278D01*
D02*
G37*
G36*
X673424Y856654D02*
X669162Y846364D01*
X679452Y842102D01*
X679927Y843877D01*
Y847228D01*
X679060Y850464D01*
X677385Y853366D01*
X675016Y855735D01*
X673424Y856654D01*
D02*
G37*
G36*
X654953Y849003D02*
X654477Y847228D01*
Y843877D01*
X655345Y840641D01*
X657020Y837739D01*
X659389Y835370D01*
X660981Y834451D01*
X665243Y844741D01*
X654953Y849003D01*
D02*
G37*
G36*
X668014Y843593D02*
X663752Y833303D01*
X665527Y832828D01*
X668878D01*
X672114Y833695D01*
X675016Y835370D01*
X677385Y837739D01*
X678304Y839331D01*
X668014Y843593D01*
D02*
G37*
G36*
X679878Y834344D02*
X676960Y827299D01*
X684582Y824142D01*
X687500Y831187D01*
X679878Y834344D01*
D02*
G37*
G36*
X648448Y830326D02*
X646582Y825822D01*
X655821Y821995D01*
X657686Y826499D01*
X648448Y830326D01*
D02*
G37*
G36*
X660458Y825351D02*
X658593Y820847D01*
X667831Y817020D01*
X669697Y821524D01*
X660458Y825351D01*
D02*
G37*
G36*
X645434Y823050D02*
X643568Y818546D01*
X652807Y814719D01*
X654673Y819223D01*
X645434Y823050D01*
D02*
G37*
G36*
X657444Y818075D02*
X655579Y813571D01*
X664818Y809744D01*
X666683Y814248D01*
X657444Y818075D01*
D02*
G37*
G36*
X639355Y808374D02*
X637490Y803870D01*
X646728Y800043D01*
X648594Y804547D01*
X639355Y808374D01*
D02*
G37*
G36*
X651366Y803399D02*
X649500Y798895D01*
X658739Y795069D01*
X660604Y799573D01*
X651366Y803399D01*
D02*
G37*
G36*
X636342Y801099D02*
X634476Y796595D01*
X643715Y792768D01*
X645580Y797272D01*
X636342Y801099D01*
D02*
G37*
G36*
X648352Y796124D02*
X646486Y791620D01*
X655725Y787793D01*
X657591Y792297D01*
X648352Y796124D01*
D02*
G37*
G36*
X662890Y788890D02*
X662414Y787739D01*
X660843Y788390D01*
X657925Y781345D01*
X666933Y777614D01*
X675941Y773883D01*
X677797Y778364D01*
X678283Y779537D01*
X678769Y780711D01*
X679335Y782078D01*
X671113Y785484D01*
X662890Y788890D01*
D02*
G37*
G36*
X638646Y785291D02*
X635295D01*
X632059Y784424D01*
X629157Y782749D01*
X626788Y780379D01*
X625869Y778788D01*
X636159Y774526D01*
X640421Y784816D01*
X638646Y785291D01*
D02*
G37*
G36*
X643192Y783668D02*
X638930Y773378D01*
X649220Y769116D01*
X649695Y770891D01*
Y774241D01*
X648828Y777478D01*
X647153Y780379D01*
X644784Y782749D01*
X643192Y783668D01*
D02*
G37*
G36*
X656777Y778574D02*
X653859Y771529D01*
X661481Y768372D01*
X664399Y775417D01*
X656777Y778574D01*
D02*
G37*
G36*
X667171Y774269D02*
X664253Y767224D01*
X671875Y764067D01*
X674793Y771111D01*
X667171Y774269D01*
D02*
G37*
G36*
X624721Y776016D02*
X624245Y774241D01*
Y770891D01*
X625113Y767654D01*
X626788Y764753D01*
X629157Y762384D01*
X630748Y761465D01*
X635011Y771754D01*
X624721Y776016D01*
D02*
G37*
G36*
X637782Y770606D02*
X633520Y760317D01*
X635295Y759841D01*
X638646D01*
X641882Y760708D01*
X644784Y762384D01*
X647153Y764753D01*
X648072Y766344D01*
X637782Y770606D01*
D02*
G37*
G36*
X694960Y758340D02*
X690460D01*
Y753340D01*
X694960D01*
Y758340D01*
D02*
G37*
G36*
Y750340D02*
X690460D01*
Y745340D01*
X694960D01*
Y750340D01*
D02*
G37*
G36*
X671980Y744520D02*
X666980D01*
Y740520D01*
X671980D01*
Y744520D01*
D02*
G37*
G36*
X663980D02*
X658980D01*
Y740520D01*
X663980D01*
Y744520D01*
D02*
G37*
G36*
X671980Y737520D02*
X666980D01*
Y733520D01*
X671980D01*
Y737520D01*
D02*
G37*
G36*
X663980D02*
X658980D01*
Y733520D01*
X663980D01*
Y737520D01*
D02*
G37*
G36*
X1329930Y654578D02*
X1328208Y650420D01*
X1332827Y648507D01*
X1334549Y652664D01*
X1329930Y654578D01*
D02*
G37*
G36*
X1386178Y653350D02*
X1383116Y645959D01*
X1387735Y644046D01*
X1390797Y651437D01*
X1386178Y653350D01*
D02*
G37*
G36*
X1327060Y647649D02*
X1325338Y643491D01*
X1329957Y641578D01*
X1331679Y645735D01*
X1327060Y647649D01*
D02*
G37*
G36*
X1393569Y650289D02*
X1390507Y642898D01*
X1395126Y640984D01*
X1398188Y648375D01*
X1393569Y650289D01*
D02*
G37*
G36*
X1381968Y643188D02*
X1378907Y635797D01*
X1383526Y633883D01*
X1386587Y641274D01*
X1381968Y643188D01*
D02*
G37*
G36*
X1389359Y640126D02*
X1386297Y632735D01*
X1390917Y630822D01*
X1393978Y638213D01*
X1389359Y640126D01*
D02*
G37*
G36*
X650240Y762100D02*
X648258Y761705D01*
X646578Y760583D01*
X645455Y758902D01*
X645061Y756920D01*
Y714702D01*
X645455Y712719D01*
X646578Y711039D01*
X672580Y685036D01*
Y648482D01*
X668561Y646817D01*
X676246Y628266D01*
X689254Y633654D01*
X682939Y648899D01*
Y687182D01*
X682545Y689164D01*
X681422Y690844D01*
X655419Y716847D01*
Y756920D01*
X655025Y758902D01*
X653903Y760583D01*
X652222Y761705D01*
X650240Y762100D01*
D02*
G37*
G36*
X700029Y606230D02*
X695409Y604316D01*
X698471Y596925D01*
X703090Y598839D01*
X700029Y606230D01*
D02*
G37*
G36*
X692638Y603168D02*
X688018Y601255D01*
X691080Y593864D01*
X695699Y595777D01*
X692638Y603168D01*
D02*
G37*
G36*
X704238Y596067D02*
X699619Y594154D01*
X702681Y586763D01*
X707300Y588676D01*
X704238Y596067D01*
D02*
G37*
G36*
X696847Y593006D02*
X692228Y591092D01*
X695290Y583701D01*
X699909Y585615D01*
X696847Y593006D01*
D02*
G37*
G36*
X1204564Y432980D02*
X1197173Y429918D01*
X1199086Y425299D01*
X1206477Y428360D01*
X1204564Y432980D01*
D02*
G37*
G36*
X1194401Y428770D02*
X1187010Y425709D01*
X1188924Y421090D01*
X1196315Y424151D01*
X1194401Y428770D01*
D02*
G37*
G36*
X1207625Y425589D02*
X1200234Y422527D01*
X1202148Y417908D01*
X1209539Y420970D01*
X1207625Y425589D01*
D02*
G37*
G36*
X1197463Y421379D02*
X1190072Y418318D01*
X1191985Y413699D01*
X1199376Y416760D01*
X1197463Y421379D01*
D02*
G37*
G36*
X905037Y414333D02*
X903123Y409714D01*
X910514Y406653D01*
X912428Y411272D01*
X905037Y414333D01*
D02*
G37*
G36*
X915199Y410124D02*
X913286Y405505D01*
X920677Y402443D01*
X922590Y407062D01*
X915199Y410124D01*
D02*
G37*
G36*
X901975Y406942D02*
X900062Y402323D01*
X907453Y399262D01*
X909366Y403881D01*
X901975Y406942D01*
D02*
G37*
G36*
X912138Y402733D02*
X910224Y398114D01*
X917615Y395052D01*
X919529Y399672D01*
X912138Y402733D01*
D02*
G37*
%LPD*%
G36*
X769567Y1014446D02*
Y954601D01*
X768297Y954075D01*
X767091Y955281D01*
X766748Y957007D01*
X765634Y958674D01*
X763967Y959788D01*
X762000Y960179D01*
X760033Y959788D01*
X758366Y958674D01*
X757252Y957007D01*
X756861Y955040D01*
X757105Y953816D01*
X755934Y953191D01*
X755502Y953623D01*
X753822Y954745D01*
X751840Y955139D01*
X749858Y954745D01*
X748177Y953623D01*
X747055Y951942D01*
X746661Y949960D01*
X746853Y948990D01*
X745816Y947720D01*
X743180D01*
Y941720D01*
X740180D01*
Y947720D01*
X735180D01*
X734580Y948741D01*
Y981255D01*
X768297Y1014972D01*
X769567Y1014446D01*
D02*
G37*
G36*
X914400Y930965D02*
Y927400D01*
X899839Y912839D01*
X898669Y913465D01*
X898915Y914703D01*
X898524Y916670D01*
X897410Y918337D01*
X895743Y919451D01*
X893776Y919842D01*
X891810Y919451D01*
X890143Y918337D01*
X889029Y916670D01*
X888921Y916125D01*
X886851Y914055D01*
X833895D01*
X832950Y915325D01*
X833000Y915575D01*
X848001Y930576D01*
X906450D01*
X907354Y929972D01*
X909320Y929581D01*
X911286Y929972D01*
X912954Y931086D01*
X913130Y931350D01*
X914400Y930965D01*
D02*
G37*
G36*
X841738Y936034D02*
X827140Y921435D01*
X826074Y921223D01*
X824406Y920109D01*
X823292Y918442D01*
X822901Y916475D01*
X823130Y915325D01*
X822185Y914055D01*
X816262D01*
X815358Y914659D01*
X813391Y915050D01*
X811425Y914659D01*
X809758Y913545D01*
X809106Y912570D01*
X807540Y912340D01*
X792480Y927400D01*
Y936620D01*
X793507Y937207D01*
X841252D01*
X841738Y936034D01*
D02*
G37*
G36*
X790367Y917793D02*
X789881Y916620D01*
X762400D01*
Y902540D01*
X756916D01*
Y918727D01*
X756681Y919910D01*
X757618Y921180D01*
X763960D01*
Y921540D01*
X786620D01*
X790367Y917793D01*
D02*
G37*
G36*
X1094687Y909978D02*
Y896673D01*
X1066085D01*
X1065599Y897846D01*
X1071101Y903348D01*
X1079170D01*
X1080073Y902744D01*
X1082040Y902353D01*
X1084007Y902744D01*
X1085674Y903858D01*
X1086788Y905525D01*
X1087179Y907492D01*
X1086950Y908642D01*
X1087896Y909912D01*
X1091188D01*
X1092774Y910228D01*
X1093417Y910657D01*
X1094687Y909978D01*
D02*
G37*
G36*
X746793Y919910D02*
X746557Y918727D01*
Y900369D01*
X746337Y900325D01*
X745474Y899749D01*
X744064Y900327D01*
X742941Y902007D01*
X735755Y909193D01*
X738598Y916057D01*
X734580Y917722D01*
Y919935D01*
X734640Y921180D01*
X745855D01*
X746793Y919910D01*
D02*
G37*
G36*
X1016170Y918282D02*
X1016120Y918032D01*
X994937Y896849D01*
X980951D01*
X979365Y896533D01*
X978021Y895635D01*
X955624Y873238D01*
X955374Y873188D01*
X954104Y874134D01*
Y898750D01*
X954708Y899653D01*
X955099Y901620D01*
X954874Y902750D01*
X955829Y904020D01*
X975480D01*
Y899280D01*
X995560D01*
Y919360D01*
X996750Y919552D01*
X1015225D01*
X1016170Y918282D01*
D02*
G37*
G36*
X1051788Y912614D02*
X1051892Y912089D01*
X1053006Y910422D01*
X1054673Y909308D01*
X1056640Y908917D01*
X1058606Y909308D01*
X1059510Y909912D01*
X1064285D01*
X1064771Y908739D01*
X1051896Y895863D01*
X1050693Y896272D01*
X1050656Y896560D01*
X1049698Y898871D01*
X1048175Y900855D01*
X1046191Y902378D01*
X1043880Y903335D01*
X1042856Y903470D01*
X1042401Y904811D01*
X1050573Y912983D01*
X1051788Y912614D01*
D02*
G37*
G36*
X887566Y904786D02*
X887505Y904481D01*
X886070Y903046D01*
X885172Y901702D01*
X884856Y900116D01*
Y894855D01*
X883586Y893910D01*
X882436Y894139D01*
X880470Y893748D01*
X879566Y893144D01*
X868680D01*
X868680Y893144D01*
X867094Y892828D01*
X865750Y891930D01*
X842380Y868560D01*
X841313Y868348D01*
X839646Y867234D01*
X838557Y865603D01*
X838417Y865422D01*
X837193Y865171D01*
X830354Y872010D01*
X829009Y872908D01*
X827424Y873224D01*
X818655D01*
X817710Y874494D01*
X817939Y875644D01*
X817548Y877610D01*
X816944Y878514D01*
Y901220D01*
X816628Y902806D01*
X815799Y904047D01*
X815740Y904196D01*
X816050Y905626D01*
X816262Y905768D01*
X886760D01*
X887566Y904786D01*
D02*
G37*
G36*
X1033059Y918282D02*
X1032686Y918034D01*
X1031572Y916367D01*
X1031360Y915300D01*
X1008591Y892531D01*
X1003998D01*
X1003512Y893704D01*
X1021980Y912172D01*
X1023046Y912384D01*
X1024714Y913498D01*
X1025828Y915165D01*
X1026219Y917132D01*
X1025990Y918282D01*
X1026936Y919552D01*
X1032673D01*
X1033059Y918282D01*
D02*
G37*
G36*
X1008940Y883070D02*
X994933Y869063D01*
X994035Y867719D01*
X993720Y866133D01*
Y848334D01*
X993578Y848122D01*
X992011Y847892D01*
X980590Y859314D01*
X979245Y860212D01*
X977660Y860528D01*
X964724D01*
X963138Y860212D01*
X961794Y859314D01*
X957880Y855400D01*
X954104D01*
Y862423D01*
X955374Y863368D01*
X956524Y863139D01*
X958491Y863531D01*
X960158Y864645D01*
X961272Y866312D01*
X961484Y867378D01*
X973092Y878986D01*
X974566Y878664D01*
X975376Y877452D01*
X977043Y876338D01*
X979009Y875947D01*
X980976Y876338D01*
X982643Y877452D01*
X983757Y879119D01*
X983969Y880185D01*
X988028Y884243D01*
X1008454D01*
X1008940Y883070D01*
D02*
G37*
G36*
X796609Y902268D02*
X796821Y901202D01*
X797935Y899535D01*
X799602Y898421D01*
X801569Y898030D01*
X803535Y898421D01*
X805202Y899535D01*
X805854Y900510D01*
X807421Y900740D01*
X808656Y899504D01*
Y878514D01*
X808052Y877610D01*
X807661Y875644D01*
X807890Y874494D01*
X806945Y873224D01*
X792480D01*
Y876620D01*
X763960D01*
Y880215D01*
X765185Y881441D01*
X774980D01*
X775480Y881540D01*
X792480D01*
Y896620D01*
X763960D01*
Y901540D01*
X792480D01*
Y904936D01*
X793941D01*
X796609Y902268D01*
D02*
G37*
G36*
X740791Y871151D02*
X741722Y870966D01*
Y854899D01*
X742116Y852917D01*
X743003Y851590D01*
X742499Y850320D01*
X737060D01*
Y836240D01*
X738341D01*
Y834330D01*
X734900D01*
Y827330D01*
X734800Y826830D01*
Y823405D01*
X717698Y806302D01*
X716575Y804622D01*
X716180Y802640D01*
Y774333D01*
X715007Y773847D01*
X707627Y781227D01*
X708113Y782400D01*
X709870D01*
Y785900D01*
X706120D01*
Y788900D01*
X709870D01*
Y792400D01*
X709870D01*
Y792560D01*
X709870D01*
Y796060D01*
X706120D01*
Y799060D01*
X709870D01*
Y802560D01*
X709870D01*
Y802720D01*
X709870D01*
Y806220D01*
X706120D01*
Y807720D01*
X704620D01*
Y812720D01*
X703910D01*
Y813260D01*
X703764D01*
Y818754D01*
X706760Y821750D01*
X717980D01*
Y834330D01*
X706291D01*
X705765Y835600D01*
X724731Y854566D01*
X725854Y856246D01*
X726248Y858228D01*
Y867914D01*
X727304Y868620D01*
X730239Y867404D01*
X732535Y872947D01*
X733921Y872373D01*
X734495Y873759D01*
X740791Y871151D01*
D02*
G37*
G36*
X869616Y867177D02*
Y835990D01*
X869037Y835123D01*
X868897Y834942D01*
X867673Y834691D01*
X844851Y857513D01*
X845102Y858737D01*
X845283Y858877D01*
X846914Y859966D01*
X847596Y860987D01*
X848692Y860487D01*
X848301Y858520D01*
X848692Y856553D01*
X849806Y854886D01*
X851473Y853772D01*
X853440Y853381D01*
X855406Y853772D01*
X857074Y854886D01*
X858188Y856553D01*
X858400Y857620D01*
X868443Y867663D01*
X869616Y867177D01*
D02*
G37*
G36*
X966660Y850664D02*
Y841320D01*
X967521D01*
Y835080D01*
X966660D01*
Y821000D01*
X971415D01*
X975561Y816854D01*
Y814220D01*
X974200D01*
Y807720D01*
X972700D01*
Y806220D01*
X967200D01*
Y801220D01*
X971636D01*
X972122Y800047D01*
X951922Y779846D01*
X950751Y780472D01*
X950791Y780671D01*
X950400Y782637D01*
X949286Y784305D01*
X947618Y785418D01*
X945652Y785810D01*
X944922Y785664D01*
X943940Y786470D01*
Y787580D01*
X929440D01*
Y789080D01*
X927940D01*
Y796080D01*
X914940D01*
Y789220D01*
X913670Y788694D01*
X900731Y801633D01*
X900982Y802857D01*
X901163Y802997D01*
X902794Y804086D01*
X903498Y805141D01*
X904982D01*
X905686Y804086D01*
X907354Y802972D01*
X909320Y802581D01*
X911286Y802972D01*
X912954Y804086D01*
X913130Y804350D01*
X914400Y803965D01*
Y801540D01*
X944480D01*
Y803901D01*
X951660D01*
Y800680D01*
X963740D01*
Y814760D01*
X951660D01*
Y814259D01*
X944480D01*
Y816620D01*
X914400D01*
X913464Y817425D01*
Y820735D01*
X914400Y821540D01*
X914734Y821540D01*
X944480D01*
Y823901D01*
X951660D01*
Y821000D01*
X963740D01*
Y835080D01*
X951660D01*
Y834259D01*
X944480D01*
Y836620D01*
X914734D01*
X914400Y836620D01*
X913464Y837426D01*
Y840734D01*
X914400Y841540D01*
X944480D01*
Y843540D01*
X951660D01*
Y841320D01*
X963740D01*
Y849540D01*
X965390Y851190D01*
X966660Y850664D01*
D02*
G37*
G36*
X831242Y859401D02*
X830858Y857990D01*
X829486Y857074D01*
X828372Y855406D01*
X827981Y853440D01*
X828372Y851473D01*
X828976Y850570D01*
Y833352D01*
X818464Y822840D01*
X818214Y822790D01*
X816944Y823736D01*
Y859646D01*
X817548Y860549D01*
X817939Y862516D01*
X817710Y863666D01*
X818655Y864936D01*
X825707D01*
X831242Y859401D01*
D02*
G37*
G36*
X864041Y826602D02*
X863812Y825036D01*
X862837Y824384D01*
X861723Y822717D01*
X861600Y822100D01*
X825120Y785620D01*
X818586D01*
X817780Y786602D01*
X817939Y787400D01*
X817548Y789367D01*
X816944Y790270D01*
Y812025D01*
X818214Y812970D01*
X819364Y812741D01*
X821330Y813132D01*
X822998Y814246D01*
X824112Y815913D01*
X824324Y816980D01*
X830111Y822767D01*
X831678Y822538D01*
X832330Y821563D01*
X833997Y820449D01*
X835963Y820058D01*
X837930Y820449D01*
X839597Y821563D01*
X840711Y823230D01*
X841102Y825197D01*
X840711Y827163D01*
X840621Y827297D01*
X841266Y828262D01*
X841582Y829847D01*
Y835722D01*
X844180Y838320D01*
X845247Y838532D01*
X846914Y839646D01*
X847830Y841018D01*
X849241Y841402D01*
X864041Y826602D01*
D02*
G37*
G36*
X884856Y872984D02*
Y820750D01*
X884277Y819883D01*
X884137Y819702D01*
X882913Y819451D01*
X875331Y827032D01*
X875582Y828257D01*
X875763Y828397D01*
X877394Y829486D01*
X878508Y831153D01*
X878899Y833120D01*
X878508Y835087D01*
X877904Y835990D01*
Y868448D01*
X883336Y873880D01*
X883586Y873930D01*
X884856Y872984D01*
D02*
G37*
G36*
X914400Y914021D02*
Y907400D01*
X906390Y899390D01*
X905492Y898046D01*
X905176Y896460D01*
Y811379D01*
X903915Y810869D01*
X903900Y810872D01*
X903304Y811489D01*
Y904584D01*
X913227Y914507D01*
X914400Y914021D01*
D02*
G37*
G36*
X1032010Y892624D02*
X1032144Y891600D01*
X1033102Y889289D01*
X1034624Y887305D01*
X1036609Y885782D01*
X1036787Y885708D01*
X1036534Y884438D01*
X1033031D01*
X1031445Y884123D01*
X1030101Y883224D01*
X1015650Y868773D01*
X1014751Y867429D01*
X1014436Y865843D01*
Y803351D01*
X1003445Y792360D01*
X1003195Y792310D01*
X1001925Y793255D01*
Y836262D01*
X1001610Y837848D01*
X1000711Y839192D01*
X1000292Y839611D01*
X1000522Y841178D01*
X1001497Y841830D01*
X1002611Y843497D01*
X1003002Y845463D01*
X1002611Y847430D01*
X1002007Y848334D01*
Y864417D01*
X1030669Y893079D01*
X1032010Y892624D01*
D02*
G37*
G36*
X762400Y861540D02*
X791514Y861540D01*
X791526D01*
X791526D01*
X791989Y861540D01*
X792443Y860959D01*
D01*
X792443Y860959D01*
Y860959D01*
X792659Y859714D01*
X792600Y859420D01*
X789800Y856620D01*
X762400D01*
Y841540D01*
X792480D01*
Y847580D01*
X798460Y853560D01*
X799527Y853772D01*
X801194Y854886D01*
X802308Y856553D01*
X802699Y858520D01*
X802308Y860487D01*
X801194Y862154D01*
X799527Y863268D01*
X797560Y863659D01*
X795593Y863268D01*
X794350Y862437D01*
X793196Y862058D01*
D01*
X793196D01*
X793196Y862058D01*
X792480Y862275D01*
X792480Y862607D01*
Y864936D01*
X806945D01*
X807890Y863666D01*
X807661Y862516D01*
X808052Y860549D01*
X808656Y859646D01*
Y791318D01*
X808265Y791016D01*
X807601Y791005D01*
X806784Y791479D01*
Y811380D01*
X806468Y812966D01*
X805570Y814310D01*
X792480Y827400D01*
Y836620D01*
X762400D01*
Y821540D01*
X782167D01*
X782845Y820270D01*
X782381Y819575D01*
X781990Y817609D01*
X781991Y817602D01*
X781186Y816620D01*
X762400D01*
Y801540D01*
X791932D01*
Y796620D01*
X769488D01*
X768522Y797265D01*
X766540Y797660D01*
X760300D01*
Y799520D01*
X759159D01*
Y847821D01*
X758765Y849803D01*
X757643Y851483D01*
X752081Y857044D01*
Y875460D01*
X762400D01*
Y861540D01*
D02*
G37*
G36*
X1031360Y871104D02*
Y858640D01*
X1035573D01*
Y744190D01*
X1036017Y741960D01*
X1037280Y740070D01*
X1081293Y696056D01*
Y682374D01*
X1080780Y681980D01*
X1079355Y680123D01*
X1078459Y677961D01*
X1078153Y675640D01*
X1078459Y673319D01*
X1079355Y671157D01*
X1080780Y669300D01*
X1081293Y668906D01*
Y584020D01*
X1077080D01*
Y569520D01*
X1076981Y569020D01*
Y563485D01*
X1067015Y553520D01*
X1059260D01*
Y539440D01*
X1074340D01*
Y541800D01*
X1102730D01*
Y539440D01*
X1122310D01*
Y542300D01*
X1131844D01*
Y540760D01*
X1151924D01*
Y560839D01*
X1131844D01*
Y552659D01*
X1122310D01*
Y555520D01*
X1102730D01*
Y552160D01*
X1081964D01*
X1081478Y553333D01*
X1085823Y557677D01*
X1086945Y559358D01*
X1087339Y561340D01*
Y563940D01*
X1097160D01*
Y584020D01*
X1092947D01*
Y668180D01*
X1093417Y668695D01*
X1093508Y668696D01*
X1094687Y667967D01*
Y599440D01*
X1094884Y598448D01*
X1095446Y597607D01*
X1096288Y597044D01*
X1097280Y596847D01*
X1315720D01*
X1316712Y597044D01*
X1317554Y597607D01*
X1318116Y598448D01*
X1318313Y599440D01*
Y628801D01*
X1318932Y629845D01*
D01*
X1318932Y629845D01*
Y629845D01*
X1319583Y630137D01*
X1323102Y628679D01*
Y620575D01*
X1323496Y618593D01*
X1324619Y616913D01*
X1331805Y609727D01*
X1328961Y602863D01*
X1332980Y601198D01*
Y582120D01*
X1272972Y522112D01*
X1271855Y522790D01*
X1273092Y526715D01*
X1273188Y526998D01*
X1273200Y527057D01*
X1273563Y528207D01*
X1273584Y528405D01*
X1273652Y528592D01*
X1274156Y531861D01*
X1274327Y532725D01*
X1274356Y533164D01*
X1274630Y534944D01*
X1274621Y535143D01*
X1274660Y535338D01*
Y537804D01*
X1274709Y538551D01*
X1274660Y539299D01*
Y541764D01*
X1274621Y541960D01*
X1274630Y542158D01*
X1274356Y543938D01*
X1274327Y544378D01*
X1274156Y545241D01*
X1273652Y548510D01*
X1273584Y548697D01*
X1273563Y548895D01*
X1273200Y550046D01*
X1273188Y550104D01*
X1273092Y550388D01*
X1271630Y555024D01*
X1271534Y555199D01*
X1271483Y555391D01*
X1268641Y561155D01*
X1268519Y561312D01*
X1268439Y561495D01*
X1265651Y565476D01*
X1265485Y565726D01*
X1265445Y565771D01*
X1264753Y566759D01*
X1264609Y566897D01*
X1264502Y567064D01*
X1262215Y569454D01*
X1261635Y570116D01*
X1261303Y570406D01*
X1260058Y571707D01*
X1259895Y571821D01*
X1259764Y571970D01*
X1257808Y573471D01*
X1257245Y573965D01*
X1256622Y574382D01*
X1254666Y575883D01*
X1254487Y575971D01*
X1254335Y576099D01*
X1252756Y576965D01*
X1252390Y577209D01*
X1251600Y577599D01*
X1248700Y579190D01*
X1248511Y579250D01*
X1248341Y579353D01*
X1247207Y579766D01*
X1247153Y579792D01*
X1246869Y579888D01*
X1242301Y581551D01*
X1242105Y581581D01*
X1241921Y581657D01*
X1235618Y582911D01*
X1235419D01*
X1235226Y582958D01*
X1230368Y583170D01*
X1230070Y583190D01*
X1230011Y583186D01*
X1228805Y583239D01*
X1228608Y583208D01*
X1228410Y583226D01*
X1225122Y582866D01*
X1224244Y582808D01*
X1223812Y582722D01*
X1222022Y582526D01*
X1221832Y582466D01*
X1221634Y582453D01*
X1219252Y581815D01*
X1218517Y581669D01*
X1217808Y581428D01*
X1215426Y580790D01*
X1215247Y580702D01*
X1215053Y580659D01*
X1213405Y579934D01*
X1212988Y579792D01*
X1212199Y579403D01*
X1209171Y578070D01*
X1209008Y577956D01*
X1208822Y577884D01*
X1207805Y577236D01*
X1207751Y577209D01*
X1207503Y577043D01*
X1203402Y574431D01*
X1203259Y574294D01*
X1203086Y574194D01*
X1198254Y569957D01*
X1198133Y569799D01*
X1197978Y569674D01*
X1194853Y565950D01*
X1194656Y565726D01*
X1194623Y565676D01*
X1193847Y564751D01*
X1193752Y564577D01*
X1193617Y564430D01*
X1191901Y561602D01*
X1191412Y560871D01*
X1191217Y560476D01*
X1190283Y558936D01*
X1190215Y558749D01*
X1190105Y558584D01*
X1189538Y557217D01*
X1159783D01*
X1159783Y557233D01*
X1159617Y557214D01*
X1159226Y557136D01*
X1159223Y557135D01*
X1158633Y557018D01*
X1158626Y557017D01*
X1158600Y557006D01*
X1158564Y556991D01*
X1158466Y556971D01*
X1158383Y556916D01*
X1158320Y556890D01*
X1157480Y556328D01*
X1157432Y556281D01*
X1157349Y556225D01*
X1157294Y556142D01*
X1157246Y556094D01*
X1157246Y556094D01*
X1157246Y556094D01*
X1157001Y555728D01*
X1156684Y555254D01*
X1156684Y555254D01*
X1156684Y555254D01*
X1156659Y555192D01*
X1156603Y555108D01*
X1156583Y555010D01*
X1156558Y554948D01*
X1156556Y554941D01*
X1156471Y554511D01*
X1156470Y554507D01*
X1156361Y553957D01*
X1156341Y553791D01*
X1156357D01*
Y523311D01*
X1156555Y522319D01*
X1157117Y521478D01*
X1157958Y520916D01*
X1158950Y520718D01*
X1189193D01*
X1190105Y518519D01*
X1190215Y518353D01*
X1190283Y518166D01*
X1191217Y516626D01*
X1191412Y516232D01*
X1191901Y515501D01*
X1193617Y512672D01*
X1193751Y512525D01*
X1193847Y512351D01*
X1194623Y511426D01*
X1194656Y511377D01*
X1194852Y511154D01*
X1197978Y507428D01*
X1198133Y507303D01*
X1198254Y507146D01*
X1203086Y502908D01*
X1203259Y502809D01*
X1203402Y502671D01*
X1207504Y500058D01*
X1207751Y499893D01*
X1207804Y499866D01*
X1208822Y499218D01*
X1209008Y499146D01*
X1209171Y499032D01*
X1212199Y497699D01*
X1212988Y497310D01*
X1213405Y497169D01*
X1215053Y496443D01*
X1215247Y496400D01*
X1215426Y496312D01*
X1217808Y495674D01*
X1218517Y495434D01*
X1219251Y495287D01*
X1221634Y494649D01*
X1221832Y494636D01*
X1222022Y494576D01*
X1223812Y494380D01*
X1224244Y494294D01*
X1225121Y494237D01*
X1228410Y493877D01*
X1228608Y493894D01*
X1228805Y493864D01*
X1230011Y493916D01*
X1230070Y493912D01*
X1230367Y493932D01*
X1235226Y494144D01*
X1235419Y494191D01*
X1235618D01*
X1241921Y495445D01*
X1242105Y495521D01*
X1242301Y495551D01*
X1245940Y496876D01*
X1246639Y495779D01*
X1221435Y470574D01*
X1174528D01*
X1172546Y470180D01*
X1170865Y469057D01*
X1167119Y465311D01*
X1165873Y465558D01*
X1165744Y465869D01*
X1160201Y463573D01*
X1154658Y461277D01*
X1156062Y457887D01*
X1155925Y457721D01*
X1154461Y457938D01*
X1150041Y468608D01*
X1137957Y463603D01*
X1141513Y455016D01*
Y443871D01*
X1140312Y442669D01*
X1139019Y442134D01*
X1128118Y453036D01*
X1126437Y454158D01*
X1124455Y454552D01*
X921333D01*
X920628Y455608D01*
X920756Y455919D01*
X915213Y458215D01*
X909670Y460511D01*
X909076Y459078D01*
X908857Y459046D01*
X907959Y460197D01*
X911589Y468960D01*
X899505Y473966D01*
X897919Y470138D01*
X889815D01*
X887833Y469744D01*
X886153Y468621D01*
X883889Y466358D01*
X882716Y466844D01*
Y480890D01*
X882716Y480890D01*
X882322Y482873D01*
X881199Y484553D01*
X881199Y484553D01*
X744710Y621041D01*
X744958Y622287D01*
X745269Y622416D01*
X742973Y627959D01*
X740677Y633502D01*
X737287Y632098D01*
X737121Y632235D01*
X737338Y633699D01*
X748008Y638119D01*
X743003Y650203D01*
X734416Y646647D01*
X723155D01*
X717071Y652731D01*
X714075Y659965D01*
Y668933D01*
X714955Y669813D01*
X748736D01*
X749759Y668479D01*
X751857Y666870D01*
X754299Y665858D01*
X756920Y665513D01*
X759541Y665858D01*
X761983Y666870D01*
X764081Y668479D01*
X765690Y670577D01*
X766702Y673019D01*
X767047Y675640D01*
X766702Y678261D01*
X765690Y680703D01*
X764081Y682801D01*
X761983Y684410D01*
X759541Y685422D01*
X756920Y685767D01*
X754299Y685422D01*
X751857Y684410D01*
X749759Y682801D01*
X748736Y681467D01*
X714955D01*
X703055Y693367D01*
X703541Y694540D01*
X708960D01*
Y699540D01*
X702960D01*
Y701040D01*
X701460D01*
Y707540D01*
X696960D01*
Y703762D01*
X695690Y703083D01*
X695500Y703210D01*
Y708080D01*
X694139D01*
Y713945D01*
X694353Y714088D01*
X697913Y717647D01*
X698400Y718377D01*
X699670Y717991D01*
Y711250D01*
X717250D01*
Y722830D01*
X699670Y722830D01*
X699429Y724000D01*
Y728880D01*
X699670Y730050D01*
X700699Y730050D01*
X717250D01*
Y730660D01*
X720600D01*
X722582Y731055D01*
X724262Y732178D01*
X728627Y736542D01*
X729800Y736056D01*
Y730400D01*
X741555D01*
X745805Y726150D01*
Y722480D01*
X729800D01*
Y711400D01*
X734120D01*
Y705530D01*
X733220D01*
Y691450D01*
X745300D01*
Y705530D01*
X744480D01*
Y711400D01*
X746528D01*
X747322Y710213D01*
X751371Y706163D01*
X750885Y704990D01*
X748760D01*
Y699990D01*
X754260D01*
X759760D01*
Y702351D01*
X766264D01*
X770198Y698417D01*
X771878Y697294D01*
X773860Y696900D01*
X778840D01*
Y685680D01*
X772280D01*
Y665600D01*
X792360D01*
Y685680D01*
X789200D01*
Y694000D01*
X791020D01*
Y708080D01*
X791095Y708158D01*
X791956Y708933D01*
X793003D01*
X793866Y708158D01*
X793940Y708080D01*
Y694000D01*
X800184D01*
X800990Y693018D01*
X800817Y692150D01*
X801209Y690184D01*
X801813Y689280D01*
Y640654D01*
X802128Y639068D01*
X803026Y637724D01*
X873715Y567035D01*
X873485Y565469D01*
X872510Y564817D01*
X871396Y563150D01*
X871005Y561184D01*
X871396Y559217D01*
X872510Y557550D01*
X874177Y556436D01*
X875243Y556224D01*
X951797Y479670D01*
X953141Y478772D01*
X954727Y478456D01*
X1221410D01*
X1222314Y477852D01*
X1224280Y477461D01*
X1226246Y477852D01*
X1227914Y478966D01*
X1229028Y480634D01*
X1229419Y482600D01*
X1229028Y484566D01*
X1227914Y486234D01*
X1226246Y487348D01*
X1224280Y487739D01*
X1222314Y487348D01*
X1221410Y486744D01*
X956443D01*
X912684Y530503D01*
X913170Y531676D01*
X1003880D01*
Y529780D01*
X1017960D01*
Y531676D01*
X1021070D01*
X1022656Y531992D01*
X1023087Y532280D01*
X1033110D01*
Y543360D01*
X1017530D01*
Y541860D01*
X1003880D01*
Y539964D01*
X912506D01*
X907011Y545459D01*
X907497Y546632D01*
X926860D01*
X928445Y546948D01*
X929790Y547846D01*
X938749Y556805D01*
X939647Y558150D01*
X939962Y559735D01*
Y562720D01*
X946052Y568809D01*
X947118Y569021D01*
X948785Y570135D01*
X949899Y571802D01*
X950290Y573769D01*
X949899Y575735D01*
X948785Y577402D01*
X947810Y578054D01*
X947265Y578991D01*
X947481Y579685D01*
X948048Y580534D01*
X948364Y582120D01*
Y612810D01*
X949760D01*
Y628390D01*
X938680D01*
Y612810D01*
X940076D01*
Y606390D01*
X929180D01*
Y596392D01*
X927940Y596320D01*
Y596320D01*
X926044D01*
Y612810D01*
X930760D01*
Y628390D01*
X929364D01*
Y641819D01*
X930634Y642204D01*
X931086Y641526D01*
X932754Y640412D01*
X934720Y640021D01*
X936686Y640412D01*
X937590Y641016D01*
X970762D01*
X972347Y641332D01*
X973692Y642230D01*
X975601Y644139D01*
X977327Y644482D01*
X978994Y645596D01*
X980108Y647263D01*
X980499Y649230D01*
X980274Y650360D01*
X981229Y651630D01*
X991421D01*
X991990Y650257D01*
X993599Y648159D01*
X995697Y646550D01*
X997281Y645894D01*
Y631380D01*
X997380Y630880D01*
Y622880D01*
X1010460D01*
Y636960D01*
X1007639D01*
Y647944D01*
X1007921Y648159D01*
X1009530Y650257D01*
X1010542Y652699D01*
X1010887Y655320D01*
X1010542Y657941D01*
X1009530Y660383D01*
X1007921Y662481D01*
X1005823Y664090D01*
X1003381Y665102D01*
X1000760Y665447D01*
X998139Y665102D01*
X995697Y664090D01*
X993599Y662481D01*
X993223Y661990D01*
X980436D01*
X979838Y663110D01*
X980108Y663513D01*
X980279Y664375D01*
X993530Y677626D01*
X994428Y678971D01*
X994744Y680556D01*
Y703250D01*
X995237Y703987D01*
X996542Y704478D01*
X1041520Y659500D01*
Y645280D01*
X1061600D01*
Y665360D01*
X1047380D01*
X1000210Y712530D01*
X1000440Y714096D01*
X1001415Y714748D01*
X1002529Y716415D01*
X1002920Y718381D01*
X1002529Y720348D01*
X1001925Y721252D01*
Y781544D01*
X1003195Y782490D01*
X1004345Y782261D01*
X1006312Y782652D01*
X1007979Y783766D01*
X1009093Y785434D01*
X1009305Y786500D01*
X1021510Y798704D01*
X1022408Y800049D01*
X1022723Y801634D01*
Y864127D01*
X1030187Y871590D01*
X1031360Y871104D01*
D02*
G37*
G36*
X795900Y779717D02*
Y771043D01*
X794780Y770445D01*
X794446Y770668D01*
X792480Y771059D01*
X792053Y770974D01*
X791400Y771410D01*
X789913Y771706D01*
X768527D01*
X768142Y772976D01*
X769043Y773577D01*
X772018Y776553D01*
X772018Y776553D01*
X773141Y778234D01*
X773535Y780216D01*
Y781540D01*
X792480D01*
Y781540D01*
X793750Y781867D01*
X795900Y779717D01*
D02*
G37*
G36*
X985532Y787756D02*
X985461Y787400D01*
X985852Y785434D01*
X986456Y784530D01*
Y778956D01*
X964300Y756800D01*
X963233Y756588D01*
X961566Y755474D01*
X960563Y753973D01*
X959258Y753482D01*
X958686Y754054D01*
X957342Y754952D01*
X955756Y755268D01*
X946629D01*
X939410Y762487D01*
X939896Y763660D01*
X948240D01*
X950222Y764054D01*
X951903Y765177D01*
X965513Y778787D01*
X967086Y778565D01*
X967727Y777606D01*
X969394Y776492D01*
X971360Y776101D01*
X973327Y776492D01*
X974994Y777606D01*
X976108Y779273D01*
X976320Y780340D01*
X984362Y788381D01*
X985532Y787756D01*
D02*
G37*
G36*
X748801Y799520D02*
X747220D01*
Y785440D01*
X747220D01*
Y784280D01*
X747220D01*
Y773988D01*
X747030Y773877D01*
X745760Y774607D01*
Y775740D01*
X741260D01*
Y770740D01*
X743139D01*
X743850Y769470D01*
X743522Y767821D01*
X743459Y767745D01*
X741718D01*
X740426Y768607D01*
X738460Y768999D01*
X736493Y768607D01*
X734826Y767494D01*
X734186Y766535D01*
X732613Y766312D01*
X726540Y772385D01*
Y800495D01*
X743642Y817598D01*
X743643Y817598D01*
X744765Y819278D01*
X745160Y821260D01*
X746243Y821750D01*
X748801D01*
Y799520D01*
D02*
G37*
G36*
X882042Y808602D02*
X881658Y807190D01*
X880286Y806274D01*
X879172Y804606D01*
X878781Y802640D01*
X879172Y800674D01*
X879776Y799770D01*
Y785620D01*
X875900D01*
Y765695D01*
X870980D01*
Y775760D01*
X871610Y776390D01*
X872508Y777734D01*
X872824Y779320D01*
Y784530D01*
X873428Y785434D01*
X873819Y787400D01*
X873428Y789367D01*
X872314Y791034D01*
X870647Y792148D01*
X868680Y792539D01*
X866713Y792148D01*
X865046Y791034D01*
X863932Y789367D01*
X863541Y787400D01*
X863700Y786602D01*
X862894Y785620D01*
X855900D01*
Y770775D01*
X854630Y770288D01*
X853295Y771180D01*
X851329Y771571D01*
X850980Y771857D01*
Y785620D01*
X838499D01*
X838013Y786793D01*
X866921Y815701D01*
X868437Y816003D01*
X870104Y817117D01*
X870756Y818092D01*
X872322Y818321D01*
X882042Y808602D01*
D02*
G37*
G36*
X720199Y756369D02*
X720061Y755680D01*
X720453Y753714D01*
X721566Y752047D01*
X723234Y750933D01*
X725200Y750541D01*
X726481Y750796D01*
X726892Y750219D01*
X727049Y749614D01*
X718520Y741085D01*
X717250Y741178D01*
Y741630D01*
X708139D01*
Y744800D01*
X709500D01*
Y755991D01*
X710499Y756361D01*
X710770Y756414D01*
X712392Y755331D01*
X714358Y754939D01*
X716325Y755331D01*
X717992Y756444D01*
X718171Y756713D01*
X719731Y756861D01*
X720199Y756369D01*
D02*
G37*
G36*
X783334Y756863D02*
X783893Y756490D01*
X783507Y755220D01*
X775280D01*
Y750205D01*
X769457Y744382D01*
X769457Y744382D01*
X766555Y741480D01*
X754800D01*
Y733601D01*
X753530Y733075D01*
X748880Y737725D01*
Y741480D01*
X744730D01*
Y744800D01*
X746300D01*
Y757627D01*
X747760D01*
Y753340D01*
X753760D01*
X759760D01*
Y758340D01*
X756525D01*
X755847Y759610D01*
X756091Y759975D01*
X780222D01*
X783334Y756863D01*
D02*
G37*
G36*
X829087Y749795D02*
X828372Y748727D01*
X827981Y746760D01*
X828372Y744793D01*
X828976Y743890D01*
Y716280D01*
X829292Y714694D01*
X830190Y713350D01*
X832535Y711005D01*
X832502Y710779D01*
X831152Y710333D01*
X796143Y745342D01*
X794462Y746465D01*
X792480Y746860D01*
X790913Y746548D01*
X789763Y747323D01*
Y747698D01*
X790916Y748472D01*
X792480Y748161D01*
X794446Y748552D01*
X796114Y749666D01*
X797048Y751065D01*
X828408D01*
X829087Y749795D01*
D02*
G37*
G36*
X871060Y729140D02*
X871456D01*
Y722455D01*
X870165D01*
X868872Y722198D01*
X867775Y721465D01*
X867042Y720368D01*
X866785Y719075D01*
Y708380D01*
X866140Y707955D01*
X865979Y708061D01*
X865495Y708645D01*
Y719075D01*
X865238Y720368D01*
X864505Y721465D01*
X863408Y722198D01*
X862115Y722455D01*
X859945D01*
X855744Y726656D01*
Y729140D01*
X856140D01*
Y751065D01*
X859600D01*
Y743180D01*
X863600D01*
X867600D01*
Y751065D01*
X871060D01*
Y729140D01*
D02*
G37*
G36*
X988958Y712062D02*
X988467Y710757D01*
X986966Y709754D01*
X985852Y708086D01*
X985461Y706120D01*
X985654Y705150D01*
X984624Y703880D01*
X981940D01*
Y697880D01*
Y691880D01*
X986456D01*
Y690420D01*
X973400D01*
Y690420D01*
X972240D01*
Y690420D01*
X958160D01*
Y684665D01*
X946858Y673363D01*
X915285Y704935D01*
X915305Y705135D01*
X916038Y706232D01*
X916295Y707525D01*
Y719075D01*
X916038Y720368D01*
X915770Y720770D01*
Y745379D01*
X916250Y745745D01*
X917520Y745115D01*
Y738060D01*
X931600D01*
X931600Y738060D01*
X932760D01*
Y738060D01*
X932870Y738060D01*
X946840D01*
Y746980D01*
X954040D01*
X988958Y712062D01*
D02*
G37*
G36*
X802092Y724743D02*
X801606Y723570D01*
X792940D01*
Y723570D01*
X792020D01*
Y723570D01*
X777940D01*
Y721789D01*
X773880D01*
Y722480D01*
X773340D01*
Y724940D01*
X764340D01*
Y727940D01*
X773340D01*
Y730400D01*
X773880D01*
Y734029D01*
X774633Y734637D01*
X775820Y734119D01*
Y728680D01*
X780820D01*
Y734680D01*
X782320D01*
Y736180D01*
X788820D01*
Y736356D01*
X789993Y736842D01*
X802092Y724743D01*
D02*
G37*
G36*
X993638Y772622D02*
Y721252D01*
X993496Y721040D01*
X991929Y720810D01*
X966842Y745898D01*
X967333Y747203D01*
X968834Y748206D01*
X969948Y749874D01*
X970160Y750940D01*
X992368Y773148D01*
X993638Y772622D01*
D02*
G37*
G36*
X903850Y786793D02*
X903364Y785620D01*
X895900D01*
Y762540D01*
X910980D01*
Y765038D01*
X913631D01*
X914535Y764434D01*
X916501Y764043D01*
X917725Y764286D01*
X918351Y763116D01*
X906927Y751693D01*
X905805Y750012D01*
X905411Y748030D01*
Y720770D01*
X905142Y720368D01*
X904885Y719075D01*
Y712680D01*
X904865Y712666D01*
X903595Y713345D01*
Y719075D01*
X903338Y720368D01*
X902605Y721465D01*
X901775Y722020D01*
Y748030D01*
X901479Y749517D01*
X900637Y750777D01*
X890047Y761367D01*
X890533Y762540D01*
X890980D01*
Y785620D01*
X888064D01*
Y799770D01*
X888470Y800378D01*
X889882Y800762D01*
X903850Y786793D01*
D02*
G37*
G36*
X847060Y729140D02*
X847456D01*
Y724940D01*
X847772Y723354D01*
X848670Y722010D01*
X854085Y716595D01*
Y707525D01*
X853974Y707390D01*
X843243D01*
X842564Y708660D01*
X842948Y709233D01*
X843339Y711200D01*
X842948Y713167D01*
X841834Y714834D01*
X840166Y715948D01*
X839100Y716160D01*
X837264Y717996D01*
Y743890D01*
X837868Y744793D01*
X838259Y746760D01*
X837868Y748727D01*
X837153Y749795D01*
X837832Y751065D01*
X847060D01*
Y729140D01*
D02*
G37*
G36*
X1059127Y889715D02*
Y873760D01*
X1059324Y872768D01*
X1059886Y871926D01*
X1060728Y871364D01*
X1061720Y871167D01*
X1094687D01*
Y683314D01*
X1093508Y682584D01*
X1093417Y682585D01*
X1092947Y683100D01*
Y698470D01*
X1092503Y700700D01*
X1091240Y702590D01*
X1047227Y746604D01*
Y858640D01*
X1051440D01*
Y878720D01*
X1049150D01*
X1048664Y879893D01*
X1055354Y886584D01*
X1056252Y887928D01*
X1056394Y888642D01*
X1057954Y890201D01*
X1059127Y889715D01*
D02*
G37*
G36*
X980350Y676167D02*
X974664Y670480D01*
X973393Y670228D01*
X971726Y669114D01*
X970612Y667447D01*
X970221Y665480D01*
X970612Y663513D01*
X970882Y663110D01*
X970284Y661990D01*
X954395D01*
Y663471D01*
X954429Y663645D01*
Y666285D01*
X965485Y677340D01*
X972240D01*
Y677340D01*
X973400D01*
Y677340D01*
X979864D01*
X980350Y676167D01*
D02*
G37*
G36*
X936942Y668628D02*
X936456Y667455D01*
X933665D01*
X932372Y667198D01*
X931275Y666465D01*
X930542Y665368D01*
X930285Y664075D01*
Y656381D01*
X929015Y655776D01*
X928995Y655792D01*
Y664075D01*
X928738Y665368D01*
X928005Y666465D01*
X926908Y667198D01*
X925615Y667455D01*
X920965D01*
X919672Y667198D01*
X918575Y666465D01*
X917842Y665368D01*
X917585Y664075D01*
Y652525D01*
X917842Y651232D01*
X916991Y650628D01*
X916839Y650725D01*
X916122Y651657D01*
X916295Y652525D01*
Y664075D01*
X916038Y665368D01*
X915305Y666465D01*
X914208Y667198D01*
X912915Y667455D01*
X908265D01*
X906972Y667198D01*
X905875Y666465D01*
X905142Y665368D01*
X904885Y664075D01*
Y652525D01*
X905142Y651232D01*
X905875Y650135D01*
X905887Y650017D01*
X884260Y628390D01*
X879040D01*
Y612810D01*
X880436D01*
Y590434D01*
X879166Y590018D01*
X877746Y590967D01*
X876680Y591179D01*
X842344Y625516D01*
Y691760D01*
X842948Y692663D01*
X843339Y694630D01*
X843114Y695760D01*
X844069Y697030D01*
X908540D01*
X936942Y668628D01*
D02*
G37*
G36*
X828288Y698548D02*
X829968Y697425D01*
X831950Y697030D01*
X832331D01*
X833286Y695760D01*
X833061Y694630D01*
X833452Y692663D01*
X834056Y691760D01*
Y626179D01*
X832883Y625693D01*
X816664Y641913D01*
Y708050D01*
X816794Y708245D01*
X818367Y708468D01*
X828288Y698548D01*
D02*
G37*
G36*
X916690Y640412D02*
X918656Y640021D01*
X919806Y640250D01*
X921076Y639305D01*
Y628390D01*
X919680D01*
Y618670D01*
X918970Y617960D01*
X918072Y616616D01*
X917756Y615030D01*
Y596320D01*
X915860D01*
Y582240D01*
X927940D01*
Y590738D01*
X929180Y590810D01*
Y590810D01*
X930576D01*
Y587070D01*
X929972Y586166D01*
X929581Y584200D01*
X929972Y582234D01*
X931086Y580566D01*
X932754Y579452D01*
X933707Y579263D01*
X934125Y577885D01*
X922080Y565840D01*
X915860D01*
Y554920D01*
X912940D01*
Y565840D01*
X906720D01*
X888724Y583836D01*
Y590810D01*
X899620D01*
Y590810D01*
X900860Y590738D01*
Y582240D01*
X912940D01*
Y596320D01*
X911044D01*
Y615030D01*
X910728Y616616D01*
X909830Y617960D01*
X909120Y618670D01*
Y628390D01*
X905656D01*
X905170Y629563D01*
X916249Y640643D01*
X916345D01*
X916690Y640412D01*
D02*
G37*
%LPC*%
G36*
X734733Y870413D02*
X733011Y866255D01*
X737630Y864342D01*
X739352Y868500D01*
X734733Y870413D01*
D02*
G37*
G36*
X735600Y849780D02*
X731100D01*
Y844780D01*
X735600D01*
Y849780D01*
D02*
G37*
G36*
X728100D02*
X723600D01*
Y844780D01*
X728100D01*
Y849780D01*
D02*
G37*
G36*
X735600Y841780D02*
X731100D01*
Y836780D01*
X735600D01*
Y841780D01*
D02*
G37*
G36*
X728100D02*
X723600D01*
Y836780D01*
X728100D01*
Y841780D01*
D02*
G37*
G36*
X709870Y812720D02*
X707620D01*
Y809220D01*
X709870D01*
Y812720D01*
D02*
G37*
G36*
X971200Y814220D02*
X967200D01*
Y809220D01*
X971200D01*
Y814220D01*
D02*
G37*
G36*
X943940Y796080D02*
X930940D01*
Y790580D01*
X943940D01*
Y796080D01*
D02*
G37*
G36*
X708960Y707540D02*
X704460D01*
Y702540D01*
X708960D01*
Y707540D01*
D02*
G37*
G36*
X759760Y696990D02*
X755760D01*
Y691990D01*
X759760D01*
Y696990D01*
D02*
G37*
G36*
X752760D02*
X748760D01*
Y691990D01*
X752760D01*
Y696990D01*
D02*
G37*
G36*
X1027660Y664705D02*
Y656820D01*
X1035545D01*
X1035415Y657800D01*
X1034458Y660111D01*
X1032935Y662095D01*
X1030951Y663618D01*
X1028640Y664576D01*
X1027660Y664705D01*
D02*
G37*
G36*
X1024660D02*
X1023680Y664576D01*
X1021369Y663618D01*
X1019385Y662095D01*
X1017862Y660111D01*
X1016905Y657800D01*
X1016776Y656820D01*
X1024660D01*
Y664705D01*
D02*
G37*
G36*
X1035545Y653820D02*
X1027660D01*
Y645936D01*
X1028640Y646065D01*
X1030951Y647022D01*
X1032935Y648544D01*
X1034458Y650529D01*
X1035415Y652840D01*
X1035545Y653820D01*
D02*
G37*
G36*
X1024660D02*
X1016776D01*
X1016905Y652840D01*
X1017862Y650529D01*
X1019385Y648544D01*
X1021369Y647022D01*
X1023680Y646065D01*
X1024660Y645936D01*
Y653820D01*
D02*
G37*
G36*
X1023920Y636420D02*
X1019420D01*
Y631420D01*
X1023920D01*
Y636420D01*
D02*
G37*
G36*
X1016420D02*
X1011920D01*
Y631420D01*
X1016420D01*
Y636420D01*
D02*
G37*
G36*
X748068Y636563D02*
X743448Y634650D01*
X745171Y630493D01*
X749790Y632406D01*
X748068Y636563D01*
D02*
G37*
G36*
X750938Y629635D02*
X746319Y627721D01*
X748041Y623564D01*
X752660Y625477D01*
X750938Y629635D01*
D02*
G37*
G36*
X1023920Y628420D02*
X1019420D01*
Y623420D01*
X1023920D01*
Y628420D01*
D02*
G37*
G36*
X1016420D02*
X1011920D01*
Y623420D01*
X1016420D01*
Y628420D01*
D02*
G37*
G36*
X1122310Y537520D02*
X1102730D01*
Y535159D01*
X1074340D01*
Y537520D01*
X1059260D01*
Y533499D01*
X1055110D01*
Y533860D01*
X1039530D01*
Y522780D01*
X1055110D01*
Y523140D01*
X1064140D01*
X1065646Y523440D01*
X1067015D01*
X1079255Y511201D01*
X1079959Y510141D01*
X1078350Y508043D01*
X1077338Y505601D01*
X1076993Y502980D01*
X1077338Y500359D01*
X1078350Y497917D01*
X1079959Y495819D01*
X1082057Y494210D01*
X1084499Y493198D01*
X1087120Y492853D01*
X1089741Y493198D01*
X1092183Y494210D01*
X1094281Y495819D01*
X1095890Y497917D01*
X1096902Y500359D01*
X1097247Y502980D01*
X1096902Y505601D01*
X1095890Y508043D01*
X1094281Y510141D01*
X1092183Y511750D01*
X1090401Y512488D01*
Y512558D01*
X1090007Y514540D01*
X1088884Y516221D01*
X1081478Y523627D01*
X1081964Y524800D01*
X1102730D01*
Y521440D01*
X1122310D01*
Y524300D01*
X1131902D01*
X1132103Y522779D01*
X1133114Y520336D01*
X1134724Y518239D01*
X1136821Y516629D01*
X1139263Y515618D01*
X1141884Y515273D01*
X1144505Y515618D01*
X1146947Y516629D01*
X1149045Y518239D01*
X1150654Y520336D01*
X1151666Y522779D01*
X1152011Y525400D01*
X1151666Y528020D01*
X1150654Y530463D01*
X1149045Y532560D01*
X1146947Y534169D01*
X1144505Y535181D01*
X1141884Y535526D01*
X1139263Y535181D01*
X1137068Y534272D01*
X1135119Y534660D01*
X1122310D01*
Y537520D01*
D02*
G37*
G36*
X1009420Y526320D02*
X1004420D01*
Y522320D01*
X1009420D01*
Y526320D01*
D02*
G37*
G36*
X1026820Y523820D02*
Y520320D01*
X1032570D01*
Y523820D01*
X1026820D01*
D02*
G37*
G36*
X1009420Y519320D02*
X1004420D01*
Y515320D01*
X1009420D01*
Y519320D01*
D02*
G37*
G36*
X1032570Y517320D02*
X1026820D01*
Y513820D01*
X1032570D01*
Y517320D01*
D02*
G37*
G36*
X1017420Y526320D02*
X1012420D01*
Y520820D01*
Y515320D01*
X1016800D01*
X1017420Y515320D01*
X1018070Y514319D01*
Y513820D01*
X1023820D01*
Y518820D01*
Y523820D01*
X1018690D01*
X1018070Y523820D01*
X1017420Y524821D01*
Y526320D01*
D02*
G37*
G36*
X1162683Y473260D02*
X1158525Y471538D01*
X1160439Y466919D01*
X1164596Y468641D01*
X1162683Y473260D01*
D02*
G37*
G36*
X1155754Y470390D02*
X1151597Y468668D01*
X1153510Y464049D01*
X1157667Y465771D01*
X1155754Y470390D01*
D02*
G37*
G36*
X912731Y467902D02*
X910818Y463283D01*
X914975Y461561D01*
X916889Y466180D01*
X912731Y467902D01*
D02*
G37*
G36*
X919660Y465032D02*
X917747Y460413D01*
X921905Y458691D01*
X923818Y463310D01*
X919660Y465032D01*
D02*
G37*
G36*
X745760Y798980D02*
X741260D01*
Y793980D01*
X745760D01*
Y798980D01*
D02*
G37*
G36*
X738260D02*
X733760D01*
Y793980D01*
X738260D01*
Y798980D01*
D02*
G37*
G36*
X745760Y790980D02*
X741260D01*
Y785980D01*
X745760D01*
Y790980D01*
D02*
G37*
G36*
X738260D02*
X733760D01*
Y785980D01*
X738260D01*
Y790980D01*
D02*
G37*
G36*
X745760Y783740D02*
X741260D01*
Y778740D01*
X745760D01*
Y783740D01*
D02*
G37*
G36*
X738260D02*
X733760D01*
Y778740D01*
X738260D01*
Y783740D01*
D02*
G37*
G36*
Y775740D02*
X733760D01*
Y770740D01*
X738260D01*
Y775740D01*
D02*
G37*
G36*
X759760Y750340D02*
X755260D01*
Y745340D01*
X759760D01*
Y750340D01*
D02*
G37*
G36*
X752260D02*
X747760D01*
Y745340D01*
X752260D01*
Y750340D01*
D02*
G37*
G36*
X867600Y740180D02*
X865100D01*
Y729680D01*
X867600D01*
Y740180D01*
D02*
G37*
G36*
X862100D02*
X859600D01*
Y729680D01*
X862100D01*
Y740180D01*
D02*
G37*
G36*
X951015Y721904D02*
X950190D01*
Y714800D01*
X953844D01*
Y719075D01*
X953629Y720158D01*
X953016Y721076D01*
X952098Y721689D01*
X951015Y721904D01*
D02*
G37*
G36*
X932760Y735140D02*
X931600D01*
X931490Y735140D01*
X917520D01*
Y723060D01*
X918676D01*
X919062Y721790D01*
X918575Y721465D01*
X917842Y720368D01*
X917585Y719075D01*
Y707525D01*
X917842Y706232D01*
X918575Y705135D01*
X919672Y704402D01*
X920965Y704145D01*
X925615D01*
X926908Y704402D01*
X928005Y705135D01*
X928738Y706232D01*
X928995Y707525D01*
Y719075D01*
X928738Y720368D01*
X928069Y721370D01*
Y723060D01*
X931376D01*
X932025Y721966D01*
X931275Y721465D01*
X930542Y720368D01*
X930285Y719075D01*
Y707525D01*
X930542Y706232D01*
X931275Y705135D01*
X932372Y704402D01*
X933665Y704145D01*
X938315D01*
X939608Y704402D01*
X940705Y705135D01*
X941438Y706232D01*
X941695Y707525D01*
Y716077D01*
X942266Y716510D01*
X943536Y715880D01*
Y714800D01*
X947190D01*
Y722268D01*
X947025Y722333D01*
X946840Y723350D01*
X946840Y723351D01*
X946840Y723351D01*
Y735140D01*
X932870D01*
X932760Y735140D01*
D02*
G37*
G36*
X953844Y711800D02*
X950190D01*
Y704696D01*
X951015D01*
X952098Y704911D01*
X953016Y705524D01*
X953629Y706442D01*
X953844Y707525D01*
Y711800D01*
D02*
G37*
G36*
X947190D02*
X943536D01*
Y707525D01*
X943751Y706442D01*
X944364Y705524D01*
X945282Y704911D01*
X946365Y704696D01*
X947190D01*
Y711800D01*
D02*
G37*
G36*
X971700Y703880D02*
X966700D01*
Y699380D01*
X971700D01*
Y703880D01*
D02*
G37*
G36*
X978940D02*
X973940D01*
Y699380D01*
X978940D01*
Y703880D01*
D02*
G37*
G36*
X963700D02*
X958700D01*
Y699380D01*
X963700D01*
Y703880D01*
D02*
G37*
G36*
X978940Y696380D02*
X973940D01*
Y691880D01*
X978940D01*
Y696380D01*
D02*
G37*
G36*
X971700D02*
X966700D01*
Y691880D01*
X971700D01*
Y696380D01*
D02*
G37*
G36*
X963700D02*
X958700D01*
Y691880D01*
X963700D01*
Y696380D01*
D02*
G37*
G36*
X788820Y733180D02*
X783820D01*
Y728680D01*
X788820D01*
Y733180D01*
D02*
G37*
G36*
X900215Y667455D02*
X895565D01*
X894272Y667198D01*
X893175Y666465D01*
X892442Y665368D01*
X892185Y664075D01*
Y652525D01*
X892442Y651232D01*
X893175Y650135D01*
X894272Y649402D01*
X895565Y649145D01*
X900215D01*
X901508Y649402D01*
X902605Y650135D01*
X903338Y651232D01*
X903595Y652525D01*
Y664075D01*
X903338Y665368D01*
X902605Y666465D01*
X901508Y667198D01*
X900215Y667455D01*
D02*
G37*
G36*
X887515D02*
X882865D01*
X881572Y667198D01*
X880475Y666465D01*
X879742Y665368D01*
X879485Y664075D01*
Y652525D01*
X879742Y651232D01*
X880475Y650135D01*
X881572Y649402D01*
X882865Y649145D01*
X887515D01*
X888808Y649402D01*
X889905Y650135D01*
X890638Y651232D01*
X890895Y652525D01*
Y664075D01*
X890638Y665368D01*
X889905Y666465D01*
X888808Y667198D01*
X887515Y667455D01*
D02*
G37*
G36*
X874815D02*
X870165D01*
X868872Y667198D01*
X867775Y666465D01*
X867042Y665368D01*
X866785Y664075D01*
Y652525D01*
X867042Y651232D01*
X867775Y650135D01*
X868872Y649402D01*
X870165Y649145D01*
X874815D01*
X876108Y649402D01*
X877205Y650135D01*
X877938Y651232D01*
X878195Y652525D01*
Y664075D01*
X877938Y665368D01*
X877205Y666465D01*
X876108Y667198D01*
X874815Y667455D01*
D02*
G37*
G36*
X862115D02*
X857465D01*
X856172Y667198D01*
X855075Y666465D01*
X854342Y665368D01*
X854085Y664075D01*
Y652525D01*
X854342Y651232D01*
X855075Y650135D01*
X856172Y649402D01*
X857465Y649145D01*
X862115D01*
X863408Y649402D01*
X864505Y650135D01*
X865238Y651232D01*
X865495Y652525D01*
Y664075D01*
X865238Y665368D01*
X864505Y666465D01*
X863408Y667198D01*
X862115Y667455D01*
D02*
G37*
%LPD*%
D12*
X686885Y799649D02*
G03*
X689185Y798161I2312J1052D01*
G01*
X698404Y788616D02*
G03*
X699140Y788111I1782J1810D01*
G01*
X693408Y793612D02*
G03*
X691617Y794351I-1791J-1801D01*
G01*
X683402Y797149D02*
G03*
X683512Y797105I1260J3017D01*
G01*
X684487Y796441D02*
G03*
X683512Y797105I-1878J-1710D01*
G01*
X684487Y796441D02*
G03*
X689177Y794351I4709J4259D01*
G01*
X684674Y801937D02*
G03*
X684254Y802498I-5525J-3703D01*
G01*
X684674Y801937D02*
G03*
X685506Y801165I2100J1429D01*
G01*
X686885Y799649D02*
G03*
X685506Y801165I-2987J-1330D01*
G01*
X753623Y763860D02*
X781831D01*
X743699D02*
X746047Y761511D01*
X786081Y759610D02*
X853430D01*
X738460Y763860D02*
X743699D01*
X746047Y761511D02*
X751275D01*
X753623Y763860D01*
X853430Y759610D02*
X855630Y761810D01*
X781831Y763860D02*
X786081Y759610D01*
X748661Y767821D02*
X789913D01*
X791814Y765920D01*
X792480D01*
X884110Y761810D02*
X897890Y748030D01*
X855630Y761810D02*
X884110D01*
X792480Y753300D02*
X793146D01*
X794796Y754950D01*
X878954D02*
X885190Y748715D01*
Y713300D02*
Y748715D01*
X794796Y754950D02*
X878954D01*
X897890Y713300D02*
Y748030D01*
X690880Y798161D02*
X699140D01*
X689185D02*
X690880D01*
X690788Y786857D02*
Y787308D01*
Y786857D02*
X713887Y763758D01*
Y760549D02*
Y763758D01*
Y760549D02*
X714358Y760078D01*
X690880Y798161D02*
Y801719D01*
X699140Y788111D02*
Y788111D01*
Y785670D02*
Y788111D01*
X700100Y783260D02*
X724730Y758631D01*
X699620Y787400D02*
X700100Y786920D01*
Y783260D02*
Y786920D01*
X724730Y756151D02*
Y758631D01*
Y756151D02*
X725200Y755680D01*
X689177Y794351D02*
X691617D01*
X679689Y798687D02*
X679689Y798687D01*
X679689Y798687D02*
X679689D01*
X676662Y798880D02*
X679689Y798687D01*
X679689Y798687D02*
X683402Y797149D01*
X693408Y793612D02*
X698404Y788616D01*
X699140Y785670D02*
X699620Y787400D01*
X679149Y804885D02*
X684254Y802498D01*
X699140Y798161D02*
X699620Y797560D01*
D16*
X1107440Y1017920D02*
D03*
Y1003920D02*
D03*
X782320Y748680D02*
D03*
Y734680D02*
D03*
X741680Y927720D02*
D03*
Y941720D02*
D03*
X965200Y683880D02*
D03*
Y697880D02*
D03*
X980440Y683880D02*
D03*
Y697880D02*
D03*
D17*
X777440Y929080D02*
D03*
Y909080D02*
D03*
Y889080D02*
D03*
Y869080D02*
D03*
Y849080D02*
D03*
Y829080D02*
D03*
Y809080D02*
D03*
Y789080D02*
D03*
X929440D02*
D03*
Y809080D02*
D03*
Y829080D02*
D03*
Y849080D02*
D03*
Y869080D02*
D03*
Y889080D02*
D03*
Y909080D02*
D03*
Y929080D02*
D03*
D18*
X803440Y774080D02*
D03*
X823440D02*
D03*
X843440D02*
D03*
X863440D02*
D03*
X883440D02*
D03*
X903440D02*
D03*
D19*
X756920Y942220D02*
D03*
Y927220D02*
D03*
Y896500D02*
D03*
Y881500D02*
D03*
X1010920Y520820D02*
D03*
Y535820D02*
D03*
X665480Y739020D02*
D03*
Y724020D02*
D03*
X924560Y729100D02*
D03*
Y744100D02*
D03*
X939800Y729100D02*
D03*
Y744100D02*
D03*
D20*
X915787Y1054239D02*
D03*
X1146693Y459601D02*
D03*
X902853Y1048881D02*
D03*
X1159627Y464959D02*
D03*
D21*
X739279Y885307D02*
D03*
X1328281Y633613D02*
D03*
X733921Y872373D02*
D03*
X1333639Y646547D02*
D03*
D22*
X739001Y641467D02*
D03*
X1333639Y867293D02*
D03*
X744359Y628533D02*
D03*
X1328281Y880227D02*
D03*
D23*
X902853Y464959D02*
D03*
X1164707Y1048881D02*
D03*
X1151773Y1054239D02*
D03*
X915787Y459601D02*
D03*
D24*
X922104Y1078764D02*
D03*
X1140376Y435076D02*
D03*
X909475Y1109252D02*
D03*
X864205Y1090501D02*
D03*
X876834Y1060013D02*
D03*
X1153005Y404588D02*
D03*
X1198275Y423339D02*
D03*
X1185646Y453827D02*
D03*
D25*
X728252Y909475D02*
D03*
X1339308Y609445D02*
D03*
X697764Y922104D02*
D03*
X679013Y876834D02*
D03*
X709501Y864205D02*
D03*
X1369796Y596816D02*
D03*
X1388547Y642086D02*
D03*
X1358059Y654715D02*
D03*
D26*
X709396Y652864D02*
D03*
X1358164Y860976D02*
D03*
X678908Y640236D02*
D03*
X697659Y594966D02*
D03*
X728147Y607594D02*
D03*
X1388652Y873605D02*
D03*
X1369901Y918875D02*
D03*
X1339413Y906246D02*
D03*
D27*
X878684Y453932D02*
D03*
X1188876Y1059908D02*
D03*
X1201504Y1090396D02*
D03*
X1156234Y1109147D02*
D03*
X1143605Y1078659D02*
D03*
X866056Y423444D02*
D03*
X911326Y404693D02*
D03*
X923954Y435181D02*
D03*
D28*
X729600Y843280D02*
D03*
X743600D02*
D03*
X739760Y751840D02*
D03*
X753760D02*
D03*
X702960Y751840D02*
D03*
X688960D02*
D03*
X688960Y701040D02*
D03*
X702960D02*
D03*
X1003920Y629920D02*
D03*
X1017920D02*
D03*
X753760Y777240D02*
D03*
X739760D02*
D03*
X753760Y792480D02*
D03*
X739760D02*
D03*
X973440Y975360D02*
D03*
X987440D02*
D03*
D29*
X656633Y820035D02*
D03*
X647540Y798084D02*
D03*
D30*
X685394Y822182D02*
D03*
X666359Y776228D02*
D03*
D31*
X681637Y810891D02*
D03*
X679149Y804885D02*
D03*
X676662Y798880D02*
D03*
X674174Y792875D02*
D03*
X671687Y786870D02*
D03*
D32*
X743440Y828040D02*
D03*
X709440D02*
D03*
D33*
X706120Y797560D02*
D03*
X699620D02*
D03*
X706120Y787400D02*
D03*
X699620D02*
D03*
X706120Y807720D02*
D03*
X699620D02*
D03*
D34*
X1112520Y547480D02*
D03*
Y529480D02*
D03*
D35*
X1066800Y546480D02*
D03*
Y530480D02*
D03*
D36*
X683460Y735840D02*
D03*
Y726440D02*
D03*
Y717040D02*
D03*
X708460D02*
D03*
Y735840D02*
D03*
D37*
X764340Y716940D02*
D03*
Y726440D02*
D03*
Y735940D02*
D03*
X739340D02*
D03*
Y716940D02*
D03*
D38*
X784980Y716280D02*
D03*
X799980D02*
D03*
D39*
X903580Y620600D02*
D03*
X884580D02*
D03*
X894080Y598600D02*
D03*
X944220Y620600D02*
D03*
X925220D02*
D03*
X934720Y598600D02*
D03*
D40*
X1025320Y537820D02*
D03*
Y518820D02*
D03*
X1047320Y528320D02*
D03*
D41*
X950440Y1029420D02*
D03*
X1010440D02*
D03*
X950440Y992420D02*
D03*
X1010440D02*
D03*
X1031720Y1029420D02*
D03*
X1091720D02*
D03*
X1031720Y992420D02*
D03*
X1091720D02*
D03*
D42*
X935990Y713300D02*
D03*
X910590Y658300D02*
D03*
X948690Y713300D02*
D03*
X923290D02*
D03*
X910590D02*
D03*
X923290Y658300D02*
D03*
X897890D02*
D03*
X885190D02*
D03*
Y713300D02*
D03*
X859790Y658300D02*
D03*
X897890Y713300D02*
D03*
X872490D02*
D03*
Y658300D02*
D03*
X859790Y713300D02*
D03*
X935990Y658300D02*
D03*
X948690D02*
D03*
D43*
X875600Y741680D02*
D03*
X863600D02*
D03*
X851600D02*
D03*
D44*
X784980Y701040D02*
D03*
X799980D02*
D03*
X754260Y698490D02*
D03*
X739260D02*
D03*
X972700Y848360D02*
D03*
X957700D02*
D03*
X972700Y828040D02*
D03*
X957700D02*
D03*
X957700Y807720D02*
D03*
X972700D02*
D03*
X906900Y558800D02*
D03*
X921900D02*
D03*
X921900Y589280D02*
D03*
X906900D02*
D03*
D78*
X686528Y808514D02*
G03*
X687679Y808283I1164J2817D01*
G01*
X1104964Y1001444D02*
X1107440Y1003920D01*
X1091720Y992420D02*
X1093220D01*
X1102244Y1001444D01*
X1104964D01*
X769940Y929080D02*
X777440D01*
X996653Y892705D02*
X1021080Y917132D01*
X980951Y892705D02*
X996653D01*
X1010307Y888387D02*
X1036320Y914400D01*
X876143Y561184D02*
X954727Y482600D01*
X1224280D01*
X838200Y623799D02*
Y694630D01*
Y623799D02*
X875780Y586220D01*
X833120Y716280D02*
X838200Y711200D01*
X833120Y716280D02*
Y746760D01*
X762000Y954512D02*
Y955040D01*
Y954512D02*
X766464Y950048D01*
Y932556D02*
Y950048D01*
Y932556D02*
X769940Y929080D01*
X1005840Y1016000D02*
X1006214Y1015627D01*
X1008513D02*
X1028244Y995896D01*
X1006214Y1015627D02*
X1008513D01*
X1028244Y994396D02*
X1030220Y992420D01*
X1028244Y994396D02*
Y995896D01*
X1030220Y992420D02*
X1091720D01*
X776510Y928150D02*
X785870D01*
X1127760Y1076960D02*
X1128288D01*
X1143211Y1079054D02*
X1143605Y1078659D01*
X1130382Y1079054D02*
X1143211D01*
X1128288Y1076960D02*
X1130382Y1079054D01*
X828040Y916475D02*
X846285Y934720D01*
X909320D01*
X788120Y849080D02*
X797560Y858520D01*
X777440Y849080D02*
X788120D01*
X973440Y960140D02*
Y975860D01*
X964847Y951547D02*
X973440Y960140D01*
X964847Y937013D02*
X965200Y936660D01*
X964847Y937013D02*
Y951547D01*
X893359Y914703D02*
X893776D01*
X888567Y909911D02*
X893359Y914703D01*
X813391Y909911D02*
X888567D01*
X922956Y869080D02*
X929440D01*
X919480Y865604D02*
X922956Y869080D01*
X919480Y859120D02*
Y865604D01*
X1107440Y925028D02*
X1199348D01*
X1219200Y944880D01*
X1069384Y907492D02*
X1082040D01*
X1052424Y889514D02*
Y890531D01*
X1043205Y880294D02*
X1052424Y889514D01*
X1033031Y880294D02*
X1043205D01*
X1052424Y890531D02*
X1069384Y907492D01*
X1018580Y865843D02*
X1033031Y880294D01*
X1018580Y801634D02*
Y865843D01*
X1004345Y787400D02*
X1018580Y801634D01*
X990600Y777240D02*
Y787400D01*
X965200Y751840D02*
X990600Y777240D01*
X846916Y766604D02*
X851157D01*
X843440Y770080D02*
Y774080D01*
Y770080D02*
X846916Y766604D01*
X851157D02*
X851329Y766432D01*
X1033341Y962221D02*
X1176459D01*
X1193800Y944880D01*
X868680Y873760D02*
Y879717D01*
X853440Y858520D02*
X868680Y873760D01*
X835963Y828373D02*
X837438Y829847D01*
Y837438D01*
X835963Y825197D02*
Y828373D01*
X837438Y837438D02*
X843280Y843280D01*
X777440Y809080D02*
X783652D01*
X787129Y812556D01*
Y817609D01*
X873760Y833120D02*
Y870164D01*
X882436Y878840D01*
X823440Y778080D02*
X866110Y820750D01*
X866470D01*
X823440Y774080D02*
Y778080D01*
X868680Y889000D02*
X882436D01*
X843280Y863600D02*
X868680Y889000D01*
X833120Y831636D02*
Y853440D01*
X819364Y817880D02*
X833120Y831636D01*
X796076Y785401D02*
X799921Y781556D01*
X796076Y785401D02*
Y807720D01*
X803440Y774080D02*
Y778080D01*
X799964Y781556D02*
X803440Y778080D01*
X799921Y781556D02*
X799964D01*
X1038166Y944880D02*
X1041400D01*
X1034217Y948829D02*
X1038166Y944880D01*
X971411Y948829D02*
X1034217D01*
X795657Y909080D02*
X801569Y903169D01*
X777440Y909080D02*
X795657D01*
X1056640Y914056D02*
X1091188D01*
X1095597Y918464D01*
X1208374D01*
X1232528Y942618D01*
X1242338D01*
X1244600Y944880D01*
X986311Y888387D02*
X1010307D01*
X979009Y881085D02*
X986311Y888387D01*
X943023Y882261D02*
X943396Y881888D01*
X929440Y889080D02*
X936940D01*
X943023Y882998D01*
Y882261D02*
Y882998D01*
X956524Y868278D02*
X980951Y892705D01*
X868680Y779320D02*
Y787400D01*
X863440Y774080D02*
X868680Y779320D01*
X1097280Y924560D02*
X1117600Y944880D01*
X1071880Y924560D02*
X1097280D01*
X960212Y923696D02*
X1045616D01*
X955596Y919080D02*
X960212Y923696D01*
X1045616D02*
X1051560Y929640D01*
X942574Y919080D02*
X955596D01*
X889000Y817880D02*
Y900116D01*
X892596Y903712D02*
Y904240D01*
X889000Y900116D02*
X892596Y903712D01*
X883440Y774080D02*
X883920Y774560D01*
Y802640D01*
X997863Y845463D02*
Y866133D01*
X1052349Y920620D01*
X1058130D01*
X1080128Y942618D01*
X1089938D01*
X1092200Y944880D01*
X988580Y798460D02*
Y836180D01*
X971360Y781240D02*
X988580Y798460D01*
X945124Y780671D02*
X945652D01*
X929640Y777240D02*
X941693D01*
X945124Y780671D01*
X903440Y772657D02*
X906916Y769181D01*
X916501D01*
X903440Y772657D02*
Y774080D01*
X922060Y909200D02*
X929560D01*
X909320Y896460D02*
X922060Y909200D01*
X909320Y807720D02*
Y896460D01*
X785870Y928150D02*
X812800Y901220D01*
Y875644D02*
Y901220D01*
X827424Y869080D02*
X911964Y784540D01*
Y784072D02*
X944912Y751124D01*
X911964Y784072D02*
Y784540D01*
X921940Y929080D02*
X929440D01*
X899160Y906300D02*
X921940Y929080D01*
X899160Y807720D02*
Y906300D01*
X777440Y829080D02*
X784940D01*
X802640Y811380D01*
Y788120D02*
Y811380D01*
X777440Y869080D02*
X827424D01*
X955756Y751124D02*
X1051560Y655320D01*
X944912Y751124D02*
X955756D01*
X949960Y848720D02*
Y901620D01*
X812800Y787400D02*
Y862516D01*
X936824Y746076D02*
X938800Y744100D01*
X936824Y746076D02*
Y747076D01*
X935094Y748807D02*
X936824Y747076D01*
X935094Y748807D02*
Y751467D01*
X934720Y751840D02*
X935094Y751467D01*
X938800Y744100D02*
X939800D01*
X924700Y744240D02*
Y751420D01*
X924560Y744100D02*
X924700Y744240D01*
Y751420D02*
X924840Y751560D01*
X977660Y856384D02*
X997781Y836262D01*
X964724Y856384D02*
X977660D01*
X957700Y849360D02*
X964724Y856384D01*
X997781Y718381D02*
Y836262D01*
X957700Y848360D02*
Y849360D01*
X805956Y640654D02*
Y692150D01*
Y640654D02*
X910790Y535820D01*
X1010920D01*
X990600Y680556D02*
Y706120D01*
X975524Y665480D02*
X990600Y680556D01*
X975360Y665480D02*
X975524D01*
X974832Y649230D02*
X975360D01*
X970762Y645160D02*
X974832Y649230D01*
X934720Y645160D02*
X970762D01*
X894080Y598600D02*
Y624334D01*
X914533Y644787D01*
X918282D02*
X918656Y645160D01*
X914533Y644787D02*
X918282D01*
X812520Y640196D02*
Y710920D01*
Y640196D02*
X901940Y550776D01*
X926860D01*
X935819Y559735D01*
Y564436D01*
X945151Y573769D01*
X934720Y584200D02*
Y598600D01*
X951940Y992420D02*
X1010440D01*
X950440D02*
X951940D01*
X966024Y978336D01*
X970964D01*
X973440Y975860D01*
X1021070Y535820D02*
X1023070Y537820D01*
X1010920Y535820D02*
X1021070D01*
X1023070Y537820D02*
X1025320D01*
X921900Y558800D02*
Y559800D01*
X944220Y582120D01*
Y620600D01*
X884580Y582120D02*
X906900Y559800D01*
X884580Y582120D02*
Y620600D01*
X906900Y558800D02*
Y559800D01*
X906900Y589280D02*
Y615030D01*
X903580Y618350D02*
X906900Y615030D01*
X903580Y618350D02*
Y620600D01*
X921900Y589280D02*
Y615030D01*
X925220Y618350D01*
Y620600D01*
Y652920D01*
X923290Y654850D02*
X925220Y652920D01*
X923290Y654850D02*
Y658300D01*
X884580Y622850D02*
X910590Y648860D01*
Y658300D01*
X884580Y620600D02*
Y622850D01*
X935990Y716750D02*
X939800Y720560D01*
Y729100D01*
X935990Y713300D02*
Y716750D01*
X923925Y713935D02*
Y728465D01*
X924560Y729100D01*
X923290Y713300D02*
X923925Y713935D01*
X851600Y724940D02*
Y741680D01*
Y724940D02*
X859790Y716750D01*
Y713300D02*
Y716750D01*
X872490Y713300D02*
Y716750D01*
X875600Y719860D02*
Y741680D01*
X872490Y716750D02*
X875600Y719860D01*
X707190Y828040D02*
X709440D01*
X699620Y820470D02*
X707190Y828040D01*
X699620Y807720D02*
Y820470D01*
X686479Y808534D02*
X686528Y808514D01*
X687679Y808283D02*
X699394D01*
X681637Y810891D02*
X686479Y808534D01*
X699394Y808283D02*
X699620Y807720D01*
D79*
X679689Y798687D02*
D03*
D80*
X751840Y949960D02*
X754960Y946840D01*
Y943180D02*
Y946840D01*
X755960Y943180D02*
X756920Y942220D01*
X754960Y943180D02*
X755960D01*
X751737Y899263D02*
Y918727D01*
Y899263D02*
X751840Y899160D01*
Y895839D02*
Y899160D01*
X741930Y927470D02*
X756670D01*
X757850Y928150D02*
X776510D01*
X756920Y927220D02*
X757850Y928150D01*
X756670Y927470D02*
X756920Y927220D01*
X741680Y927720D02*
X741930Y927470D01*
X752139Y895540D02*
X755960D01*
X748319D02*
X752139D01*
X746859Y894080D02*
X748319Y895540D01*
X755960D02*
X756920Y896500D01*
X1266085Y995616D02*
X1316821Y944880D01*
X1295400D02*
X1316821D01*
X1327845Y933855D01*
X972700Y828040D02*
Y848360D01*
X794445Y1048445D02*
X887952D01*
X900826Y1059109D02*
X914809Y1073093D01*
X729400Y910624D02*
Y983400D01*
X794445Y1048445D01*
X898616Y1059109D02*
X900826D01*
X728252Y909475D02*
X729400Y910624D01*
X887952Y1048445D02*
X898616Y1059109D01*
X716280Y980440D02*
X794705Y1058865D01*
X716280Y940620D02*
Y980440D01*
X794705Y1058865D02*
X875686D01*
X697764Y922104D02*
X716280Y940620D01*
X721068Y873985D02*
X727104Y880021D01*
X721068Y858228D02*
Y873985D01*
X727104Y908223D02*
X728252Y909371D01*
X727104Y880021D02*
Y908223D01*
X701040Y838200D02*
X721068Y858228D01*
X680420Y736550D02*
X681130Y735840D01*
X680420Y736550D02*
Y761700D01*
X681130Y735840D02*
X683460D01*
X680420Y761700D02*
X690880Y772160D01*
X709613Y651023D02*
Y652864D01*
X877536Y455080D02*
Y480890D01*
X734131Y624296D02*
X877536Y480890D01*
Y455080D02*
X878684Y453932D01*
X734131Y624296D02*
Y626506D01*
X709613Y651023D02*
X734131Y626506D01*
X721010Y641467D02*
X739001D01*
X709613Y652864D02*
X721010Y641467D01*
X709396Y652864D02*
X709613D01*
X879833Y452784D02*
X908139D01*
X878684Y453932D02*
X879833Y452784D01*
X1138752Y435076D02*
X1140376D01*
X1124455Y449373D02*
X1138752Y435076D01*
X911551Y449373D02*
X1124455D01*
X908139Y452784D02*
X911551Y449373D01*
X1140376Y435076D02*
X1142000D01*
X1161654Y454731D02*
X1163864D01*
X1174528Y465395D01*
X1223580D01*
X1338160Y579974D01*
X1142000Y435076D02*
X1161654Y454731D01*
X1338160Y579974D02*
Y608296D01*
X1339308Y609445D01*
X1186794Y454975D02*
X1247455D01*
X1369796Y577316D01*
Y596816D01*
X1343867Y656881D02*
X1359312Y672327D01*
X1343867Y642310D02*
Y656881D01*
X1340456Y638899D02*
X1343867Y642310D01*
X1339308Y609445D02*
X1340456Y610592D01*
X1358164Y860976D02*
X1359312Y859828D01*
Y672327D02*
Y859828D01*
X1340456Y610592D02*
Y638899D01*
X1338509Y882254D02*
Y884464D01*
X1327845Y895128D02*
X1338509Y884464D01*
X1327845Y895128D02*
Y933855D01*
X1338509Y882254D02*
X1358164Y862599D01*
Y860976D02*
Y862599D01*
X1254791Y995616D02*
X1266085D01*
X1190499Y1059908D02*
X1254791Y995616D01*
X1188876Y1059908D02*
X1190499D01*
X915787Y1054239D02*
Y1072115D01*
X922104Y1078432D01*
Y1078764D01*
X739279Y885307D02*
Y898345D01*
X728252Y909371D02*
X739279Y898345D01*
X889815Y464959D02*
X902853D01*
X878789Y453932D02*
X889815Y464959D01*
X878684Y453932D02*
X878789D01*
X1146693Y441725D02*
Y459601D01*
X1140376Y435408D02*
X1146693Y441725D01*
X1140376Y435076D02*
Y435408D01*
X1328281Y620575D02*
Y633613D01*
Y620575D02*
X1339308Y609549D01*
Y609445D02*
Y609549D01*
X1333639Y867293D02*
X1351515D01*
X1357832Y860976D01*
X1358164D01*
X1164707Y1048881D02*
X1177745D01*
X1188771Y1059908D01*
X1188876D01*
X875686Y1058865D02*
X876834Y1060013D01*
X698403Y853440D02*
X709168Y864205D01*
X695960Y853440D02*
X698403D01*
X709168Y864205D02*
X709501D01*
X650240Y714702D02*
Y756920D01*
Y714702D02*
X677760Y687182D01*
Y641384D02*
Y687182D01*
Y641384D02*
X678908Y640236D01*
X729295Y558581D02*
X864432Y423444D01*
X729295Y558581D02*
Y606446D01*
X864432Y423444D02*
X866056D01*
X728147Y607594D02*
X729295Y606446D01*
X957319Y403440D02*
X1151856D01*
X925578Y435181D02*
X957319Y403440D01*
X1151856D02*
X1153005Y404588D01*
X923954Y435181D02*
X925578D01*
X1185646Y453827D02*
X1186794Y454975D01*
X1389800Y688079D02*
Y872456D01*
X1358059Y654715D02*
Y656338D01*
X1388652Y873605D02*
X1389800Y872456D01*
X1358059Y656338D02*
X1389800Y688079D01*
X1203128Y1090396D02*
X1338265Y955258D01*
Y907394D02*
Y955258D01*
Y907394D02*
X1339413Y906246D01*
X1201504Y1090396D02*
X1203128D01*
X753760Y792480D02*
X766540D01*
X769940Y789080D01*
X770816D01*
X774980Y886620D02*
X777440Y889080D01*
X763040Y886620D02*
X774980D01*
X757920Y881500D02*
X763040Y886620D01*
X985400Y909200D02*
X985520Y909320D01*
X929560Y909200D02*
X985400D01*
X957700Y828040D02*
Y828120D01*
X956740Y829080D02*
X957700Y828120D01*
X929440Y829080D02*
X956740D01*
X770816Y789080D02*
X777440D01*
X768356Y786620D02*
X770816Y789080D01*
X768356Y780216D02*
Y786620D01*
X929800Y848720D02*
X949960D01*
X929440Y849080D02*
X929800Y848720D01*
X957700Y807720D02*
Y808120D01*
X956740Y809080D02*
X957700Y808120D01*
X929440Y809080D02*
X956740D01*
X929440Y929080D02*
X977196D01*
X982836Y934720D02*
X985520D01*
X977196Y929080D02*
X982836Y934720D01*
X765380Y777240D02*
X768356Y780216D01*
X756920Y881500D02*
X757920D01*
X972700Y827040D02*
Y828040D01*
X936480Y768840D02*
X948240D01*
X980740Y801339D01*
Y819000D01*
X972700Y827040D02*
X980740Y819000D01*
X910590Y713300D02*
Y748030D01*
X924560Y762000D01*
X948690Y657370D02*
Y658300D01*
Y657370D02*
X949250Y656810D01*
X999270D01*
X1000760Y655320D01*
X949250Y663645D02*
Y668430D01*
X910685Y702210D02*
X949250Y663645D01*
X902950Y702210D02*
X910685D01*
X751840Y895839D02*
X752139Y895540D01*
X746902Y854899D02*
X753980Y847821D01*
X753760Y792480D02*
X753980Y792700D01*
Y847821D01*
X746902Y854899D02*
Y878781D01*
X792480Y741680D02*
X831950Y702210D01*
X902950D01*
X910590Y709850D01*
Y713300D01*
X720600Y735840D02*
X730872Y746112D01*
X708460Y735840D02*
X720600D01*
X949960Y848720D02*
X957340D01*
X957700Y848360D01*
X1135119Y529480D02*
X1139200Y525400D01*
X1112520Y529480D02*
X1135119D01*
X1139200Y525400D02*
X1141884D01*
X1112020Y529980D02*
X1112520Y529480D01*
X1138565Y547480D02*
X1141884Y550799D01*
X1112520Y547480D02*
X1138565D01*
X1067800Y529980D02*
X1085222Y512558D01*
X1067800Y529980D02*
X1112020D01*
X1067300D02*
X1067800D01*
X1066800Y530480D02*
X1067300Y529980D01*
X1085222Y504878D02*
Y512558D01*
Y504878D02*
X1087120Y502980D01*
X1067800Y546980D02*
X1082160Y561340D01*
X1067800Y546980D02*
X1112020D01*
X1067300D02*
X1067800D01*
X1066800Y546480D02*
X1067300Y546980D01*
X1112020D02*
X1112520Y547480D01*
X1082160Y561340D02*
Y569020D01*
X1087120Y573980D01*
X1047320Y528320D02*
X1064140D01*
X1002460Y631380D02*
Y653620D01*
X1000760Y655320D02*
X1002460Y653620D01*
Y631380D02*
X1003920Y629920D01*
X965200Y683880D02*
X980440D01*
X964700D02*
X965200D01*
X949250Y668430D02*
X964700Y683880D01*
X753760Y777240D02*
X765380D01*
X773120Y740720D02*
X779620Y747220D01*
X768340Y735940D02*
X773120Y740720D01*
X782320Y675640D02*
X784020Y677340D01*
Y700080D02*
X784980Y701040D01*
X784020Y677340D02*
Y700080D01*
X773860Y702080D02*
X784020D01*
X784980Y701120D01*
Y701040D02*
Y701120D01*
X743340Y735940D02*
X750984Y728296D01*
Y713875D02*
Y728296D01*
Y713875D02*
X757329Y707530D01*
X768410D01*
X773860Y702080D01*
X739340Y735940D02*
X743340D01*
X739260Y698490D02*
X739300Y698530D01*
Y716900D01*
X739340Y716940D01*
X799980Y701040D02*
Y716280D01*
X764670Y716610D02*
X784650D01*
X764340Y716940D02*
X764670Y716610D01*
X784650D02*
X784980Y716280D01*
X780860Y747220D02*
X782320Y748680D01*
X764340Y735940D02*
X768340D01*
X779620Y747220D02*
X780860D01*
X739760Y751840D02*
Y752340D01*
X721360Y770240D02*
Y802640D01*
X738300Y753800D02*
X739760Y752340D01*
X737800Y753800D02*
X738300D01*
X721360Y770240D02*
X737800Y753800D01*
X739980Y826830D02*
X741190Y828040D01*
X721360Y802640D02*
X739980Y821260D01*
X741190Y828040D02*
X743440D01*
X739980Y821260D02*
Y826830D01*
X739340Y735940D02*
X739550Y736150D01*
Y751630D01*
X739760Y751840D01*
X672750Y717750D02*
X685750D01*
X690691D01*
X685750D02*
X688960Y714540D01*
Y701040D02*
Y714540D01*
X705460Y735840D02*
X708460D01*
X702960Y738340D02*
Y751840D01*
Y738340D02*
X705460Y735840D01*
X683460D02*
X684170Y735130D01*
X690691D01*
X694250Y731571D01*
Y721310D02*
Y731571D01*
X690691Y717750D02*
X694250Y721310D01*
X665480Y724020D02*
X666480D01*
X672750Y717750D01*
X743440Y828040D02*
X743520Y828120D01*
Y843200D02*
X743600Y843280D01*
X743520Y828120D02*
Y843200D01*
D81*
X708248Y671346D02*
X712542Y675640D01*
X708248Y654012D02*
X709396Y652864D01*
X708248Y654012D02*
Y671346D01*
X712542Y675640D02*
X756920D01*
X688960Y700540D02*
Y701040D01*
Y700540D02*
X693785Y695715D01*
Y694397D02*
Y695715D01*
Y694397D02*
X712542Y675640D01*
X1087120D02*
Y698470D01*
Y573980D02*
Y675640D01*
X1041400Y744190D02*
Y868680D01*
Y744190D02*
X1087120Y698470D01*
D82*
X1295400Y944880D02*
D03*
X1051560Y655320D02*
D03*
X782320Y675640D02*
D03*
D83*
X1270000Y944880D02*
D03*
X1244600D02*
D03*
X1219200D02*
D03*
X1193800D02*
D03*
X1087120Y502980D02*
D03*
X1026160Y655320D02*
D03*
X1000760D02*
D03*
X1041400Y944880D02*
D03*
X1066800D02*
D03*
X1092200D02*
D03*
X1117600D02*
D03*
X1143000D02*
D03*
X1168400D02*
D03*
X1141884Y525400D02*
D03*
X756920Y675640D02*
D03*
X1041400Y894080D02*
D03*
X985520Y934720D02*
D03*
D84*
X667202Y845553D02*
D03*
X636970Y772566D02*
D03*
D85*
X1087120Y573980D02*
D03*
X1141884Y550799D02*
D03*
X1041400Y868680D02*
D03*
X985520Y909320D02*
D03*
D86*
X1031240Y563880D02*
D03*
X995680D02*
D03*
X1012917Y578792D02*
D03*
X1023522Y604176D02*
D03*
X1017734Y604120D02*
D03*
X1012917Y599112D02*
D03*
X1008294Y604176D02*
D03*
X1002282Y604232D02*
D03*
X997678Y594032D02*
D03*
X1017998Y583872D02*
D03*
X1007838D02*
D03*
X1028158Y594032D02*
D03*
X1002757Y588952D02*
D03*
X1023077D02*
D03*
X997618Y599681D02*
D03*
X1028186D02*
D03*
X1122680Y1021080D02*
D03*
X1107440Y975360D02*
D03*
X1076960D02*
D03*
X1051560D02*
D03*
X751840Y949960D02*
D03*
X751737Y918727D02*
D03*
X1031240Y797560D02*
D03*
Y822960D02*
D03*
Y848360D02*
D03*
X1021080Y878840D02*
D03*
X1010920Y960120D02*
D03*
X1031240Y975360D02*
D03*
X1005840D02*
D03*
X1153160D02*
D03*
X1127760D02*
D03*
X1092200Y980440D02*
D03*
X1168400D02*
D03*
X1224280Y1092200D02*
D03*
X1209040Y1061720D02*
D03*
X1234440Y1036320D02*
D03*
X1275080Y1000760D02*
D03*
X1290320Y985520D02*
D03*
X1305560Y970280D02*
D03*
X1325880Y949960D02*
D03*
X1351280Y889000D02*
D03*
X1381760Y858520D02*
D03*
Y828040D02*
D03*
Y797560D02*
D03*
Y767080D02*
D03*
Y736600D02*
D03*
Y706120D02*
D03*
X1351280Y695960D02*
D03*
Y726440D02*
D03*
Y756920D02*
D03*
Y787400D02*
D03*
Y817880D02*
D03*
Y848360D02*
D03*
X1352301Y585559D02*
D03*
X1341037Y564437D02*
D03*
X1318507Y542612D02*
D03*
X1301962Y525362D02*
D03*
X1282953Y506353D02*
D03*
X1263943Y486992D02*
D03*
X1242470Y466926D02*
D03*
X1136510Y451437D02*
D03*
X1141438Y474319D02*
D03*
X1180513Y474671D02*
D03*
X1213604D02*
D03*
X1087120Y538480D02*
D03*
X985520Y665480D02*
D03*
X1000760Y690880D02*
D03*
X1016000Y645160D02*
D03*
X934720Y614680D02*
D03*
Y629920D02*
D03*
X914400Y609600D02*
D03*
Y629920D02*
D03*
X848360Y640080D02*
D03*
X883920D02*
D03*
X868680Y680720D02*
D03*
X935632Y696273D02*
D03*
X980440Y711200D02*
D03*
X955040Y736600D02*
D03*
X990600Y762000D02*
D03*
X985520Y736600D02*
D03*
X980440Y777240D02*
D03*
X956310Y794324D02*
D03*
X949960Y838200D02*
D03*
Y817880D02*
D03*
X1005840Y802640D02*
D03*
Y822960D02*
D03*
X1010920Y838200D02*
D03*
Y858520D02*
D03*
X970280Y863600D02*
D03*
X985520D02*
D03*
X863600Y726440D02*
D03*
X800008Y1039308D02*
D03*
X820329D02*
D03*
X840648D02*
D03*
X860968D02*
D03*
X881289D02*
D03*
X929640Y1021080D02*
D03*
X909320D02*
D03*
X889000D02*
D03*
X868680D02*
D03*
X848360D02*
D03*
X828040D02*
D03*
X807720D02*
D03*
X787400D02*
D03*
X753814Y990320D02*
D03*
X726440Y1010920D02*
D03*
X716280Y924560D02*
D03*
X680720Y858520D02*
D03*
X665480Y751840D02*
D03*
X675640Y706120D02*
D03*
X690880Y650240D02*
D03*
X726440Y726440D02*
D03*
X792480D02*
D03*
X767080Y756920D02*
D03*
X748661Y767821D02*
D03*
X731520Y858520D02*
D03*
X726440Y828040D02*
D03*
X716280Y812800D02*
D03*
X741680Y807720D02*
D03*
X1440000Y765000D02*
D03*
X1425000Y795000D02*
D03*
X1432500Y780000D02*
D03*
X1425000Y765000D02*
D03*
X1432500Y750000D02*
D03*
X1425000Y735000D02*
D03*
X1410000Y825000D02*
D03*
X1417500Y810000D02*
D03*
X1410000Y795000D02*
D03*
X1417500Y780000D02*
D03*
X1410000Y765000D02*
D03*
X1417500Y750000D02*
D03*
X1410000Y735000D02*
D03*
X1417500Y720000D02*
D03*
X1410000Y705000D02*
D03*
X1417500Y690000D02*
D03*
X1410000Y675000D02*
D03*
X1402500Y840000D02*
D03*
Y810000D02*
D03*
Y780000D02*
D03*
Y750000D02*
D03*
Y720000D02*
D03*
Y690000D02*
D03*
X1395000Y675000D02*
D03*
X1402500Y660000D02*
D03*
X1387500D02*
D03*
X1380000Y615000D02*
D03*
X1365000Y945000D02*
D03*
X1372500Y900000D02*
D03*
X1365000Y885000D02*
D03*
X1372500Y870000D02*
D03*
Y840000D02*
D03*
Y810000D02*
D03*
Y780000D02*
D03*
Y750000D02*
D03*
Y720000D02*
D03*
Y690000D02*
D03*
Y630000D02*
D03*
X1365000Y615000D02*
D03*
X1350000Y975000D02*
D03*
X1357500Y960000D02*
D03*
X1350000Y945000D02*
D03*
X1357500Y930000D02*
D03*
X1350000Y915000D02*
D03*
X1357500Y900000D02*
D03*
Y630000D02*
D03*
X1335000Y1005000D02*
D03*
X1342500Y990000D02*
D03*
X1335000Y975000D02*
D03*
Y525000D02*
D03*
X1342500Y510000D02*
D03*
X1335000Y495000D02*
D03*
X1320000Y1035000D02*
D03*
X1327500Y1020000D02*
D03*
X1320000Y1005000D02*
D03*
X1327500Y990000D02*
D03*
Y840000D02*
D03*
Y810000D02*
D03*
Y780000D02*
D03*
Y750000D02*
D03*
Y720000D02*
D03*
Y690000D02*
D03*
Y660000D02*
D03*
X1320000Y585000D02*
D03*
X1327500Y510000D02*
D03*
X1320000Y495000D02*
D03*
X1327500Y480000D02*
D03*
X1320000Y465000D02*
D03*
X1312500Y1050000D02*
D03*
X1305000Y1035000D02*
D03*
X1312500Y1020000D02*
D03*
X1305000Y1005000D02*
D03*
Y585000D02*
D03*
X1312500Y570000D02*
D03*
X1305000Y495000D02*
D03*
X1312500Y480000D02*
D03*
X1305000Y465000D02*
D03*
X1297500Y1050000D02*
D03*
X1290000Y1035000D02*
D03*
X1297500Y1020000D02*
D03*
X1290000Y585000D02*
D03*
X1297500Y570000D02*
D03*
X1290000Y555000D02*
D03*
X1297500Y480000D02*
D03*
X1290000Y465000D02*
D03*
X1275000Y1065000D02*
D03*
X1282500Y1050000D02*
D03*
X1275000Y1035000D02*
D03*
X1282500Y960000D02*
D03*
X1275000Y585000D02*
D03*
X1282500Y570000D02*
D03*
Y540000D02*
D03*
X1275000Y465000D02*
D03*
X1282500Y450000D02*
D03*
X1260000Y1065000D02*
D03*
X1267500Y1050000D02*
D03*
X1260000Y975000D02*
D03*
Y585000D02*
D03*
X1267500Y450000D02*
D03*
X1252500Y1080000D02*
D03*
X1245000Y1065000D02*
D03*
X1252500Y1020000D02*
D03*
X1245000Y975000D02*
D03*
X1252500Y960000D02*
D03*
Y930000D02*
D03*
X1245000Y435000D02*
D03*
X1237500Y1080000D02*
D03*
X1230000Y1005000D02*
D03*
X1237500Y990000D02*
D03*
X1230000Y975000D02*
D03*
X1237500Y960000D02*
D03*
Y930000D02*
D03*
X1230000Y435000D02*
D03*
X1222500Y1050000D02*
D03*
X1215000Y1005000D02*
D03*
X1222500Y990000D02*
D03*
X1215000Y975000D02*
D03*
Y435000D02*
D03*
X1200000Y1035000D02*
D03*
X1207500Y1020000D02*
D03*
X1200000Y1005000D02*
D03*
X1207500Y990000D02*
D03*
X1200000Y975000D02*
D03*
X1207500Y960000D02*
D03*
X1200000Y585000D02*
D03*
Y495000D02*
D03*
X1185000Y1095000D02*
D03*
X1192500Y1080000D02*
D03*
X1185000Y1035000D02*
D03*
X1192500Y1020000D02*
D03*
X1185000Y1005000D02*
D03*
X1192500Y990000D02*
D03*
X1185000Y975000D02*
D03*
Y585000D02*
D03*
Y495000D02*
D03*
Y435000D02*
D03*
X1177500Y1110000D02*
D03*
X1170000Y1095000D02*
D03*
X1177500Y1080000D02*
D03*
X1170000Y1065000D02*
D03*
X1177500Y1020000D02*
D03*
X1170000Y1005000D02*
D03*
X1177500Y990000D02*
D03*
X1170000Y585000D02*
D03*
X1177500Y570000D02*
D03*
Y510000D02*
D03*
X1170000Y495000D02*
D03*
Y435000D02*
D03*
X1177500Y420000D02*
D03*
X1170000Y405000D02*
D03*
X1155000Y1095000D02*
D03*
X1162500Y1080000D02*
D03*
X1155000Y1035000D02*
D03*
X1162500Y1020000D02*
D03*
X1155000Y1005000D02*
D03*
X1162500Y990000D02*
D03*
X1155000Y585000D02*
D03*
X1162500Y570000D02*
D03*
Y510000D02*
D03*
X1155000Y495000D02*
D03*
X1162500Y420000D02*
D03*
X1140000Y1125000D02*
D03*
Y1095000D02*
D03*
Y1065000D02*
D03*
Y1035000D02*
D03*
X1147500Y1020000D02*
D03*
X1140000Y1005000D02*
D03*
X1147500Y990000D02*
D03*
X1140000Y585000D02*
D03*
X1147500Y570000D02*
D03*
Y510000D02*
D03*
X1140000Y495000D02*
D03*
X1147500Y420000D02*
D03*
X1125000Y1125000D02*
D03*
X1132500Y1110000D02*
D03*
X1125000Y1095000D02*
D03*
Y1065000D02*
D03*
X1132500Y1050000D02*
D03*
X1125000Y1035000D02*
D03*
X1132500Y1020000D02*
D03*
X1125000Y1005000D02*
D03*
X1132500Y990000D02*
D03*
X1125000Y585000D02*
D03*
X1132500Y570000D02*
D03*
Y510000D02*
D03*
X1125000Y495000D02*
D03*
Y465000D02*
D03*
X1132500Y390000D02*
D03*
X1110000Y1125000D02*
D03*
X1117500Y1110000D02*
D03*
X1110000Y1095000D02*
D03*
Y1065000D02*
D03*
X1117500Y1050000D02*
D03*
X1110000Y1035000D02*
D03*
X1117500Y990000D02*
D03*
X1110000Y585000D02*
D03*
X1117500Y570000D02*
D03*
Y510000D02*
D03*
X1110000Y495000D02*
D03*
Y465000D02*
D03*
Y435000D02*
D03*
X1117500Y420000D02*
D03*
Y390000D02*
D03*
X1102500Y1140000D02*
D03*
X1095000Y1125000D02*
D03*
X1102500Y1110000D02*
D03*
X1095000Y1095000D02*
D03*
Y1065000D02*
D03*
X1102500Y1050000D02*
D03*
X1095000Y1005000D02*
D03*
X1102500Y510000D02*
D03*
X1095000Y465000D02*
D03*
Y435000D02*
D03*
X1102500Y420000D02*
D03*
Y390000D02*
D03*
X1095000Y375000D02*
D03*
X1087500Y1140000D02*
D03*
X1080000Y1125000D02*
D03*
X1087500Y1110000D02*
D03*
X1080000Y1095000D02*
D03*
X1087500Y1050000D02*
D03*
X1080000Y1005000D02*
D03*
Y855000D02*
D03*
X1087500Y840000D02*
D03*
X1080000Y825000D02*
D03*
X1087500Y810000D02*
D03*
X1080000Y795000D02*
D03*
X1087500Y780000D02*
D03*
X1080000Y765000D02*
D03*
X1087500Y750000D02*
D03*
X1080000Y735000D02*
D03*
X1087500Y720000D02*
D03*
X1080000Y465000D02*
D03*
Y435000D02*
D03*
X1087500Y420000D02*
D03*
Y390000D02*
D03*
X1080000Y375000D02*
D03*
X1065000Y1155000D02*
D03*
X1072500Y1140000D02*
D03*
X1065000Y1125000D02*
D03*
X1072500Y1110000D02*
D03*
X1065000Y1095000D02*
D03*
X1072500Y1080000D02*
D03*
Y1050000D02*
D03*
X1065000Y1035000D02*
D03*
X1072500Y1020000D02*
D03*
X1065000Y1005000D02*
D03*
Y855000D02*
D03*
X1072500Y840000D02*
D03*
X1065000Y825000D02*
D03*
X1072500Y810000D02*
D03*
X1065000Y795000D02*
D03*
X1072500Y780000D02*
D03*
X1065000Y765000D02*
D03*
X1072500Y750000D02*
D03*
Y690000D02*
D03*
Y660000D02*
D03*
Y630000D02*
D03*
X1065000Y615000D02*
D03*
X1072500Y600000D02*
D03*
X1065000Y585000D02*
D03*
X1072500Y510000D02*
D03*
X1065000Y495000D02*
D03*
Y465000D02*
D03*
Y435000D02*
D03*
X1072500Y420000D02*
D03*
Y390000D02*
D03*
X1065000Y375000D02*
D03*
X1050000Y1155000D02*
D03*
X1057500Y1140000D02*
D03*
X1050000Y1125000D02*
D03*
X1057500Y1110000D02*
D03*
X1050000Y1095000D02*
D03*
X1057500Y1080000D02*
D03*
X1050000Y1065000D02*
D03*
X1057500Y1020000D02*
D03*
X1050000Y1005000D02*
D03*
X1057500Y840000D02*
D03*
Y810000D02*
D03*
Y780000D02*
D03*
Y750000D02*
D03*
X1050000Y705000D02*
D03*
X1057500Y690000D02*
D03*
Y630000D02*
D03*
X1050000Y615000D02*
D03*
X1057500Y600000D02*
D03*
X1050000Y585000D02*
D03*
X1057500Y570000D02*
D03*
X1050000Y555000D02*
D03*
X1057500Y510000D02*
D03*
X1050000Y495000D02*
D03*
Y465000D02*
D03*
Y435000D02*
D03*
X1057500Y420000D02*
D03*
Y390000D02*
D03*
X1050000Y375000D02*
D03*
X1057500Y360000D02*
D03*
X1035000Y1155000D02*
D03*
X1042500Y1140000D02*
D03*
X1035000Y1125000D02*
D03*
X1042500Y1110000D02*
D03*
X1035000Y1095000D02*
D03*
X1042500Y1080000D02*
D03*
X1035000Y1065000D02*
D03*
X1042500Y1050000D02*
D03*
X1035000Y1005000D02*
D03*
X1042500Y720000D02*
D03*
X1035000Y705000D02*
D03*
X1042500Y690000D02*
D03*
Y630000D02*
D03*
X1035000Y615000D02*
D03*
X1042500Y600000D02*
D03*
Y570000D02*
D03*
X1035000Y555000D02*
D03*
X1042500Y540000D02*
D03*
Y510000D02*
D03*
X1035000Y495000D02*
D03*
Y465000D02*
D03*
Y435000D02*
D03*
X1042500Y420000D02*
D03*
Y390000D02*
D03*
X1035000Y375000D02*
D03*
X1042500Y360000D02*
D03*
X1020000Y1155000D02*
D03*
X1027500Y1140000D02*
D03*
X1020000Y1125000D02*
D03*
X1027500Y1110000D02*
D03*
X1020000Y1095000D02*
D03*
X1027500Y1080000D02*
D03*
X1020000Y1065000D02*
D03*
X1027500Y1050000D02*
D03*
Y780000D02*
D03*
X1020000Y765000D02*
D03*
X1027500Y750000D02*
D03*
X1020000Y735000D02*
D03*
X1027500Y720000D02*
D03*
X1020000Y705000D02*
D03*
Y555000D02*
D03*
Y495000D02*
D03*
Y465000D02*
D03*
Y435000D02*
D03*
X1027500Y420000D02*
D03*
Y390000D02*
D03*
X1020000Y375000D02*
D03*
X1027500Y360000D02*
D03*
X1005000Y1155000D02*
D03*
X1012500Y1140000D02*
D03*
X1005000Y1125000D02*
D03*
X1012500Y1110000D02*
D03*
X1005000Y1095000D02*
D03*
X1012500Y1080000D02*
D03*
X1005000Y1065000D02*
D03*
X1012500Y1050000D02*
D03*
Y780000D02*
D03*
Y750000D02*
D03*
Y720000D02*
D03*
X1005000Y555000D02*
D03*
Y495000D02*
D03*
Y465000D02*
D03*
Y435000D02*
D03*
X1012500Y420000D02*
D03*
Y390000D02*
D03*
X1005000Y375000D02*
D03*
X1012500Y360000D02*
D03*
X997500Y1140000D02*
D03*
X990000Y1125000D02*
D03*
X997500Y1110000D02*
D03*
X990000Y1095000D02*
D03*
X997500Y1080000D02*
D03*
X990000Y1065000D02*
D03*
X997500Y1050000D02*
D03*
X990000Y1035000D02*
D03*
Y1005000D02*
D03*
Y615000D02*
D03*
Y555000D02*
D03*
Y525000D02*
D03*
X997500Y510000D02*
D03*
X990000Y495000D02*
D03*
Y465000D02*
D03*
Y435000D02*
D03*
X997500Y420000D02*
D03*
Y390000D02*
D03*
X990000Y375000D02*
D03*
X997500Y360000D02*
D03*
X982500Y1140000D02*
D03*
X975000Y1125000D02*
D03*
X982500Y1110000D02*
D03*
X975000Y1095000D02*
D03*
X982500Y1080000D02*
D03*
X975000Y1065000D02*
D03*
X982500Y1050000D02*
D03*
X975000Y1035000D02*
D03*
Y1005000D02*
D03*
X982500Y750000D02*
D03*
Y630000D02*
D03*
X975000Y615000D02*
D03*
X982500Y600000D02*
D03*
X975000Y585000D02*
D03*
X982500Y570000D02*
D03*
X975000Y555000D02*
D03*
Y525000D02*
D03*
X982500Y510000D02*
D03*
X975000Y495000D02*
D03*
Y465000D02*
D03*
Y435000D02*
D03*
X982500Y420000D02*
D03*
Y390000D02*
D03*
X975000Y375000D02*
D03*
X967500Y1140000D02*
D03*
X960000Y1125000D02*
D03*
X967500Y1110000D02*
D03*
X960000Y1095000D02*
D03*
X967500Y1080000D02*
D03*
X960000Y1065000D02*
D03*
X967500Y1050000D02*
D03*
X960000Y1005000D02*
D03*
Y765000D02*
D03*
X967500Y720000D02*
D03*
Y630000D02*
D03*
X960000Y615000D02*
D03*
X967500Y600000D02*
D03*
X960000Y585000D02*
D03*
X967500Y570000D02*
D03*
X960000Y555000D02*
D03*
Y525000D02*
D03*
X967500Y510000D02*
D03*
X960000Y495000D02*
D03*
Y465000D02*
D03*
Y435000D02*
D03*
X967500Y420000D02*
D03*
Y390000D02*
D03*
X960000Y375000D02*
D03*
X945000Y1125000D02*
D03*
X952500Y1110000D02*
D03*
X945000Y1095000D02*
D03*
X952500Y1080000D02*
D03*
X945000Y1065000D02*
D03*
X952500Y1050000D02*
D03*
X945000Y1005000D02*
D03*
Y975000D02*
D03*
X952500Y960000D02*
D03*
Y690000D02*
D03*
X945000Y555000D02*
D03*
Y525000D02*
D03*
X952500Y510000D02*
D03*
X945000Y465000D02*
D03*
Y435000D02*
D03*
X952500Y390000D02*
D03*
X930000Y1125000D02*
D03*
X937500Y1110000D02*
D03*
X930000Y1095000D02*
D03*
Y1065000D02*
D03*
X937500Y1050000D02*
D03*
X930000Y525000D02*
D03*
X937500Y480000D02*
D03*
X930000Y465000D02*
D03*
Y405000D02*
D03*
X937500Y390000D02*
D03*
X915000Y1095000D02*
D03*
Y495000D02*
D03*
X922500Y480000D02*
D03*
Y420000D02*
D03*
X907500Y690000D02*
D03*
Y510000D02*
D03*
X900000Y495000D02*
D03*
X907500Y480000D02*
D03*
X900000Y435000D02*
D03*
X907500Y420000D02*
D03*
X885000Y1095000D02*
D03*
X892500Y1080000D02*
D03*
Y690000D02*
D03*
X885000Y525000D02*
D03*
X892500Y510000D02*
D03*
X885000Y495000D02*
D03*
X892500Y480000D02*
D03*
X885000Y435000D02*
D03*
X892500Y420000D02*
D03*
X877500Y1080000D02*
D03*
Y690000D02*
D03*
X870000Y615000D02*
D03*
X877500Y540000D02*
D03*
X870000Y525000D02*
D03*
X877500Y510000D02*
D03*
X862500Y900000D02*
D03*
X855000Y825000D02*
D03*
X862500Y690000D02*
D03*
X855000Y675000D02*
D03*
X862500Y630000D02*
D03*
Y570000D02*
D03*
X855000Y555000D02*
D03*
X862500Y540000D02*
D03*
X855000Y525000D02*
D03*
X862500Y480000D02*
D03*
X855000Y465000D02*
D03*
X847500Y1080000D02*
D03*
Y900000D02*
D03*
X840000Y885000D02*
D03*
Y585000D02*
D03*
X847500Y570000D02*
D03*
X840000Y555000D02*
D03*
X847500Y540000D02*
D03*
X840000Y495000D02*
D03*
X847500Y480000D02*
D03*
X840000Y465000D02*
D03*
X832500Y1080000D02*
D03*
X825000Y885000D02*
D03*
X832500Y810000D02*
D03*
X825000Y795000D02*
D03*
Y675000D02*
D03*
Y645000D02*
D03*
X832500Y600000D02*
D03*
X825000Y585000D02*
D03*
X832500Y570000D02*
D03*
X825000Y555000D02*
D03*
X832500Y510000D02*
D03*
X825000Y495000D02*
D03*
X832500Y480000D02*
D03*
X825000Y435000D02*
D03*
X817500Y1080000D02*
D03*
Y930000D02*
D03*
X810000Y615000D02*
D03*
X817500Y600000D02*
D03*
X810000Y585000D02*
D03*
X817500Y570000D02*
D03*
X810000Y525000D02*
D03*
X817500Y510000D02*
D03*
X810000Y495000D02*
D03*
X817500Y450000D02*
D03*
X802500Y930000D02*
D03*
Y840000D02*
D03*
X795000Y645000D02*
D03*
X802500Y630000D02*
D03*
X795000Y615000D02*
D03*
X802500Y600000D02*
D03*
X795000Y585000D02*
D03*
X802500Y540000D02*
D03*
X795000Y525000D02*
D03*
X802500Y510000D02*
D03*
X795000Y465000D02*
D03*
X802500Y450000D02*
D03*
X780000Y1065000D02*
D03*
Y645000D02*
D03*
X787500Y630000D02*
D03*
X780000Y615000D02*
D03*
X787500Y600000D02*
D03*
X780000Y555000D02*
D03*
X787500Y540000D02*
D03*
X780000Y525000D02*
D03*
X787500Y480000D02*
D03*
X780000Y465000D02*
D03*
X787500Y450000D02*
D03*
X765000Y645000D02*
D03*
X772500Y630000D02*
D03*
X765000Y615000D02*
D03*
X772500Y570000D02*
D03*
X765000Y555000D02*
D03*
X772500Y540000D02*
D03*
X765000Y495000D02*
D03*
X772500Y480000D02*
D03*
X765000Y465000D02*
D03*
X757500Y1050000D02*
D03*
X750000Y1035000D02*
D03*
Y975000D02*
D03*
X757500Y630000D02*
D03*
X750000Y585000D02*
D03*
X757500Y570000D02*
D03*
X750000Y555000D02*
D03*
X757500Y510000D02*
D03*
X750000Y495000D02*
D03*
X757500Y480000D02*
D03*
X750000Y465000D02*
D03*
X742500Y1050000D02*
D03*
X735000Y1035000D02*
D03*
X742500Y960000D02*
D03*
Y660000D02*
D03*
Y570000D02*
D03*
X735000Y525000D02*
D03*
X742500Y510000D02*
D03*
X735000Y495000D02*
D03*
X742500Y480000D02*
D03*
X720000Y705000D02*
D03*
X727500Y690000D02*
D03*
Y660000D02*
D03*
Y540000D02*
D03*
X720000Y525000D02*
D03*
X727500Y510000D02*
D03*
X705000Y945000D02*
D03*
X712500Y900000D02*
D03*
X705000Y885000D02*
D03*
X712500Y630000D02*
D03*
X705000Y615000D02*
D03*
X712500Y600000D02*
D03*
Y570000D02*
D03*
X705000Y555000D02*
D03*
X712500Y540000D02*
D03*
X697500Y900000D02*
D03*
Y870000D02*
D03*
X690000Y675000D02*
D03*
X697500Y630000D02*
D03*
X690000Y615000D02*
D03*
X697500Y570000D02*
D03*
X682500Y900000D02*
D03*
X660000Y675000D02*
D03*
X652500Y690000D02*
D03*
X637500Y750000D02*
D03*
X630000Y735000D02*
D03*
X637500Y720000D02*
D03*
X1224280Y482600D02*
D03*
X876143Y561184D02*
D03*
X875780Y586220D02*
D03*
X838200Y694630D02*
D03*
Y711200D02*
D03*
X833120Y746760D02*
D03*
X762000Y955040D02*
D03*
X1005840Y1016000D02*
D03*
X1127760Y1076960D02*
D03*
X909320Y934720D02*
D03*
X828040Y916475D02*
D03*
X797560Y858520D02*
D03*
X965200Y936660D02*
D03*
X893776Y914703D02*
D03*
X919480Y859120D02*
D03*
X1107440Y925028D02*
D03*
X1082040Y907492D02*
D03*
X1004345Y787400D02*
D03*
X990600D02*
D03*
X965200Y751840D02*
D03*
X851329Y766432D02*
D03*
X868680Y879717D02*
D03*
X853440Y858520D02*
D03*
X843280Y843280D02*
D03*
X835963Y825197D02*
D03*
X787129Y817609D02*
D03*
X882436Y878840D02*
D03*
X873760Y833120D02*
D03*
X866470Y820750D02*
D03*
X882436Y889000D02*
D03*
X843280Y863600D02*
D03*
X833120Y853440D02*
D03*
X819364Y817880D02*
D03*
X796076Y807720D02*
D03*
X971411Y948829D02*
D03*
X813391Y909911D02*
D03*
X801569Y903169D02*
D03*
X701040Y838200D02*
D03*
X690880Y772160D02*
D03*
X1056640Y914056D02*
D03*
X1036320Y914400D02*
D03*
X979009Y881085D02*
D03*
X943396Y881888D02*
D03*
X1033341Y962221D02*
D03*
X1021080Y917132D02*
D03*
X956524Y868278D02*
D03*
X868680Y787400D02*
D03*
X1071880Y924560D02*
D03*
X1051560Y929640D02*
D03*
X942574Y919080D02*
D03*
X892596Y904240D02*
D03*
X889000Y817880D02*
D03*
X883920Y802640D02*
D03*
X997863Y845463D02*
D03*
X988580Y836180D02*
D03*
X971360Y781240D02*
D03*
X945652Y780671D02*
D03*
X929640Y777240D02*
D03*
X916501Y769181D02*
D03*
X695960Y853440D02*
D03*
X650240Y756920D02*
D03*
X802640Y788120D02*
D03*
X949960Y901620D02*
D03*
X812800Y787400D02*
D03*
X909320Y807720D02*
D03*
X934720Y751840D02*
D03*
X899160Y807720D02*
D03*
X924840Y751560D02*
D03*
X936480Y768840D02*
D03*
X924560Y762000D02*
D03*
X805956Y692150D02*
D03*
X997781Y718381D02*
D03*
X990600Y706120D02*
D03*
X975360Y665480D02*
D03*
Y649230D02*
D03*
X934720Y645160D02*
D03*
X918656D02*
D03*
X812800Y875644D02*
D03*
Y862516D02*
D03*
X812520Y710920D02*
D03*
X945151Y573769D02*
D03*
X934720Y584200D02*
D03*
X746902Y878781D02*
D03*
X746859Y894080D02*
D03*
X792480Y741680D02*
D03*
X765380Y777240D02*
D03*
X730872Y746112D02*
D03*
X792480Y753300D02*
D03*
Y765920D02*
D03*
X714358Y760078D02*
D03*
X690788Y787308D02*
D03*
X690880Y801719D02*
D03*
X738460Y763860D02*
D03*
X725200Y755680D02*
D03*
X773120Y740720D02*
D03*
D87*
X1087120Y675640D02*
D03*
M02*
