G04*
G04 #@! TF.GenerationSoftware,Altium Limited,Altium Designer,21.4.1 (30)*
G04*
G04 Layer_Color=16711935*
%FSLAX44Y44*%
%MOMM*%
G71*
G04*
G04 #@! TF.SameCoordinates,F062A0B2-1153-48B6-B7C1-D9BF76563F52*
G04*
G04*
G04 #@! TF.FilePolarity,Positive*
G04*
G01*
G75*
%ADD88C,0.0006*%
D88*
X1159783Y554624D02*
G03*
X1158950Y553791I0J-833D01*
G01*
X1191267Y522478D02*
G03*
X1191267Y554624I38803J16073D01*
G01*
Y522478D02*
G03*
X1190435Y523311I-833J0D01*
G01*
X1158950D02*
Y553791D01*
X1159783Y554624D02*
X1191267D01*
X1158950Y523311D02*
X1190435D01*
X1061720Y873760D02*
X1097280D01*
Y599440D02*
Y873760D01*
Y599440D02*
X1315720D01*
Y914400D01*
X1097280D02*
X1315720D01*
X1097280Y894080D02*
Y914400D01*
X1061720Y894080D02*
X1097280D01*
X1061720Y873760D02*
Y894080D01*
X772160Y939800D02*
Y1016000D01*
X934720D01*
Y939800D02*
Y1016000D01*
X772160Y939800D02*
X934720D01*
X1032510Y336057D02*
X1331003Y459697D01*
X734017D02*
X1032510Y336057D01*
X610377Y758190D02*
X734017Y459697D01*
X610377Y758190D02*
X734017Y1056683D01*
X1032510Y1180323D01*
X1331003Y1056683D01*
X1454643Y758190D01*
X1331003Y459697D02*
X1454643Y758190D01*
M02*
