G04*
G04 #@! TF.GenerationSoftware,Altium Limited,Altium Designer,21.4.1 (30)*
G04*
G04 Layer_Physical_Order=2*
G04 Layer_Color=16711680*
%FSLAX44Y44*%
%MOMM*%
G71*
G04*
G04 #@! TF.SameCoordinates,C0E257CA-E608-45CC-978B-2DEEB779FBD1*
G04*
G04*
G04 #@! TF.FilePolarity,Positive*
G04*
G01*
G75*
%ADD10C,0.2540*%
%ADD69C,1.2700*%
%ADD70C,0.3048*%
%ADD71C,0.5080*%
%ADD73O,2.5000X2.0000*%
%ADD74C,1.5000*%
%ADD75R,1.5000X1.5000*%
%ADD76C,2.1450*%
%ADD77R,1.5000X1.5000*%
%ADD78C,0.5000*%
%ADD79C,1.2700*%
G36*
X694627Y930827D02*
X688239Y924440D01*
X680840D01*
Y904360D01*
X700920D01*
Y911759D01*
X707009Y917848D01*
X716534D01*
X716942Y916646D01*
X716485Y916295D01*
X714562Y913789D01*
X713354Y910871D01*
X713192Y909645D01*
X736888D01*
X736726Y910871D01*
X735518Y913789D01*
X733595Y916295D01*
X733138Y916646D01*
X733546Y917848D01*
X795534D01*
X795942Y916646D01*
X795485Y916295D01*
X793562Y913789D01*
X792354Y910871D01*
X792192Y909645D01*
X815888D01*
X815726Y910871D01*
X814761Y913202D01*
X815837Y913922D01*
X834193Y895566D01*
X812357Y873731D01*
X810834Y873428D01*
X809166Y872314D01*
X808052Y870647D01*
X807661Y868680D01*
X808052Y866713D01*
X809166Y865046D01*
X810834Y863932D01*
X812357Y863629D01*
X829235Y846751D01*
Y836378D01*
X828372Y835087D01*
X827981Y833120D01*
X828169Y832177D01*
X827363Y831195D01*
X810002D01*
X773934Y867262D01*
X772254Y868385D01*
X770272Y868780D01*
X741680D01*
X739698Y868385D01*
X738018Y867262D01*
X736895Y865582D01*
X736500Y863600D01*
X736895Y861618D01*
X738018Y859938D01*
X739698Y858815D01*
X741680Y858420D01*
X768126D01*
X804194Y822353D01*
X805874Y821230D01*
X807856Y820836D01*
X861575D01*
X863558Y821230D01*
X865238Y822353D01*
X872343Y829457D01*
X873465Y831138D01*
X873683Y832234D01*
X874953Y832109D01*
Y802640D01*
Y747172D01*
X873683Y747089D01*
X873382Y749381D01*
X872370Y751823D01*
X870761Y753921D01*
X868663Y755530D01*
X866221Y756542D01*
X863600Y756887D01*
X860979Y756542D01*
X858537Y755530D01*
X856439Y753921D01*
X854830Y751823D01*
X854777Y751695D01*
X853568Y751845D01*
X853487Y751899D01*
X853108Y753807D01*
X852504Y754710D01*
Y769290D01*
X853108Y770193D01*
X853499Y772160D01*
X853108Y774127D01*
X851994Y775794D01*
X850327Y776908D01*
X848360Y777299D01*
X848146Y777256D01*
X847165Y778062D01*
Y799382D01*
X848028Y800674D01*
X848419Y802640D01*
X848028Y804606D01*
X846914Y806274D01*
X845859Y806978D01*
Y808462D01*
X846914Y809166D01*
X848028Y810834D01*
X848419Y812800D01*
X848028Y814766D01*
X846914Y816434D01*
X845247Y817548D01*
X843280Y817939D01*
X841313Y817548D01*
X839646Y816434D01*
X838532Y814766D01*
X838229Y813243D01*
X819799Y794813D01*
X818957Y793552D01*
X818661Y792066D01*
Y778009D01*
X818268Y777686D01*
X816301Y777295D01*
X815010Y776432D01*
X590501D01*
X558771Y808163D01*
X558468Y809687D01*
X557354Y811354D01*
X555853Y812357D01*
X555362Y813662D01*
X636716Y895016D01*
X650240D01*
X651826Y895332D01*
X653170Y896230D01*
X661939Y904999D01*
X662859Y904618D01*
X665480Y904273D01*
X668101Y904618D01*
X670543Y905630D01*
X672641Y907239D01*
X674250Y909337D01*
X675262Y911779D01*
X675607Y914400D01*
X675262Y917021D01*
X674250Y919463D01*
X672641Y921561D01*
X670543Y923170D01*
X668101Y924182D01*
X665480Y924527D01*
X662859Y924182D01*
X660417Y923170D01*
X658319Y921561D01*
X656710Y919463D01*
X655698Y917021D01*
X655353Y914400D01*
X655698Y911779D01*
X656079Y910859D01*
X648524Y903304D01*
X642444D01*
X642361Y904574D01*
X642701Y904618D01*
X645143Y905630D01*
X647241Y907239D01*
X648850Y909337D01*
X649862Y911779D01*
X650207Y914400D01*
X649862Y917021D01*
X648850Y919463D01*
X647241Y921561D01*
X645143Y923170D01*
X642701Y924182D01*
X640080Y924527D01*
X637459Y924182D01*
X635017Y923170D01*
X632919Y921561D01*
X631310Y919463D01*
X630298Y917021D01*
X630063Y915230D01*
X629783Y915043D01*
X400420Y685680D01*
X399353Y685468D01*
X397686Y684354D01*
X396572Y682686D01*
X396181Y680720D01*
X396572Y678754D01*
X397686Y677086D01*
X399353Y675972D01*
X401320Y675581D01*
X403287Y675972D01*
X404954Y677086D01*
X406068Y678754D01*
X406280Y679820D01*
X633361Y906901D01*
X635017Y905630D01*
X637459Y904618D01*
X637799Y904574D01*
X637716Y903304D01*
X635000D01*
X633414Y902988D01*
X632070Y902090D01*
X415660Y685680D01*
X414594Y685468D01*
X412926Y684354D01*
X411812Y682686D01*
X411421Y680720D01*
X411812Y678754D01*
X412926Y677086D01*
X414594Y675972D01*
X416560Y675581D01*
X418526Y675972D01*
X420194Y677086D01*
X421308Y678754D01*
X421520Y679820D01*
X472336Y730636D01*
X473551Y730267D01*
X473602Y730014D01*
X474716Y728347D01*
X476383Y727233D01*
X477449Y727021D01*
X491804Y712665D01*
X491386Y711287D01*
X490542Y711119D01*
X488875Y710005D01*
X487761Y708338D01*
X487424Y706644D01*
X475804Y695024D01*
X447040D01*
X445454Y694708D01*
X444110Y693810D01*
X441060Y690760D01*
X439994Y690548D01*
X438326Y689434D01*
X437212Y687766D01*
X436821Y685800D01*
X437212Y683833D01*
X438326Y682166D01*
X439994Y681052D01*
X441960Y680661D01*
X443927Y681052D01*
X445594Y682166D01*
X446298Y683221D01*
X447782D01*
X448486Y682166D01*
X450154Y681052D01*
X452120Y680661D01*
X454086Y681052D01*
X455378Y681915D01*
X461484D01*
X461609Y680645D01*
X460313Y680388D01*
X458646Y679274D01*
X457532Y677607D01*
X457141Y675640D01*
X457532Y673673D01*
X458646Y672006D01*
X460313Y670892D01*
X461380Y670680D01*
X464430Y667630D01*
X465774Y666732D01*
X467360Y666416D01*
X489890D01*
X490793Y665812D01*
X491737Y665625D01*
X492075Y665515D01*
X491954Y664287D01*
X278097D01*
X277039Y665480D01*
Y848360D01*
X276832Y849401D01*
X276243Y850283D01*
X275361Y850872D01*
X274320Y851079D01*
X256719D01*
Y919624D01*
X269096Y932001D01*
X694140D01*
X694627Y930827D01*
D02*
G37*
G36*
X815309Y868517D02*
X815337Y868373D01*
X815385Y868223D01*
X815454Y868067D01*
X815542Y867904D01*
X815650Y867735D01*
X815778Y867559D01*
X815926Y867377D01*
X816281Y866995D01*
X814485Y865199D01*
X814291Y865386D01*
X813921Y865702D01*
X813745Y865830D01*
X813576Y865938D01*
X813413Y866026D01*
X813257Y866095D01*
X813107Y866143D01*
X812963Y866171D01*
X812825Y866180D01*
X815300Y868655D01*
X815309Y868517D01*
D02*
G37*
G36*
X891361Y867554D02*
Y865270D01*
X890091Y865030D01*
X849620Y905500D01*
X824293Y930827D01*
X824780Y932001D01*
X826914D01*
X891361Y867554D01*
D02*
G37*
G36*
X874953Y854806D02*
Y834131D01*
X873683Y834006D01*
X873465Y835102D01*
X872343Y836783D01*
X870662Y837905D01*
X868680Y838299D01*
X866698Y837905D01*
X865017Y836783D01*
X859430Y831195D01*
X838877D01*
X838071Y832177D01*
X838259Y833120D01*
X837868Y835087D01*
X837005Y836378D01*
Y848360D01*
X836709Y849847D01*
X835867Y851107D01*
X818294Y868680D01*
X839686Y890073D01*
X874953Y854806D01*
D02*
G37*
G36*
X838482Y800925D02*
X838532Y800674D01*
X839395Y799382D01*
Y759742D01*
X839691Y758255D01*
X840005Y757785D01*
Y755568D01*
X838866Y755006D01*
X838183Y755530D01*
X835741Y756542D01*
X833120Y756887D01*
X830499Y756542D01*
X828057Y755530D01*
X827341Y754981D01*
X826877Y755209D01*
X826283Y755770D01*
X826430Y756510D01*
Y790457D01*
X837267Y801293D01*
X838482Y800925D01*
D02*
G37*
G36*
X549083Y805587D02*
X549507Y804954D01*
X550017Y803950D01*
X549507Y802946D01*
X548972Y802147D01*
X548581Y800180D01*
X548972Y798214D01*
X550086Y796546D01*
X551754Y795432D01*
X553277Y795129D01*
X582883Y765523D01*
X584144Y764681D01*
X585630Y764385D01*
X789222D01*
X790514Y763522D01*
X792480Y763131D01*
X794446Y763522D01*
X796114Y764636D01*
X797228Y766303D01*
X797619Y768270D01*
X797942Y768663D01*
X815010D01*
X816301Y767800D01*
X818268Y767409D01*
X818661Y767086D01*
Y757299D01*
X818465Y756314D01*
Y750373D01*
X817195Y750120D01*
X816490Y751823D01*
X814881Y753921D01*
X812783Y755530D01*
X810341Y756542D01*
X807720Y756887D01*
X805099Y756542D01*
X802657Y755530D01*
X800559Y753921D01*
X798950Y751823D01*
X797938Y749381D01*
X797853Y748734D01*
X531230D01*
X529645Y748418D01*
X528300Y747520D01*
X502396Y721616D01*
X500702Y721279D01*
X499035Y720165D01*
X498548Y719437D01*
X496913Y719276D01*
X483309Y732881D01*
X483097Y733947D01*
X481983Y735614D01*
X480316Y736728D01*
X480062Y736778D01*
X479694Y737994D01*
X547778Y806078D01*
X549083Y805587D01*
D02*
G37*
G36*
X853699Y748472D02*
X853473Y746760D01*
X853818Y744139D01*
X854830Y741697D01*
X856439Y739599D01*
X858537Y737990D01*
X860979Y736978D01*
X863600Y736633D01*
X866221Y736978D01*
X868663Y737990D01*
X870761Y739599D01*
X872370Y741697D01*
X873382Y744139D01*
X873683Y746431D01*
X874953Y746348D01*
Y721772D01*
X873683Y721689D01*
X873610Y722245D01*
X873382Y723981D01*
X872370Y726423D01*
X870761Y728521D01*
X868663Y730130D01*
X866221Y731142D01*
X863600Y731487D01*
X860979Y731142D01*
X858537Y730130D01*
X856439Y728521D01*
X854830Y726423D01*
X853818Y723981D01*
X853473Y721360D01*
X853818Y718739D01*
X854830Y716297D01*
X856439Y714199D01*
X858537Y712590D01*
X860979Y711578D01*
X863600Y711233D01*
X866221Y711578D01*
X868663Y712590D01*
X870761Y714199D01*
X872370Y716297D01*
X873382Y718739D01*
X873610Y720475D01*
X873683Y721031D01*
X874953Y720948D01*
Y704927D01*
X873640D01*
Y706000D01*
X853560D01*
Y685920D01*
X873640D01*
Y686993D01*
X874953D01*
Y684434D01*
X854806Y664287D01*
X798366D01*
X798241Y665557D01*
X799527Y665812D01*
X801194Y666926D01*
X802308Y668594D01*
X802699Y670560D01*
X802308Y672526D01*
X801194Y674194D01*
X799527Y675308D01*
X797560Y675699D01*
X795593Y675308D01*
X794690Y674704D01*
X778956D01*
X770010Y683650D01*
X768666Y684548D01*
X767080Y684864D01*
X530070D01*
X509726Y705208D01*
X510153Y706577D01*
X511634Y707566D01*
X512748Y709233D01*
X512960Y710300D01*
X534252Y731592D01*
X802869D01*
X803121Y730322D01*
X802657Y730130D01*
X800559Y728521D01*
X798950Y726423D01*
X797938Y723981D01*
X797593Y721360D01*
X797938Y718739D01*
X798950Y716297D01*
X800559Y714199D01*
X802657Y712590D01*
X805099Y711578D01*
X805953Y711466D01*
X806361Y710264D01*
X806114Y710017D01*
X805272Y708757D01*
X804976Y707270D01*
Y705691D01*
X802657Y704730D01*
X800559Y703121D01*
X798950Y701023D01*
X797938Y698581D01*
X797593Y695960D01*
X797938Y693339D01*
X798950Y690897D01*
X800559Y688799D01*
X802657Y687190D01*
X805099Y686178D01*
X807720Y685833D01*
X810341Y686178D01*
X812783Y687190D01*
X814881Y688799D01*
X816490Y690897D01*
X817502Y693339D01*
X817847Y695960D01*
X817502Y698581D01*
X816490Y701023D01*
X814881Y703121D01*
X813057Y704520D01*
X812982Y705805D01*
X813004Y705919D01*
X823187Y716103D01*
X824709Y715828D01*
X825959Y714199D01*
X828057Y712590D01*
X830499Y711578D01*
X831353Y711466D01*
X831761Y710264D01*
X830373Y708876D01*
X829531Y707616D01*
X829235Y706129D01*
Y706000D01*
X823080D01*
Y685920D01*
X843160D01*
Y706000D01*
X840144D01*
X839658Y707173D01*
X846637Y714152D01*
X847479Y715412D01*
X847775Y716899D01*
Y746221D01*
X848360Y746701D01*
X850327Y747092D01*
X851994Y748206D01*
X852478Y748932D01*
X853699Y748472D01*
D02*
G37*
G36*
X493955Y686701D02*
Y676462D01*
X492974Y675656D01*
X492760Y675699D01*
X490793Y675308D01*
X489890Y674704D01*
X469076D01*
X467240Y676540D01*
X467028Y677607D01*
X465914Y679274D01*
X464246Y680388D01*
X462951Y680645D01*
X463076Y681915D01*
X478924D01*
X480410Y682211D01*
X481671Y683053D01*
X485177Y686559D01*
X486744D01*
X487332Y686167D01*
X489298Y685776D01*
X491264Y686167D01*
X492685Y687116D01*
X493955Y686701D01*
D02*
G37*
G36*
X525424Y677790D02*
X526768Y676892D01*
X528354Y676576D01*
X743516D01*
X744002Y675403D01*
X732886Y664287D01*
X504747D01*
X503834Y665487D01*
X504027Y666133D01*
X504887Y666304D01*
X506554Y667418D01*
X507668Y669085D01*
X508059Y671052D01*
X507668Y673018D01*
X507064Y673922D01*
Y694491D01*
X508237Y694977D01*
X525424Y677790D01*
D02*
G37*
G36*
X891361Y673970D02*
Y631046D01*
X865014Y604699D01*
X280526D01*
X256719Y628506D01*
Y662761D01*
X262459D01*
X262769Y661491D01*
X261475Y659803D01*
X260579Y657641D01*
X260273Y655320D01*
X260579Y652999D01*
X261475Y650837D01*
X262900Y648980D01*
X264757Y647555D01*
X266919Y646659D01*
X269240Y646353D01*
X395418D01*
X396223Y645372D01*
X396181Y645160D01*
X396572Y643194D01*
X397686Y641526D01*
X399353Y640412D01*
X401320Y640021D01*
X403287Y640412D01*
X404578Y641275D01*
X490302D01*
X491594Y640412D01*
X493560Y640021D01*
X495527Y640412D01*
X497194Y641526D01*
X498308Y643194D01*
X498699Y645160D01*
X498657Y645372D01*
X499462Y646353D01*
X639851D01*
X640282Y645083D01*
X638796Y643944D01*
X636786Y641324D01*
X635523Y638274D01*
X635092Y635000D01*
X635523Y631726D01*
X636786Y628676D01*
X638796Y626056D01*
X641416Y624046D01*
X644466Y622783D01*
X647740Y622352D01*
X652740D01*
X656014Y622783D01*
X659064Y624046D01*
X661684Y626056D01*
X663694Y628676D01*
X664828Y631414D01*
X664841Y631418D01*
X666119D01*
X666132Y631414D01*
X667266Y628676D01*
X669276Y626056D01*
X671896Y624046D01*
X674946Y622783D01*
X678220Y622352D01*
X683220D01*
X686494Y622783D01*
X689544Y624046D01*
X692164Y626056D01*
X694174Y628676D01*
X695308Y631414D01*
X695321Y631418D01*
X696599D01*
X696612Y631414D01*
X697746Y628676D01*
X699756Y626056D01*
X702376Y624046D01*
X705426Y622783D01*
X708700Y622352D01*
X713700D01*
X716974Y622783D01*
X720024Y624046D01*
X722644Y626056D01*
X724654Y628676D01*
X725917Y631726D01*
X726348Y635000D01*
X725917Y638274D01*
X724654Y641324D01*
X722644Y643944D01*
X721158Y645083D01*
X721590Y646353D01*
X736600D01*
X738921Y646659D01*
X741083Y647555D01*
X742940Y648980D01*
X751840Y657879D01*
X760740Y648980D01*
X762597Y647555D01*
X764759Y646659D01*
X767080Y646353D01*
X839393D01*
Y624348D01*
X838578Y622381D01*
X838233Y619760D01*
X838578Y617139D01*
X839590Y614697D01*
X841199Y612599D01*
X843297Y610990D01*
X845739Y609978D01*
X848360Y609633D01*
X850981Y609978D01*
X853423Y610990D01*
X855521Y612599D01*
X857130Y614697D01*
X858142Y617139D01*
X858487Y619760D01*
X858142Y622381D01*
X857327Y624348D01*
Y646353D01*
X858520D01*
X860841Y646659D01*
X863003Y647555D01*
X864860Y648980D01*
X890091Y674210D01*
X891361Y673970D01*
D02*
G37*
%LPC*%
G36*
X616585Y922995D02*
Y916305D01*
X623275D01*
X623224Y916689D01*
X622341Y918823D01*
X620935Y920655D01*
X619103Y922061D01*
X616969Y922944D01*
X616585Y922995D01*
D02*
G37*
G36*
X413385D02*
Y916305D01*
X420075D01*
X420024Y916689D01*
X419141Y918823D01*
X417735Y920655D01*
X415903Y922061D01*
X413769Y922944D01*
X413385Y922995D01*
D02*
G37*
G36*
X612775D02*
X612391Y922944D01*
X610257Y922061D01*
X608425Y920655D01*
X607019Y918823D01*
X606136Y916689D01*
X606085Y916305D01*
X612775D01*
Y922995D01*
D02*
G37*
G36*
X409575D02*
X409191Y922944D01*
X407057Y922061D01*
X405225Y920655D01*
X403819Y918823D01*
X402936Y916689D01*
X402885Y916305D01*
X409575D01*
Y922995D01*
D02*
G37*
G36*
X623275Y912495D02*
X616585D01*
Y905805D01*
X616969Y905856D01*
X619103Y906739D01*
X620935Y908145D01*
X622341Y909977D01*
X623224Y912111D01*
X623275Y912495D01*
D02*
G37*
G36*
X420075D02*
X413385D01*
Y905805D01*
X413769Y905856D01*
X415903Y906739D01*
X417735Y908145D01*
X419141Y909977D01*
X420024Y912111D01*
X420075Y912495D01*
D02*
G37*
G36*
X612775D02*
X606085D01*
X606136Y912111D01*
X607019Y909977D01*
X608425Y908145D01*
X610257Y906739D01*
X612391Y905856D01*
X612775Y905805D01*
Y912495D01*
D02*
G37*
G36*
X409575D02*
X402885D01*
X402936Y912111D01*
X403819Y909977D01*
X405225Y908145D01*
X407057Y906739D01*
X409191Y905856D01*
X409575Y905805D01*
Y912495D01*
D02*
G37*
G36*
X472320Y924440D02*
X452240D01*
Y904360D01*
X472320D01*
Y924440D01*
D02*
G37*
G36*
X355480D02*
X335400D01*
Y904360D01*
X355480D01*
Y924440D01*
D02*
G37*
G36*
X289440D02*
X269360D01*
Y904360D01*
X289440D01*
Y924440D01*
D02*
G37*
G36*
X370840Y924527D02*
X368219Y924182D01*
X365777Y923170D01*
X363679Y921561D01*
X362070Y919463D01*
X361058Y917021D01*
X360713Y914400D01*
X361058Y911779D01*
X362070Y909337D01*
X363679Y907239D01*
X365777Y905630D01*
X368219Y904618D01*
X370840Y904273D01*
X373461Y904618D01*
X375903Y905630D01*
X378001Y907239D01*
X379610Y909337D01*
X380622Y911779D01*
X380967Y914400D01*
X380622Y917021D01*
X379610Y919463D01*
X378001Y921561D01*
X375903Y923170D01*
X373461Y924182D01*
X370840Y924527D01*
D02*
G37*
G36*
X304800D02*
X302179Y924182D01*
X299737Y923170D01*
X297639Y921561D01*
X296030Y919463D01*
X295018Y917021D01*
X294673Y914400D01*
X295018Y911779D01*
X296030Y909337D01*
X297639Y907239D01*
X299737Y905630D01*
X302179Y904618D01*
X304800Y904273D01*
X307421Y904618D01*
X309863Y905630D01*
X311961Y907239D01*
X313570Y909337D01*
X314582Y911779D01*
X314927Y914400D01*
X314582Y917021D01*
X313570Y919463D01*
X311961Y921561D01*
X309863Y923170D01*
X307421Y924182D01*
X304800Y924527D01*
D02*
G37*
G36*
X815888Y905835D02*
X805945D01*
Y895892D01*
X807171Y896054D01*
X810089Y897262D01*
X812595Y899185D01*
X814518Y901691D01*
X815726Y904609D01*
X815888Y905835D01*
D02*
G37*
G36*
X802135D02*
X792192D01*
X792354Y904609D01*
X793562Y901691D01*
X795485Y899185D01*
X797991Y897262D01*
X800909Y896054D01*
X802135Y895892D01*
Y905835D01*
D02*
G37*
G36*
X736888D02*
X726945D01*
Y895892D01*
X728171Y896054D01*
X731089Y897262D01*
X733595Y899185D01*
X735518Y901691D01*
X736726Y904609D01*
X736888Y905835D01*
D02*
G37*
G36*
X723135D02*
X713192D01*
X713354Y904609D01*
X714562Y901691D01*
X716485Y899185D01*
X718991Y897262D01*
X721909Y896054D01*
X723135Y895892D01*
Y905835D01*
D02*
G37*
G36*
X264160Y904299D02*
X262194Y903908D01*
X260526Y902794D01*
X259412Y901126D01*
X259021Y899160D01*
X259412Y897194D01*
X260016Y896290D01*
Y866470D01*
X259412Y865566D01*
X259021Y863600D01*
X259412Y861634D01*
X260526Y859966D01*
X262194Y858852D01*
X264160Y858461D01*
X266126Y858852D01*
X267794Y859966D01*
X268908Y861634D01*
X269299Y863600D01*
X268908Y865566D01*
X268304Y866470D01*
Y896290D01*
X268908Y897194D01*
X269299Y899160D01*
X268908Y901126D01*
X267794Y902794D01*
X266126Y903908D01*
X264160Y904299D01*
D02*
G37*
G36*
X436880Y924527D02*
X434259Y924182D01*
X431817Y923170D01*
X429719Y921561D01*
X428110Y919463D01*
X427098Y917021D01*
X426753Y914400D01*
X427098Y911779D01*
X428110Y909337D01*
X429719Y907239D01*
X431817Y905630D01*
X432494Y905350D01*
Y831758D01*
X431647Y830491D01*
X431256Y828525D01*
X431395Y827826D01*
X430590Y826845D01*
X352129D01*
X345411Y833563D01*
X345108Y835087D01*
X343994Y836754D01*
X342327Y837868D01*
X340360Y838259D01*
X338394Y837868D01*
X336726Y836754D01*
X335612Y835087D01*
X335221Y833120D01*
X335612Y831153D01*
X336726Y829486D01*
X338394Y828372D01*
X339917Y828069D01*
X345048Y822938D01*
X344562Y821765D01*
X341969D01*
X330171Y833563D01*
X329868Y835087D01*
X328754Y836754D01*
X327086Y837868D01*
X325120Y838259D01*
X324732Y838577D01*
Y887832D01*
X331100Y894200D01*
X332166Y894412D01*
X333834Y895526D01*
X334948Y897194D01*
X335339Y899160D01*
X334948Y901126D01*
X333834Y902794D01*
X332166Y903908D01*
X330200Y904299D01*
X328233Y903908D01*
X326566Y902794D01*
X325452Y901126D01*
X325240Y900060D01*
X317658Y892478D01*
X316760Y891134D01*
X316444Y889548D01*
Y797012D01*
X316760Y795426D01*
X317658Y794082D01*
X325240Y786500D01*
X325452Y785434D01*
X326566Y783766D01*
X328233Y782652D01*
X330200Y782261D01*
X332166Y782652D01*
X333834Y783766D01*
X334948Y785434D01*
X335339Y787400D01*
X334948Y789367D01*
X333834Y791034D01*
X332166Y792148D01*
X331100Y792360D01*
X324732Y798728D01*
Y826355D01*
X325905Y826841D01*
X337613Y815133D01*
X338873Y814291D01*
X340360Y813995D01*
X436880D01*
X438367Y814291D01*
X439627Y815133D01*
X458809Y834315D01*
X539674D01*
X539675Y834315D01*
X541342Y833201D01*
X543308Y832810D01*
X545275Y833201D01*
X546942Y834315D01*
X548056Y835982D01*
X548447Y837948D01*
X548640Y838141D01*
X550606Y838532D01*
X552274Y839646D01*
X553388Y841313D01*
X553779Y843280D01*
X553388Y845247D01*
X552274Y846914D01*
X550606Y848028D01*
X548640Y848419D01*
X546674Y848028D01*
X545382Y847165D01*
X457200D01*
X455713Y846869D01*
X454453Y846027D01*
X441954Y833528D01*
X440781Y834014D01*
Y905149D01*
X441943Y905630D01*
X444041Y907239D01*
X445650Y909337D01*
X446662Y911779D01*
X447007Y914400D01*
X446662Y917021D01*
X445650Y919463D01*
X444041Y921561D01*
X441943Y923170D01*
X439501Y924182D01*
X436880Y924527D01*
D02*
G37*
G36*
X865505Y780755D02*
Y774065D01*
X872195D01*
X872144Y774449D01*
X871261Y776583D01*
X869855Y778415D01*
X868023Y779821D01*
X865889Y780704D01*
X865505Y780755D01*
D02*
G37*
G36*
X861695D02*
X861311Y780704D01*
X859177Y779821D01*
X857345Y778415D01*
X855939Y776583D01*
X855056Y774449D01*
X855005Y774065D01*
X861695D01*
Y780755D01*
D02*
G37*
G36*
X872195Y770255D02*
X865505D01*
Y763565D01*
X865889Y763616D01*
X868023Y764499D01*
X869855Y765905D01*
X871261Y767737D01*
X872144Y769871D01*
X872195Y770255D01*
D02*
G37*
G36*
X861695D02*
X855005D01*
X855056Y769871D01*
X855939Y767737D01*
X857345Y765905D01*
X859177Y764499D01*
X861311Y763616D01*
X861695Y763565D01*
Y770255D01*
D02*
G37*
G36*
X545465Y628355D02*
Y621665D01*
X552155D01*
X552104Y622049D01*
X551221Y624183D01*
X549815Y626015D01*
X547983Y627421D01*
X545849Y628304D01*
X545465Y628355D01*
D02*
G37*
G36*
X824865D02*
Y621665D01*
X831555D01*
X831504Y622049D01*
X830621Y624183D01*
X829215Y626015D01*
X827383Y627421D01*
X825249Y628304D01*
X824865Y628355D01*
D02*
G37*
G36*
X821055D02*
X820671Y628304D01*
X818537Y627421D01*
X816705Y626015D01*
X815299Y624183D01*
X814416Y622049D01*
X814365Y621665D01*
X821055D01*
Y628355D01*
D02*
G37*
G36*
X509905D02*
Y621665D01*
X516595D01*
X516544Y622049D01*
X515661Y624183D01*
X514255Y626015D01*
X512423Y627421D01*
X510289Y628304D01*
X509905Y628355D01*
D02*
G37*
G36*
X506095D02*
X505711Y628304D01*
X503577Y627421D01*
X501745Y626015D01*
X500339Y624183D01*
X499456Y622049D01*
X499405Y621665D01*
X506095D01*
Y628355D01*
D02*
G37*
G36*
X541655D02*
X541271Y628304D01*
X539137Y627421D01*
X537305Y626015D01*
X535899Y624183D01*
X535016Y622049D01*
X534965Y621665D01*
X541655D01*
Y628355D01*
D02*
G37*
G36*
X552155Y617855D02*
X545465D01*
Y611165D01*
X545849Y611216D01*
X547983Y612099D01*
X549815Y613505D01*
X551221Y615337D01*
X552104Y617471D01*
X552155Y617855D01*
D02*
G37*
G36*
X831555D02*
X824865D01*
Y611165D01*
X825249Y611216D01*
X827383Y612099D01*
X829215Y613505D01*
X830621Y615337D01*
X831504Y617471D01*
X831555Y617855D01*
D02*
G37*
G36*
X821055D02*
X814365D01*
X814416Y617471D01*
X815299Y615337D01*
X816705Y613505D01*
X818537Y612099D01*
X820671Y611216D01*
X821055Y611165D01*
Y617855D01*
D02*
G37*
G36*
X516595D02*
X509905D01*
Y611165D01*
X510289Y611216D01*
X512423Y612099D01*
X514255Y613505D01*
X515661Y615337D01*
X516544Y617471D01*
X516595Y617855D01*
D02*
G37*
G36*
X506095D02*
X499405D01*
X499456Y617471D01*
X500339Y615337D01*
X501745Y613505D01*
X503577Y612099D01*
X505711Y611216D01*
X506095Y611165D01*
Y617855D01*
D02*
G37*
G36*
X541655D02*
X534965D01*
X535016Y617471D01*
X535899Y615337D01*
X537305Y613505D01*
X539137Y612099D01*
X541271Y611216D01*
X541655Y611165D01*
Y617855D01*
D02*
G37*
G36*
X807600Y629800D02*
X787520D01*
Y609720D01*
X807600D01*
Y629800D01*
D02*
G37*
G36*
X579000D02*
X558920D01*
Y609720D01*
X579000D01*
Y629800D01*
D02*
G37*
G36*
X492640D02*
X472560D01*
Y609720D01*
X492640D01*
Y629800D01*
D02*
G37*
%LPD*%
D10*
X488827Y690444D02*
X489298Y690915D01*
X493562Y696658D02*
Y697133D01*
X497786Y690430D02*
Y692433D01*
X478924Y685800D02*
X483568Y690444D01*
X493562Y696658D02*
X497786Y692433D01*
X483568Y690444D02*
X488827D01*
X497786Y690430D02*
X497840Y690377D01*
Y665480D02*
Y690377D01*
X843280Y759742D02*
Y802640D01*
X833120Y706129D02*
X843890Y716899D01*
X843280Y759742D02*
X843890Y759132D01*
Y716899D02*
Y759132D01*
X822546Y792066D02*
X843280Y812800D01*
X822546Y756510D02*
Y792066D01*
X808861Y697101D02*
Y707270D01*
X807720Y695960D02*
X808861Y697101D01*
Y707270D02*
X822350Y720759D01*
Y756314D01*
X822546Y756510D01*
X340360Y833120D02*
X350520Y822960D01*
X436880D01*
Y817880D02*
X457200Y838200D01*
X325120Y833120D02*
X340360Y817880D01*
X436880D01*
Y822960D02*
X457200Y843280D01*
X548640D01*
X457200Y838200D02*
X543057D01*
X543308Y837948D01*
X553720Y807720D02*
X588892Y772548D01*
X818268D01*
X553720Y800180D02*
X585630Y768270D01*
X792480D01*
X497840Y665480D02*
X498092Y665228D01*
X401320Y645160D02*
X493560D01*
X452120Y685800D02*
X478924D01*
X833120Y833120D02*
Y848360D01*
X812800Y868680D02*
X833120Y848360D01*
Y695960D02*
Y706129D01*
X812800Y868680D02*
X843280Y899160D01*
D69*
X470031Y655320D02*
X736600D01*
X751840Y670560D01*
X416560Y655320D02*
X470031D01*
X883920Y802640D02*
Y858520D01*
X843280Y899160D02*
X883920Y858520D01*
Y695960D02*
Y802640D01*
X767080Y655320D02*
X848360D01*
X751840Y670560D02*
X767080Y655320D01*
X299720D02*
X416560D01*
X815625Y926815D02*
X843280Y899160D01*
X848360Y655320D02*
X858520D01*
X848360Y619760D02*
Y655320D01*
X883920Y680720D02*
Y695960D01*
X863600D02*
X883920D01*
X703295Y926815D02*
X815625D01*
X690880Y914400D02*
X703295Y926815D01*
X858520Y655320D02*
X883920Y680720D01*
X269240Y655320D02*
X299720D01*
D70*
X805550Y744590D02*
X807720Y746760D01*
X502920Y716280D02*
X531230Y744590D01*
X805550D01*
X508000Y711200D02*
X532536Y735736D01*
X812286D01*
X492508Y705868D02*
Y706372D01*
X499076Y701748D02*
Y702276D01*
Y701748D02*
X502920Y697904D01*
X477520Y690880D02*
X492508Y705868D01*
X502920Y671052D02*
Y697904D01*
X478349Y731980D02*
X503538Y706791D01*
X401320Y680720D02*
X632713Y912113D01*
X637793D01*
X640080Y914400D01*
X503538Y705536D02*
X528354Y680720D01*
X503538Y705536D02*
Y706791D01*
X812286Y735736D02*
X813629Y737079D01*
X817506D01*
X817880Y737452D01*
X848360Y751840D02*
Y772160D01*
X777240Y670560D02*
X797560D01*
X436637Y914157D02*
X436880Y914400D01*
X436395Y828525D02*
X436637Y828767D01*
Y914157D01*
X416560Y680720D02*
X635000Y899160D01*
X650240D01*
X320588Y797012D02*
Y889548D01*
X330200Y899160D01*
X320588Y797012D02*
X330200Y787400D01*
X462280Y675640D02*
X467360Y670560D01*
X492760D01*
X502668Y716532D02*
X502920Y716280D01*
X502920D01*
X767080Y680720D02*
X777240Y670560D01*
X528354Y680720D02*
X767080D01*
X447040Y690880D02*
X477520D01*
X441960Y685800D02*
X447040Y690880D01*
X650240Y899160D02*
X665480Y914400D01*
X264160Y863600D02*
Y899160D01*
D71*
X770272Y863600D02*
X807856Y826015D01*
X861575D01*
X741680Y863600D02*
X770272D01*
X861575Y826015D02*
X868680Y833120D01*
D73*
X711200Y635000D02*
D03*
X680720D02*
D03*
X650240D02*
D03*
D74*
X807720Y746760D02*
D03*
X833120D02*
D03*
X807720Y721360D02*
D03*
X833120D02*
D03*
X807720Y695960D02*
D03*
X370840Y914400D02*
D03*
X848360Y619760D02*
D03*
X822960D02*
D03*
X614680Y914400D02*
D03*
X640080D02*
D03*
X665480D02*
D03*
X863600Y721360D02*
D03*
Y746760D02*
D03*
Y772160D02*
D03*
X508000Y619760D02*
D03*
X543560D02*
D03*
X304800Y914400D02*
D03*
X411480D02*
D03*
X436880D02*
D03*
D75*
X833120Y695960D02*
D03*
X863600D02*
D03*
D76*
X725040Y907740D02*
D03*
X804040D02*
D03*
D77*
X345440Y914400D02*
D03*
X797560Y619760D02*
D03*
X690880Y914400D02*
D03*
X482600Y619760D02*
D03*
X568960D02*
D03*
X279400Y914400D02*
D03*
X462280D02*
D03*
D78*
X701040Y614680D02*
D03*
X650240D02*
D03*
X538480Y878840D02*
D03*
X518114Y877211D02*
D03*
X518160Y858520D02*
D03*
X447040D02*
D03*
X457200Y873760D02*
D03*
Y894080D02*
D03*
X477520Y899160D02*
D03*
X538480D02*
D03*
X518160D02*
D03*
X497840D02*
D03*
X487680Y863600D02*
D03*
X498284Y888984D02*
D03*
X492497Y888928D02*
D03*
X487680Y883920D02*
D03*
X483056Y888984D02*
D03*
X477044Y889040D02*
D03*
X472440Y878840D02*
D03*
X492760Y868680D02*
D03*
X482600D02*
D03*
X502920Y878840D02*
D03*
X477520Y873760D02*
D03*
X497840D02*
D03*
X472380Y884489D02*
D03*
X502948D02*
D03*
X670560Y726440D02*
D03*
X645160D02*
D03*
X711200Y751840D02*
D03*
X764073Y754727D02*
D03*
X499076Y702276D02*
D03*
X492508Y706372D02*
D03*
X493562Y697133D02*
D03*
X489298Y690915D02*
D03*
X478349Y731980D02*
D03*
X450354Y742325D02*
D03*
X441960Y731520D02*
D03*
X426720Y741680D02*
D03*
X452120Y817880D02*
D03*
X447040Y802640D02*
D03*
Y782320D02*
D03*
X381000Y685800D02*
D03*
X360680D02*
D03*
X340360D02*
D03*
X452120Y701040D02*
D03*
X304800Y751840D02*
D03*
Y721360D02*
D03*
Y690880D02*
D03*
X284480Y685800D02*
D03*
Y716280D02*
D03*
Y741680D02*
D03*
Y772160D02*
D03*
Y812800D02*
D03*
X294640Y797560D02*
D03*
X309880Y782320D02*
D03*
X325120Y772160D02*
D03*
Y751840D02*
D03*
Y731520D02*
D03*
Y711200D02*
D03*
X345440D02*
D03*
X365760D02*
D03*
X391160D02*
D03*
X416560D02*
D03*
X406400Y731520D02*
D03*
X391160Y746760D02*
D03*
X445031Y759035D02*
D03*
X426720Y762000D02*
D03*
X411480D02*
D03*
X370840Y782320D02*
D03*
X391160D02*
D03*
X411480D02*
D03*
X426720D02*
D03*
Y802640D02*
D03*
X411480D02*
D03*
X391160D02*
D03*
X370840D02*
D03*
X350520D02*
D03*
X328444Y801455D02*
D03*
X327751Y819477D02*
D03*
X313333Y830290D02*
D03*
X312363Y815318D02*
D03*
X297252Y830983D02*
D03*
X292545Y900988D02*
D03*
X292323Y889004D02*
D03*
X320040Y904240D02*
D03*
X314960Y894080D02*
D03*
X327610Y866589D02*
D03*
X421395Y830750D02*
D03*
X408359D02*
D03*
X395475Y831054D02*
D03*
X382894Y830902D02*
D03*
X370161D02*
D03*
X356216Y831357D02*
D03*
X416560Y868680D02*
D03*
X396240D02*
D03*
X386080Y858520D02*
D03*
X406400D02*
D03*
X426720D02*
D03*
X421640Y899160D02*
D03*
X411480Y894080D02*
D03*
X386080D02*
D03*
X391160Y909320D02*
D03*
X360680Y894080D02*
D03*
X325120Y914400D02*
D03*
X264887Y923878D02*
D03*
X264160Y909320D02*
D03*
X284480Y929640D02*
D03*
X325120D02*
D03*
X345440D02*
D03*
X365760D02*
D03*
X304800D02*
D03*
X406400D02*
D03*
X426720D02*
D03*
X447040D02*
D03*
X386080D02*
D03*
X487680D02*
D03*
X508000D02*
D03*
X528320D02*
D03*
X467360D02*
D03*
X548640D02*
D03*
X558800Y914400D02*
D03*
X599440D02*
D03*
X579120D02*
D03*
X609600Y929640D02*
D03*
X589280D02*
D03*
X568960D02*
D03*
Y899160D02*
D03*
X589280D02*
D03*
X609600D02*
D03*
X626408Y926954D02*
D03*
X652884D02*
D03*
X686132Y928364D02*
D03*
X662129Y900845D02*
D03*
X675706Y900724D02*
D03*
X706120Y904240D02*
D03*
X709044Y913574D02*
D03*
X728440Y844838D02*
D03*
X741680Y848360D02*
D03*
X731520Y868680D02*
D03*
X721360D02*
D03*
Y853440D02*
D03*
X711200D02*
D03*
Y868680D02*
D03*
Y883920D02*
D03*
X726440D02*
D03*
X787400Y899160D02*
D03*
X764323Y897814D02*
D03*
X741680Y899160D02*
D03*
X740199Y914786D02*
D03*
X764081Y914907D02*
D03*
X787400Y914400D02*
D03*
X822960Y899160D02*
D03*
Y889000D02*
D03*
X809299Y880963D02*
D03*
X803116Y870174D02*
D03*
X792480Y868680D02*
D03*
X784205Y831624D02*
D03*
X858520Y853440D02*
D03*
X838200Y868680D02*
D03*
X822960D02*
D03*
X833120Y878840D02*
D03*
X841278Y885772D02*
D03*
X848360Y878840D02*
D03*
X858520Y868680D02*
D03*
X868680Y858520D02*
D03*
Y843280D02*
D03*
X873427Y826370D02*
D03*
X873760Y792480D02*
D03*
Y782320D02*
D03*
X863600Y792480D02*
D03*
X853440Y797560D02*
D03*
Y787400D02*
D03*
X817880Y737452D02*
D03*
X819158Y687483D02*
D03*
X820096Y707856D02*
D03*
X792480Y690880D02*
D03*
X777240Y680720D02*
D03*
Y701040D02*
D03*
X792480Y711200D02*
D03*
X787400Y726440D02*
D03*
X782320Y716280D02*
D03*
X767080D02*
D03*
X726440Y695960D02*
D03*
X716280D02*
D03*
X736600Y716280D02*
D03*
X716280D02*
D03*
X695960Y726440D02*
D03*
X619760D02*
D03*
X599440Y843280D02*
D03*
Y817880D02*
D03*
Y802640D02*
D03*
Y782320D02*
D03*
Y756920D02*
D03*
X568960D02*
D03*
X551172Y781589D02*
D03*
X553720Y756920D02*
D03*
X543560D02*
D03*
Y772160D02*
D03*
Y792480D02*
D03*
X563880Y690880D02*
D03*
Y711200D02*
D03*
Y726440D02*
D03*
X543560D02*
D03*
Y711200D02*
D03*
Y690880D02*
D03*
X731520Y670560D02*
D03*
X716280D02*
D03*
X695960D02*
D03*
X660400D02*
D03*
X640080D02*
D03*
X619760D02*
D03*
X599440D02*
D03*
X579120D02*
D03*
X558800D02*
D03*
X538480D02*
D03*
X518160D02*
D03*
X513080Y685800D02*
D03*
X868680Y680720D02*
D03*
X858520Y675640D02*
D03*
X848360Y670560D02*
D03*
X838200D02*
D03*
X828040D02*
D03*
X817880D02*
D03*
X807720D02*
D03*
X868680Y640080D02*
D03*
X883920Y650240D02*
D03*
X878840Y624840D02*
D03*
X863600Y609600D02*
D03*
X834481Y608649D02*
D03*
X811726Y609123D02*
D03*
X833120Y635000D02*
D03*
X822960Y640080D02*
D03*
X807720D02*
D03*
X782320D02*
D03*
Y624840D02*
D03*
Y609600D02*
D03*
X751840D02*
D03*
X767080D02*
D03*
Y624840D02*
D03*
Y640080D02*
D03*
X751840Y624840D02*
D03*
X736600Y609600D02*
D03*
X751840Y655320D02*
D03*
X741680Y640080D02*
D03*
X731520Y629920D02*
D03*
X716280Y614680D02*
D03*
X685800D02*
D03*
X669269Y614101D02*
D03*
X523240Y635000D02*
D03*
X543560D02*
D03*
X563880D02*
D03*
X584200D02*
D03*
X604520D02*
D03*
X629920Y640080D02*
D03*
X614680D02*
D03*
X594360D02*
D03*
X574040D02*
D03*
X553720D02*
D03*
X533400D02*
D03*
X513080D02*
D03*
X497840Y635000D02*
D03*
X391375Y628142D02*
D03*
X381000Y640080D02*
D03*
X350520Y635000D02*
D03*
X340360Y624840D02*
D03*
X330815Y636982D02*
D03*
X320040Y614680D02*
D03*
X299720D02*
D03*
X279400D02*
D03*
X259080Y640080D02*
D03*
X307171Y638578D02*
D03*
X292052Y637684D02*
D03*
X467360Y619760D02*
D03*
X457200Y614680D02*
D03*
X553720Y858520D02*
D03*
X533400D02*
D03*
X472440Y853440D02*
D03*
X497840Y787400D02*
D03*
X508000Y802640D02*
D03*
X497840D02*
D03*
X518160Y817880D02*
D03*
X497840D02*
D03*
X508000D02*
D03*
X767184Y851776D02*
D03*
X843280Y802640D02*
D03*
X848360Y772160D02*
D03*
Y751840D02*
D03*
X797560Y670560D02*
D03*
X340360Y833120D02*
D03*
X436395Y828525D02*
D03*
X548640Y843280D02*
D03*
X543308Y837948D02*
D03*
X553720Y807720D02*
D03*
X792480Y768270D02*
D03*
X553720Y800180D02*
D03*
X818268Y772548D02*
D03*
X325120Y833120D02*
D03*
X462280Y675640D02*
D03*
X492760Y670560D02*
D03*
X498092Y665228D02*
D03*
X502920Y671052D02*
D03*
X493560Y645160D02*
D03*
X508000Y711200D02*
D03*
X502668Y716532D02*
D03*
X441960Y685800D02*
D03*
X452120D02*
D03*
X833120Y833120D02*
D03*
X868680D02*
D03*
X741680Y863600D02*
D03*
X843280Y812800D02*
D03*
X883920Y802640D02*
D03*
X416560Y680720D02*
D03*
X401320D02*
D03*
X470031Y655077D02*
D03*
X401320Y645160D02*
D03*
X416560Y655320D02*
D03*
X330200Y787400D02*
D03*
Y899160D02*
D03*
X264160Y863600D02*
D03*
Y899160D02*
D03*
X299720Y655320D02*
D03*
X812800Y868680D02*
D03*
D79*
X751840Y670560D02*
D03*
X269240Y655320D02*
D03*
M02*
