G04*
G04 #@! TF.GenerationSoftware,Altium Limited,Altium Designer,21.4.1 (30)*
G04*
G04 Layer_Color=65535*
%FSLAX44Y44*%
%MOMM*%
G71*
G04*
G04 #@! TF.SameCoordinates,C0E257CA-E608-45CC-978B-2DEEB779FBD1*
G04*
G04*
G04 #@! TF.FilePolarity,Positive*
G04*
G01*
G75*
%ADD10C,0.2540*%
%ADD11C,0.1000*%
%ADD12C,0.2500*%
%ADD13C,0.2000*%
%ADD14C,0.1500*%
%ADD15C,0.1540*%
D10*
X605220Y636090D02*
G03*
X605220Y636090I-1640J0D01*
G01*
X558800Y670560D02*
X706120D01*
X558800Y894080D02*
X706120D01*
Y670560D02*
Y894080D01*
X558800Y670560D02*
Y894080D01*
X826492Y916526D02*
X829446Y919480D01*
X826492Y916526D02*
X834110D01*
X826492D02*
X829980Y913038D01*
X704164Y925240D02*
X727040D01*
X802749D02*
X812120D01*
X887555Y849805D01*
Y684355D02*
Y849805D01*
X858444Y655244D02*
X887555Y684355D01*
X783554Y655244D02*
X858444D01*
X767080Y655320D02*
X774196D01*
X751840Y670560D02*
X767080Y655320D01*
X274431Y655209D02*
X622413D01*
X739140Y657860D02*
X751840Y670560D01*
X304800Y873760D02*
Y876590D01*
Y863600D02*
Y873760D01*
Y863600D02*
X309880Y858520D01*
X365760D01*
X370840Y863600D01*
Y876590D01*
X385340Y878840D02*
X426720D01*
X448910Y901030D01*
Y901592D01*
X474980Y914400D02*
X538480D01*
X558800Y894080D01*
X623570Y607060D02*
Y662940D01*
Y607060D02*
X737870D01*
Y662940D01*
X623570D02*
X737870D01*
X834110Y916526D02*
X840760Y909876D01*
D11*
X287360Y655920D02*
G03*
X287360Y656920I0J500D01*
G01*
D02*
G03*
X287360Y655920I0J-500D01*
G01*
X429880Y621000D02*
G03*
X428880Y621000I-500J0D01*
G01*
D02*
G03*
X429880Y621000I500J0D01*
G01*
X750540Y868240D02*
G03*
X750540Y869240I0J500D01*
G01*
X750570Y869180D02*
G03*
X750570Y868180I0J-500D01*
G01*
X570042Y722964D02*
X580482D01*
X569026Y726051D02*
X579466D01*
X574040Y728980D02*
X584480D01*
X608860Y723440D02*
X619300D01*
X608860Y729440D02*
X619300D01*
X608860Y726440D02*
X619760D01*
X697987Y817880D02*
X706120Y809747D01*
X705172Y817880D02*
X706120Y816932D01*
X690880Y798643D02*
X706120Y813883D01*
X690880Y817880D02*
X706120D01*
X690880Y805827D02*
X702933Y817880D01*
X690880Y817803D02*
X706120Y802563D01*
X690880Y796251D02*
X706120Y781011D01*
X690880Y803435D02*
X706120Y788195D01*
X690880Y789066D02*
X706120Y773826D01*
X690880Y810619D02*
X706120Y795379D01*
X690880Y791459D02*
X706120Y806699D01*
X690880Y813011D02*
X695749Y817880D01*
X690880Y788030D02*
Y817880D01*
Y788030D02*
X691500Y787410D01*
X629300D02*
X640150D01*
X629300Y817260D02*
X629920Y817880D01*
X635063Y787410D02*
X640080Y782393D01*
X680650Y787410D02*
X691500D01*
X680650Y781229D02*
X686831Y787410D01*
X680650Y774770D02*
Y787410D01*
X640080Y774700D02*
Y787340D01*
Y774700D02*
X680720D01*
X690594Y769620D02*
X706120Y785146D01*
X685352Y787410D02*
X703142Y769620D01*
X706120D02*
Y817880D01*
X676225Y769620D02*
X706120Y799515D01*
X680650Y784928D02*
X695958Y769620D01*
X683410D02*
X706120Y792330D01*
X697778Y769620D02*
X706120Y777962D01*
X680650Y777744D02*
X688774Y769620D01*
X704962D02*
X706120Y770778D01*
X669325Y774700D02*
X674405Y769620D01*
X676509Y774700D02*
X681589Y769620D01*
X647488D02*
X652569Y774700D01*
X640589D02*
X645668Y769620D01*
X647773Y774700D02*
X652853Y769620D01*
X640304D02*
X645384Y774700D01*
X633120Y769620D02*
X640080Y776580D01*
X640304Y769620D02*
X645384Y774700D01*
X662141D02*
X667221Y769620D01*
X661857D02*
X666937Y774700D01*
X669041Y769620D02*
X674121Y774700D01*
X654673Y769620D02*
X659753Y774700D01*
X654957D02*
X660037Y769620D01*
X609600Y774837D02*
X629300Y794537D01*
Y787410D02*
Y817260D01*
X609600Y798504D02*
X638484Y769620D01*
X609600Y817880D02*
X629920D01*
X609600Y782021D02*
X629300Y801721D01*
X609600Y805688D02*
X640080Y775209D01*
X619760Y769620D02*
X706120D01*
X625936D02*
X640080Y783764D01*
X609600Y760468D02*
X636542Y787410D01*
X609600Y791320D02*
X631300Y769620D01*
X609600Y767653D02*
X629357Y787410D01*
X618961Y817880D02*
X629300Y807541D01*
X626145Y817880D02*
X629300Y814725D01*
X611777Y817880D02*
X629300Y800357D01*
X609600Y803574D02*
X623906Y817880D01*
X609600Y810758D02*
X616722Y817880D01*
X609600Y796389D02*
X629300Y816089D01*
X609600Y784136D02*
X624116Y769620D01*
X609600Y776952D02*
X619760Y766792D01*
X609600Y769767D02*
X619760Y759607D01*
X609600Y812873D02*
X629300Y793173D01*
X609600Y789205D02*
X629300Y808905D01*
X609600Y755399D02*
X619760Y745239D01*
X609600Y746100D02*
X619760Y756260D01*
Y731520D02*
Y769620D01*
X609600Y762583D02*
X619760Y752423D01*
X609600Y753284D02*
X619760Y763444D01*
X605975Y751840D02*
X619760Y738055D01*
X609600Y731520D02*
X619760D01*
X609600Y731731D02*
X619760Y741891D01*
X616573Y731520D02*
X619760Y734707D01*
X609600Y738916D02*
X619760Y749076D01*
X609600Y738916D02*
X619760Y749076D01*
X609600Y751840D02*
Y817880D01*
X599440Y751840D02*
X609600D01*
X603076Y746760D02*
X608156Y751840D01*
X599440Y750308D02*
X600972Y751840D01*
X599440Y746760D02*
Y751840D01*
X609600Y741031D02*
X619110Y731520D01*
X609600D02*
Y746760D01*
Y733846D02*
X611926Y731520D01*
X599440Y751190D02*
X603871Y746760D01*
X599440D02*
X609600D01*
X650999Y670560D02*
Y683260D01*
X653999Y670560D02*
Y683260D01*
X644999Y670560D02*
Y683260D01*
X647999Y670560D02*
Y683260D01*
X662999Y670560D02*
Y683260D01*
X665999Y670560D02*
Y683260D01*
X656999Y670560D02*
Y683260D01*
X659999Y670560D02*
Y683260D01*
X629999Y670560D02*
Y683260D01*
X632999Y670560D02*
Y683260D01*
X623999Y670560D02*
Y683260D01*
X626999Y670560D02*
Y683260D01*
X638999Y670560D02*
Y683260D01*
X641999Y670560D02*
Y683260D01*
X635999Y670560D02*
Y683260D01*
X695999Y670560D02*
Y683260D01*
X698999Y670560D02*
Y683260D01*
X689999Y670560D02*
Y683260D01*
X692999Y670560D02*
Y683260D01*
X704999Y670560D02*
Y683260D01*
X706120Y670560D02*
Y683260D01*
X701999Y670560D02*
Y683260D01*
X674999Y670560D02*
Y683260D01*
X677999Y670560D02*
Y683260D01*
X668999Y670560D02*
Y683260D01*
X671999Y670560D02*
Y683260D01*
X683999Y670560D02*
Y683260D01*
X686999Y670560D02*
Y683260D01*
X680999Y670560D02*
Y683260D01*
X609600Y721360D02*
X619760D01*
Y683260D02*
Y721360D01*
X579120Y706120D02*
X609600D01*
Y721360D01*
X591820Y683260D02*
Y698500D01*
X619760Y683260D02*
X706120D01*
X579120D02*
X591820D01*
X579120Y670560D02*
X706120D01*
X584999Y698500D02*
Y706120D01*
X587999Y698500D02*
Y706120D01*
X579120Y698500D02*
Y706120D01*
X581999Y698500D02*
Y706120D01*
X590999Y698500D02*
Y706120D01*
X579120Y670560D02*
Y683260D01*
Y698500D02*
X591820D01*
X614999Y670560D02*
Y721360D01*
X617999Y670560D02*
Y721360D01*
X602999Y670560D02*
Y706120D01*
X611999Y670560D02*
Y721360D01*
X608999Y670560D02*
Y706120D01*
X620999Y670560D02*
Y683260D01*
X605999Y670560D02*
Y706120D01*
X596999Y670560D02*
Y706120D01*
X599999Y670560D02*
Y706120D01*
X581999Y670560D02*
Y683260D01*
X593999Y670560D02*
Y706120D01*
X587999Y670560D02*
Y683260D01*
X590999Y670560D02*
Y683260D01*
X584999Y670560D02*
Y683260D01*
X571500Y728980D02*
X576580D01*
Y695960D02*
Y728980D01*
X558800Y698999D02*
X576580D01*
X566420Y695960D02*
X576580D01*
X558800Y695999D02*
X576580D01*
X571500Y728980D02*
Y759460D01*
X558800Y692999D02*
X566420D01*
X558800Y759460D02*
X571500D01*
X558800Y686999D02*
X566420D01*
X558800Y689999D02*
X566420D01*
X558800Y674999D02*
X576580D01*
Y670560D02*
Y685800D01*
X558800Y677999D02*
X576580D01*
X558800Y670560D02*
X576580D01*
X558800Y671999D02*
X576580D01*
X566420Y685800D02*
Y695960D01*
Y685800D02*
X576580D01*
X558800Y670560D02*
Y759460D01*
Y680999D02*
X576580D01*
X558800Y683999D02*
X576580D01*
X558800Y740999D02*
X571500D01*
X558800Y737999D02*
X571500D01*
X558800Y743998D02*
X571500D01*
X558800Y731999D02*
X571500D01*
X558800Y734998D02*
X571500D01*
X558800Y755999D02*
X571500D01*
X558800Y752999D02*
X571500D01*
X558800Y758998D02*
X571500D01*
X558800Y746999D02*
X571500D01*
X558800Y749998D02*
X571500D01*
X558800Y710999D02*
X576580D01*
X558800Y707999D02*
X576580D01*
X558800Y713999D02*
X576580D01*
X558800Y701999D02*
X576580D01*
X558800Y704999D02*
X576580D01*
X558800Y725999D02*
X576580D01*
X558800Y722999D02*
X576580D01*
X558800Y728998D02*
X571500D01*
X558800Y716999D02*
X576580D01*
X558800Y719999D02*
X576580D01*
X601980Y824998D02*
X607060D01*
X601980Y821998D02*
X607060D01*
X601980Y827998D02*
X607060D01*
X589280Y788998D02*
X607060D01*
X589280Y779998D02*
X607060D01*
X589280Y776998D02*
X607060D01*
X589280Y785998D02*
X607060D01*
X589280Y782998D02*
X607060D01*
Y863600D02*
Y878840D01*
X596900Y850900D02*
X607060D01*
X596900Y863600D02*
X607060D01*
X596900Y850900D02*
Y863600D01*
X601980Y833998D02*
X607060D01*
X601980Y830998D02*
X607060D01*
X601980Y820420D02*
Y835660D01*
X589280Y761999D02*
X607060D01*
Y754380D02*
Y850900D01*
X589280Y767999D02*
X607060D01*
X589280Y764998D02*
X607060D01*
X589280Y755999D02*
X607060D01*
X596900Y754380D02*
X607060D01*
X589280Y758998D02*
X607060D01*
X589280Y770999D02*
X607060D01*
X596900Y746760D02*
Y754380D01*
X589280Y773998D02*
X607060D01*
X589280Y746760D02*
Y820420D01*
Y749998D02*
X596900D01*
X589280Y746999D02*
X596900D01*
X589280Y752999D02*
X596900D01*
X589280Y863998D02*
X607060D01*
X589280Y848998D02*
X607060D01*
X589280Y869998D02*
X607060D01*
X589280Y866998D02*
X607060D01*
X589280Y839998D02*
X607060D01*
X589280Y836998D02*
X607060D01*
X589280Y845998D02*
X607060D01*
X589280Y842998D02*
X607060D01*
X589280Y872998D02*
X607060D01*
X589280Y860998D02*
X596900D01*
X589280Y878840D02*
X607060D01*
X589280Y875998D02*
X607060D01*
X589280Y854998D02*
X596900D01*
X589280Y851998D02*
X596900D01*
X589280Y857998D02*
X596900D01*
X589280Y803998D02*
X607060D01*
X589280Y800998D02*
X607060D01*
X589280Y809998D02*
X607060D01*
X589280Y806998D02*
X607060D01*
X589280Y794998D02*
X607060D01*
X589280Y791998D02*
X607060D01*
X589280Y797998D02*
X607060D01*
X589280Y820420D02*
X601980D01*
X589280Y818998D02*
X607060D01*
X589280Y835660D02*
Y878840D01*
Y835660D02*
X601980D01*
X589280Y812998D02*
X607060D01*
X589280Y746760D02*
X596900D01*
X589280Y815998D02*
X607060D01*
X580365Y810260D02*
X586740Y816635D01*
X580500Y820420D02*
X586740Y814180D01*
Y810260D02*
Y820420D01*
X576580D02*
X586740D01*
X576580Y810260D02*
X586740D01*
X584347Y795020D02*
X586740Y792627D01*
X577163Y795020D02*
X586740Y785443D01*
X576580Y795020D02*
X586740D01*
X574040Y775198D02*
X586740Y787898D01*
X584213Y835660D02*
X586740Y838187D01*
Y835660D02*
Y878588D01*
X579554Y878840D02*
X586740Y871654D01*
X577029Y835660D02*
X586740Y845371D01*
X576580Y835660D02*
X586740D01*
X576580Y795020D02*
Y810260D01*
Y820420D02*
Y835660D01*
X574040Y782382D02*
X586678Y795020D01*
X574040Y769406D02*
X586740Y756706D01*
Y746760D02*
Y795020D01*
X574040Y776591D02*
X586740Y763891D01*
X574040Y760829D02*
X586740Y773529D01*
X579120Y746760D02*
X586740D01*
X581523D02*
X586740Y751977D01*
X574040Y753645D02*
X586740Y766345D01*
X574040Y746461D02*
X586740Y759161D01*
X574040Y755038D02*
X582318Y746760D01*
X574040Y747854D02*
X579120Y742774D01*
X574040Y783775D02*
X586740Y771075D01*
X574040Y768014D02*
X586740Y780714D01*
X574040Y731520D02*
X579120D01*
Y746760D01*
X574040Y739277D02*
X579120Y744357D01*
X574040Y740669D02*
X579120Y735590D01*
X574040Y854224D02*
X586740Y866924D01*
X574040Y862801D02*
X586740Y850101D01*
X574040Y861408D02*
X586740Y874108D01*
X574040Y869985D02*
X586740Y857285D01*
X574040Y839856D02*
X586740Y852556D01*
X574040Y848433D02*
X586740Y835733D01*
X574040Y847040D02*
X586740Y859740D01*
X574040Y855617D02*
X586740Y842917D01*
X574040Y878840D02*
X586455D01*
X574040Y877169D02*
X586740Y864470D01*
X574040Y875777D02*
X577103Y878840D01*
X574040Y868593D02*
X584287Y878840D01*
X574040Y834064D02*
X576580Y831524D01*
X574040Y825487D02*
X576580Y828027D01*
X574040Y841248D02*
X579628Y835660D01*
X574040Y832672D02*
X576580Y835211D01*
X574040Y798143D02*
X576580Y795603D01*
X574040Y789566D02*
X579494Y795020D01*
X574040Y811119D02*
X583341Y820420D01*
X574040Y819696D02*
X583476Y810260D01*
X574040Y732093D02*
X579120Y737172D01*
X574040Y732093D02*
X579120Y737172D01*
X574040Y790959D02*
X586740Y778259D01*
X574040Y762222D02*
X586740Y749522D01*
X574040Y818303D02*
X576580Y820843D01*
X574040Y812512D02*
X576580Y809972D01*
X574040Y826880D02*
X576580Y824340D01*
X574040Y731520D02*
Y878840D01*
Y796750D02*
X576580Y799290D01*
X574040Y733485D02*
X576005Y731520D01*
X574040Y803935D02*
X576580Y806475D01*
X574040Y805327D02*
X576580Y802787D01*
X487080Y787640D02*
Y817640D01*
X539080Y787640D02*
Y817640D01*
X508080Y776640D02*
X518080D01*
X508080Y828640D02*
X518080D01*
X508080Y737200D02*
X518080D01*
X508080Y685200D02*
X518080D01*
X539080Y696200D02*
Y726200D01*
X487080Y696200D02*
Y726200D01*
D12*
X661400Y880210D02*
G03*
X661400Y880210I-1250J0D01*
G01*
X837470Y785220D02*
G03*
X837470Y785220I-1250J0D01*
G01*
D13*
X767080Y852350D02*
G03*
X767080Y850350I0J-1000D01*
G01*
D02*
G03*
X767080Y852350I0J1000D01*
G01*
X485080Y770640D02*
G03*
X487080Y770640I1000J0D01*
G01*
D02*
G03*
X485080Y770640I-1000J0D01*
G01*
X721520Y858520D02*
G03*
X723520Y858520I1000J0D01*
G01*
D02*
G03*
X721520Y858520I-1000J0D01*
G01*
X782320Y850350D02*
G03*
X782320Y852350I0J1000D01*
G01*
D02*
G03*
X782320Y850350I0J-1000D01*
G01*
X487080Y679200D02*
G03*
X485080Y679200I-1000J0D01*
G01*
D02*
G03*
X487080Y679200I1000J0D01*
G01*
X467860Y666920D02*
Y679270D01*
X460860Y666920D02*
X467860D01*
X460860Y846920D02*
X467860D01*
Y833270D02*
Y846920D01*
X691500Y787410D02*
Y858510D01*
X629300Y787410D02*
X640150D01*
X680650D02*
X691500D01*
X629300D02*
Y858510D01*
X640150D01*
X680650D02*
X691500D01*
X845820Y710777D02*
Y759460D01*
Y683260D02*
Y759460D01*
X795020Y683260D02*
Y759460D01*
Y683260D02*
X845820D01*
X795020Y759460D02*
X845820D01*
X744090Y815200D02*
Y851700D01*
X759590Y824700D02*
Y851700D01*
X784340Y707530D02*
Y725030D01*
X719340Y707530D02*
X784340D01*
X719340D02*
Y725030D01*
X784340D01*
X783090Y728530D02*
Y756030D01*
X608860Y723440D02*
Y729440D01*
X579860Y723440D02*
X608860D01*
X579860D02*
Y729440D01*
X608860D01*
X610360Y732940D02*
Y744940D01*
X727040Y879240D02*
X730540D01*
X727040D02*
Y894240D01*
Y921240D02*
Y929240D01*
X802040D01*
Y921240D02*
Y929240D01*
Y879240D02*
Y894240D01*
X798540Y879240D02*
X802040D01*
X332740Y927100D02*
X383540D01*
X332740Y901700D02*
Y927100D01*
Y901700D02*
X383540D01*
Y927100D01*
X784860Y607060D02*
Y632460D01*
X861060D01*
Y607060D02*
Y632460D01*
X784860Y607060D02*
X861060D01*
X356340Y876590D02*
Y881090D01*
X385340D01*
Y876590D02*
Y881090D01*
X356340Y876590D02*
X385340D01*
X355840Y862590D02*
Y873090D01*
X453700Y633000D02*
Y637000D01*
X460700Y633000D02*
Y637000D01*
X619900Y715190D02*
Y737690D01*
X700900Y715190D02*
Y737690D01*
X703580Y901700D02*
Y927100D01*
X601980Y901700D02*
X703580D01*
X601980Y927100D02*
X703580D01*
X601980Y901700D02*
Y927100D01*
X265740Y638080D02*
Y642080D01*
X272740Y638080D02*
Y642080D01*
X363760Y613100D02*
X367760D01*
X363760Y606100D02*
X367760D01*
X369260Y627920D02*
Y631920D01*
X362260Y627920D02*
Y631920D01*
X851440Y836620D02*
X855440D01*
X851440Y829620D02*
X855440D01*
X824540Y851440D02*
Y855440D01*
X831540Y851440D02*
Y855440D01*
X809300Y851440D02*
Y855440D01*
X816300Y851440D02*
Y855440D01*
X794060Y851440D02*
Y855440D01*
X801060Y851440D02*
Y855440D01*
X475520Y648660D02*
X479520D01*
X475520Y641660D02*
X479520D01*
X572040Y806140D02*
X576040D01*
X572040Y799140D02*
X576040D01*
X587280Y831540D02*
X591280D01*
X587280Y824540D02*
X591280D01*
X282900Y881920D02*
Y885920D01*
X275900Y881920D02*
Y885920D01*
X267660Y881920D02*
Y885920D01*
X260660Y881920D02*
Y885920D01*
X348940Y881920D02*
Y885920D01*
X341940Y881920D02*
Y885920D01*
X333700Y881920D02*
Y885920D01*
X326700Y881920D02*
Y885920D01*
X420060Y633000D02*
Y637000D01*
X413060Y633000D02*
Y637000D01*
X850900Y784860D02*
X876300D01*
Y683260D02*
Y784860D01*
X850900Y683260D02*
Y784860D01*
Y683260D02*
X876300D01*
X520700Y607060D02*
Y632460D01*
X469900Y607060D02*
X520700D01*
X469900D02*
Y632460D01*
X520700D01*
X530860Y607060D02*
Y632460D01*
X581660D01*
Y607060D02*
Y632460D01*
X530860Y607060D02*
X581660D01*
X317500Y901700D02*
Y927100D01*
X266700Y901700D02*
X317500D01*
X266700D02*
Y927100D01*
X317500D01*
X325360Y618750D02*
Y629250D01*
X325860Y632750D02*
X354860D01*
Y637250D01*
X325860D02*
X354860D01*
X325860Y632750D02*
Y637250D01*
X474980Y901700D02*
Y927100D01*
X398780Y901700D02*
X474980D01*
X398780D02*
Y927100D01*
X474980D01*
X376160Y618750D02*
Y629250D01*
X376660Y632750D02*
X405660D01*
Y637250D01*
X376660D02*
X405660D01*
X376660Y632750D02*
Y637250D01*
X289800Y862590D02*
Y873090D01*
X290300Y876590D02*
X319300D01*
Y881090D01*
X290300D02*
X319300D01*
X290300Y876590D02*
Y881090D01*
D14*
X670560Y873760D02*
Y894080D01*
X665480Y873760D02*
Y894080D01*
X680720Y873760D02*
Y894080D01*
X675640Y873760D02*
Y894080D01*
X640080Y873760D02*
X680720D01*
X655320D02*
Y894080D01*
X660400Y873760D02*
Y894080D01*
X680650Y858520D02*
X706120D01*
X680720Y873760D02*
X706120D01*
X680650Y858510D02*
X691500D01*
X680720D02*
Y873760D01*
X680650Y868680D02*
X706120D01*
X640080Y873760D02*
X680720D01*
X680650Y863600D02*
X706120D01*
X645160Y873760D02*
Y894080D01*
X640080Y873760D02*
Y894080D01*
X635000Y858510D02*
Y894080D01*
X629920Y858510D02*
Y894080D01*
X614680Y866140D02*
Y894080D01*
X609600Y881380D02*
Y894080D01*
X619760Y866140D02*
Y894080D01*
X650240Y873760D02*
Y894080D01*
X640080Y858580D02*
Y873760D01*
X629300Y858510D02*
X640150D01*
X622300Y858520D02*
X640140D01*
X609600Y866140D02*
X622300D01*
X609600D02*
Y881380D01*
X622300Y863600D02*
X640080D01*
X691500Y853440D02*
X706120D01*
X695960Y820420D02*
Y894080D01*
X706120Y820420D02*
Y894080D01*
X701040Y820420D02*
Y894080D01*
X690880Y858510D02*
Y894080D01*
X685800Y858510D02*
Y894080D01*
X691500Y820420D02*
Y858510D01*
Y828040D02*
X706120D01*
X691500Y833120D02*
X706120D01*
X691500Y820420D02*
X706120D01*
X691500Y822960D02*
X706120D01*
X691500Y843280D02*
X706120D01*
X691500Y848360D02*
X706120D01*
X691500Y838200D02*
X706120D01*
X680650Y858510D02*
Y873690D01*
X622300Y853440D02*
X629300D01*
Y820420D02*
Y858510D01*
X624840Y820420D02*
Y894080D01*
X622300Y850900D02*
Y866140D01*
X609600Y820420D02*
Y850900D01*
X614680Y820420D02*
Y850900D01*
X609600Y820420D02*
X629300D01*
X609600Y822960D02*
X629300D01*
X619760Y820420D02*
Y850900D01*
X609600Y838200D02*
X629300D01*
X609600Y848360D02*
X629300D01*
X609600Y828040D02*
X629300D01*
X571500Y881380D02*
X609600D01*
X594360D02*
Y894080D01*
X604520Y881380D02*
Y894080D01*
X599440Y881380D02*
Y894080D01*
X558800Y889000D02*
X706120D01*
X558800Y894080D02*
X706120D01*
X558800Y883920D02*
X706120D01*
X609600Y868680D02*
X640080D01*
X609600Y850900D02*
X622300D01*
X609600Y833120D02*
X629300D01*
X609600Y843280D02*
X629300D01*
X609600Y878840D02*
X706120D01*
X609600Y873760D02*
X640080D01*
X609600Y866140D02*
Y881380D01*
X579120D02*
Y894080D01*
X574040Y881380D02*
Y894080D01*
X589280Y881380D02*
Y894080D01*
X584200Y881380D02*
Y894080D01*
X558800Y873760D02*
X571500D01*
X558800Y878840D02*
X571500D01*
X558800Y868680D02*
X571500D01*
X558800Y843280D02*
X571500D01*
X558800Y848360D02*
X571500D01*
X558800Y833120D02*
X571500D01*
X558800Y838200D02*
X571500D01*
X558800Y858520D02*
X571500D01*
X558800Y863600D02*
X571500D01*
X558800Y853440D02*
X571500D01*
X609600Y820420D02*
Y850900D01*
X571500Y807720D02*
Y881380D01*
Y762000D02*
Y797560D01*
X558800D02*
X571500D01*
X558800Y807720D02*
X571500D01*
X558800Y812800D02*
X571500D01*
X558800Y797560D02*
X571500D01*
X558800Y772160D02*
X571500D01*
X558800Y777240D02*
X571500D01*
X558800Y762000D02*
X571500D01*
X558800Y767080D02*
X571500D01*
X558800Y787400D02*
X571500D01*
X558800Y792480D02*
X571500D01*
X558800Y782320D02*
X571500D01*
X558800Y817880D02*
X571500D01*
X558800Y822960D02*
X571500D01*
X568960Y807720D02*
Y894080D01*
X563880Y807720D02*
Y894080D01*
X558800Y828040D02*
X571500D01*
X558800Y807720D02*
Y894080D01*
Y807720D02*
Y894080D01*
X563880Y762000D02*
Y797560D01*
X558800Y762000D02*
Y797560D01*
X568960Y762000D02*
Y797560D01*
X558800D02*
Y807720D01*
Y797560D02*
Y807720D01*
Y762000D02*
Y797560D01*
D15*
X786612Y685240D02*
X790777D01*
X791610Y686074D01*
Y687740D01*
X790777Y688573D01*
X786612D01*
X787445Y693571D02*
X786612Y692738D01*
Y691072D01*
X787445Y690239D01*
X788278D01*
X789111Y691072D01*
Y692738D01*
X789944Y693571D01*
X790777D01*
X791610Y692738D01*
Y691072D01*
X790777Y690239D01*
X786612Y695237D02*
X791610D01*
Y697736D01*
X790777Y698569D01*
X789944D01*
X789111Y697736D01*
Y695237D01*
Y697736D01*
X788278Y698569D01*
X787445D01*
X786612Y697736D01*
Y695237D01*
X791610Y705234D02*
X788278D01*
Y706067D01*
X789111Y706900D01*
X791610D01*
X789111D01*
X788278Y707733D01*
X789111Y708566D01*
X791610D01*
Y711065D02*
Y712731D01*
X790777Y713565D01*
X789111D01*
X788278Y712731D01*
Y711065D01*
X789111Y710232D01*
X790777D01*
X791610Y711065D01*
X786612Y718563D02*
X791610D01*
Y716064D01*
X790777Y715231D01*
X789111D01*
X788278Y716064D01*
Y718563D01*
X791610Y722728D02*
Y721062D01*
X790777Y720229D01*
X789111D01*
X788278Y721062D01*
Y722728D01*
X789111Y723561D01*
X789944D01*
Y720229D01*
X490540Y643204D02*
X493872D01*
X492206D01*
Y638206D01*
X495538Y641538D02*
Y638206D01*
Y639872D01*
X496371Y640705D01*
X497205Y641538D01*
X498038D01*
X500537Y638206D02*
X502203D01*
X501370D01*
Y641538D01*
X500537D01*
X506368Y636540D02*
X507201D01*
X508034Y637373D01*
Y641538D01*
X505535D01*
X504702Y640705D01*
Y639039D01*
X505535Y638206D01*
X508034D01*
X511367Y636540D02*
X512200D01*
X513033Y637373D01*
Y641538D01*
X510533D01*
X509700Y640705D01*
Y639039D01*
X510533Y638206D01*
X513033D01*
X517198D02*
X515532D01*
X514699Y639039D01*
Y640705D01*
X515532Y641538D01*
X517198D01*
X518031Y640705D01*
Y639872D01*
X514699D01*
X519697Y641538D02*
Y638206D01*
Y639872D01*
X520530Y640705D01*
X521363Y641538D01*
X522196D01*
X531762Y642462D02*
Y637463D01*
X534261D01*
X535094Y638297D01*
Y639130D01*
X534261Y639963D01*
X531762D01*
X534261D01*
X535094Y640796D01*
Y641629D01*
X534261Y642462D01*
X531762D01*
X536760Y637463D02*
Y642462D01*
X538426Y640796D01*
X540092Y642462D01*
Y637463D01*
X545090Y641629D02*
X544258Y642462D01*
X542591D01*
X541758Y641629D01*
Y640796D01*
X542591Y639963D01*
X544258D01*
X545090Y639130D01*
Y638297D01*
X544258Y637463D01*
X542591D01*
X541758Y638297D01*
X741462Y631029D02*
Y629362D01*
X742295Y628529D01*
X745627D01*
X746460Y629362D01*
Y631029D01*
X745627Y631862D01*
X742295D01*
X741462Y631029D01*
Y636860D02*
Y633528D01*
X743961D01*
Y635194D01*
Y633528D01*
X746460D01*
X741462Y641858D02*
Y638526D01*
X743961D01*
Y640192D01*
Y638526D01*
X746460D01*
X615321Y632985D02*
Y631318D01*
X616154Y630485D01*
X619486D01*
X620319Y631318D01*
Y632985D01*
X619486Y633818D01*
X616154D01*
X615321Y632985D01*
X620319Y635484D02*
X615321D01*
X620319Y638816D01*
X615321D01*
X775782Y606060D02*
Y607726D01*
Y606893D01*
X780780D01*
Y606060D01*
Y607726D01*
Y610225D02*
X775782D01*
Y612724D01*
X776615Y613558D01*
X778281D01*
X779114Y612724D01*
Y610225D01*
Y611891D02*
X780780Y613558D01*
Y620222D02*
X775782D01*
Y622721D01*
X776615Y623554D01*
X778281D01*
X779114Y622721D01*
Y620222D01*
Y621888D02*
X780780Y623554D01*
Y627720D02*
Y626054D01*
X779947Y625220D01*
X778281D01*
X777448Y626054D01*
Y627720D01*
X778281Y628553D01*
X779114D01*
Y625220D01*
X777448Y633551D02*
Y631052D01*
X778281Y630219D01*
X779947D01*
X780780Y631052D01*
Y633551D01*
Y637716D02*
Y636050D01*
X779947Y635217D01*
X778281D01*
X777448Y636050D01*
Y637716D01*
X778281Y638549D01*
X779114D01*
Y635217D01*
X780780Y640216D02*
Y641882D01*
Y641049D01*
X777448D01*
Y640216D01*
Y644381D02*
X780780Y646047D01*
X777448Y647713D01*
X780780Y651878D02*
Y650212D01*
X779947Y649379D01*
X778281D01*
X777448Y650212D01*
Y651878D01*
X778281Y652711D01*
X779114D01*
Y649379D01*
X777448Y654378D02*
X780780D01*
X779114D01*
X778281Y655211D01*
X777448Y656044D01*
Y656877D01*
X811872Y679705D02*
X811039Y680538D01*
X809373D01*
X808540Y679705D01*
Y678872D01*
X809373Y678039D01*
X811039D01*
X811872Y677206D01*
Y676373D01*
X811039Y675540D01*
X809373D01*
X808540Y676373D01*
X816038Y675540D02*
X814371D01*
X813538Y676373D01*
Y678039D01*
X814371Y678872D01*
X816038D01*
X816871Y678039D01*
Y677206D01*
X813538D01*
X818537Y678872D02*
Y675540D01*
Y677206D01*
X819370Y678039D01*
X820203Y678872D01*
X821036D01*
X823535Y675540D02*
X825201D01*
X824368D01*
Y678872D01*
X823535D01*
X828533D02*
X830200D01*
X831033Y678039D01*
Y675540D01*
X828533D01*
X827700Y676373D01*
X828533Y677206D01*
X831033D01*
X832699Y675540D02*
X834365D01*
X833532D01*
Y680538D01*
X832699D01*
X815961Y767252D02*
X814295D01*
X813462Y766419D01*
Y763087D01*
X814295Y762254D01*
X815961D01*
X816794Y763087D01*
Y766419D01*
X815961Y767252D01*
X818460D02*
X821792D01*
X820126D01*
Y762254D01*
X826791Y766419D02*
X825958Y767252D01*
X824292D01*
X823458Y766419D01*
Y763087D01*
X824292Y762254D01*
X825958D01*
X826791Y763087D01*
Y764753D01*
X825125D01*
X883873Y781379D02*
X884706Y782212D01*
Y783878D01*
X883873Y784711D01*
X880541D01*
X879708Y783878D01*
Y782212D01*
X880541Y781379D01*
X882207D01*
Y783045D01*
X879708Y779713D02*
X884706D01*
X879708Y776381D01*
X884706D01*
Y774715D02*
X879708D01*
Y772215D01*
X880541Y771382D01*
X883873D01*
X884706Y772215D01*
Y774715D01*
X879708Y749723D02*
X884706D01*
Y747224D01*
X883873Y746391D01*
X882207D01*
X881374Y747224D01*
Y749723D01*
Y748057D02*
X879708Y746391D01*
X884706Y744725D02*
X879708Y741392D01*
X884706D02*
X879708Y744725D01*
X884706Y724731D02*
Y721399D01*
Y723065D01*
X879708D01*
X884706Y719733D02*
X879708Y716400D01*
X884706D02*
X879708Y719733D01*
X883873Y699739D02*
X884706Y698906D01*
Y697240D01*
X883873Y696407D01*
X883040D01*
X882207Y697240D01*
Y698073D01*
Y697240D01*
X881374Y696407D01*
X880541D01*
X879708Y697240D01*
Y698906D01*
X880541Y699739D01*
X884706Y694741D02*
X881374D01*
X879708Y693075D01*
X881374Y691409D01*
X884706D01*
X883873Y689743D02*
X884706Y688909D01*
Y687243D01*
X883873Y686410D01*
X883040D01*
X882207Y687243D01*
Y688076D01*
Y687243D01*
X881374Y686410D01*
X880541D01*
X879708Y687243D01*
Y688909D01*
X880541Y689743D01*
X852453Y680363D02*
Y676197D01*
X853286Y675364D01*
X854952D01*
X855785Y676197D01*
Y680363D01*
X857451Y675364D02*
Y678697D01*
X859117Y680363D01*
X860784Y678697D01*
Y675364D01*
Y677863D01*
X857451D01*
X862450Y675364D02*
Y680363D01*
X864949D01*
X865782Y679529D01*
Y677863D01*
X864949Y677030D01*
X862450D01*
X864116D02*
X865782Y675364D01*
X867448Y680363D02*
X870780D01*
X869114D01*
Y675364D01*
X845090Y908952D02*
X842145Y906007D01*
Y904829D01*
X843323Y903651D01*
X844501D01*
X847447Y906596D01*
X850392Y902473D02*
Y903651D01*
X849214Y904829D01*
X848036Y904829D01*
X847447Y904240D01*
Y903062D01*
X848625Y901884D01*
Y900706D01*
X848036Y900117D01*
X846858D01*
X845679Y901295D01*
Y902473D01*
X852159Y901884D02*
X848625Y898349D01*
X850392Y896582D01*
X851570D01*
X852159Y897171D01*
Y898349D01*
X850392Y900117D01*
X852159Y898349D01*
X853337D01*
X853926Y898938D01*
Y900117D01*
X852159Y901884D01*
X854515Y890102D02*
X858050Y893637D01*
X859817Y891870D01*
Y890692D01*
X858639Y889513D01*
X857461D01*
X855694Y891281D01*
X861584Y890102D02*
X859228Y887746D01*
X860406Y888924D01*
X861584D01*
X862762Y888924D01*
X863351Y888335D01*
Y883623D02*
X864529Y882445D01*
X865708D01*
X866886Y883623D01*
Y884801D01*
X865708Y885979D01*
X864529D01*
X863351Y884801D01*
Y883623D01*
X866297Y878321D02*
X866886Y877732D01*
X868064Y877732D01*
X871009Y880677D01*
X869242Y882445D01*
X868064D01*
X866886Y881267D01*
Y880088D01*
X868653Y878321D01*
X546460Y700540D02*
X541462D01*
Y703039D01*
X542295Y703872D01*
X543961D01*
X544794Y703039D01*
Y700540D01*
Y702206D02*
X546460Y703872D01*
Y708037D02*
Y706371D01*
X545627Y705538D01*
X543961D01*
X543128Y706371D01*
Y708037D01*
X543961Y708871D01*
X544794D01*
Y705538D01*
X546460Y710537D02*
Y713036D01*
X545627Y713869D01*
X544794Y713036D01*
Y711370D01*
X543961Y710537D01*
X543128Y711370D01*
Y713869D01*
X546460Y718034D02*
Y716368D01*
X545627Y715535D01*
X543961D01*
X543128Y716368D01*
Y718034D01*
X543961Y718867D01*
X544794D01*
Y715535D01*
X542295Y721367D02*
X543128D01*
Y720533D01*
Y722199D01*
Y721367D01*
X545627D01*
X546460Y722199D01*
X541462Y795767D02*
X546460D01*
Y798267D01*
X545627Y799100D01*
X544794D01*
X543961Y798267D01*
Y795767D01*
Y798267D01*
X543128Y799100D01*
X542295D01*
X541462Y798267D01*
Y795767D01*
X546460Y801599D02*
Y803265D01*
X545627Y804098D01*
X543961D01*
X543128Y803265D01*
Y801599D01*
X543961Y800766D01*
X545627D01*
X546460Y801599D01*
Y806597D02*
Y808263D01*
X545627Y809096D01*
X543961D01*
X543128Y808263D01*
Y806597D01*
X543961Y805764D01*
X545627D01*
X546460Y806597D01*
X542295Y811596D02*
X543128D01*
Y810762D01*
Y812429D01*
Y811596D01*
X545627D01*
X546460Y812429D01*
X593462Y904039D02*
Y902373D01*
X594295Y901540D01*
X597627D01*
X598460Y902373D01*
Y904039D01*
X597627Y904872D01*
X594295D01*
X593462Y904039D01*
Y906538D02*
X598460D01*
Y909871D01*
X593462Y914869D02*
Y911537D01*
X598460D01*
Y914869D01*
X595961Y911537D02*
Y913203D01*
X593462Y916535D02*
X598460D01*
Y919034D01*
X597627Y919867D01*
X594295D01*
X593462Y919034D01*
Y916535D01*
X398920Y898538D02*
Y893540D01*
X400586Y895206D01*
X402252Y893540D01*
Y898538D01*
X407251Y897705D02*
X406418Y898538D01*
X404751D01*
X403918Y897705D01*
Y896872D01*
X404751Y896039D01*
X406418D01*
X407251Y895206D01*
Y894373D01*
X406418Y893540D01*
X404751D01*
X403918Y894373D01*
X412249Y893540D02*
X408917D01*
X412249Y896872D01*
Y897705D01*
X411416Y898538D01*
X409750D01*
X408917Y897705D01*
X413915D02*
X414748Y898538D01*
X416414D01*
X417247Y897705D01*
Y896872D01*
X416414Y896039D01*
X417247Y895206D01*
Y894373D01*
X416414Y893540D01*
X414748D01*
X413915Y894373D01*
Y895206D01*
X414748Y896039D01*
X413915Y896872D01*
Y897705D01*
X414748Y896039D02*
X416414D01*
X418913Y893540D02*
X420580D01*
X419747D01*
Y898538D01*
X418913Y897705D01*
X426411Y893540D02*
X423079D01*
X426411Y896872D01*
Y897705D01*
X425578Y898538D01*
X423912D01*
X423079Y897705D01*
X428077Y898538D02*
Y893540D01*
X430576D01*
X431409Y894373D01*
Y895206D01*
X430576Y896039D01*
X428077D01*
X430576D01*
X431409Y896872D01*
Y897705D01*
X430576Y898538D01*
X428077D01*
X391538Y926960D02*
X386540D01*
Y923628D01*
X389872Y921129D02*
Y919462D01*
X389039Y918629D01*
X386540D01*
Y921129D01*
X387373Y921962D01*
X388206Y921129D01*
Y918629D01*
X386540Y916963D02*
Y914464D01*
X387373Y913631D01*
X388206Y914464D01*
Y916130D01*
X389039Y916963D01*
X389872Y916130D01*
Y913631D01*
X386540Y909466D02*
Y911132D01*
X387373Y911965D01*
X389039D01*
X389872Y911132D01*
Y909466D01*
X389039Y908633D01*
X388206D01*
Y911965D01*
X389872Y906966D02*
X386540D01*
X388206D01*
X389039Y906133D01*
X389872Y905300D01*
Y904467D01*
X325338Y926960D02*
Y925294D01*
Y926127D01*
X320340D01*
Y926960D01*
Y925294D01*
Y922795D02*
X325338D01*
Y920295D01*
X324505Y919462D01*
X322839D01*
X322006Y920295D01*
Y922795D01*
Y921128D02*
X320340Y919462D01*
X325338Y912798D02*
X320340D01*
Y909466D01*
X325338Y904467D02*
Y907800D01*
X320340D01*
Y904467D01*
X322839Y907800D02*
Y906133D01*
X325338Y902801D02*
X320340D01*
Y900302D01*
X321173Y899469D01*
X324505D01*
X325338Y900302D01*
Y902801D01*
M02*
