G04*
G04 #@! TF.GenerationSoftware,Altium Limited,Altium Designer,21.4.1 (30)*
G04*
G04 Layer_Color=8421504*
%FSLAX44Y44*%
%MOMM*%
G71*
G04*
G04 #@! TF.SameCoordinates,C0E257CA-E608-45CC-978B-2DEEB779FBD1*
G04*
G04*
G04 #@! TF.FilePolarity,Positive*
G04*
G01*
G75*
%ADD16R,0.9000X0.9000*%
%ADD17R,0.9000X1.5000*%
%ADD18R,1.5000X0.9000*%
%ADD19R,3.3000X2.5000*%
%ADD20R,0.8000X0.9000*%
%ADD21R,0.7500X1.2000*%
%ADD22R,0.6000X0.3500*%
%ADD23R,1.0000X0.3000*%
%ADD24R,0.3000X1.0000*%
%ADD25R,3.3500X3.3500*%
%ADD26R,0.9500X2.7500*%
%ADD27R,3.2500X2.7500*%
%ADD28R,0.6000X1.2000*%
%ADD29R,0.2750X0.2500*%
%ADD30R,0.2500X0.2750*%
%ADD31R,0.4500X1.3800*%
%ADD32R,1.4250X1.5500*%
%ADD33R,0.8750X1.9000*%
%ADD34R,0.6000X1.0500*%
%ADD35R,0.9000X0.7000*%
%ADD36R,0.7000X1.0000*%
%ADD37R,8.2000X2.6000*%
%ADD38R,0.7000X0.9000*%
%ADD39R,0.9000X0.8000*%
%ADD40R,0.3500X0.6000*%
D16*
X350960Y741920D02*
D03*
Y755920D02*
D03*
X364960D02*
D03*
X378960D02*
D03*
Y741920D02*
D03*
Y727920D02*
D03*
X364960D02*
D03*
X350960D02*
D03*
X364960Y741920D02*
D03*
D17*
X287760Y844420D02*
D03*
X300460D02*
D03*
X313160D02*
D03*
X325860D02*
D03*
X338560D02*
D03*
X351260D02*
D03*
X363960D02*
D03*
X376660D02*
D03*
X389360D02*
D03*
X402060D02*
D03*
X414760D02*
D03*
X427460D02*
D03*
X440160D02*
D03*
X452860D02*
D03*
Y669420D02*
D03*
X440160D02*
D03*
X427460D02*
D03*
X414760D02*
D03*
X402060D02*
D03*
X389360D02*
D03*
X376660D02*
D03*
X363960D02*
D03*
X351260D02*
D03*
X338560D02*
D03*
X325860D02*
D03*
X313160D02*
D03*
X300460D02*
D03*
X287760D02*
D03*
D18*
X465360Y826770D02*
D03*
Y814070D02*
D03*
Y801370D02*
D03*
Y788670D02*
D03*
Y775970D02*
D03*
Y763270D02*
D03*
Y750570D02*
D03*
Y737870D02*
D03*
Y725170D02*
D03*
Y712470D02*
D03*
Y699770D02*
D03*
Y687070D02*
D03*
D19*
X660400Y857460D02*
D03*
Y788460D02*
D03*
D20*
X763920Y767080D02*
D03*
X749920D02*
D03*
X516240Y756920D02*
D03*
X530240D02*
D03*
X602600Y858520D02*
D03*
X616600D02*
D03*
X516240Y848360D02*
D03*
X530240D02*
D03*
X572120Y690880D02*
D03*
X586120D02*
D03*
X443880Y614680D02*
D03*
X429880D02*
D03*
X719440Y767080D02*
D03*
X733440D02*
D03*
X856600Y817880D02*
D03*
X870600D02*
D03*
X831200Y645160D02*
D03*
X845200D02*
D03*
D21*
X751840Y821200D02*
D03*
Y855200D02*
D03*
D22*
X767080Y863600D02*
D03*
Y857100D02*
D03*
X782320D02*
D03*
Y863600D02*
D03*
D23*
X831220Y792720D02*
D03*
Y797720D02*
D03*
Y802720D02*
D03*
Y807720D02*
D03*
Y812720D02*
D03*
Y817720D02*
D03*
Y822720D02*
D03*
X784220D02*
D03*
Y817720D02*
D03*
Y812720D02*
D03*
Y807720D02*
D03*
Y802720D02*
D03*
Y797720D02*
D03*
Y792720D02*
D03*
D24*
X822720Y831220D02*
D03*
X817720D02*
D03*
X812720D02*
D03*
X807720D02*
D03*
X802720D02*
D03*
X797720D02*
D03*
X792720D02*
D03*
Y784220D02*
D03*
X797720D02*
D03*
X802720D02*
D03*
X807720D02*
D03*
X812720D02*
D03*
X817720D02*
D03*
X822720D02*
D03*
D25*
X807720Y807720D02*
D03*
D26*
X774840Y742280D02*
D03*
X751840D02*
D03*
X728840D02*
D03*
D27*
X751840Y690280D02*
D03*
D28*
X603860Y738940D02*
D03*
X594360D02*
D03*
X584860D02*
D03*
Y713940D02*
D03*
X594360D02*
D03*
X603860D02*
D03*
D29*
X429260Y632500D02*
D03*
Y637500D02*
D03*
X444510D02*
D03*
Y632500D02*
D03*
D30*
X429380Y642630D02*
D03*
X434380D02*
D03*
X439380D02*
D03*
X444380D02*
D03*
Y627380D02*
D03*
X439380D02*
D03*
X434380D02*
D03*
X429380D02*
D03*
D31*
X751540Y881140D02*
D03*
X758040D02*
D03*
X764540D02*
D03*
X771040D02*
D03*
X777540D02*
D03*
D32*
X739670Y881990D02*
D03*
X789410D02*
D03*
D33*
X752660Y907740D02*
D03*
X776420D02*
D03*
D34*
X361340Y867840D02*
D03*
X380340D02*
D03*
X370840Y889840D02*
D03*
X340360Y646000D02*
D03*
X349860Y624000D02*
D03*
X330860D02*
D03*
X391160Y646000D02*
D03*
X400660Y624000D02*
D03*
X381660D02*
D03*
X304800Y889840D02*
D03*
X314300Y867840D02*
D03*
X295300D02*
D03*
D35*
X457200Y627500D02*
D03*
Y642500D02*
D03*
X269240Y632580D02*
D03*
Y647580D02*
D03*
X365760Y637420D02*
D03*
Y622420D02*
D03*
X828040Y845940D02*
D03*
Y860940D02*
D03*
X812800Y845940D02*
D03*
Y860940D02*
D03*
X797560Y845940D02*
D03*
Y860940D02*
D03*
X279400Y891420D02*
D03*
Y876420D02*
D03*
X264160Y891420D02*
D03*
Y876420D02*
D03*
X345440Y891420D02*
D03*
Y876420D02*
D03*
X330200Y891420D02*
D03*
Y876420D02*
D03*
X416560Y642500D02*
D03*
Y627500D02*
D03*
D36*
X494580Y772640D02*
D03*
Y832640D02*
D03*
X531580Y772640D02*
D03*
Y832640D02*
D03*
Y741200D02*
D03*
Y681200D02*
D03*
X494580Y741200D02*
D03*
Y681200D02*
D03*
D37*
X660400Y698440D02*
D03*
Y754440D02*
D03*
D38*
X358260Y609600D02*
D03*
X373260D02*
D03*
X845940Y833120D02*
D03*
X860940D02*
D03*
X470020Y645160D02*
D03*
X485020D02*
D03*
X566540Y802640D02*
D03*
X581540D02*
D03*
X581780Y828040D02*
D03*
X596780D02*
D03*
D39*
X843280Y846440D02*
D03*
Y860440D02*
D03*
X284480Y647080D02*
D03*
Y633080D02*
D03*
X299720Y647080D02*
D03*
Y633080D02*
D03*
X314960Y633080D02*
D03*
Y647080D02*
D03*
X731520Y821040D02*
D03*
Y835040D02*
D03*
D40*
X728270Y858520D02*
D03*
X734770D02*
D03*
M02*
