M48
;Layer_Color=9474304
;FILE_FORMAT=4:4
METRIC,LZ
;TYPE=PLATED
T1F00S00C0.3000
T2F00S00C0.7112
T4F00S00C0.9000
T5F00S00C1.4300
%
T01
X00811726Y00609123
X00834481Y00608649
X0083312Y00635
X0082296Y0064008
X0080772
Y0067056
X0081788
X0082804
X008382
X0084836
X0085852Y0067564
X0086868Y0068072
Y0064008
X0088392Y0065024
X0087884Y0062484
X008636Y006096
X00819158Y00687483
X00820096Y00707856
X0081788Y00737452
X00818268Y00772548
X0084836Y0077216
X0085344Y007874
X008636Y0079248
X0087376
Y0078232
X0084836Y0075184
X0079756Y0067056
X0079248Y0069088
Y007112
X0078232Y0071628
X007874Y0072644
X0076708Y0071628
X0077724Y0070104
Y0068072
X0078232Y0064008
Y0062484
Y006096
X0076708
X0075184
Y0062484
X0076708
Y0064008
X0074168
X0073152Y0062992
X007366Y006096
X0071628Y0061468
X0070104
X006858
X00669269Y00614101
X0065024Y0061468
X0062992Y0064008
X0061468
X0060452Y00635
X0059436Y0064008
X005842Y00635
X0057404Y0064008
X0056388Y00635
X0055372Y0064008
X0054356Y00635
X005334Y0064008
X0052324Y00635
X0051308Y0064008
X0049784Y00635
X0049356Y0064516
X00498092Y00665228
X0050292Y00671052
X0049276Y0067056
X00489298Y00690915
X00493562Y00697133
X00492508Y00706372
X00499076Y00702276
X00502668Y00716532
X00508Y007112
X0051308Y006858
X0051816Y0067056
X0053848
X005588
X0057912
X0059944
X0061976
X0064008
X006604
X0069596
X0071628
X0073152
X0072644Y0069596
X0071628
Y0071628
X007366
X0069596Y0072644
X0067056
X0064516
X0061976
X0059944Y0075692
Y0078232
X00551172Y00781589
X0054356Y0077216
Y0075692
X0055372
X0056896
X0056388Y0072644
Y007112
Y0069088
X0054356
Y007112
Y0072644
Y0079248
X0049784Y007874
X0044704Y0078232
X0042672
X0041148
Y00762
X0042672
Y0074168
X00450354Y00742325
X0044196Y0073152
X00445031Y00759035
X00478349Y0073198
X0045212Y0070104
Y006858
X0044196
X0046228Y0067564
X00470031Y00655077
X0046736Y0061976
X004572Y0061468
X0041656Y0065532
Y0068072
X0040132
Y0064516
X0041656Y007112
X004064Y0073152
X007112Y0075184
X00764073Y00754727
X0079248Y0076827
X0075184Y0065532
X00381Y0064008
X00391375Y00628142
X0035052Y00635
X0034036Y0062484
X00330815Y00636982
X00307171Y00638578
X00292052Y00637684
X0029972Y0065532
X003048Y0069088
X0028448Y006858
Y0071628
X003048Y0072136
Y0075184
X0032512
Y0077216
X003302Y007874
X0030988Y0078232
X0028448Y0077216
Y0074168
X0032512Y0073152
Y007112
X0034544
X0036576
X0039116
X00381Y006858
X0036068
X0034036
X0032004Y0061468
X0029972
X002794
X0025908Y0064008
X0039116Y0074676
Y0078232
X0037084
Y0080264
X0039116
X00395475Y00831054
X00382894Y00830902
X00370161
X00356216Y00831357
X0034036Y0083312
X0032512
X00313333Y0083029
X00312363Y00815318
X00327751Y00819477
X00328444Y00801455
X0035052Y0080264
X0029464Y0079756
X0028448Y008128
X00297252Y00830983
X00292323Y00889004
X00292545Y00900988
X0031496Y0089408
X0032004Y0090424
X0032512Y009144
Y0092964
X0034544
X0036576
X0038608
X0039116Y0090932
X0038608Y0089408
X0036068
X003302Y0089916
X0032761Y00866589
X0026416Y008636
Y0089916
Y0090932
X00264887Y00923878
X0028448Y0092964
X003048
X0039624Y0086868
X0038608Y0085852
X004064
X0041656Y0086868
X0042672Y0085852
X0044704
X004572Y0087376
Y0089408
X0047238Y00884489
X0047244Y0087884
X0047752Y0087376
X004826Y0086868
X0048768Y008636
X0049276Y0086868
X0049784Y0087376
X0050292Y0087884
X00502948Y00884489
X00498284Y00888984
X00492497Y00888928
X00483056Y00888984
X00477044Y0088904
X0047752Y0089916
X0049784
X0051816
X0053848
Y0087884
X00518114Y00877211
X0051816Y0085852
X005334
X0055372
X0054864Y0084328
X00543308Y00837948
X0055372Y0080772
Y0080018
X0059944Y0080264
Y0081788
Y0084328
X0058928Y0089916
X0056896
X005588Y009144
X0057912
X0059944
X006096Y0092964
X00626408Y00926954
X00652884
X00686132Y00928364
X00709044Y00913574
X0070612Y0090424
X007112Y0088392
Y0086868
X0072136
X0073152
X0074168Y008636
Y0084836
X0072844Y00844838
X0072136Y0085344
X007112
X0072644Y0088392
X0074168Y0089916
X00740199Y00914786
X00764081Y00914907
X00764323Y00897814
X007874Y0089916
Y009144
X0079248Y0086868
X00767184Y00851776
X00784205Y00831624
X00675706Y00900724
X00662129Y00900845
X006096Y0089916
X0058928Y0092964
X0056896
X0054864
X0052832
X00508
X0048768
X0046736
X0044704
X0042672
X004064
X0041148Y0089408
X0042164Y0089916
X00421395Y0083075
X00408359
X00436395Y00828525
X0045212Y0081788
X0044704Y0080264
X0042672
X0041148
X0049784
X00508
Y0081788
X0051816
X0049784
X0047244Y0085344
X0048768Y0088392
X00809299Y00880963
X008128Y0086868
X0082296
X008382
X0083312Y0087884
X00841278Y00885772
X0084836Y0087884
X0085852Y0086868
Y0085344
X0086868Y0085852
Y0084328
Y0083312
X00873427Y0082637
X0088392Y0080264
X0085344Y0079756
X0084328Y0080264
Y008128
X0083312Y0083312
X0082296Y00889
Y0089916
X00803116Y00870174
T02
X0075184Y0067056
X0026924Y0065532
T04
X0079756Y0061976
X0082296
X0084836
X0083312Y0069596
Y0072136
Y0074676
X0080772
Y0072136
Y0069596
X008636
Y0072136
Y0074676
Y0077216
X0056896Y0061976
X0054356
X00508
X004826
X0037084Y009144
X0034544
X003048
X002794
X0041148
X0043688
X0046228
X0061468
X0064008
X0066548
X0069088
T05
X0072504Y0090774
X0080404
M30
