G04*
G04 #@! TF.GenerationSoftware,Altium Limited,Altium Designer,21.4.1 (30)*
G04*
G04 Layer_Physical_Order=1*
G04 Layer_Color=255*
%FSLAX44Y44*%
%MOMM*%
G71*
G04*
G04 #@! TF.SameCoordinates,C0E257CA-E608-45CC-978B-2DEEB779FBD1*
G04*
G04*
G04 #@! TF.FilePolarity,Positive*
G04*
G01*
G75*
%ADD10C,0.2540*%
%ADD16R,0.9000X0.9000*%
%ADD17R,0.9000X1.5000*%
%ADD18R,1.5000X0.9000*%
%ADD19R,3.3000X2.5000*%
%ADD20R,0.8000X0.9000*%
%ADD21R,0.7500X1.2000*%
%ADD22R,0.6000X0.3500*%
%ADD23R,1.0000X0.3000*%
%ADD24R,0.3000X1.0000*%
%ADD25R,3.3500X3.3500*%
%ADD26R,0.9500X2.7500*%
%ADD27R,3.2500X2.7500*%
%ADD28R,0.6000X1.2000*%
%ADD29R,0.2750X0.2500*%
%ADD30R,0.2500X0.2750*%
%ADD31R,0.4500X1.3800*%
%ADD32R,1.4250X1.5500*%
%ADD33R,0.8750X1.9000*%
%ADD34R,0.6000X1.0500*%
%ADD35R,0.9000X0.7000*%
%ADD36R,0.7000X1.0000*%
%ADD37R,8.2000X2.6000*%
%ADD38R,0.7000X0.9000*%
%ADD39R,0.9000X0.8000*%
%ADD40R,0.3500X0.6000*%
%ADD69C,1.2700*%
%ADD70C,0.3048*%
%ADD71C,0.5080*%
%ADD72C,0.6350*%
%ADD73O,2.5000X2.0000*%
%ADD74C,1.5000*%
%ADD75R,1.5000X1.5000*%
%ADD76C,2.1450*%
%ADD77R,1.5000X1.5000*%
%ADD78C,0.5000*%
%ADD79C,1.2700*%
G36*
X375696Y908618D02*
X375343Y908156D01*
X375032Y907655D01*
X374762Y907117D01*
X374534Y906542D01*
X374347Y905930D01*
X374202Y905280D01*
X374098Y904592D01*
X374036Y903867D01*
X374015Y903105D01*
X367665D01*
X367644Y903867D01*
X367582Y904592D01*
X367478Y905280D01*
X367333Y905930D01*
X367146Y906542D01*
X366918Y907117D01*
X366648Y907655D01*
X366337Y908156D01*
X365984Y908618D01*
X365590Y909044D01*
X376090D01*
X375696Y908618D01*
D02*
G37*
G36*
X309656D02*
X309303Y908156D01*
X308992Y907655D01*
X308722Y907117D01*
X308494Y906542D01*
X308307Y905930D01*
X308162Y905280D01*
X308058Y904592D01*
X307996Y903867D01*
X307975Y903105D01*
X301625D01*
X301604Y903867D01*
X301542Y904592D01*
X301438Y905280D01*
X301293Y905930D01*
X301106Y906542D01*
X300878Y907117D01*
X300608Y907655D01*
X300297Y908156D01*
X299944Y908618D01*
X299550Y909044D01*
X310050D01*
X309656Y908618D01*
D02*
G37*
G36*
X285147Y906867D02*
X284607Y906676D01*
X284131Y906359D01*
X283718Y905915D01*
X283369Y905343D01*
X283083Y904644D01*
X282861Y903819D01*
X282702Y902867D01*
X282607Y901787D01*
X282580Y900771D01*
X282588Y900033D01*
X282782Y897176D01*
X282899Y896477D01*
X283041Y895906D01*
X283209Y895461D01*
X283403Y895144D01*
X283624Y894953D01*
X283869Y894890D01*
X274930D01*
X275176Y894953D01*
X275396Y895144D01*
X275591Y895461D01*
X275759Y895906D01*
X275901Y896477D01*
X276018Y897176D01*
X276108Y898001D01*
X276212Y900033D01*
X276220Y900771D01*
X276193Y901787D01*
X276098Y902867D01*
X275939Y903819D01*
X275717Y904644D01*
X275431Y905343D01*
X275082Y905915D01*
X274669Y906359D01*
X274193Y906676D01*
X273653Y906867D01*
X273050Y906930D01*
X285750D01*
X285147Y906867D01*
D02*
G37*
G36*
X358371Y862620D02*
X358307Y862991D01*
X358116Y863322D01*
X357799Y863615D01*
X357355Y863868D01*
X356783Y864083D01*
X356085Y864258D01*
X355259Y864395D01*
X354306Y864492D01*
X352020Y864570D01*
Y870920D01*
X353227Y870941D01*
X355259Y871113D01*
X356085Y871262D01*
X356783Y871455D01*
X357355Y871690D01*
X357799Y871968D01*
X358116Y872289D01*
X358307Y872653D01*
X358371Y873059D01*
Y862620D01*
D02*
G37*
G36*
X292330D02*
X292267Y862991D01*
X292076Y863322D01*
X291759Y863615D01*
X291315Y863868D01*
X290743Y864083D01*
X290044Y864258D01*
X289219Y864395D01*
X288267Y864492D01*
X285980Y864570D01*
Y870920D01*
X287187Y870941D01*
X289219Y871113D01*
X290044Y871262D01*
X290743Y871455D01*
X291315Y871690D01*
X291759Y871968D01*
X292076Y872289D01*
X292267Y872653D01*
X292330Y873059D01*
Y862620D01*
D02*
G37*
G36*
X779954Y866893D02*
X781045Y865974D01*
X781534Y865636D01*
X781984Y865380D01*
X782396Y865205D01*
X782770Y865112D01*
X783105Y865100D01*
X783402Y865169D01*
X783661Y865320D01*
X779351Y861880D01*
X779329Y862146D01*
X779264Y862429D01*
X779156Y862729D01*
X779006Y863047D01*
X778812Y863382D01*
X778575Y863735D01*
X778294Y864105D01*
X777605Y864897D01*
X777195Y865320D01*
X779351Y867475D01*
X779954Y866893D01*
D02*
G37*
G36*
X289760Y860050D02*
X299315D01*
X299417Y859542D01*
X300680Y857651D01*
X302698Y855633D01*
X302212Y854460D01*
X280720D01*
Y854460D01*
X279617Y854003D01*
X272972Y860648D01*
X273498Y861918D01*
X289760D01*
Y860050D01*
D02*
G37*
G36*
X838841Y843400D02*
X838815Y843641D01*
X838738Y843857D01*
X838610Y844048D01*
X838430Y844213D01*
X838198Y844352D01*
X837916Y844467D01*
X837581Y844556D01*
X837196Y844619D01*
X836759Y844657D01*
X836271Y844670D01*
Y847210D01*
X836759Y847223D01*
X837196Y847261D01*
X837581Y847324D01*
X837916Y847413D01*
X838198Y847527D01*
X838430Y847667D01*
X838610Y847832D01*
X838738Y848023D01*
X838815Y848239D01*
X838841Y848480D01*
Y843400D01*
D02*
G37*
G36*
X832505Y848239D02*
X832582Y848023D01*
X832710Y847832D01*
X832890Y847667D01*
X833122Y847527D01*
X833404Y847413D01*
X833739Y847324D01*
X834124Y847261D01*
X834561Y847223D01*
X835050Y847210D01*
Y844670D01*
X834561Y844657D01*
X834124Y844619D01*
X833739Y844556D01*
X833404Y844467D01*
X833122Y844352D01*
X832890Y844213D01*
X832710Y844048D01*
X832582Y843857D01*
X832505Y843641D01*
X832479Y843400D01*
Y848480D01*
X832505Y848239D01*
D02*
G37*
G36*
X801893Y846398D02*
X801870Y846120D01*
X801932Y845793D01*
X802078Y845418D01*
X802309Y844993D01*
X802623Y844520D01*
X803022Y843997D01*
X804072Y842806D01*
X804724Y842137D01*
X802594Y840674D01*
X802045Y841206D01*
X801074Y842036D01*
X800652Y842334D01*
X800271Y842556D01*
X799933Y842700D01*
X799637Y842766D01*
X799383Y842755D01*
X799172Y842667D01*
X799002Y842501D01*
X801999Y846627D01*
X801893Y846398D01*
D02*
G37*
G36*
X847647Y842445D02*
X847555Y842369D01*
X847474Y842242D01*
X847404Y842064D01*
X847345Y841835D01*
X847296Y841556D01*
X847259Y841226D01*
X847215Y840413D01*
X847212Y840070D01*
X847223Y839641D01*
X847261Y839204D01*
X847324Y838819D01*
X847413Y838484D01*
X847527Y838202D01*
X847667Y837970D01*
X847832Y837790D01*
X848023Y837662D01*
X848239Y837585D01*
X848480Y837559D01*
X843400D01*
X843641Y837585D01*
X843857Y837662D01*
X844048Y837790D01*
X844213Y837970D01*
X844352Y838202D01*
X844467Y838484D01*
X844556Y838819D01*
X844619Y839204D01*
X844657Y839641D01*
X844667Y840029D01*
X844657Y840413D01*
X844619Y840845D01*
X844556Y841226D01*
X844467Y841556D01*
X844352Y841835D01*
X844213Y842064D01*
X844048Y842242D01*
X843857Y842369D01*
X843641Y842445D01*
X843400Y842470D01*
X847749D01*
X847647Y842445D01*
D02*
G37*
G36*
X433987Y834349D02*
X434185Y833110D01*
X432761Y832159D01*
X431647Y830491D01*
X431256Y828525D01*
X431647Y826559D01*
X432251Y825655D01*
Y778900D01*
X432567Y777314D01*
X433465Y775970D01*
X449095Y760340D01*
X450439Y759442D01*
X452025Y759126D01*
X455320D01*
Y754714D01*
X409386D01*
X393670Y770430D01*
X392326Y771328D01*
X390740Y771644D01*
X361976D01*
X337675Y795945D01*
X336330Y796843D01*
X334745Y797159D01*
X323898D01*
X287850Y833207D01*
X288336Y834380D01*
X319231D01*
X320037Y833398D01*
X319981Y833120D01*
X320372Y831153D01*
X321486Y829486D01*
X323153Y828372D01*
X325120Y827981D01*
X327086Y828372D01*
X328754Y829486D01*
X329868Y831153D01*
X330259Y833120D01*
X330203Y833398D01*
X331009Y834380D01*
X334471D01*
X335277Y833398D01*
X335221Y833120D01*
X335612Y831153D01*
X336726Y829486D01*
X338394Y828372D01*
X340360Y827981D01*
X342327Y828372D01*
X343994Y829486D01*
X345108Y831153D01*
X345499Y833120D01*
X345443Y833398D01*
X346249Y834380D01*
X433974D01*
X433987Y834349D01*
D02*
G37*
G36*
X534994Y827607D02*
X534944Y827417D01*
X534899Y827099D01*
X534829Y826083D01*
X534755Y821320D01*
X528405D01*
X528111Y827671D01*
X535050D01*
X534994Y827607D01*
D02*
G37*
G36*
X832503Y821247D02*
X832541Y820815D01*
X832604Y820434D01*
X832693Y820104D01*
X832807Y819825D01*
X832947Y819596D01*
X833112Y819418D01*
X833303Y819291D01*
X833519Y819215D01*
X833760Y819190D01*
X828680D01*
X828921Y819215D01*
X829137Y819291D01*
X829328Y819418D01*
X829493Y819596D01*
X829632Y819825D01*
X829747Y820104D01*
X829836Y820434D01*
X829899Y820815D01*
X829937Y821247D01*
X829950Y821730D01*
X832490D01*
X832503Y821247D01*
D02*
G37*
G36*
X556210Y888429D02*
Y813529D01*
X554940Y812616D01*
X554163Y812771D01*
X552525Y814409D01*
Y840022D01*
X553388Y841313D01*
X553779Y843280D01*
X553388Y845247D01*
X552274Y846914D01*
X550606Y848028D01*
X548640Y848419D01*
X546674Y848028D01*
X545006Y846914D01*
X543892Y845247D01*
X543501Y843280D01*
X543308Y843087D01*
X541342Y842696D01*
X539675Y841582D01*
X539478Y841288D01*
X537786Y841042D01*
X537407Y841356D01*
Y846520D01*
X536963Y848750D01*
X536780Y849024D01*
Y855400D01*
X523700D01*
Y843465D01*
X521510D01*
Y846455D01*
X516240D01*
X510970D01*
Y843465D01*
X502374D01*
X498671Y847167D01*
X497411Y848009D01*
X495924Y848305D01*
X459900D01*
Y854460D01*
X373428D01*
X372942Y855633D01*
X374960Y857651D01*
X376223Y859542D01*
X376577Y861320D01*
X378435D01*
Y867840D01*
X380340D01*
Y869745D01*
X384610D01*
Y873588D01*
X427295D01*
X429525Y874032D01*
X431415Y875295D01*
X460481Y904360D01*
X472320D01*
Y908573D01*
X536066D01*
X556210Y888429D01*
D02*
G37*
G36*
X891361Y867554D02*
Y631046D01*
X865014Y604699D01*
X723979D01*
X723493Y605873D01*
X794196Y676576D01*
X795462D01*
X795593Y675308D01*
X793926Y674194D01*
X792812Y672526D01*
X792421Y670560D01*
X792812Y668594D01*
X793416Y667690D01*
Y629800D01*
X787520D01*
Y609720D01*
X807600D01*
Y629800D01*
X801704D01*
Y667690D01*
X802308Y668594D01*
X802699Y670560D01*
X802308Y672526D01*
X801194Y674194D01*
X799527Y675308D01*
X799658Y676576D01*
X843280D01*
X844866Y676892D01*
X846210Y677790D01*
X851290Y682870D01*
X852188Y684214D01*
X852450Y685533D01*
X853512Y685903D01*
X853676Y685920D01*
X853774Y685920D01*
X873640D01*
Y706000D01*
X853774D01*
X853560Y706000D01*
X852504Y706516D01*
Y718996D01*
X853774Y719079D01*
X853818Y718739D01*
X854830Y716297D01*
X856439Y714199D01*
X858537Y712590D01*
X860979Y711578D01*
X863600Y711233D01*
X866221Y711578D01*
X868663Y712590D01*
X870761Y714199D01*
X872370Y716297D01*
X873382Y718739D01*
X873727Y721360D01*
X873382Y723981D01*
X872893Y725160D01*
X877709Y729975D01*
X878551Y731236D01*
X878847Y732722D01*
Y750629D01*
X878551Y752115D01*
X877709Y753376D01*
X868888Y762196D01*
X867700Y762991D01*
X867627Y763382D01*
X867624Y764334D01*
X868023Y764499D01*
X869855Y765905D01*
X871261Y767737D01*
X872144Y769871D01*
X872195Y770255D01*
X863600D01*
X855005D01*
X855056Y769871D01*
X855939Y767737D01*
X857345Y765905D01*
X859041Y764604D01*
X859023Y764135D01*
X858683Y763334D01*
X857003D01*
X851977Y768360D01*
X851994Y768526D01*
X853108Y770193D01*
X853499Y772160D01*
X853108Y774127D01*
X851994Y775794D01*
X850327Y776908D01*
X848803Y777211D01*
X842777Y783237D01*
X841517Y784079D01*
X840030Y784375D01*
X826760D01*
Y788680D01*
X838760D01*
Y798221D01*
X840030Y798750D01*
X841313Y797892D01*
X843280Y797501D01*
X845247Y797892D01*
X846914Y799006D01*
X848028Y800674D01*
X848419Y802640D01*
X848028Y804606D01*
X846914Y806274D01*
X845859Y806978D01*
Y808462D01*
X846914Y809166D01*
X848028Y810834D01*
X848296Y812183D01*
X849474Y812978D01*
X849657Y813009D01*
X850060Y812865D01*
Y810840D01*
X852880D01*
Y808180D01*
X853275Y806198D01*
X854398Y804518D01*
X859938Y798978D01*
X861618Y797855D01*
X863600Y797460D01*
X883920D01*
X885902Y797855D01*
X887582Y798978D01*
X888705Y800658D01*
X889100Y802640D01*
X888705Y804622D01*
X887582Y806302D01*
X885902Y807425D01*
X883920Y807820D01*
X865745D01*
X863240Y810325D01*
Y816420D01*
X863140Y816920D01*
Y824810D01*
X863140Y824920D01*
X863406Y826080D01*
X866980D01*
Y827941D01*
X868680D01*
X870662Y828335D01*
X872343Y829457D01*
X873465Y831138D01*
X873859Y833120D01*
X873465Y835102D01*
X872343Y836783D01*
X870662Y837905D01*
X868680Y838299D01*
X866980D01*
Y840160D01*
X854900D01*
Y826190D01*
X854900Y826080D01*
X854634Y824920D01*
X852245D01*
X851980Y826080D01*
X851980D01*
Y840160D01*
X850320D01*
Y852980D01*
X836240D01*
Y852245D01*
X835080Y851980D01*
Y851980D01*
X821000D01*
Y851980D01*
X819840D01*
Y851980D01*
X805760D01*
X805760Y851980D01*
X804600D01*
Y851980D01*
X804490Y851980D01*
X790520D01*
Y839900D01*
X790520D01*
X790206Y838760D01*
X788680D01*
Y826760D01*
X779400D01*
Y854080D01*
X780415D01*
Y857100D01*
X782320D01*
Y859005D01*
X786590D01*
Y859310D01*
X787860D01*
Y867890D01*
X782640D01*
X778830Y871700D01*
X778881Y872137D01*
X779267Y872970D01*
X787505D01*
Y881990D01*
Y891010D01*
X781015D01*
Y889310D01*
X779445D01*
Y881140D01*
X775831D01*
Y889310D01*
X775830D01*
Y890580D01*
X748065D01*
Y891010D01*
X741575D01*
Y881990D01*
Y872970D01*
X743531D01*
X744017Y871797D01*
X740831Y868611D01*
X739698Y868385D01*
X738018Y867262D01*
X736895Y865582D01*
X736592Y864060D01*
X730480D01*
Y862790D01*
X730175D01*
Y858520D01*
Y854250D01*
X730480D01*
Y852980D01*
X733200D01*
X733910Y852270D01*
X735254Y851372D01*
X736840Y851056D01*
X745550D01*
Y846660D01*
X744607Y845870D01*
X741680D01*
X740689Y845673D01*
X739849Y845111D01*
X739287Y844271D01*
X739090Y843280D01*
Y830630D01*
X737290D01*
Y833135D01*
X725750D01*
Y830630D01*
X723950D01*
Y843280D01*
X723753Y844271D01*
X723191Y845111D01*
X722351Y845673D01*
X721360Y845870D01*
X708710D01*
Y878840D01*
Y894080D01*
X708513Y895071D01*
X707951Y895911D01*
X707111Y896473D01*
X706120Y896670D01*
X564451D01*
X542600Y918520D01*
X540710Y919783D01*
X538480Y920227D01*
X472320D01*
Y924440D01*
X452240D01*
Y912601D01*
X424881Y885242D01*
X376380D01*
Y888397D01*
X376667Y889840D01*
Y906216D01*
X378001Y907239D01*
X379610Y909337D01*
X380622Y911779D01*
X380967Y914400D01*
X380622Y917021D01*
X379610Y919463D01*
X378001Y921561D01*
X375903Y923170D01*
X373461Y924182D01*
X370840Y924527D01*
X368219Y924182D01*
X365777Y923170D01*
X363679Y921561D01*
X362070Y919463D01*
X361058Y917021D01*
X360713Y914400D01*
X361058Y911779D01*
X362070Y909337D01*
X363679Y907239D01*
X365013Y906216D01*
Y889840D01*
X365300Y888397D01*
Y885242D01*
X357346D01*
X355117Y884798D01*
X353226Y883535D01*
X352263Y882572D01*
X345765D01*
X345202Y882460D01*
X338400D01*
X338400Y882460D01*
X337240D01*
Y882460D01*
X337130Y882460D01*
X323160D01*
Y870380D01*
X327921D01*
X333789Y864512D01*
X333263Y863242D01*
X318570D01*
Y865935D01*
X314300D01*
Y867840D01*
X312395D01*
Y874360D01*
X310537D01*
X310183Y876138D01*
X308920Y878029D01*
X306072Y880877D01*
X306558Y882050D01*
X310340D01*
Y888397D01*
X310627Y889840D01*
Y906216D01*
X311961Y907239D01*
X313570Y909337D01*
X314582Y911779D01*
X314927Y914400D01*
X314582Y917021D01*
X313570Y919463D01*
X311961Y921561D01*
X309863Y923170D01*
X307421Y924182D01*
X304800Y924527D01*
X302179Y924182D01*
X299737Y923170D01*
X297639Y921561D01*
X296030Y919463D01*
X295018Y917021D01*
X294673Y914400D01*
X295018Y911779D01*
X296030Y909337D01*
X297639Y907239D01*
X298973Y906216D01*
Y889840D01*
X299260Y888397D01*
Y884092D01*
X290156D01*
X287927Y883648D01*
X286316Y882572D01*
X279725D01*
X279162Y882460D01*
X272360D01*
X272360Y882460D01*
X271200D01*
Y882460D01*
X271090Y882460D01*
X257120D01*
X256719Y883564D01*
Y884276D01*
X257120Y885380D01*
X257989Y885380D01*
X271090D01*
X271200Y885380D01*
X272360D01*
X272470Y885380D01*
X286440D01*
Y897460D01*
X285227D01*
Y904360D01*
X289440D01*
Y924440D01*
X269360D01*
Y904360D01*
X273573D01*
Y897863D01*
X272360Y897460D01*
X271200D01*
X271090Y897460D01*
X269961D01*
X269156Y898442D01*
X269299Y899160D01*
X268908Y901126D01*
X267794Y902794D01*
X266126Y903908D01*
X264160Y904299D01*
X262194Y903908D01*
X260526Y902794D01*
X259412Y901126D01*
X259021Y899160D01*
X259164Y898442D01*
X258358Y897460D01*
X257120Y897460D01*
X256719Y898564D01*
Y919624D01*
X269096Y932001D01*
X826914D01*
X891361Y867554D01*
D02*
G37*
G36*
X535050Y777609D02*
X528111D01*
X528166Y777673D01*
X528217Y777863D01*
X528261Y778181D01*
X528331Y779197D01*
X528405Y783960D01*
X534755D01*
X535050Y777609D01*
D02*
G37*
G36*
X482974Y820287D02*
Y773860D01*
X481800Y773374D01*
X481387Y773787D01*
X480127Y774629D01*
X478640Y774925D01*
X475400D01*
Y781630D01*
Y794330D01*
Y807030D01*
Y819730D01*
Y826201D01*
X476573Y826687D01*
X482974Y820287D01*
D02*
G37*
G36*
X455320Y833810D02*
Y819730D01*
Y807030D01*
Y794330D01*
Y781630D01*
Y767414D01*
X453741D01*
X440539Y780616D01*
Y825655D01*
X441143Y826559D01*
X441534Y828525D01*
X441143Y830491D01*
X440029Y832159D01*
X438605Y833110D01*
X438803Y834349D01*
X438816Y834380D01*
X454286D01*
X455320Y833810D01*
D02*
G37*
G36*
X493835Y840180D02*
X493184Y838910D01*
X489810D01*
Y834545D01*
X494580D01*
X499350D01*
Y834976D01*
X500332Y835781D01*
X500765Y835695D01*
X525540D01*
Y825100D01*
X525753D01*
Y780180D01*
X525540D01*
Y765100D01*
X525540D01*
X525226Y763960D01*
X523700D01*
Y749880D01*
X525226D01*
X525540Y748740D01*
X525540Y748740D01*
X525540D01*
X525540Y748740D01*
Y733660D01*
X525753D01*
Y694765D01*
X499453D01*
X498549Y695947D01*
X498839Y697184D01*
X499076Y697137D01*
X501042Y697528D01*
X502710Y698642D01*
X503823Y700309D01*
X504035Y701376D01*
X508900Y706240D01*
X509967Y706452D01*
X511634Y707566D01*
X512748Y709233D01*
X513139Y711200D01*
X512748Y713167D01*
X511634Y714834D01*
X509967Y715948D01*
X508000Y716339D01*
X507604Y717555D01*
X507416Y718498D01*
X506302Y720165D01*
X504635Y721279D01*
X502668Y721670D01*
X500702Y721279D01*
X499035Y720165D01*
X497921Y718498D01*
X497709Y717432D01*
X492857Y712580D01*
X491684Y713066D01*
Y734930D01*
X492675D01*
Y741200D01*
Y747470D01*
X491684D01*
Y766296D01*
X491744Y766370D01*
X492675D01*
Y772640D01*
Y778910D01*
X490743D01*
Y821896D01*
X490447Y823383D01*
X489605Y824643D01*
X474886Y839362D01*
X475372Y840535D01*
X493580D01*
X493835Y840180D01*
D02*
G37*
G36*
X810244Y770078D02*
X810401Y769289D01*
X811243Y768029D01*
X818514Y760758D01*
X819774Y759916D01*
X821261Y759620D01*
X845246D01*
X847013Y757853D01*
X846645Y756638D01*
X846394Y756588D01*
X844726Y755474D01*
X843612Y753807D01*
X843233Y751899D01*
X843152Y751845D01*
X841943Y751695D01*
X841890Y751823D01*
X840281Y753921D01*
X838183Y755530D01*
X835741Y756542D01*
X833120Y756887D01*
X830499Y756542D01*
X828057Y755530D01*
X825959Y753921D01*
X824350Y751823D01*
X823338Y749381D01*
X822993Y746760D01*
X823338Y744139D01*
X824020Y742493D01*
X823172Y741223D01*
X821309D01*
X819846Y742200D01*
X818208Y742526D01*
X817309Y743674D01*
X817502Y744139D01*
X817847Y746760D01*
X817502Y749381D01*
X816490Y751823D01*
X814881Y753921D01*
X812783Y755530D01*
X810341Y756542D01*
X807720Y756887D01*
X805099Y756542D01*
X802657Y755530D01*
X800559Y753921D01*
X798950Y751823D01*
X797938Y749381D01*
X797827Y748534D01*
X796624Y748125D01*
X790306Y754444D01*
Y762269D01*
X791576Y763311D01*
X792480Y763131D01*
X794446Y763522D01*
X796114Y764636D01*
X797228Y766303D01*
X797531Y767827D01*
X800232Y770528D01*
X801074Y771788D01*
X801129Y772065D01*
X805574D01*
X807061Y772361D01*
X807600Y772721D01*
X810244Y770078D01*
D02*
G37*
G36*
X753800Y762560D02*
X753720Y762407D01*
X753650Y762153D01*
X753589Y761798D01*
X753537Y761340D01*
X753465Y759887D01*
X753522Y759242D01*
X753649Y758477D01*
X753826Y757813D01*
X754055Y757251D01*
X754334Y756791D01*
X754665Y756433D01*
X755046Y756176D01*
X755477Y756022D01*
X755960Y755969D01*
X747121Y756000D01*
X747352Y756050D01*
X747560Y756203D01*
X747742Y756457D01*
X747901Y756812D01*
X748035Y757270D01*
X748145Y757828D01*
X748230Y758489D01*
X748267Y759093D01*
X748244Y759359D01*
X748125Y760121D01*
X747958Y760782D01*
X747743Y761340D01*
X747480Y761798D01*
X747169Y762153D01*
X746811Y762407D01*
X746404Y762560D01*
X745950Y762610D01*
X753889D01*
X753800Y762560D01*
D02*
G37*
G36*
X535050Y746170D02*
X534754D01*
X534755Y746100D01*
X528405D01*
X528404Y746170D01*
X528111D01*
X528166Y746233D01*
X528217Y746423D01*
X528261Y746741D01*
X528331Y747757D01*
X528334Y747903D01*
X528213Y749339D01*
X528064Y750164D01*
X527871Y750863D01*
X527637Y751434D01*
X527359Y751879D01*
X527039Y752197D01*
X526676Y752387D01*
X526270Y752450D01*
X528404D01*
X528405Y752520D01*
X534755D01*
X535050Y746170D01*
D02*
G37*
G36*
X706120Y873760D02*
Y843280D01*
X721360D01*
Y828040D01*
X741680D01*
Y843280D01*
X761586D01*
X762000Y842866D01*
Y792480D01*
X741680D01*
Y726440D01*
X735790D01*
X734860Y727260D01*
Y740375D01*
X728840D01*
X722820D01*
Y727260D01*
X721890Y726440D01*
X716280D01*
Y756920D01*
X722820D01*
Y744185D01*
X726935D01*
Y757300D01*
X726440D01*
Y777240D01*
X708710D01*
Y817880D01*
X708513Y818871D01*
X707951Y819711D01*
X707111Y820273D01*
X706120Y820470D01*
X612190D01*
Y825450D01*
X612140Y825700D01*
Y825956D01*
X612042Y826191D01*
X611993Y826441D01*
X611851Y826653D01*
X611753Y826889D01*
X611573Y827069D01*
X611431Y827281D01*
X611219Y827423D01*
X611039Y827604D01*
X610803Y827701D01*
X610591Y827843D01*
X610341Y827893D01*
X610105Y827990D01*
X609855Y828040D01*
X609600D01*
Y828295D01*
Y843280D01*
Y873760D01*
Y878840D01*
X609403Y879831D01*
X608842Y880671D01*
X608001Y881233D01*
X607010Y881430D01*
X589280D01*
X588289Y881233D01*
X587985Y881030D01*
X587681Y881233D01*
X586690Y881430D01*
X574040D01*
X573049Y881233D01*
X572209Y880671D01*
X571647Y879831D01*
X571450Y878840D01*
Y809622D01*
X571310Y808410D01*
X570180Y808410D01*
X568445D01*
Y802640D01*
Y796870D01*
X571310D01*
X571450Y795658D01*
Y762000D01*
X558800D01*
Y894080D01*
X706120D01*
Y873760D01*
D02*
G37*
G36*
Y731520D02*
X609338D01*
X608130Y731670D01*
Y737035D01*
X603860D01*
Y738940D01*
X601955D01*
Y746210D01*
X599900D01*
Y747480D01*
X599440D01*
Y751840D01*
X609600D01*
Y817880D01*
X706120D01*
Y731520D01*
D02*
G37*
G36*
X586690Y835022D02*
X586550Y833810D01*
X585420Y833810D01*
X583685D01*
Y828040D01*
Y822270D01*
X586550D01*
X586690Y821058D01*
Y809522D01*
X586310Y808410D01*
X585420Y808410D01*
X583445D01*
Y802640D01*
Y796870D01*
X586310D01*
X586690Y795758D01*
Y747480D01*
X585663Y746210D01*
X580590D01*
Y740845D01*
X584860D01*
Y737035D01*
X580590D01*
Y731670D01*
X579382Y731520D01*
X574040D01*
Y878840D01*
X586690D01*
Y835022D01*
D02*
G37*
G36*
X455320Y743530D02*
Y729314D01*
X429706D01*
X413767Y745253D01*
X414253Y746426D01*
X455320D01*
Y743530D01*
D02*
G37*
G36*
X607010Y878585D02*
Y873760D01*
Y864290D01*
X604505D01*
Y858520D01*
Y852750D01*
X607010D01*
Y828040D01*
X607207Y827049D01*
X607769Y826209D01*
X608609Y825647D01*
X609600Y825450D01*
Y820470D01*
X608609Y820273D01*
X607769Y819711D01*
X607207Y818871D01*
X607010Y817880D01*
Y754430D01*
X599440D01*
X598449Y754233D01*
X597609Y753671D01*
X597047Y752831D01*
X596850Y751840D01*
Y747480D01*
X596265Y746757D01*
Y740375D01*
Y738940D01*
Y731670D01*
X598320D01*
Y730400D01*
X605924D01*
X605931Y730389D01*
X606087Y730079D01*
X606209Y729973D01*
X606299Y729839D01*
X606588Y729645D01*
X606852Y729418D01*
X607005Y729367D01*
X607139Y729277D01*
X607480Y729210D01*
X607811Y729100D01*
X609019Y728950D01*
X609180Y728962D01*
X609338Y728930D01*
X706120D01*
X707111Y729127D01*
X707951Y729689D01*
X708513Y730529D01*
X708710Y731520D01*
Y774650D01*
X723850D01*
Y772850D01*
X721345D01*
Y767080D01*
Y761310D01*
X722774D01*
X723042Y760688D01*
X722183Y759510D01*
X716280D01*
X715289Y759313D01*
X714449Y758751D01*
X713887Y757911D01*
X713690Y756920D01*
Y726440D01*
X713887Y725449D01*
X714449Y724609D01*
X715289Y724047D01*
X716280Y723850D01*
X721890D01*
X722307Y723933D01*
X722728Y723990D01*
X722800Y724031D01*
X722881Y724047D01*
X723234Y724284D01*
X723602Y724497D01*
X724532Y725317D01*
X724583Y725383D01*
X724651Y725429D01*
X724887Y725782D01*
X725046Y725990D01*
X732634D01*
X732793Y725782D01*
X733029Y725429D01*
X733098Y725383D01*
X733148Y725317D01*
X734078Y724497D01*
X734446Y724284D01*
X734799Y724047D01*
X734880Y724031D01*
X734952Y723990D01*
X735373Y723933D01*
X735790Y723850D01*
X741680D01*
X742671Y724047D01*
X743511Y724609D01*
X743795Y725033D01*
X744550Y725990D01*
X746661D01*
Y706570D01*
X733050D01*
Y673990D01*
X742873D01*
Y670560D01*
X743179Y668239D01*
X744075Y666077D01*
X745500Y664220D01*
X747357Y662795D01*
X749519Y661899D01*
X751840Y661593D01*
X754161Y661899D01*
X756323Y662795D01*
X758180Y664220D01*
X759605Y666077D01*
X760501Y668239D01*
X760807Y670560D01*
Y673990D01*
X770630D01*
Y706570D01*
X757020D01*
Y725990D01*
X759130D01*
Y758570D01*
X756059D01*
Y760040D01*
X756460D01*
Y774120D01*
X744270D01*
Y789890D01*
X762000D01*
X763195Y788833D01*
Y777240D01*
X763491Y775753D01*
X764333Y774493D01*
X764803Y774023D01*
X764317Y772850D01*
X758650D01*
Y768985D01*
X763920D01*
Y767080D01*
X765825D01*
Y761310D01*
X769190D01*
Y767977D01*
X770363Y768463D01*
X778975Y759851D01*
Y757300D01*
X776745D01*
Y742280D01*
Y727260D01*
X780860D01*
Y741067D01*
X782033Y741553D01*
X798427Y725160D01*
X797938Y723981D01*
X797593Y721360D01*
X797938Y718739D01*
X798950Y716297D01*
X800559Y714199D01*
X802657Y712590D01*
X805099Y711578D01*
X807720Y711233D01*
X810341Y711578D01*
X812783Y712590D01*
X814881Y714199D01*
X816490Y716297D01*
X817502Y718739D01*
X817847Y721360D01*
X817502Y723981D01*
X816490Y726423D01*
X815659Y727507D01*
X816285Y728777D01*
X819843D01*
X823719Y724901D01*
X823338Y723981D01*
X822993Y721360D01*
X823338Y718739D01*
X824350Y716297D01*
X825959Y714199D01*
X828057Y712590D01*
X830499Y711578D01*
X833120Y711233D01*
X835741Y711578D01*
X838183Y712590D01*
X840281Y714199D01*
X841890Y716297D01*
X842902Y718739D01*
X842946Y719079D01*
X844216Y718996D01*
Y706516D01*
X843160Y706000D01*
X823080D01*
Y685920D01*
X822564Y684864D01*
X810084D01*
X810001Y686134D01*
X810341Y686178D01*
X812783Y687190D01*
X814881Y688799D01*
X816490Y690897D01*
X817502Y693339D01*
X817847Y695960D01*
X817502Y698581D01*
X816490Y701023D01*
X814881Y703121D01*
X812783Y704730D01*
X810341Y705742D01*
X807720Y706087D01*
X805099Y705742D01*
X802657Y704730D01*
X800559Y703121D01*
X798950Y701023D01*
X797938Y698581D01*
X797593Y695960D01*
X797938Y693339D01*
X798950Y690897D01*
X800559Y688799D01*
X802657Y687190D01*
X805099Y686178D01*
X805439Y686134D01*
X805356Y684864D01*
X792480D01*
X790894Y684548D01*
X789550Y683650D01*
X716700Y610800D01*
X635910D01*
X635103Y611929D01*
X635106Y612070D01*
X636865Y613420D01*
X646023Y622578D01*
X647740Y622352D01*
X652740D01*
X656014Y622783D01*
X659064Y624046D01*
X661684Y626056D01*
X663694Y628676D01*
X664828Y631414D01*
X664841Y631418D01*
X666119D01*
X666132Y631414D01*
X667266Y628676D01*
X669276Y626056D01*
X671896Y624046D01*
X674946Y622783D01*
X678220Y622352D01*
X683220D01*
X686494Y622783D01*
X689544Y624046D01*
X692164Y626056D01*
X694174Y628676D01*
X695308Y631414D01*
X695321Y631418D01*
X696599D01*
X696612Y631414D01*
X697746Y628676D01*
X699756Y626056D01*
X702376Y624046D01*
X705426Y622783D01*
X708700Y622352D01*
X713700D01*
X716974Y622783D01*
X720024Y624046D01*
X722644Y626056D01*
X724654Y628676D01*
X725917Y631726D01*
X726348Y635000D01*
X725917Y638274D01*
X724654Y641324D01*
X722644Y643944D01*
X720024Y645954D01*
X716974Y647217D01*
X713700Y647648D01*
X708700D01*
X705426Y647217D01*
X702376Y645954D01*
X699756Y643944D01*
X697746Y641324D01*
X696612Y638586D01*
X696599Y638582D01*
X695321D01*
X695308Y638586D01*
X694174Y641324D01*
X692164Y643944D01*
X689687Y645844D01*
Y673050D01*
X706120D01*
X707111Y673247D01*
X707951Y673809D01*
X708513Y674649D01*
X708710Y675640D01*
Y721360D01*
X708513Y722351D01*
X707951Y723191D01*
X707111Y723753D01*
X706120Y723950D01*
X609600D01*
X608609Y723753D01*
X607769Y723191D01*
X607294Y722480D01*
X581051D01*
X580757Y722596D01*
X580299Y722780D01*
X579799Y722874D01*
X579664Y722873D01*
X579534Y722910D01*
X579162Y722867D01*
X578788Y722863D01*
X578664Y722811D01*
X578530Y722795D01*
X578203Y722614D01*
X577859Y722467D01*
X577765Y722371D01*
X577646Y722305D01*
X577447Y722136D01*
X577379Y722051D01*
X577289Y721991D01*
X577066Y721658D01*
X576818Y721345D01*
X576788Y721241D01*
X576727Y721151D01*
X576649Y720758D01*
X576539Y720374D01*
X576551Y720266D01*
X576530Y720160D01*
Y696650D01*
X574025D01*
Y690880D01*
Y685110D01*
X576530D01*
Y675640D01*
X576727Y674649D01*
X577289Y673809D01*
X578129Y673247D01*
X579120Y673050D01*
X671753D01*
Y645844D01*
X669276Y643944D01*
X667266Y641324D01*
X666132Y638586D01*
X666119Y638582D01*
X664841D01*
X664828Y638586D01*
X663694Y641324D01*
X661684Y643944D01*
X659064Y645954D01*
X656014Y647217D01*
X652740Y647648D01*
X647740D01*
X644466Y647217D01*
X641416Y645954D01*
X638796Y643944D01*
X636786Y641324D01*
X635523Y638274D01*
X635396Y637313D01*
X626810Y628727D01*
X579000D01*
Y629800D01*
X558920D01*
Y610800D01*
X548163D01*
X547911Y612070D01*
X547983Y612099D01*
X549815Y613505D01*
X551221Y615337D01*
X552104Y617471D01*
X552155Y617855D01*
X543560D01*
X534965D01*
X535016Y617471D01*
X535899Y615337D01*
X537305Y613505D01*
X539137Y612099D01*
X539209Y612070D01*
X538956Y610800D01*
X512603D01*
X512351Y612070D01*
X512423Y612099D01*
X514255Y613505D01*
X515661Y615337D01*
X516544Y617471D01*
X516595Y617855D01*
X499405D01*
X499456Y617471D01*
X500339Y615337D01*
X501745Y613505D01*
X503577Y612099D01*
X503649Y612070D01*
X503396Y610800D01*
X492640D01*
Y629800D01*
X489240D01*
Y638120D01*
X491060D01*
Y639358D01*
X492330Y640266D01*
X493560Y640021D01*
X495527Y640412D01*
X497194Y641526D01*
X498308Y643194D01*
X498699Y645160D01*
X498308Y647126D01*
X497445Y648418D01*
Y659088D01*
X498535Y660178D01*
X500058Y660481D01*
X501725Y661595D01*
X502839Y663262D01*
X503230Y665228D01*
X503088Y665946D01*
X504887Y666304D01*
X506554Y667418D01*
X507668Y669085D01*
X508059Y671052D01*
X507668Y673018D01*
X506554Y674685D01*
X504887Y675799D01*
X502920Y676190D01*
X500953Y675799D01*
X500620Y675576D01*
X499350Y676255D01*
Y679295D01*
X494580D01*
Y683105D01*
X499350D01*
Y686995D01*
X525540D01*
Y673660D01*
X537620D01*
Y688740D01*
X537407D01*
Y690880D01*
Y733660D01*
X537620D01*
Y748740D01*
X537407D01*
Y755080D01*
X536963Y757310D01*
X536780Y757584D01*
Y763960D01*
X536780D01*
X537094Y765100D01*
X537620D01*
Y780180D01*
X537407D01*
Y825100D01*
X537620D01*
Y835104D01*
X538890Y835489D01*
X539675Y834315D01*
X539675Y834314D01*
Y810340D01*
X539971Y808853D01*
X540813Y807593D01*
X548669Y799737D01*
X548972Y798214D01*
X550086Y796546D01*
X551754Y795432D01*
X553720Y795041D01*
X554940Y795284D01*
X556210Y794371D01*
Y762000D01*
X556407Y761009D01*
X556969Y760169D01*
X557809Y759607D01*
X558800Y759410D01*
X571450D01*
Y731520D01*
X571647Y730529D01*
X572209Y729689D01*
X573049Y729127D01*
X574040Y728930D01*
X579382D01*
X579540Y728962D01*
X579701Y728950D01*
X580909Y729100D01*
X581240Y729210D01*
X581581Y729277D01*
X581715Y729367D01*
X581868Y729418D01*
X582132Y729645D01*
X582421Y729839D01*
X582511Y729973D01*
X582633Y730079D01*
X582789Y730389D01*
X582796Y730400D01*
X590400D01*
Y731670D01*
X592455D01*
Y738940D01*
Y746210D01*
X590400D01*
Y747480D01*
X589280D01*
Y747480D01*
Y795758D01*
X589197Y796174D01*
X589141Y796595D01*
X588760Y797708D01*
X588719Y797779D01*
X588703Y797861D01*
X588467Y798214D01*
X588253Y798582D01*
X588187Y798632D01*
X588141Y798701D01*
X587788Y798937D01*
X587580Y799096D01*
Y806184D01*
X587788Y806343D01*
X588141Y806579D01*
X588187Y806648D01*
X588253Y806698D01*
X588467Y807066D01*
X588703Y807419D01*
X588719Y807500D01*
X588760Y807572D01*
X589141Y808685D01*
X589197Y809106D01*
X589280Y809522D01*
Y821058D01*
X589251Y821206D01*
X589263Y821356D01*
X589123Y822568D01*
X589013Y822909D01*
X588943Y823261D01*
X588859Y823386D01*
X588813Y823530D01*
X588580Y823803D01*
X588381Y824101D01*
X588256Y824185D01*
X588158Y824300D01*
X587839Y824463D01*
X587820Y824476D01*
Y831604D01*
X587839Y831617D01*
X588158Y831780D01*
X588256Y831895D01*
X588381Y831979D01*
X588581Y832277D01*
X588813Y832550D01*
X588859Y832694D01*
X588943Y832819D01*
X589013Y833171D01*
X589123Y833512D01*
X589263Y834724D01*
X589251Y834874D01*
X589280Y835022D01*
Y878789D01*
Y878840D01*
X607010D01*
Y878585D01*
D02*
G37*
G36*
X756145Y728510D02*
X755775Y728357D01*
X755448Y728103D01*
X755165Y727748D01*
X754925Y727290D01*
X754729Y726732D01*
X754576Y726071D01*
X754467Y725309D01*
X754402Y724446D01*
X754380Y723481D01*
X749300D01*
X749278Y724446D01*
X749213Y725309D01*
X749104Y726071D01*
X748951Y726732D01*
X748755Y727290D01*
X748515Y727748D01*
X748232Y728103D01*
X747905Y728357D01*
X747535Y728510D01*
X747121Y728560D01*
X756560D01*
X756145Y728510D01*
D02*
G37*
G36*
X706120Y675640D02*
X687173D01*
X687133Y675189D01*
X687070Y672770D01*
X674370D01*
X674306Y675189D01*
X674267Y675640D01*
X579120D01*
Y720160D01*
X579320Y720329D01*
X579820Y720235D01*
X580590Y719740D01*
Y715845D01*
X584860D01*
Y713940D01*
X586765D01*
Y706670D01*
X588820D01*
X589130Y706670D01*
X590090D01*
X590400Y706670D01*
X592455D01*
Y713940D01*
X596265D01*
Y706670D01*
X598320D01*
Y705400D01*
X609400D01*
Y706120D01*
X609600D01*
Y721360D01*
X706120D01*
Y675640D01*
D02*
G37*
G36*
X754405Y708109D02*
X754482Y707240D01*
X754609Y706473D01*
X754786Y705809D01*
X755015Y705247D01*
X755294Y704787D01*
X755625Y704429D01*
X756006Y704173D01*
X756437Y704020D01*
X756920Y703969D01*
X746760D01*
X747243Y704020D01*
X747674Y704173D01*
X748055Y704429D01*
X748386Y704787D01*
X748665Y705247D01*
X748894Y705809D01*
X749071Y706473D01*
X749198Y707240D01*
X749275Y708109D01*
X749300Y709080D01*
X754380D01*
X754405Y708109D01*
D02*
G37*
G36*
X319251Y790085D02*
X320595Y789187D01*
X322181Y788872D01*
X324353D01*
X325159Y787890D01*
X325061Y787400D01*
X325452Y785434D01*
X326566Y783766D01*
X328233Y782652D01*
X329300Y782440D01*
X347607Y764133D01*
X347121Y762960D01*
X343920D01*
Y748880D01*
Y734880D01*
Y720880D01*
X386000D01*
Y734880D01*
Y748880D01*
Y759800D01*
X387500D01*
X425060Y722240D01*
X426404Y721342D01*
X427990Y721026D01*
X455320D01*
Y705430D01*
Y691234D01*
X454278Y690520D01*
X454050Y690555D01*
X452563Y690851D01*
X445509Y697905D01*
X444249Y698747D01*
X442762Y699043D01*
X334973D01*
X333487Y698747D01*
X332227Y697905D01*
X315343Y681021D01*
X314501Y679761D01*
X314441Y679460D01*
X293420D01*
Y678190D01*
X289665D01*
Y669420D01*
Y660650D01*
X293420D01*
Y659380D01*
X294911D01*
Y656975D01*
X294581Y655320D01*
X294667Y654890D01*
X293841Y653884D01*
X292680Y653620D01*
X291520D01*
Y653620D01*
X278946D01*
X278109Y654575D01*
X278207Y655320D01*
X277901Y657641D01*
X277005Y659803D01*
X275580Y661660D01*
X275522Y661705D01*
X275475Y662075D01*
X275683Y663183D01*
X276243Y663557D01*
X276832Y664439D01*
X277039Y665480D01*
Y830638D01*
X278213Y831124D01*
X319251Y790085D01*
D02*
G37*
G36*
X439179Y690003D02*
X438326Y689434D01*
X437212Y687766D01*
X436821Y685800D01*
X437212Y683833D01*
X437443Y683489D01*
Y679460D01*
X422449D01*
X421643Y680442D01*
X421699Y680720D01*
X421308Y682686D01*
X420194Y684354D01*
X418526Y685468D01*
X416560Y685859D01*
X414594Y685468D01*
X412926Y684354D01*
X411812Y682686D01*
X411421Y680720D01*
X411477Y680442D01*
X410671Y679460D01*
X407209D01*
X406403Y680442D01*
X406459Y680720D01*
X406068Y682686D01*
X404954Y684354D01*
X403287Y685468D01*
X401320Y685859D01*
X399353Y685468D01*
X397686Y684354D01*
X396572Y682686D01*
X396181Y680720D01*
X396237Y680442D01*
X395431Y679460D01*
X326429D01*
X325943Y680633D01*
X336583Y691273D01*
X438794D01*
X439179Y690003D01*
D02*
G37*
G36*
X475293Y668076D02*
Y658632D01*
X474023Y658246D01*
X473694Y658739D01*
X472014Y659862D01*
X470031Y660256D01*
X468049Y659862D01*
X466369Y658739D01*
X465246Y657059D01*
X464852Y655077D01*
Y652200D01*
X463980D01*
Y648640D01*
X458160D01*
X458160Y648640D01*
X457659Y648540D01*
X450160D01*
Y636460D01*
X464240D01*
Y638120D01*
X468451D01*
X468937Y636947D01*
X465153Y633162D01*
X464240Y633540D01*
Y633540D01*
X450160D01*
Y629155D01*
X448425D01*
Y636290D01*
X447155D01*
Y636290D01*
X444510D01*
Y639405D01*
X447155D01*
Y640020D01*
X446900D01*
Y640725D01*
X444380D01*
Y642630D01*
X443171D01*
Y645275D01*
X443170D01*
Y646545D01*
X433199D01*
X432713Y647718D01*
X439760Y654765D01*
X458714D01*
X460201Y655061D01*
X461461Y655903D01*
X474120Y668562D01*
X475293Y668076D01*
D02*
G37*
G36*
X304493Y661900D02*
X304102Y661747D01*
X303757Y661493D01*
X303458Y661138D01*
X303205Y660680D01*
X302998Y660122D01*
X302837Y659461D01*
X302722Y658699D01*
X302653Y657836D01*
X302630Y656870D01*
X297550D01*
X297534Y657836D01*
X297410Y659461D01*
X297300Y660122D01*
X297160Y660680D01*
X296989Y661138D01*
X296786Y661493D01*
X296552Y661747D01*
X296287Y661900D01*
X295991Y661951D01*
X304930D01*
X304493Y661900D01*
D02*
G37*
G36*
X302646Y655164D02*
X302770Y653539D01*
X302880Y652878D01*
X303020Y652319D01*
X303191Y651862D01*
X303394Y651507D01*
X303628Y651253D01*
X303893Y651100D01*
X304189Y651049D01*
X295250D01*
X295687Y651100D01*
X296078Y651253D01*
X296423Y651507D01*
X296722Y651862D01*
X296975Y652319D01*
X297182Y652878D01*
X297343Y653539D01*
X297458Y654301D01*
X297527Y655164D01*
X297550Y656130D01*
X302630D01*
X302646Y655164D01*
D02*
G37*
G36*
X687115Y654817D02*
X687473Y650885D01*
X687787Y649083D01*
X688190Y647390D01*
X688683Y645807D01*
X689265Y644332D01*
X689937Y642967D01*
X690698Y641712D01*
X691550Y640566D01*
X669891D01*
X670742Y641712D01*
X671503Y642967D01*
X672175Y644332D01*
X672757Y645807D01*
X673250Y647390D01*
X673653Y649083D01*
X673967Y650885D01*
X674191Y652796D01*
X674370Y656946D01*
X687070D01*
X687115Y654817D01*
D02*
G37*
G36*
X370030Y638027D02*
X369947Y637749D01*
X369949Y637427D01*
X370039Y637061D01*
X370214Y636652D01*
X370476Y636199D01*
X370824Y635703D01*
X371258Y635162D01*
X372385Y633951D01*
X370229Y631795D01*
X369602Y632402D01*
X368477Y633356D01*
X367981Y633704D01*
X367528Y633966D01*
X367119Y634141D01*
X366753Y634230D01*
X366431Y634234D01*
X366153Y634150D01*
X365919Y633981D01*
X370199Y638261D01*
X370030Y638027D01*
D02*
G37*
G36*
X262769Y661491D02*
X261475Y659803D01*
X260579Y657641D01*
X260273Y655320D01*
X260579Y652999D01*
X261475Y650837D01*
X262200Y649891D01*
Y641540D01*
X276280D01*
Y641540D01*
X277440Y641274D01*
Y640540D01*
X291520D01*
Y640540D01*
X292680D01*
Y640540D01*
X306760D01*
Y640540D01*
X307920Y640540D01*
Y640540D01*
X316506D01*
X317523Y639523D01*
X317037Y638350D01*
X316865D01*
Y633080D01*
X314960D01*
Y631175D01*
X309190D01*
Y629695D01*
X305490D01*
Y631175D01*
X299720D01*
X293950D01*
Y629695D01*
X290250D01*
Y631175D01*
X284480D01*
X278167D01*
X277440Y630874D01*
X276280Y632034D01*
Y638620D01*
X262200D01*
Y626540D01*
X270786D01*
X274263Y623063D01*
X275523Y622221D01*
X277010Y621925D01*
X320815D01*
X322301Y622221D01*
X323561Y623063D01*
X324147Y623648D01*
X325320Y623162D01*
Y616210D01*
X330540D01*
X340080Y606670D01*
X341129Y605969D01*
X340802Y604699D01*
X280526D01*
X256719Y628506D01*
Y662761D01*
X262459D01*
X262769Y661491D01*
D02*
G37*
G36*
X378690Y629220D02*
X378721Y625490D01*
X378697Y625625D01*
X378628Y625746D01*
X378515Y625853D01*
X378355Y625946D01*
X378151Y626024D01*
X377902Y626088D01*
X377608Y626138D01*
X377268Y626174D01*
X376454Y626202D01*
Y629250D01*
X378690Y629220D01*
D02*
G37*
G36*
X653810Y625118D02*
X652784Y625792D01*
X651592Y626121D01*
X650237Y626108D01*
X648717Y625751D01*
X647032Y625050D01*
X645183Y624007D01*
X643169Y622619D01*
X640991Y620888D01*
X638648Y618814D01*
X636141Y616396D01*
X628844Y627060D01*
X630509Y628746D01*
X637227Y636488D01*
X637802Y637383D01*
X638221Y638165D01*
X638485Y638834D01*
X653810Y625118D01*
D02*
G37*
G36*
X452730Y624030D02*
X452705Y624025D01*
X452629Y624020D01*
X451486Y624003D01*
X450191Y624000D01*
Y626540D01*
X450677Y626553D01*
X451113Y626591D01*
X451497Y626654D01*
X451831Y626743D01*
X452113Y626857D01*
X452345Y626997D01*
X452525Y627162D01*
X452655Y627353D01*
X452733Y627569D01*
X452761Y627810D01*
X452730Y624030D01*
D02*
G37*
G36*
X421027Y627569D02*
X421105Y627353D01*
X421235Y627162D01*
X421415Y626997D01*
X421647Y626857D01*
X421929Y626743D01*
X422263Y626654D01*
X422647Y626591D01*
X423083Y626553D01*
X423569Y626540D01*
Y624000D01*
X421030Y624030D01*
X420999Y627810D01*
X421027Y627569D01*
D02*
G37*
G36*
X361321Y619372D02*
X361290Y619662D01*
X361198Y619921D01*
X361044Y620149D01*
X360828Y620347D01*
X360551Y620515D01*
X360213Y620652D01*
X359813Y620759D01*
X359351Y620835D01*
X358827Y620881D01*
X358242Y620896D01*
Y623944D01*
X358827Y623959D01*
X359351Y624005D01*
X359813Y624081D01*
X360213Y624188D01*
X360551Y624325D01*
X360828Y624493D01*
X361044Y624691D01*
X361198Y624919D01*
X361290Y625178D01*
X361321Y625468D01*
Y619372D01*
D02*
G37*
G36*
X352860Y625178D02*
X352951Y624919D01*
X353104Y624691D01*
X353317Y624493D01*
X353591Y624325D01*
X353927Y624188D01*
X354323Y624081D01*
X354780Y624005D01*
X355298Y623959D01*
X355877Y623944D01*
Y620896D01*
X355298Y620881D01*
X354780Y620835D01*
X354323Y620759D01*
X353927Y620652D01*
X353591Y620515D01*
X353317Y620347D01*
X353104Y620149D01*
X352951Y619921D01*
X352860Y619662D01*
X352830Y619372D01*
Y625468D01*
X352860Y625178D01*
D02*
G37*
G36*
X402001Y618811D02*
X401767Y618980D01*
X401489Y619063D01*
X401167Y619060D01*
X400801Y618971D01*
X400392Y618796D01*
X399939Y618534D01*
X399443Y618186D01*
X398902Y617752D01*
X397691Y616625D01*
X395535Y618781D01*
X396142Y619408D01*
X397096Y620533D01*
X397444Y621029D01*
X397706Y621482D01*
X397881Y621891D01*
X397971Y622257D01*
X397974Y622579D01*
X397890Y622857D01*
X397721Y623091D01*
X402001Y618811D01*
D02*
G37*
G36*
X412314Y658110D02*
X411775Y657302D01*
X411381Y655320D01*
Y648540D01*
X409520D01*
Y641954D01*
X406043Y638477D01*
X405201Y637217D01*
X404905Y635730D01*
Y631790D01*
X395120D01*
Y622070D01*
X386794Y613744D01*
X379300D01*
Y616210D01*
X387200D01*
Y631790D01*
X380584D01*
X380184Y631870D01*
X378170D01*
X372800Y637240D01*
Y643460D01*
X358720D01*
Y631380D01*
X366940D01*
X368687Y629633D01*
X368201Y628460D01*
X358720D01*
Y626564D01*
X355400D01*
Y631790D01*
X344320D01*
Y616210D01*
X352220D01*
Y613744D01*
X344726D01*
X336400Y622070D01*
Y631790D01*
X326615D01*
Y639810D01*
X326409Y640845D01*
X327183Y642115D01*
X334820D01*
Y638210D01*
X345900D01*
Y653790D01*
X334820D01*
Y649885D01*
X322000D01*
Y653620D01*
X318845D01*
Y659380D01*
X411636D01*
X412314Y658110D01*
D02*
G37*
G36*
X576557Y627017D02*
X576937Y626827D01*
X577573Y626659D01*
X578461Y626513D01*
X579604Y626390D01*
X584557Y626155D01*
X589129Y626110D01*
Y613410D01*
X586716Y613399D01*
X577573Y612861D01*
X576937Y612693D01*
X576557Y612503D01*
X576429Y612290D01*
Y627229D01*
X576557Y627017D01*
D02*
G37*
G36*
X472560Y627922D02*
Y610800D01*
X449150D01*
Y612775D01*
X443880D01*
Y616585D01*
X449150D01*
Y620450D01*
X449958Y621385D01*
X454970D01*
X455345Y621460D01*
X464240D01*
Y624141D01*
X465510D01*
X466997Y624436D01*
X468257Y625279D01*
X471387Y628409D01*
X472560Y627922D01*
D02*
G37*
G36*
X376730Y612358D02*
X376822Y612099D01*
X376976Y611871D01*
X377192Y611673D01*
X377469Y611505D01*
X377807Y611368D01*
X378208Y611261D01*
X378669Y611185D01*
X379193Y611139D01*
X379777Y611124D01*
Y608076D01*
X379193Y608061D01*
X378669Y608015D01*
X378208Y607939D01*
X377807Y607832D01*
X377469Y607695D01*
X377192Y607527D01*
X376976Y607329D01*
X376822Y607101D01*
X376730Y606842D01*
X376699Y606552D01*
Y612648D01*
X376730Y612358D01*
D02*
G37*
G36*
X354790Y606552D02*
X354760Y606842D01*
X354669Y607101D01*
X354516Y607329D01*
X354303Y607527D01*
X354029Y607695D01*
X353693Y607832D01*
X353297Y607939D01*
X352840Y608015D01*
X352322Y608061D01*
X351743Y608076D01*
Y611124D01*
X352322Y611139D01*
X352840Y611185D01*
X353297Y611261D01*
X353693Y611368D01*
X354029Y611505D01*
X354303Y611673D01*
X354516Y611871D01*
X354669Y612099D01*
X354760Y612358D01*
X354790Y612648D01*
Y606552D01*
D02*
G37*
%LPC*%
G36*
X384610Y865935D02*
X382245D01*
Y861320D01*
X384610D01*
Y865935D01*
D02*
G37*
G36*
X521510Y854130D02*
X518145D01*
Y850265D01*
X521510D01*
Y854130D01*
D02*
G37*
G36*
X514335D02*
X510970D01*
Y850265D01*
X514335D01*
Y854130D01*
D02*
G37*
G36*
X616585Y922995D02*
Y916305D01*
X623275D01*
X623224Y916689D01*
X622341Y918823D01*
X620935Y920655D01*
X619103Y922061D01*
X616969Y922944D01*
X616585Y922995D01*
D02*
G37*
G36*
X413385D02*
Y916305D01*
X420075D01*
X420024Y916689D01*
X419141Y918823D01*
X417735Y920655D01*
X415903Y922061D01*
X413769Y922944D01*
X413385Y922995D01*
D02*
G37*
G36*
X612775D02*
X612391Y922944D01*
X610257Y922061D01*
X608425Y920655D01*
X607019Y918823D01*
X606136Y916689D01*
X606085Y916305D01*
X612775D01*
Y922995D01*
D02*
G37*
G36*
X409575D02*
X409191Y922944D01*
X407057Y922061D01*
X405225Y920655D01*
X403819Y918823D01*
X402936Y916689D01*
X402885Y916305D01*
X409575D01*
Y922995D01*
D02*
G37*
G36*
X782065Y918510D02*
X778325D01*
Y909645D01*
X782065D01*
Y918510D01*
D02*
G37*
G36*
X774515D02*
X770775D01*
Y909645D01*
X774515D01*
Y918510D01*
D02*
G37*
G36*
X758305D02*
X754565D01*
Y909645D01*
X758305D01*
Y918510D01*
D02*
G37*
G36*
X805945Y919588D02*
Y909645D01*
X815888D01*
X815726Y910871D01*
X814518Y913789D01*
X812595Y916295D01*
X810089Y918218D01*
X807171Y919426D01*
X805945Y919588D01*
D02*
G37*
G36*
X802135D02*
X800909Y919426D01*
X797991Y918218D01*
X795485Y916295D01*
X793562Y913789D01*
X792354Y910871D01*
X792192Y909645D01*
X802135D01*
Y919588D01*
D02*
G37*
G36*
X726945D02*
Y909645D01*
X736888D01*
X736726Y910871D01*
X735518Y913789D01*
X733595Y916295D01*
X731089Y918218D01*
X728171Y919426D01*
X726945Y919588D01*
D02*
G37*
G36*
X723135D02*
X721909Y919426D01*
X718991Y918218D01*
X716485Y916295D01*
X714562Y913789D01*
X713354Y910871D01*
X713192Y909645D01*
X723135D01*
Y919588D01*
D02*
G37*
G36*
X750755Y918510D02*
X747015D01*
Y909645D01*
X750755D01*
Y918510D01*
D02*
G37*
G36*
X623275Y912495D02*
X616585D01*
Y905805D01*
X616969Y905856D01*
X619103Y906739D01*
X620935Y908145D01*
X622341Y909977D01*
X623224Y912111D01*
X623275Y912495D01*
D02*
G37*
G36*
X420075D02*
X413385D01*
Y905805D01*
X413769Y905856D01*
X415903Y906739D01*
X417735Y908145D01*
X419141Y909977D01*
X420024Y912111D01*
X420075Y912495D01*
D02*
G37*
G36*
X612775D02*
X606085D01*
X606136Y912111D01*
X607019Y909977D01*
X608425Y908145D01*
X610257Y906739D01*
X612391Y905856D01*
X612775Y905805D01*
Y912495D01*
D02*
G37*
G36*
X409575D02*
X402885D01*
X402936Y912111D01*
X403819Y909977D01*
X405225Y908145D01*
X407057Y906739D01*
X409191Y905856D01*
X409575Y905805D01*
Y912495D01*
D02*
G37*
G36*
X700920Y924440D02*
X680840D01*
Y904360D01*
X700920D01*
Y924440D01*
D02*
G37*
G36*
X665480Y924527D02*
X662859Y924182D01*
X660417Y923170D01*
X658319Y921561D01*
X656710Y919463D01*
X655698Y917021D01*
X655353Y914400D01*
X655698Y911779D01*
X656710Y909337D01*
X658319Y907239D01*
X660417Y905630D01*
X662859Y904618D01*
X665480Y904273D01*
X668101Y904618D01*
X670543Y905630D01*
X672641Y907239D01*
X674250Y909337D01*
X675262Y911779D01*
X675607Y914400D01*
X675262Y917021D01*
X674250Y919463D01*
X672641Y921561D01*
X670543Y923170D01*
X668101Y924182D01*
X665480Y924527D01*
D02*
G37*
G36*
X640080D02*
X637459Y924182D01*
X635017Y923170D01*
X632919Y921561D01*
X631310Y919463D01*
X630298Y917021D01*
X629953Y914400D01*
X630298Y911779D01*
X631310Y909337D01*
X632919Y907239D01*
X635017Y905630D01*
X637459Y904618D01*
X640080Y904273D01*
X642701Y904618D01*
X645143Y905630D01*
X647241Y907239D01*
X648850Y909337D01*
X649862Y911779D01*
X650207Y914400D01*
X649862Y917021D01*
X648850Y919463D01*
X647241Y921561D01*
X645143Y923170D01*
X642701Y924182D01*
X640080Y924527D01*
D02*
G37*
G36*
X436880D02*
X434259Y924182D01*
X431817Y923170D01*
X429719Y921561D01*
X428110Y919463D01*
X427098Y917021D01*
X426753Y914400D01*
X427098Y911779D01*
X428110Y909337D01*
X429719Y907239D01*
X431817Y905630D01*
X434259Y904618D01*
X436880Y904273D01*
X439501Y904618D01*
X441943Y905630D01*
X444041Y907239D01*
X445650Y909337D01*
X446662Y911779D01*
X447007Y914400D01*
X446662Y917021D01*
X445650Y919463D01*
X444041Y921561D01*
X441943Y923170D01*
X439501Y924182D01*
X436880Y924527D01*
D02*
G37*
G36*
X355480Y924440D02*
X335400D01*
Y904360D01*
X339613D01*
Y897863D01*
X338400Y897460D01*
X337240D01*
X337130Y897460D01*
X336002D01*
X335196Y898442D01*
X335339Y899160D01*
X334948Y901126D01*
X333834Y902794D01*
X332166Y903908D01*
X330200Y904299D01*
X328233Y903908D01*
X326566Y902794D01*
X325452Y901126D01*
X325061Y899160D01*
X325204Y898442D01*
X324398Y897460D01*
X323160D01*
Y885380D01*
X337130D01*
X337240Y885380D01*
X338400D01*
X338510Y885380D01*
X352480D01*
Y897460D01*
X351267D01*
Y904360D01*
X355480D01*
Y924440D01*
D02*
G37*
G36*
X782065Y905835D02*
X778325D01*
Y896970D01*
X782065D01*
Y905835D01*
D02*
G37*
G36*
X774515D02*
X770775D01*
Y896970D01*
X774515D01*
Y905835D01*
D02*
G37*
G36*
X758305Y905835D02*
X754565D01*
Y896970D01*
X758305D01*
Y905835D01*
D02*
G37*
G36*
X750755D02*
X747015D01*
Y896970D01*
X750755D01*
Y905835D01*
D02*
G37*
G36*
X815888D02*
X805945D01*
Y895892D01*
X807171Y896054D01*
X810089Y897262D01*
X812595Y899185D01*
X814518Y901691D01*
X815726Y904609D01*
X815888Y905835D01*
D02*
G37*
G36*
X802135D02*
X792192D01*
X792354Y904609D01*
X793562Y901691D01*
X795485Y899185D01*
X797991Y897262D01*
X800909Y896054D01*
X802135Y895892D01*
Y905835D01*
D02*
G37*
G36*
X736888D02*
X726945D01*
Y895892D01*
X728171Y896054D01*
X731089Y897262D01*
X733595Y899185D01*
X735518Y901691D01*
X736726Y904609D01*
X736888Y905835D01*
D02*
G37*
G36*
X723135D02*
X713192D01*
X713354Y904609D01*
X714562Y901691D01*
X716485Y899185D01*
X718991Y897262D01*
X721909Y896054D01*
X723135Y895892D01*
Y905835D01*
D02*
G37*
G36*
X797805Y891010D02*
X791315D01*
Y883895D01*
X797805D01*
Y891010D01*
D02*
G37*
G36*
X737765D02*
X731275D01*
Y883895D01*
X737765D01*
Y891010D01*
D02*
G37*
G36*
X797805Y880085D02*
X791315D01*
Y872970D01*
X797805D01*
Y880085D01*
D02*
G37*
G36*
X737765D02*
X731275D01*
Y872970D01*
X737765D01*
Y880085D01*
D02*
G37*
G36*
X318570Y874360D02*
X316205D01*
Y869745D01*
X318570D01*
Y874360D01*
D02*
G37*
G36*
X833810Y865710D02*
X829945D01*
Y862845D01*
X833810D01*
Y865710D01*
D02*
G37*
G36*
X826135D02*
X822270D01*
Y862845D01*
X826135D01*
Y865710D01*
D02*
G37*
G36*
X803330D02*
X799465D01*
Y862845D01*
X803330D01*
Y865710D01*
D02*
G37*
G36*
X795655D02*
X791790D01*
Y862845D01*
X795655D01*
Y865710D01*
D02*
G37*
G36*
X849050D02*
X845185D01*
Y862345D01*
X849050D01*
Y865710D01*
D02*
G37*
G36*
X841375D02*
X837510D01*
Y862345D01*
X841375D01*
Y865710D01*
D02*
G37*
G36*
X726365Y862790D02*
X725250D01*
Y860425D01*
X726365D01*
Y862790D01*
D02*
G37*
G36*
X833810Y859035D02*
X829945D01*
Y856170D01*
X833810D01*
Y859035D01*
D02*
G37*
G36*
X826135D02*
X822270D01*
Y856170D01*
X826135D01*
Y859035D01*
D02*
G37*
G36*
X803330D02*
X799465D01*
Y856170D01*
X803330D01*
Y859035D01*
D02*
G37*
G36*
X795655D02*
X791790D01*
Y856170D01*
X795655D01*
Y859035D01*
D02*
G37*
G36*
X849050Y858535D02*
X845185D01*
Y855170D01*
X849050D01*
Y858535D01*
D02*
G37*
G36*
X841375D02*
X837510D01*
Y855170D01*
X841375D01*
Y858535D01*
D02*
G37*
G36*
X812800Y873819D02*
X810834Y873428D01*
X809166Y872314D01*
X808052Y870647D01*
X807661Y868680D01*
X807804Y867962D01*
X806999Y866980D01*
X805760D01*
Y854900D01*
X819840D01*
Y866980D01*
X818602D01*
X817796Y867962D01*
X817939Y868680D01*
X817548Y870647D01*
X816434Y872314D01*
X814766Y873428D01*
X812800Y873819D01*
D02*
G37*
G36*
X726365Y856615D02*
X725250D01*
Y854250D01*
X726365D01*
Y856615D01*
D02*
G37*
G36*
X786590Y855195D02*
X784225D01*
Y854080D01*
X786590D01*
Y855195D01*
D02*
G37*
G36*
X737290Y840310D02*
X733425D01*
Y836945D01*
X737290D01*
Y840310D01*
D02*
G37*
G36*
X729615D02*
X725750D01*
Y836945D01*
X729615D01*
Y840310D01*
D02*
G37*
G36*
X875870Y823650D02*
X872505D01*
Y819785D01*
X875870D01*
Y823650D01*
D02*
G37*
G36*
X868695D02*
X865330D01*
Y819785D01*
X868695D01*
Y823650D01*
D02*
G37*
G36*
X875870Y815975D02*
X872505D01*
Y812110D01*
X875870D01*
Y815975D01*
D02*
G37*
G36*
X868695D02*
X865330D01*
Y812110D01*
X868695D01*
Y815975D01*
D02*
G37*
G36*
X865505Y780755D02*
Y774065D01*
X872195D01*
X872144Y774449D01*
X871261Y776583D01*
X869855Y778415D01*
X868023Y779821D01*
X865889Y780704D01*
X865505Y780755D01*
D02*
G37*
G36*
X861695D02*
X861311Y780704D01*
X859177Y779821D01*
X857345Y778415D01*
X855939Y776583D01*
X855056Y774449D01*
X855005Y774065D01*
X861695D01*
Y780755D01*
D02*
G37*
G36*
X836470Y650930D02*
X833105D01*
Y647065D01*
X836470D01*
Y650930D01*
D02*
G37*
G36*
X829295D02*
X825930D01*
Y647065D01*
X829295D01*
Y650930D01*
D02*
G37*
G36*
X836470Y643255D02*
X833105D01*
Y639390D01*
X836470D01*
Y643255D01*
D02*
G37*
G36*
X829295D02*
X825930D01*
Y639390D01*
X829295D01*
Y643255D01*
D02*
G37*
G36*
X824865Y628355D02*
Y621665D01*
X831555D01*
X831504Y622049D01*
X830621Y624183D01*
X829215Y626015D01*
X827383Y627421D01*
X825249Y628304D01*
X824865Y628355D01*
D02*
G37*
G36*
X821055D02*
X820671Y628304D01*
X818537Y627421D01*
X816705Y626015D01*
X815299Y624183D01*
X814416Y622049D01*
X814365Y621665D01*
X821055D01*
Y628355D01*
D02*
G37*
G36*
X831555Y617855D02*
X824865D01*
Y611165D01*
X825249Y611216D01*
X827383Y612099D01*
X829215Y613505D01*
X830621Y615337D01*
X831504Y617471D01*
X831555Y617855D01*
D02*
G37*
G36*
X821055D02*
X814365D01*
X814416Y617471D01*
X815299Y615337D01*
X816705Y613505D01*
X818537Y612099D01*
X820671Y611216D01*
X821055Y611165D01*
Y617855D01*
D02*
G37*
G36*
X851740Y652200D02*
X838660D01*
Y638120D01*
X839373D01*
Y625261D01*
X839502Y624611D01*
X838578Y622381D01*
X838233Y619760D01*
X838578Y617139D01*
X839590Y614697D01*
X841199Y612599D01*
X843297Y610990D01*
X845739Y609978D01*
X848360Y609633D01*
X850981Y609978D01*
X853423Y610990D01*
X855521Y612599D01*
X857130Y614697D01*
X858142Y617139D01*
X858487Y619760D01*
X858142Y622381D01*
X857130Y624823D01*
X855521Y626921D01*
X853423Y628530D01*
X851027Y629523D01*
Y638120D01*
X851740D01*
Y652200D01*
D02*
G37*
%LPD*%
G36*
X351187Y906867D02*
X350647Y906676D01*
X350171Y906359D01*
X349758Y905915D01*
X349409Y905343D01*
X349123Y904644D01*
X348901Y903819D01*
X348742Y902867D01*
X348647Y901787D01*
X348620Y900771D01*
X348628Y900033D01*
X348822Y897176D01*
X348939Y896477D01*
X349081Y895906D01*
X349249Y895461D01*
X349444Y895144D01*
X349664Y894953D01*
X349910Y894890D01*
X340970D01*
X341216Y894953D01*
X341437Y895144D01*
X341631Y895461D01*
X341799Y895906D01*
X341941Y896477D01*
X342058Y897176D01*
X342149Y898001D01*
X342252Y900033D01*
X342260Y900771D01*
X342233Y901787D01*
X342138Y902867D01*
X341979Y903819D01*
X341757Y904644D01*
X341471Y905343D01*
X341122Y905915D01*
X340709Y906359D01*
X340233Y906676D01*
X339693Y906867D01*
X339090Y906930D01*
X351790D01*
X351187Y906867D01*
D02*
G37*
G36*
X814071Y866895D02*
X814550D01*
X814459Y866791D01*
X814377Y866669D01*
X814305Y866529D01*
X814243Y866370D01*
X814190Y866192D01*
X814147Y865996D01*
X814136Y865930D01*
X814184Y865639D01*
X814273Y865304D01*
X814388Y865022D01*
X814527Y864790D01*
X814692Y864610D01*
X814883Y864482D01*
X815099Y864405D01*
X815340Y864379D01*
X810260D01*
X810501Y864405D01*
X810717Y864482D01*
X810908Y864610D01*
X811073Y864790D01*
X811212Y865022D01*
X811327Y865304D01*
X811416Y865639D01*
X811464Y865930D01*
X811453Y865996D01*
X811410Y866192D01*
X811357Y866370D01*
X811295Y866529D01*
X811223Y866669D01*
X811141Y866791D01*
X811050Y866895D01*
X811529D01*
X811530Y866949D01*
X814070D01*
X814071Y866895D01*
D02*
G37*
G36*
X849018Y640627D02*
X848884Y640436D01*
X848764Y640119D01*
X848661Y639674D01*
X848574Y639103D01*
X848447Y637579D01*
X848375Y634341D01*
X842025D01*
X842017Y635547D01*
X841739Y639674D01*
X841636Y640119D01*
X841516Y640436D01*
X841381Y640627D01*
X841230Y640691D01*
X849169D01*
X849018Y640627D01*
D02*
G37*
G36*
X848400Y630982D02*
X848475Y630267D01*
X848599Y629616D01*
X848773Y629028D01*
X848997Y628503D01*
X849271Y628042D01*
X849595Y627644D01*
X849968Y627309D01*
X850391Y627038D01*
X850864Y626829D01*
X841374Y622489D01*
X841498Y622874D01*
X841608Y623365D01*
X841706Y623960D01*
X841862Y625465D01*
X841999Y628509D01*
X842025Y631062D01*
X848375Y631760D01*
X848400Y630982D01*
D02*
G37*
%LPC*%
G36*
X499350Y830735D02*
X496485D01*
Y826370D01*
X499350D01*
Y830735D01*
D02*
G37*
G36*
X492675D02*
X489810D01*
Y826370D01*
X492675D01*
Y830735D01*
D02*
G37*
G36*
X499350Y778910D02*
X496485D01*
Y774545D01*
X499350D01*
Y778910D01*
D02*
G37*
G36*
Y770735D02*
X496485D01*
Y766370D01*
X499350D01*
Y770735D01*
D02*
G37*
G36*
X521510Y762690D02*
X518145D01*
Y758825D01*
X521510D01*
Y762690D01*
D02*
G37*
G36*
X514335D02*
X510970D01*
Y758825D01*
X514335D01*
Y762690D01*
D02*
G37*
G36*
X521510Y755015D02*
X518145D01*
Y751150D01*
X521510D01*
Y755015D01*
D02*
G37*
G36*
X514335D02*
X510970D01*
Y751150D01*
X514335D01*
Y755015D01*
D02*
G37*
G36*
X499350Y747470D02*
X496485D01*
Y743105D01*
X499350D01*
Y747470D01*
D02*
G37*
G36*
Y739295D02*
X496485D01*
Y734930D01*
X499350D01*
Y739295D01*
D02*
G37*
G36*
X621870Y864290D02*
X618505D01*
Y860425D01*
X621870D01*
Y864290D01*
D02*
G37*
G36*
X614695D02*
X611330D01*
Y860425D01*
X614695D01*
Y864290D01*
D02*
G37*
G36*
X678170Y871230D02*
X662305D01*
Y859365D01*
X678170D01*
Y871230D01*
D02*
G37*
G36*
X658495D02*
X642630D01*
Y859365D01*
X658495D01*
Y871230D01*
D02*
G37*
G36*
X621870Y856615D02*
X618505D01*
Y852750D01*
X621870D01*
Y856615D01*
D02*
G37*
G36*
X614695D02*
X611330D01*
Y852750D01*
X614695D01*
Y856615D01*
D02*
G37*
G36*
X678170Y855555D02*
X662305D01*
Y843690D01*
X678170D01*
Y855555D01*
D02*
G37*
G36*
X658495D02*
X642630D01*
Y843690D01*
X658495D01*
Y855555D01*
D02*
G37*
G36*
X756860Y828470D02*
X753745D01*
Y823105D01*
X756860D01*
Y828470D01*
D02*
G37*
G36*
X749935D02*
X746820D01*
Y823105D01*
X747646D01*
X747658Y823113D01*
X747874Y823311D01*
X748028Y823539D01*
X748120Y823798D01*
X748151Y824088D01*
Y823105D01*
X749935D01*
Y828470D01*
D02*
G37*
G36*
X737290Y826310D02*
X733425D01*
Y822945D01*
X735959D01*
Y824088D01*
X735990Y823798D01*
X736082Y823539D01*
X736236Y823311D01*
X736452Y823113D01*
X736729Y822945D01*
X737290D01*
Y826310D01*
D02*
G37*
G36*
X729615D02*
X725750D01*
Y822945D01*
X729615D01*
Y826310D01*
D02*
G37*
G36*
X749935Y819295D02*
X748151D01*
Y817992D01*
X748120Y818281D01*
X748028Y818541D01*
X747874Y818769D01*
X747658Y818967D01*
X747381Y819135D01*
X747043Y819272D01*
X746957Y819295D01*
X746820D01*
Y813930D01*
X749935D01*
Y819295D01*
D02*
G37*
G36*
X737290Y819135D02*
X736729D01*
X736452Y818967D01*
X736236Y818769D01*
X736082Y818541D01*
X735990Y818281D01*
X735959Y817992D01*
Y819135D01*
X733425D01*
Y815770D01*
X737290D01*
Y819135D01*
D02*
G37*
G36*
X729615D02*
X725750D01*
Y815770D01*
X729615D01*
Y819135D01*
D02*
G37*
G36*
X756860Y819295D02*
X753745D01*
Y813930D01*
X756860D01*
Y819295D01*
D02*
G37*
G36*
X564635Y808410D02*
X561770D01*
Y804545D01*
X564635D01*
Y808410D01*
D02*
G37*
G36*
Y800735D02*
X561770D01*
Y796870D01*
X564635D01*
Y800735D01*
D02*
G37*
G36*
X738710Y772850D02*
X735345D01*
Y768985D01*
X738710D01*
Y772850D01*
D02*
G37*
G36*
X731535D02*
X728170D01*
Y768985D01*
X731535D01*
Y772850D01*
D02*
G37*
G36*
X738710Y765175D02*
X735345D01*
Y761310D01*
X738710D01*
Y765175D01*
D02*
G37*
G36*
X731535D02*
X728170D01*
Y761310D01*
X731535D01*
Y765175D01*
D02*
G37*
G36*
X734860Y757300D02*
X730745D01*
Y744185D01*
X734860D01*
Y757300D01*
D02*
G37*
G36*
X678170Y802230D02*
X662305D01*
Y790365D01*
X678170D01*
Y802230D01*
D02*
G37*
G36*
X658495D02*
X642630D01*
Y790365D01*
X658495D01*
Y802230D01*
D02*
G37*
G36*
X678170Y786555D02*
X662305D01*
Y774690D01*
X678170D01*
Y786555D01*
D02*
G37*
G36*
X658495D02*
X642630D01*
Y774690D01*
X658495D01*
Y786555D01*
D02*
G37*
G36*
X702670Y768710D02*
X662305D01*
Y756345D01*
X702670D01*
Y768710D01*
D02*
G37*
G36*
X658495D02*
X618130D01*
Y756345D01*
X658495D01*
Y768710D01*
D02*
G37*
G36*
X608130Y746210D02*
X605765D01*
Y740845D01*
X608130D01*
Y746210D01*
D02*
G37*
G36*
X702670Y752535D02*
X662305D01*
Y740170D01*
X702670D01*
Y752535D01*
D02*
G37*
G36*
X658495D02*
X618130D01*
Y740170D01*
X658495D01*
Y752535D01*
D02*
G37*
G36*
X579875Y833810D02*
X577010D01*
Y829945D01*
X579875D01*
Y833810D01*
D02*
G37*
G36*
Y826135D02*
X577010D01*
Y822270D01*
X579875D01*
Y826135D01*
D02*
G37*
G36*
X579635Y808410D02*
X576770D01*
Y804545D01*
X579635D01*
Y808410D01*
D02*
G37*
G36*
Y800735D02*
X576770D01*
Y796870D01*
X579635D01*
Y800735D01*
D02*
G37*
G36*
X600695Y864290D02*
X597330D01*
Y860425D01*
X600695D01*
Y864290D01*
D02*
G37*
G36*
Y856615D02*
X597330D01*
Y852750D01*
X600695D01*
Y856615D01*
D02*
G37*
G36*
X601550Y833810D02*
X598685D01*
Y829945D01*
X601550D01*
Y833810D01*
D02*
G37*
G36*
X594875D02*
X592010D01*
Y829945D01*
X594875D01*
Y833810D01*
D02*
G37*
G36*
X601550Y826135D02*
X598685D01*
Y822270D01*
X601550D01*
Y826135D01*
D02*
G37*
G36*
X594875D02*
X592010D01*
Y822270D01*
X594875D01*
Y826135D01*
D02*
G37*
G36*
X717535Y772850D02*
X714170D01*
Y768985D01*
X717535D01*
Y772850D01*
D02*
G37*
G36*
X762015Y765175D02*
X758650D01*
Y761310D01*
X762015D01*
Y765175D01*
D02*
G37*
G36*
X717535Y765175D02*
X714170D01*
Y761310D01*
X717535D01*
Y765175D01*
D02*
G37*
G36*
X772935Y757300D02*
X768820D01*
Y744185D01*
X772935D01*
Y757300D01*
D02*
G37*
G36*
Y740375D02*
X768820D01*
Y727260D01*
X772935D01*
Y740375D01*
D02*
G37*
G36*
X570215Y696650D02*
X566850D01*
Y692785D01*
X570215D01*
Y696650D01*
D02*
G37*
G36*
Y688975D02*
X566850D01*
Y685110D01*
X570215D01*
Y688975D01*
D02*
G37*
G36*
X545465Y628355D02*
Y621665D01*
X552155D01*
X552104Y622049D01*
X551221Y624183D01*
X549815Y626015D01*
X547983Y627421D01*
X545849Y628304D01*
X545465Y628355D01*
D02*
G37*
G36*
X509905D02*
Y621665D01*
X516595D01*
X516544Y622049D01*
X515661Y624183D01*
X514255Y626015D01*
X512423Y627421D01*
X510289Y628304D01*
X509905Y628355D01*
D02*
G37*
G36*
X506095D02*
X505711Y628304D01*
X503577Y627421D01*
X501745Y626015D01*
X500339Y624183D01*
X499456Y622049D01*
X499405Y621665D01*
X506095D01*
Y628355D01*
D02*
G37*
G36*
X541655D02*
X541271Y628304D01*
X539137Y627421D01*
X537305Y626015D01*
X535899Y624183D01*
X535016Y622049D01*
X534965Y621665D01*
X541655D01*
Y628355D01*
D02*
G37*
G36*
X582955Y712035D02*
X580590D01*
Y706670D01*
X582955D01*
Y712035D01*
D02*
G37*
G36*
X702670Y712710D02*
X662305D01*
Y700345D01*
X702670D01*
Y712710D01*
D02*
G37*
G36*
X658495D02*
X618130D01*
Y700345D01*
X658495D01*
Y712710D01*
D02*
G37*
G36*
X591390Y696650D02*
X588025D01*
Y692785D01*
X591390D01*
Y696650D01*
D02*
G37*
G36*
X584215D02*
X580850D01*
Y692785D01*
X584215D01*
Y696650D01*
D02*
G37*
G36*
X591390Y688975D02*
X588025D01*
Y685110D01*
X591390D01*
Y688975D01*
D02*
G37*
G36*
X584215D02*
X580850D01*
Y685110D01*
X584215D01*
Y688975D01*
D02*
G37*
G36*
X702670Y696535D02*
X662305D01*
Y684170D01*
X671430D01*
X671258Y684355D01*
X670306Y684992D01*
X669227Y685374D01*
X668020Y685501D01*
X693420D01*
X692214Y685374D01*
X691134Y684992D01*
X690182Y684355D01*
X690010Y684170D01*
X702670D01*
Y696535D01*
D02*
G37*
G36*
X658495D02*
X618130D01*
Y684170D01*
X658495D01*
Y696535D01*
D02*
G37*
G36*
X285855Y678190D02*
X281990D01*
Y671325D01*
X285855D01*
Y678190D01*
D02*
G37*
G36*
Y667515D02*
X281990D01*
Y660650D01*
X285855D01*
Y667515D01*
D02*
G37*
G36*
X446900Y645275D02*
X446285D01*
Y644535D01*
X446900D01*
Y645275D01*
D02*
G37*
G36*
X305490Y638350D02*
X301625D01*
Y634985D01*
X305490D01*
Y638350D01*
D02*
G37*
G36*
X290250D02*
X286385D01*
Y634985D01*
X290250D01*
Y638350D01*
D02*
G37*
G36*
X297815D02*
X293950D01*
Y634985D01*
X297815D01*
Y638350D01*
D02*
G37*
G36*
X282575D02*
X278710D01*
Y634985D01*
X282575D01*
Y638350D01*
D02*
G37*
G36*
X313055Y638350D02*
X309190D01*
Y634985D01*
X313055D01*
Y638350D01*
D02*
G37*
G36*
X396700Y653790D02*
X385620D01*
Y638210D01*
X396700D01*
Y641275D01*
X398062D01*
X399353Y640412D01*
X401320Y640021D01*
X403287Y640412D01*
X404954Y641526D01*
X406068Y643194D01*
X406459Y645160D01*
X406068Y647126D01*
X404954Y648794D01*
X403287Y649908D01*
X401320Y650299D01*
X399353Y649908D01*
X398062Y649045D01*
X396700D01*
Y653790D01*
D02*
G37*
%LPD*%
D10*
X486858Y767237D02*
X487799Y766296D01*
Y702896D02*
X493562Y697133D01*
X487799Y702896D02*
Y766296D01*
X478640Y771040D02*
X484486Y765194D01*
Y645694D02*
X485020Y645160D01*
X484486Y645694D02*
Y765194D01*
X489298Y690915D02*
X489332Y690880D01*
X531580D01*
X473290Y771040D02*
X478640D01*
X465360Y775970D02*
X468360D01*
X473290Y771040D01*
X486858Y767237D02*
Y821896D01*
X474642Y696744D02*
X476130Y695256D01*
X458714Y658650D02*
X476130Y676066D01*
Y695256D01*
X465360Y699770D02*
X468386Y696744D01*
X479178Y651943D02*
Y704462D01*
X468386Y696744D02*
X474642D01*
X439380Y634619D02*
X442240Y637480D01*
X444490D02*
X444510Y637500D01*
X439380Y627380D02*
Y634619D01*
X442240Y637480D02*
X444490D01*
X439380Y619680D02*
X443880Y615180D01*
Y614680D02*
Y615180D01*
X439380Y619680D02*
Y627380D01*
X767132Y851828D02*
Y857048D01*
X767080Y857100D02*
X767132Y857048D01*
Y851828D02*
X767184Y851776D01*
X759002Y851358D02*
X767080Y843280D01*
X759002Y851358D02*
Y871678D01*
X767080Y777240D02*
Y843280D01*
X807720Y807720D02*
X812720Y802720D01*
X831220D01*
X831450Y802490D01*
X837574D01*
X839490Y800574D01*
Y797560D02*
Y800574D01*
X831220Y807720D02*
X831450Y807490D01*
X838430D02*
X843280Y802640D01*
X831450Y807490D02*
X838430D01*
X822720Y780720D02*
Y784220D01*
Y780720D02*
X822950Y780490D01*
X840030D01*
X848360Y772160D01*
X824263Y766553D02*
X848291D01*
X866142Y759450D02*
X874962Y750629D01*
X846855Y763505D02*
X863600Y746760D01*
X813990Y770776D02*
Y771826D01*
X821261Y763505D02*
X846855D01*
X818268Y772548D02*
X824263Y766553D01*
X848291D02*
X855394Y759450D01*
X866142D01*
X813990Y770776D02*
X821261Y763505D01*
X812950Y777866D02*
X818268Y772548D01*
X807950Y777866D02*
X813990Y771826D01*
X782860Y746220D02*
X807720Y721360D01*
X782860Y746220D02*
Y761460D01*
X338560Y844420D02*
X340360Y842620D01*
Y833120D02*
Y842620D01*
X543308Y837948D02*
X543560Y837697D01*
Y810340D02*
Y837697D01*
X548640Y812800D02*
X553720Y807720D01*
X548640Y812800D02*
Y843280D01*
X543560Y810340D02*
X553720Y800180D01*
X797485Y773275D02*
Y773985D01*
X792480Y768270D02*
X797485Y773275D01*
Y773985D02*
X799450Y775950D01*
X805574D01*
X812950Y777866D02*
Y783990D01*
X812720Y784220D02*
X812950Y783990D01*
X807950Y777866D02*
Y783990D01*
X325120Y843680D02*
X325860Y844420D01*
X325120Y833120D02*
Y843680D01*
X805574Y775950D02*
X807490Y777866D01*
X493560Y645160D02*
Y660697D01*
X498092Y665228D01*
X474400Y709240D02*
X479178Y704462D01*
X465510Y628026D02*
X476790Y639305D01*
X468590Y709240D02*
X474400D01*
X476790Y639305D02*
Y649555D01*
X438151Y658650D02*
X458714D01*
X465360Y712470D02*
X468590Y709240D01*
X476790Y649555D02*
X479178Y651943D01*
X334973Y695158D02*
X442762D01*
X452120Y685800D01*
X318090Y678275D02*
X334973Y695158D01*
X833120Y822950D02*
Y833120D01*
X832890Y822720D02*
X833120Y822950D01*
X831220Y822720D02*
X832890D01*
X767080Y777240D02*
X782860Y761460D01*
X831220Y817720D02*
X856760D01*
X831260Y812760D02*
X843240D01*
X843280Y812800D01*
X831220Y812720D02*
X831260Y812760D01*
X863600Y721360D02*
X874962Y732722D01*
Y750629D01*
X807720Y784220D02*
X807950Y783990D01*
X470564Y838190D02*
X486858Y821896D01*
X434380Y627380D02*
Y642630D01*
Y619680D02*
Y627380D01*
X429880Y615180D02*
X434380Y619680D01*
X427150Y617910D02*
X429880Y615180D01*
X413526Y617910D02*
X427150D01*
X408790Y622645D02*
Y635730D01*
X415560Y642500D01*
X408790Y622645D02*
X413526Y617910D01*
X415560Y642500D02*
X416560D01*
X457725Y628026D02*
X465510D01*
X457200Y627500D02*
X457725Y628026D01*
X417675Y626385D02*
Y627615D01*
Y626385D02*
X418790Y625270D01*
X424615Y645114D02*
X438151Y658650D01*
X424615Y634555D02*
Y645114D01*
X417675Y627615D02*
X424615Y634555D01*
X418790Y625270D02*
X427355D01*
X434360Y642650D02*
X434380Y642630D01*
X427355Y625270D02*
X429380Y627295D01*
Y627380D01*
X452860Y844420D02*
X495924D01*
X500765Y839580D01*
X531580D01*
X456090Y838190D02*
X470564D01*
X452860Y841420D02*
X456090Y838190D01*
X452860Y841420D02*
Y844420D01*
X392000Y645160D02*
X401320D01*
X391160Y646000D02*
X392000Y645160D01*
X318090Y677350D02*
Y678275D01*
X313160Y669420D02*
Y672420D01*
X318090Y677350D01*
X316540Y646000D02*
X340360D01*
X316040D02*
X316540D01*
X322730Y639810D01*
X314960Y647080D02*
X316040Y646000D01*
X270240Y632580D02*
X277010Y625810D01*
X269240Y632580D02*
X270240D01*
X277010Y625810D02*
X320815D01*
X322730Y627725D01*
Y639810D01*
X313160Y669420D02*
X314960Y667620D01*
Y647080D02*
Y667620D01*
X444380Y627295D02*
X446405Y625270D01*
X454970D01*
X457200Y627500D01*
X444380Y627295D02*
Y627380D01*
X812800Y860940D02*
Y868680D01*
Y860940D02*
X812800Y860940D01*
X828040Y845940D02*
X842780D01*
X843280Y846440D01*
X845940Y833120D02*
Y843780D01*
X843280Y846440D02*
X845940Y843780D01*
X807490Y831450D02*
Y837574D01*
X799790Y843710D02*
X801355D01*
X807490Y831450D02*
X807720Y831220D01*
X801355Y843710D02*
X807490Y837574D01*
X797560Y845940D02*
X799790Y843710D01*
X813800Y845940D02*
X817720Y842020D01*
Y831220D02*
Y842020D01*
X812800Y845940D02*
X813800D01*
X822720Y841620D02*
X827040Y845940D01*
X822720Y831220D02*
Y841620D01*
X827040Y845940D02*
X828040D01*
X831220Y817720D02*
Y822720D01*
D16*
X350960Y741920D02*
D03*
Y755920D02*
D03*
X364960D02*
D03*
X378960D02*
D03*
Y741920D02*
D03*
Y727920D02*
D03*
X364960D02*
D03*
X350960D02*
D03*
X364960Y741920D02*
D03*
D17*
X287760Y844420D02*
D03*
X300460D02*
D03*
X313160D02*
D03*
X325860D02*
D03*
X338560D02*
D03*
X351260D02*
D03*
X363960D02*
D03*
X376660D02*
D03*
X389360D02*
D03*
X402060D02*
D03*
X414760D02*
D03*
X427460D02*
D03*
X440160D02*
D03*
X452860D02*
D03*
Y669420D02*
D03*
X440160D02*
D03*
X427460D02*
D03*
X414760D02*
D03*
X402060D02*
D03*
X389360D02*
D03*
X376660D02*
D03*
X363960D02*
D03*
X351260D02*
D03*
X338560D02*
D03*
X325860D02*
D03*
X313160D02*
D03*
X300460D02*
D03*
X287760D02*
D03*
D18*
X465360Y826770D02*
D03*
Y814070D02*
D03*
Y801370D02*
D03*
Y788670D02*
D03*
Y775970D02*
D03*
Y763270D02*
D03*
Y750570D02*
D03*
Y737870D02*
D03*
Y725170D02*
D03*
Y712470D02*
D03*
Y699770D02*
D03*
Y687070D02*
D03*
D19*
X660400Y857460D02*
D03*
Y788460D02*
D03*
D20*
X763920Y767080D02*
D03*
X749920D02*
D03*
X516240Y756920D02*
D03*
X530240D02*
D03*
X602600Y858520D02*
D03*
X616600D02*
D03*
X516240Y848360D02*
D03*
X530240D02*
D03*
X572120Y690880D02*
D03*
X586120D02*
D03*
X443880Y614680D02*
D03*
X429880D02*
D03*
X719440Y767080D02*
D03*
X733440D02*
D03*
X856600Y817880D02*
D03*
X870600D02*
D03*
X831200Y645160D02*
D03*
X845200D02*
D03*
D21*
X751840Y821200D02*
D03*
Y855200D02*
D03*
D22*
X767080Y863600D02*
D03*
Y857100D02*
D03*
X782320D02*
D03*
Y863600D02*
D03*
D23*
X831220Y792720D02*
D03*
Y797720D02*
D03*
Y802720D02*
D03*
Y807720D02*
D03*
Y812720D02*
D03*
Y817720D02*
D03*
Y822720D02*
D03*
X784220D02*
D03*
Y817720D02*
D03*
Y812720D02*
D03*
Y807720D02*
D03*
Y802720D02*
D03*
Y797720D02*
D03*
Y792720D02*
D03*
D24*
X822720Y831220D02*
D03*
X817720D02*
D03*
X812720D02*
D03*
X807720D02*
D03*
X802720D02*
D03*
X797720D02*
D03*
X792720D02*
D03*
Y784220D02*
D03*
X797720D02*
D03*
X802720D02*
D03*
X807720D02*
D03*
X812720D02*
D03*
X817720D02*
D03*
X822720D02*
D03*
D25*
X807720Y807720D02*
D03*
D26*
X774840Y742280D02*
D03*
X751840D02*
D03*
X728840D02*
D03*
D27*
X751840Y690280D02*
D03*
D28*
X603860Y738940D02*
D03*
X594360D02*
D03*
X584860D02*
D03*
Y713940D02*
D03*
X594360D02*
D03*
X603860D02*
D03*
D29*
X429260Y632500D02*
D03*
Y637500D02*
D03*
X444510D02*
D03*
Y632500D02*
D03*
D30*
X429380Y642630D02*
D03*
X434380D02*
D03*
X439380D02*
D03*
X444380D02*
D03*
Y627380D02*
D03*
X439380D02*
D03*
X434380D02*
D03*
X429380D02*
D03*
D31*
X751540Y881140D02*
D03*
X758040D02*
D03*
X764540D02*
D03*
X771040D02*
D03*
X777540D02*
D03*
D32*
X739670Y881990D02*
D03*
X789410D02*
D03*
D33*
X752660Y907740D02*
D03*
X776420D02*
D03*
D34*
X361340Y867840D02*
D03*
X380340D02*
D03*
X370840Y889840D02*
D03*
X340360Y646000D02*
D03*
X349860Y624000D02*
D03*
X330860D02*
D03*
X391160Y646000D02*
D03*
X400660Y624000D02*
D03*
X381660D02*
D03*
X304800Y889840D02*
D03*
X314300Y867840D02*
D03*
X295300D02*
D03*
D35*
X457200Y627500D02*
D03*
Y642500D02*
D03*
X269240Y632580D02*
D03*
Y647580D02*
D03*
X365760Y637420D02*
D03*
Y622420D02*
D03*
X828040Y845940D02*
D03*
Y860940D02*
D03*
X812800Y845940D02*
D03*
Y860940D02*
D03*
X797560Y845940D02*
D03*
Y860940D02*
D03*
X279400Y891420D02*
D03*
Y876420D02*
D03*
X264160Y891420D02*
D03*
Y876420D02*
D03*
X345440Y891420D02*
D03*
Y876420D02*
D03*
X330200Y891420D02*
D03*
Y876420D02*
D03*
X416560Y642500D02*
D03*
Y627500D02*
D03*
D36*
X494580Y772640D02*
D03*
Y832640D02*
D03*
X531580Y772640D02*
D03*
Y832640D02*
D03*
Y741200D02*
D03*
Y681200D02*
D03*
X494580Y741200D02*
D03*
Y681200D02*
D03*
D37*
X660400Y698440D02*
D03*
Y754440D02*
D03*
D38*
X358260Y609600D02*
D03*
X373260D02*
D03*
X845940Y833120D02*
D03*
X860940D02*
D03*
X470020Y645160D02*
D03*
X485020D02*
D03*
X566540Y802640D02*
D03*
X581540D02*
D03*
X581780Y828040D02*
D03*
X596780D02*
D03*
D39*
X843280Y846440D02*
D03*
Y860440D02*
D03*
X284480Y647080D02*
D03*
Y633080D02*
D03*
X299720Y647080D02*
D03*
Y633080D02*
D03*
X314960Y633080D02*
D03*
Y647080D02*
D03*
X731520Y821040D02*
D03*
Y835040D02*
D03*
D40*
X728270Y858520D02*
D03*
X734770D02*
D03*
D69*
X568960Y619760D02*
X630525D01*
X680720Y635000D02*
Y691790D01*
X674070Y698440D02*
X680720Y691790D01*
X660400Y698440D02*
X674070D01*
X645765Y635000D02*
X650240D01*
X630525Y619760D02*
X645765Y635000D01*
X751840Y670560D02*
Y690280D01*
D70*
X413397Y606656D02*
X718416D01*
X330860Y621750D02*
Y624000D01*
Y621750D02*
X343010Y609600D01*
X492508Y706372D02*
X502668Y716532D01*
Y716532D01*
X492508Y706372D02*
X492508D01*
X499076Y702276D02*
X508000Y711200D01*
X477821Y731980D02*
X478349D01*
X474907Y734894D02*
X477821Y731980D01*
X468336Y734894D02*
X474907D01*
X817880Y737452D02*
X818253Y737079D01*
X824878D02*
X825357Y736600D01*
X818253Y737079D02*
X824878D01*
X805969Y732920D02*
X821560D01*
X825357Y736600D02*
X828040D01*
X821560Y732920D02*
X833120Y721360D01*
X828040Y736600D02*
X830833Y739393D01*
Y744473D02*
X833120Y746760D01*
X830833Y739393D02*
Y744473D01*
X775256Y790200D02*
Y866102D01*
Y790200D02*
X786162Y779294D01*
Y752728D02*
X805969Y732920D01*
X786162Y752728D02*
Y779294D01*
X775796Y868874D02*
X781070Y863600D01*
X772484Y868874D02*
X775256Y866102D01*
X772484Y868874D02*
X775796D01*
X781070Y863600D02*
X782320D01*
X848360Y685800D02*
Y751840D01*
X843280Y680720D02*
X848360Y685800D01*
X792480Y680720D02*
X843280D01*
X718416Y606656D02*
X792480Y680720D01*
X797560Y619760D02*
Y670560D01*
X410453Y609600D02*
X413397Y606656D01*
X388510Y609600D02*
X410453D01*
X436395Y778900D02*
Y828525D01*
Y778900D02*
X452025Y763270D01*
X452860Y672420D02*
X455836Y675396D01*
X462036D01*
X452860Y669420D02*
Y672420D01*
X462036Y675396D02*
X462280Y675640D01*
X493006Y670806D02*
X502674D01*
X492760Y670560D02*
X493006Y670806D01*
X502674D02*
X502920Y671052D01*
X441586Y685426D02*
X441960Y685800D01*
X441586Y670846D02*
Y685426D01*
X440160Y669420D02*
X441586Y670846D01*
X750814Y880414D02*
X751540Y881140D01*
X750814Y872734D02*
Y880414D01*
X741680Y863600D02*
X750814Y872734D01*
X759002Y871678D02*
X765604Y865076D01*
X769172Y868874D02*
X772484D01*
X765604Y863826D02*
Y865076D01*
Y863826D02*
X765830Y863600D01*
X758040Y881140D02*
X758766Y880414D01*
X759002Y871678D02*
Y872544D01*
X758766Y872780D02*
X759002Y872544D01*
X758766Y872780D02*
Y880414D01*
X765830Y863600D02*
X767080D01*
X465360Y737870D02*
X468336Y734894D01*
X416186Y670846D02*
Y680347D01*
X414760Y669420D02*
X416186Y670846D01*
Y680347D02*
X416560Y680720D01*
X401690Y669790D02*
Y680350D01*
Y669790D02*
X402060Y669420D01*
X401320Y680720D02*
X401690Y680350D01*
X388510Y609600D02*
X400660Y621750D01*
Y624000D01*
X452025Y763270D02*
X465360D01*
X330200Y787400D02*
X353656Y763944D01*
X389216D01*
X322181Y793015D02*
X334745D01*
X360260Y767500D01*
X279736Y835460D02*
X322181Y793015D01*
X389216Y763944D02*
X427990Y725170D01*
X360260Y767500D02*
X390740D01*
X407670Y750570D01*
X465360D01*
X427990Y725170D02*
X465360D01*
X279736Y835460D02*
Y848024D01*
X264160Y863600D02*
X279736Y848024D01*
X330200Y891420D02*
X330200Y891420D01*
Y899160D01*
X264160Y891420D02*
X264160Y891420D01*
Y899160D01*
X343010Y609600D02*
X358260D01*
X373260D02*
X388510D01*
X366760Y637420D02*
X376454Y627726D01*
X380184D01*
X381660Y624000D02*
Y626250D01*
X365760Y637420D02*
X366760D01*
X380184Y627726D02*
X381660Y626250D01*
X349860Y623896D02*
X351336Y622420D01*
X365760D01*
X349860Y623896D02*
Y624000D01*
X731520Y821040D02*
X751680D01*
X751840Y821200D01*
X751540Y881140D02*
X751690Y880990D01*
X736840Y855200D02*
X751840D01*
X734770Y857270D02*
X736840Y855200D01*
X734770Y857270D02*
Y858520D01*
X765266Y872780D02*
X769172Y868874D01*
X765266Y872780D02*
Y880414D01*
X764540Y881140D02*
X765266Y880414D01*
D71*
X860940Y833120D02*
X868680D01*
X860940Y833120D02*
X860940Y833120D01*
X745690Y863600D02*
X751840Y857450D01*
X741680Y863600D02*
X745690D01*
X751840Y855200D02*
Y857450D01*
X863600Y802640D02*
X883920D01*
X858060Y808180D02*
Y816420D01*
Y808180D02*
X863600Y802640D01*
X856600Y817880D02*
X858060Y816420D01*
X484060Y621220D02*
Y644200D01*
X485020Y645160D01*
X482600Y619760D02*
X484060Y621220D01*
X470020Y645160D02*
X470031Y645171D01*
Y655077D01*
X470020Y644420D02*
Y645160D01*
X416560Y642500D02*
Y655320D01*
X416560Y642500D02*
X416560Y642500D01*
X300090Y647450D02*
Y669050D01*
X269490Y647330D02*
X299470D01*
X300090Y669050D02*
X300460Y669420D01*
X469060Y643460D02*
X470020Y644420D01*
X457200Y642500D02*
X458160Y643460D01*
X469060D01*
X299720Y647080D02*
X300090Y647450D01*
X751840Y690280D02*
Y742280D01*
X749920Y767080D02*
X750880Y766120D01*
Y743240D02*
Y766120D01*
Y743240D02*
X751840Y742280D01*
X299470Y647330D02*
X299720Y647080D01*
X269240Y647580D02*
X269490Y647330D01*
D72*
X531580Y839580D02*
Y846520D01*
Y832640D02*
Y839580D01*
Y690880D02*
Y741200D01*
Y681200D02*
Y690880D01*
X427295Y879415D02*
X462280Y914400D01*
X370840Y879415D02*
X427295D01*
X366483Y857415D02*
X370840Y861771D01*
X309156Y857415D02*
X366483D01*
X304800Y861771D02*
X309156Y857415D01*
X331525Y875016D02*
X338796Y867745D01*
X361245D01*
X331525Y875016D02*
Y876095D01*
X331200Y876420D02*
X331525Y876095D01*
X357346Y879415D02*
X370840D01*
X304800Y861771D02*
Y873908D01*
X290156Y878265D02*
X300443D01*
X279725Y876745D02*
X288636D01*
X300443Y878265D02*
X304800Y873908D01*
X279400Y876420D02*
X279725Y876745D01*
X288636D02*
X290156Y878265D01*
X370840Y861771D02*
Y879415D01*
X354677Y876745D02*
X357346Y879415D01*
X345765Y876745D02*
X354677D01*
X345440Y876420D02*
X345765Y876745D01*
X462280Y914400D02*
X538480D01*
X563880Y889000D01*
X845200Y625261D02*
Y645160D01*
Y625261D02*
X848360Y622101D01*
Y619760D02*
Y622101D01*
X361245Y867745D02*
X361340Y867840D01*
X330200Y876420D02*
X331200D01*
X370840Y889840D02*
Y914400D01*
X345440Y891420D02*
X345440Y891420D01*
Y914400D01*
X265160Y876420D02*
X265485Y876095D01*
Y875016D02*
Y876095D01*
Y875016D02*
X272756Y867745D01*
X295205D01*
X295300Y867840D01*
X264160Y876420D02*
X265160D01*
X304800Y889840D02*
Y914400D01*
X279400Y891420D02*
X279400Y891420D01*
Y914400D01*
X531580Y741200D02*
Y755080D01*
X530240Y756420D02*
Y756920D01*
Y756420D02*
X531580Y755080D01*
Y772640D02*
Y832640D01*
X530240Y847860D02*
X531580Y846520D01*
X530240Y847860D02*
Y848360D01*
D73*
X711200Y635000D02*
D03*
X680720D02*
D03*
X650240D02*
D03*
D74*
X807720Y746760D02*
D03*
X833120D02*
D03*
X807720Y721360D02*
D03*
X833120D02*
D03*
X807720Y695960D02*
D03*
X370840Y914400D02*
D03*
X848360Y619760D02*
D03*
X822960D02*
D03*
X614680Y914400D02*
D03*
X640080D02*
D03*
X665480D02*
D03*
X863600Y721360D02*
D03*
Y746760D02*
D03*
Y772160D02*
D03*
X508000Y619760D02*
D03*
X543560D02*
D03*
X304800Y914400D02*
D03*
X411480D02*
D03*
X436880D02*
D03*
D75*
X833120Y695960D02*
D03*
X863600D02*
D03*
D76*
X725040Y907740D02*
D03*
X804040D02*
D03*
D77*
X345440Y914400D02*
D03*
X797560Y619760D02*
D03*
X690880Y914400D02*
D03*
X482600Y619760D02*
D03*
X568960D02*
D03*
X279400Y914400D02*
D03*
X462280D02*
D03*
D78*
X701040Y614680D02*
D03*
X650240D02*
D03*
X538480Y878840D02*
D03*
X518114Y877211D02*
D03*
X518160Y858520D02*
D03*
X447040D02*
D03*
X457200Y873760D02*
D03*
Y894080D02*
D03*
X477520Y899160D02*
D03*
X538480D02*
D03*
X518160D02*
D03*
X497840D02*
D03*
X487680Y863600D02*
D03*
X498284Y888984D02*
D03*
X492497Y888928D02*
D03*
X487680Y883920D02*
D03*
X483056Y888984D02*
D03*
X477044Y889040D02*
D03*
X472440Y878840D02*
D03*
X492760Y868680D02*
D03*
X482600D02*
D03*
X502920Y878840D02*
D03*
X477520Y873760D02*
D03*
X497840D02*
D03*
X472380Y884489D02*
D03*
X502948D02*
D03*
X670560Y726440D02*
D03*
X645160D02*
D03*
X711200Y751840D02*
D03*
X764073Y754727D02*
D03*
X499076Y702276D02*
D03*
X492508Y706372D02*
D03*
X493562Y697133D02*
D03*
X489298Y690915D02*
D03*
X478349Y731980D02*
D03*
X450354Y742325D02*
D03*
X441960Y731520D02*
D03*
X426720Y741680D02*
D03*
X452120Y817880D02*
D03*
X447040Y802640D02*
D03*
Y782320D02*
D03*
X381000Y685800D02*
D03*
X360680D02*
D03*
X340360D02*
D03*
X452120Y701040D02*
D03*
X304800Y751840D02*
D03*
Y721360D02*
D03*
Y690880D02*
D03*
X284480Y685800D02*
D03*
Y716280D02*
D03*
Y741680D02*
D03*
Y772160D02*
D03*
Y812800D02*
D03*
X294640Y797560D02*
D03*
X309880Y782320D02*
D03*
X325120Y772160D02*
D03*
Y751840D02*
D03*
Y731520D02*
D03*
Y711200D02*
D03*
X345440D02*
D03*
X365760D02*
D03*
X391160D02*
D03*
X416560D02*
D03*
X406400Y731520D02*
D03*
X391160Y746760D02*
D03*
X445031Y759035D02*
D03*
X426720Y762000D02*
D03*
X411480D02*
D03*
X370840Y782320D02*
D03*
X391160D02*
D03*
X411480D02*
D03*
X426720D02*
D03*
Y802640D02*
D03*
X411480D02*
D03*
X391160D02*
D03*
X370840D02*
D03*
X350520D02*
D03*
X328444Y801455D02*
D03*
X327751Y819477D02*
D03*
X313333Y830290D02*
D03*
X312363Y815318D02*
D03*
X297252Y830983D02*
D03*
X292545Y900988D02*
D03*
X292323Y889004D02*
D03*
X320040Y904240D02*
D03*
X314960Y894080D02*
D03*
X327610Y866589D02*
D03*
X421395Y830750D02*
D03*
X408359D02*
D03*
X395475Y831054D02*
D03*
X382894Y830902D02*
D03*
X370161D02*
D03*
X356216Y831357D02*
D03*
X416560Y868680D02*
D03*
X396240D02*
D03*
X386080Y858520D02*
D03*
X406400D02*
D03*
X426720D02*
D03*
X421640Y899160D02*
D03*
X411480Y894080D02*
D03*
X386080D02*
D03*
X391160Y909320D02*
D03*
X360680Y894080D02*
D03*
X325120Y914400D02*
D03*
X264887Y923878D02*
D03*
X264160Y909320D02*
D03*
X284480Y929640D02*
D03*
X325120D02*
D03*
X345440D02*
D03*
X365760D02*
D03*
X304800D02*
D03*
X406400D02*
D03*
X426720D02*
D03*
X447040D02*
D03*
X386080D02*
D03*
X487680D02*
D03*
X508000D02*
D03*
X528320D02*
D03*
X467360D02*
D03*
X548640D02*
D03*
X558800Y914400D02*
D03*
X599440D02*
D03*
X579120D02*
D03*
X609600Y929640D02*
D03*
X589280D02*
D03*
X568960D02*
D03*
Y899160D02*
D03*
X589280D02*
D03*
X609600D02*
D03*
X626408Y926954D02*
D03*
X652884D02*
D03*
X686132Y928364D02*
D03*
X662129Y900845D02*
D03*
X675706Y900724D02*
D03*
X706120Y904240D02*
D03*
X709044Y913574D02*
D03*
X728440Y844838D02*
D03*
X741680Y848360D02*
D03*
X731520Y868680D02*
D03*
X721360D02*
D03*
Y853440D02*
D03*
X711200D02*
D03*
Y868680D02*
D03*
Y883920D02*
D03*
X726440D02*
D03*
X787400Y899160D02*
D03*
X764323Y897814D02*
D03*
X741680Y899160D02*
D03*
X740199Y914786D02*
D03*
X764081Y914907D02*
D03*
X787400Y914400D02*
D03*
X822960Y899160D02*
D03*
Y889000D02*
D03*
X809299Y880963D02*
D03*
X803116Y870174D02*
D03*
X792480Y868680D02*
D03*
X784205Y831624D02*
D03*
X858520Y853440D02*
D03*
X838200Y868680D02*
D03*
X822960D02*
D03*
X833120Y878840D02*
D03*
X841278Y885772D02*
D03*
X848360Y878840D02*
D03*
X858520Y868680D02*
D03*
X868680Y858520D02*
D03*
Y843280D02*
D03*
X873427Y826370D02*
D03*
X873760Y792480D02*
D03*
Y782320D02*
D03*
X863600Y792480D02*
D03*
X853440Y797560D02*
D03*
Y787400D02*
D03*
X817880Y737452D02*
D03*
X819158Y687483D02*
D03*
X820096Y707856D02*
D03*
X792480Y690880D02*
D03*
X777240Y680720D02*
D03*
Y701040D02*
D03*
X792480Y711200D02*
D03*
X787400Y726440D02*
D03*
X782320Y716280D02*
D03*
X767080D02*
D03*
X726440Y695960D02*
D03*
X716280D02*
D03*
X736600Y716280D02*
D03*
X716280D02*
D03*
X695960Y726440D02*
D03*
X619760D02*
D03*
X599440Y843280D02*
D03*
Y817880D02*
D03*
Y802640D02*
D03*
Y782320D02*
D03*
Y756920D02*
D03*
X568960D02*
D03*
X551172Y781589D02*
D03*
X553720Y756920D02*
D03*
X543560D02*
D03*
Y772160D02*
D03*
Y792480D02*
D03*
X563880Y690880D02*
D03*
Y711200D02*
D03*
Y726440D02*
D03*
X543560D02*
D03*
Y711200D02*
D03*
Y690880D02*
D03*
X731520Y670560D02*
D03*
X716280D02*
D03*
X695960D02*
D03*
X660400D02*
D03*
X640080D02*
D03*
X619760D02*
D03*
X599440D02*
D03*
X579120D02*
D03*
X558800D02*
D03*
X538480D02*
D03*
X518160D02*
D03*
X513080Y685800D02*
D03*
X868680Y680720D02*
D03*
X858520Y675640D02*
D03*
X848360Y670560D02*
D03*
X838200D02*
D03*
X828040D02*
D03*
X817880D02*
D03*
X807720D02*
D03*
X868680Y640080D02*
D03*
X883920Y650240D02*
D03*
X878840Y624840D02*
D03*
X863600Y609600D02*
D03*
X834481Y608649D02*
D03*
X811726Y609123D02*
D03*
X833120Y635000D02*
D03*
X822960Y640080D02*
D03*
X807720D02*
D03*
X782320D02*
D03*
Y624840D02*
D03*
Y609600D02*
D03*
X751840D02*
D03*
X767080D02*
D03*
Y624840D02*
D03*
Y640080D02*
D03*
X751840Y624840D02*
D03*
X736600Y609600D02*
D03*
X751840Y655320D02*
D03*
X741680Y640080D02*
D03*
X731520Y629920D02*
D03*
X716280Y614680D02*
D03*
X685800D02*
D03*
X669269Y614101D02*
D03*
X523240Y635000D02*
D03*
X543560D02*
D03*
X563880D02*
D03*
X584200D02*
D03*
X604520D02*
D03*
X629920Y640080D02*
D03*
X614680D02*
D03*
X594360D02*
D03*
X574040D02*
D03*
X553720D02*
D03*
X533400D02*
D03*
X513080D02*
D03*
X497840Y635000D02*
D03*
X391375Y628142D02*
D03*
X381000Y640080D02*
D03*
X350520Y635000D02*
D03*
X340360Y624840D02*
D03*
X330815Y636982D02*
D03*
X320040Y614680D02*
D03*
X299720D02*
D03*
X279400D02*
D03*
X259080Y640080D02*
D03*
X307171Y638578D02*
D03*
X292052Y637684D02*
D03*
X467360Y619760D02*
D03*
X457200Y614680D02*
D03*
X553720Y858520D02*
D03*
X533400D02*
D03*
X472440Y853440D02*
D03*
X497840Y787400D02*
D03*
X508000Y802640D02*
D03*
X497840D02*
D03*
X518160Y817880D02*
D03*
X497840D02*
D03*
X508000D02*
D03*
X767184Y851776D02*
D03*
X843280Y802640D02*
D03*
X848360Y772160D02*
D03*
Y751840D02*
D03*
X797560Y670560D02*
D03*
X340360Y833120D02*
D03*
X436395Y828525D02*
D03*
X548640Y843280D02*
D03*
X543308Y837948D02*
D03*
X553720Y807720D02*
D03*
X792480Y768270D02*
D03*
X553720Y800180D02*
D03*
X818268Y772548D02*
D03*
X325120Y833120D02*
D03*
X462280Y675640D02*
D03*
X492760Y670560D02*
D03*
X498092Y665228D02*
D03*
X502920Y671052D02*
D03*
X493560Y645160D02*
D03*
X508000Y711200D02*
D03*
X502668Y716532D02*
D03*
X441960Y685800D02*
D03*
X452120D02*
D03*
X833120Y833120D02*
D03*
X868680D02*
D03*
X741680Y863600D02*
D03*
X843280Y812800D02*
D03*
X883920Y802640D02*
D03*
X416560Y680720D02*
D03*
X401320D02*
D03*
X470031Y655077D02*
D03*
X401320Y645160D02*
D03*
X416560Y655320D02*
D03*
X330200Y787400D02*
D03*
Y899160D02*
D03*
X264160Y863600D02*
D03*
Y899160D02*
D03*
X299720Y655320D02*
D03*
X812800Y868680D02*
D03*
D79*
X751840Y670560D02*
D03*
X269240Y655320D02*
D03*
M02*
