G04*
G04 #@! TF.GenerationSoftware,Altium Limited,Altium Designer,21.4.1 (30)*
G04*
G04 Layer_Color=16711935*
%FSLAX44Y44*%
%MOMM*%
G71*
G04*
G04 #@! TF.SameCoordinates,C0E257CA-E608-45CC-978B-2DEEB779FBD1*
G04*
G04*
G04 #@! TF.FilePolarity,Negative*
G04*
G01*
G75*
%ADD64O,2.7032X2.2032*%
%ADD65C,1.7032*%
%ADD66R,1.7032X1.7032*%
%ADD67C,2.3482*%
%ADD68R,1.7032X1.7032*%
D64*
X711200Y635000D02*
D03*
X680720D02*
D03*
X650240D02*
D03*
D65*
X807720Y746760D02*
D03*
X833120D02*
D03*
X807720Y721360D02*
D03*
X833120D02*
D03*
X807720Y695960D02*
D03*
X370840Y914400D02*
D03*
X848360Y619760D02*
D03*
X822960D02*
D03*
X614680Y914400D02*
D03*
X640080D02*
D03*
X665480D02*
D03*
X863600Y721360D02*
D03*
Y746760D02*
D03*
Y772160D02*
D03*
X508000Y619760D02*
D03*
X543560D02*
D03*
X304800Y914400D02*
D03*
X411480D02*
D03*
X436880D02*
D03*
D66*
X833120Y695960D02*
D03*
X863600D02*
D03*
D67*
X725040Y907740D02*
D03*
X804040D02*
D03*
D68*
X345440Y914400D02*
D03*
X797560Y619760D02*
D03*
X690880Y914400D02*
D03*
X482600Y619760D02*
D03*
X568960D02*
D03*
X279400Y914400D02*
D03*
X462280D02*
D03*
M02*
